%TF.GenerationSoftware,KiCad,Pcbnew,8.0.9*%
%TF.CreationDate,2026-09-22T08:41:33-04:00*%
%TF.ProjectId,harmony-mark6-carrier,6861726d-6f6e-4792-9d6d-61726b362d63,rev?*%
%TF.SameCoordinates,Original*%
%TF.FileFunction,Copper,L3,Inr*%
%TF.FilePolarity,Positive*%
%FSLAX46Y46*%
G04 Gerber Fmt 4.6, Leading zero omitted, Abs format (unit mm)*
G04 Created by KiCad (PCBNEW 8.0.9) date 2026-09-22 08:41:33*
%MOMM*%
%LPD*%
G01*
G04 APERTURE LIST*
%TA.AperFunction,ComponentPad*%
%ADD10C,0.600000*%
%TD*%
%TA.AperFunction,ComponentPad*%
%ADD11R,1.700000X1.700000*%
%TD*%
%TA.AperFunction,ComponentPad*%
%ADD12O,1.700000X1.700000*%
%TD*%
%TA.AperFunction,ViaPad*%
%ADD13C,0.600000*%
%TD*%
%TA.AperFunction,Conductor*%
%ADD14C,0.500000*%
%TD*%
%TA.AperFunction,Conductor*%
%ADD15C,0.200000*%
%TD*%
G04 APERTURE END LIST*
D10*
%TO.N,GND*%
%TO.C,U1*%
X52000000Y-71500000D03*
X52000000Y-72500000D03*
%TD*%
D11*
%TO.N,N/C*%
%TO.C,J2*%
X22010000Y-152000000D03*
D12*
X24550000Y-152000000D03*
%TO.N,USB_5V*%
X27090000Y-152000000D03*
%TO.N,N/C*%
X29630000Y-152000000D03*
X32170000Y-152000000D03*
%TO.N,TFT_MOSI_MCU*%
X34710000Y-152000000D03*
%TO.N,TFT_DC_MCU*%
X37250000Y-152000000D03*
%TO.N,N/C*%
X39790000Y-152000000D03*
%TO.N,TFT_RST_MCU*%
X42330000Y-152000000D03*
%TO.N,TFT_SCK_MCU*%
X44870000Y-152000000D03*
%TO.N,I2C_SCL*%
X47410000Y-152000000D03*
%TO.N,I2C_SDA*%
X49950000Y-152000000D03*
%TD*%
D11*
%TO.N,N/C*%
%TO.C,J1*%
X49950000Y-172320000D03*
D12*
X47410000Y-172320000D03*
X44870000Y-172320000D03*
%TO.N,SD_MISO_MCU*%
X42330000Y-172320000D03*
%TO.N,SD_MOSI_MCU*%
X39790000Y-172320000D03*
%TO.N,SD_SCK_MCU*%
X37250000Y-172320000D03*
%TO.N,TFT_LITE_MCU*%
X34710000Y-172320000D03*
%TO.N,N/C*%
X32170000Y-172320000D03*
X29630000Y-172320000D03*
%TO.N,PERIPH_PG*%
X27090000Y-172320000D03*
%TO.N,SD_CS_MCU*%
X24550000Y-172320000D03*
%TO.N,TFT_CS_MCU*%
X22010000Y-172320000D03*
%TO.N,GND*%
X19470000Y-172320000D03*
%TO.N,N/C*%
X16930000Y-172320000D03*
%TO.N,MCU_3V3*%
X14390000Y-172320000D03*
%TO.N,N/C*%
X11850000Y-172320000D03*
%TD*%
D13*
%TO.N,GND*%
X40393600Y-112022900D03*
X58950000Y-36000000D03*
X50000000Y-69025000D03*
X62950000Y-57000000D03*
X57136700Y-57830800D03*
X62950000Y-61000000D03*
X35332500Y-105676800D03*
X60150000Y-53600800D03*
X62950000Y-36000000D03*
X62475000Y-76000000D03*
X49835400Y-50427100D03*
%TO.N,I2C_SCL*%
X31308200Y-136990200D03*
%TO.N,I2C_SDA*%
X33500000Y-134800600D03*
%TO.N,MCU_3V3*%
X22410300Y-129431100D03*
X44620300Y-112973000D03*
%TO.N,PERIPH_3V3*%
X59800000Y-57000000D03*
X59000000Y-54900000D03*
%TO.N,PERIPH_PG*%
X52950000Y-70622400D03*
X51382700Y-79951400D03*
%TO.N,SD_CS*%
X49825000Y-25000000D03*
X51704400Y-20729200D03*
X24825000Y-158000000D03*
X50604700Y-25725000D03*
%TO.N,SD_CS_MCU*%
X23896900Y-168684300D03*
%TO.N,SD_DAT2*%
X55255700Y-27190900D03*
X50776100Y-30919600D03*
%TO.N,SD_MISO*%
X47445800Y-29059600D03*
X54378700Y-28130000D03*
%TO.N,SD_MISO_MCU*%
X48175000Y-48497000D03*
%TO.N,SD_MOSI*%
X24825000Y-159993200D03*
X41989000Y-92430800D03*
%TO.N,SD_MOSI_MCU*%
X23175000Y-161978300D03*
%TO.N,SD_SCK*%
X52138800Y-25823900D03*
X25938500Y-108816100D03*
%TO.N,SD_SCK_MCU*%
X23175000Y-165077900D03*
%TO.N,TFT_CS*%
X27829000Y-100944300D03*
X42723300Y-91668000D03*
%TO.N,TFT_CS_MCU*%
X18851400Y-158819300D03*
%TO.N,TFT_DC*%
X55278500Y-55430400D03*
X26825000Y-106652600D03*
%TO.N,TFT_DC_MCU*%
X25175000Y-144228500D03*
%TO.N,TFT_LITE*%
X57750000Y-59517300D03*
X22825000Y-137038300D03*
%TO.N,TFT_LITE_MCU*%
X19511200Y-149857700D03*
%TO.N,TFT_MOSI*%
X30441200Y-139111100D03*
X56673400Y-63390300D03*
%TO.N,TFT_RST*%
X23701800Y-102562300D03*
X49214300Y-58932400D03*
%TO.N,TFT_RST_MCU*%
X21404400Y-147429600D03*
%TO.N,TFT_SCK*%
X56750000Y-52174100D03*
X30453300Y-144445400D03*
%TO.N,TFT_SCK_MCU*%
X29175000Y-147256300D03*
%TO.N,USB_5V*%
X46109900Y-114321400D03*
%TD*%
D14*
%TO.N,PERIPH_3V3*%
X59000000Y-56200000D02*
X59800000Y-57000000D01*
X59000000Y-54900000D02*
X59000000Y-56200000D01*
D15*
%TO.N,SD_CS*%
X31300000Y-149000000D02*
X31300000Y-137800000D01*
X34000000Y-137800000D02*
X43800000Y-128000000D01*
X43800000Y-31025000D02*
X49825000Y-25000000D01*
X31300000Y-137800000D02*
X34000000Y-137800000D01*
X25820000Y-157005000D02*
X25820000Y-149000000D01*
X25820000Y-149000000D02*
X31300000Y-149000000D01*
X24825000Y-158000000D02*
X25820000Y-157005000D01*
X43800000Y-128000000D02*
X43800000Y-31025000D01*
%TD*%
%TA.AperFunction,Conductor*%
%TO.N,GND*%
G36*
X69858691Y-6319407D02*
G01*
X69894655Y-6368907D01*
X69899500Y-6399500D01*
X69899500Y-138100500D01*
X69880593Y-138158691D01*
X69831093Y-138194655D01*
X69800500Y-138199500D01*
X34335189Y-138199500D01*
X34276998Y-138180593D01*
X34241034Y-138131093D01*
X34241034Y-138069907D01*
X34265183Y-138030498D01*
X36401647Y-135894034D01*
X53179500Y-135894034D01*
X53179500Y-136145965D01*
X53218908Y-136394780D01*
X53296759Y-136634379D01*
X53404834Y-136846490D01*
X53411130Y-136858845D01*
X53559207Y-137062656D01*
X53737344Y-137240793D01*
X53941155Y-137388870D01*
X54165621Y-137503241D01*
X54405215Y-137581090D01*
X54405216Y-137581090D01*
X54405219Y-137581091D01*
X54654035Y-137620500D01*
X54654038Y-137620500D01*
X54905965Y-137620500D01*
X55154780Y-137581091D01*
X55154781Y-137581090D01*
X55154785Y-137581090D01*
X55394379Y-137503241D01*
X55618845Y-137388870D01*
X55822656Y-137240793D01*
X56000793Y-137062656D01*
X56148870Y-136858845D01*
X56263241Y-136634379D01*
X56341090Y-136394785D01*
X56380500Y-136145962D01*
X56380500Y-135894038D01*
X56380500Y-135894034D01*
X56341091Y-135645219D01*
X56341090Y-135645215D01*
X56263241Y-135405621D01*
X56148870Y-135181155D01*
X56000793Y-134977344D01*
X55822656Y-134799207D01*
X55618845Y-134651130D01*
X55618844Y-134651129D01*
X55618842Y-134651128D01*
X55394379Y-134536759D01*
X55154780Y-134458908D01*
X54905965Y-134419500D01*
X54905962Y-134419500D01*
X54654038Y-134419500D01*
X54654035Y-134419500D01*
X54405219Y-134458908D01*
X54165620Y-134536759D01*
X53941157Y-134651128D01*
X53737345Y-134799206D01*
X53559206Y-134977345D01*
X53411128Y-135181157D01*
X53296759Y-135405620D01*
X53218908Y-135645219D01*
X53179500Y-135894034D01*
X36401647Y-135894034D01*
X44080470Y-128215212D01*
X44126614Y-128135288D01*
X44150500Y-128046144D01*
X44150500Y-114321399D01*
X45554650Y-114321399D01*
X45554650Y-114321400D01*
X45573569Y-114465108D01*
X45573570Y-114465109D01*
X45629039Y-114599025D01*
X45717279Y-114714021D01*
X45832275Y-114802261D01*
X45966191Y-114857730D01*
X46109900Y-114876650D01*
X46253609Y-114857730D01*
X46387525Y-114802261D01*
X46502521Y-114714021D01*
X46590761Y-114599025D01*
X46646230Y-114465109D01*
X46665150Y-114321400D01*
X46646230Y-114177691D01*
X46590761Y-114043775D01*
X46502521Y-113928779D01*
X46387525Y-113840539D01*
X46387521Y-113840537D01*
X46253609Y-113785070D01*
X46253608Y-113785069D01*
X46109900Y-113766150D01*
X45966191Y-113785069D01*
X45966190Y-113785070D01*
X45832278Y-113840537D01*
X45832274Y-113840539D01*
X45717281Y-113928777D01*
X45717277Y-113928781D01*
X45629039Y-114043774D01*
X45629037Y-114043778D01*
X45573570Y-114177690D01*
X45573569Y-114177691D01*
X45554650Y-114321399D01*
X44150500Y-114321399D01*
X44150500Y-113507152D01*
X44169407Y-113448961D01*
X44218907Y-113412997D01*
X44280093Y-113412997D01*
X44309766Y-113428609D01*
X44342675Y-113453861D01*
X44476591Y-113509330D01*
X44620300Y-113528250D01*
X44764009Y-113509330D01*
X44897925Y-113453861D01*
X45012921Y-113365621D01*
X45101161Y-113250625D01*
X45156630Y-113116709D01*
X45175550Y-112973000D01*
X45156630Y-112829291D01*
X45101161Y-112695375D01*
X45012921Y-112580379D01*
X44897925Y-112492139D01*
X44897921Y-112492137D01*
X44764009Y-112436670D01*
X44764008Y-112436669D01*
X44620300Y-112417750D01*
X44476591Y-112436669D01*
X44476590Y-112436670D01*
X44342678Y-112492137D01*
X44342675Y-112492139D01*
X44309767Y-112517390D01*
X44252090Y-112537813D01*
X44193425Y-112520435D01*
X44156178Y-112471893D01*
X44150500Y-112438847D01*
X44150500Y-105414034D01*
X53179500Y-105414034D01*
X53179500Y-105665965D01*
X53218908Y-105914780D01*
X53296759Y-106154379D01*
X53409159Y-106374978D01*
X53411130Y-106378845D01*
X53559207Y-106582656D01*
X53737344Y-106760793D01*
X53941155Y-106908870D01*
X54165621Y-107023241D01*
X54405215Y-107101090D01*
X54405216Y-107101090D01*
X54405219Y-107101091D01*
X54654035Y-107140500D01*
X54654038Y-107140500D01*
X54905965Y-107140500D01*
X55154780Y-107101091D01*
X55154781Y-107101090D01*
X55154785Y-107101090D01*
X55394379Y-107023241D01*
X55618845Y-106908870D01*
X55822656Y-106760793D01*
X56000793Y-106582656D01*
X56148870Y-106378845D01*
X56263241Y-106154379D01*
X56341090Y-105914785D01*
X56380500Y-105665962D01*
X56380500Y-105414038D01*
X56380500Y-105414034D01*
X56341091Y-105165219D01*
X56341090Y-105165215D01*
X56263241Y-104925621D01*
X56148870Y-104701155D01*
X56000793Y-104497344D01*
X55822656Y-104319207D01*
X55618845Y-104171130D01*
X55618844Y-104171129D01*
X55618842Y-104171128D01*
X55394379Y-104056759D01*
X55154780Y-103978908D01*
X54905965Y-103939500D01*
X54905962Y-103939500D01*
X54654038Y-103939500D01*
X54654035Y-103939500D01*
X54405219Y-103978908D01*
X54165620Y-104056759D01*
X53941157Y-104171128D01*
X53737345Y-104319206D01*
X53559206Y-104497345D01*
X53411128Y-104701157D01*
X53296759Y-104925620D01*
X53218908Y-105165219D01*
X53179500Y-105414034D01*
X44150500Y-105414034D01*
X44150500Y-89874034D01*
X64399500Y-89874034D01*
X64399500Y-90125965D01*
X64438908Y-90374780D01*
X64438910Y-90374785D01*
X64516759Y-90614379D01*
X64631130Y-90838845D01*
X64779207Y-91042656D01*
X64957344Y-91220793D01*
X65161155Y-91368870D01*
X65385621Y-91483241D01*
X65625215Y-91561090D01*
X65625216Y-91561090D01*
X65625219Y-91561091D01*
X65874035Y-91600500D01*
X65874038Y-91600500D01*
X66125965Y-91600500D01*
X66374780Y-91561091D01*
X66374781Y-91561090D01*
X66374785Y-91561090D01*
X66614379Y-91483241D01*
X66838845Y-91368870D01*
X67042656Y-91220793D01*
X67220793Y-91042656D01*
X67368870Y-90838845D01*
X67483241Y-90614379D01*
X67561090Y-90374785D01*
X67600500Y-90125962D01*
X67600500Y-89874038D01*
X67600500Y-89874034D01*
X67561091Y-89625219D01*
X67561090Y-89625215D01*
X67483241Y-89385621D01*
X67368870Y-89161155D01*
X67220793Y-88957344D01*
X67042656Y-88779207D01*
X66838845Y-88631130D01*
X66838844Y-88631129D01*
X66838842Y-88631128D01*
X66614379Y-88516759D01*
X66374780Y-88438908D01*
X66125965Y-88399500D01*
X66125962Y-88399500D01*
X65874038Y-88399500D01*
X65874035Y-88399500D01*
X65625219Y-88438908D01*
X65385620Y-88516759D01*
X65161157Y-88631128D01*
X64957345Y-88779206D01*
X64779206Y-88957345D01*
X64631128Y-89161157D01*
X64516759Y-89385620D01*
X64438908Y-89625219D01*
X64399500Y-89874034D01*
X44150500Y-89874034D01*
X44150500Y-79951399D01*
X50827450Y-79951399D01*
X50827450Y-79951400D01*
X50846369Y-80095108D01*
X50846370Y-80095109D01*
X50901839Y-80229025D01*
X50990079Y-80344021D01*
X51105075Y-80432261D01*
X51238991Y-80487730D01*
X51382700Y-80506650D01*
X51526409Y-80487730D01*
X51660325Y-80432261D01*
X51775321Y-80344021D01*
X51863561Y-80229025D01*
X51919030Y-80095109D01*
X51937950Y-79951400D01*
X51919030Y-79807691D01*
X51863561Y-79673775D01*
X51775321Y-79558779D01*
X51660325Y-79470539D01*
X51660321Y-79470537D01*
X51526409Y-79415070D01*
X51526408Y-79415069D01*
X51382700Y-79396150D01*
X51238991Y-79415069D01*
X51238990Y-79415070D01*
X51105078Y-79470537D01*
X51105074Y-79470539D01*
X50990081Y-79558777D01*
X50990077Y-79558781D01*
X50901839Y-79673774D01*
X50901837Y-79673778D01*
X50846370Y-79807690D01*
X50846369Y-79807691D01*
X50827450Y-79951399D01*
X44150500Y-79951399D01*
X44150500Y-70622399D01*
X52394750Y-70622399D01*
X52394750Y-70622400D01*
X52413669Y-70766108D01*
X52413670Y-70766109D01*
X52469139Y-70900025D01*
X52557379Y-71015021D01*
X52672375Y-71103261D01*
X52806291Y-71158730D01*
X52950000Y-71177650D01*
X53093709Y-71158730D01*
X53227625Y-71103261D01*
X53342621Y-71015021D01*
X53430861Y-70900025D01*
X53486330Y-70766109D01*
X53505250Y-70622400D01*
X53486330Y-70478691D01*
X53430861Y-70344775D01*
X53342621Y-70229779D01*
X53227625Y-70141539D01*
X53227621Y-70141537D01*
X53093709Y-70086070D01*
X53093708Y-70086069D01*
X52950000Y-70067150D01*
X52806291Y-70086069D01*
X52806290Y-70086070D01*
X52672378Y-70141537D01*
X52672374Y-70141539D01*
X52557381Y-70229777D01*
X52557377Y-70229781D01*
X52469139Y-70344774D01*
X52469137Y-70344778D01*
X52413670Y-70478690D01*
X52413669Y-70478691D01*
X52394750Y-70622399D01*
X44150500Y-70622399D01*
X44150500Y-63390299D01*
X56118150Y-63390299D01*
X56118150Y-63390300D01*
X56137069Y-63534008D01*
X56137070Y-63534009D01*
X56192539Y-63667925D01*
X56280779Y-63782921D01*
X56395775Y-63871161D01*
X56529691Y-63926630D01*
X56673400Y-63945550D01*
X56817109Y-63926630D01*
X56951025Y-63871161D01*
X57066021Y-63782921D01*
X57154261Y-63667925D01*
X57209730Y-63534009D01*
X57228650Y-63390300D01*
X57209730Y-63246591D01*
X57154261Y-63112675D01*
X57066021Y-62997679D01*
X56951025Y-62909439D01*
X56951021Y-62909437D01*
X56817109Y-62853970D01*
X56817108Y-62853969D01*
X56673400Y-62835050D01*
X56529691Y-62853969D01*
X56529690Y-62853970D01*
X56395778Y-62909437D01*
X56395774Y-62909439D01*
X56280781Y-62997677D01*
X56280777Y-62997681D01*
X56192539Y-63112674D01*
X56192537Y-63112678D01*
X56137070Y-63246590D01*
X56137069Y-63246591D01*
X56118150Y-63390299D01*
X44150500Y-63390299D01*
X44150500Y-59517299D01*
X57194750Y-59517299D01*
X57194750Y-59517300D01*
X57213669Y-59661008D01*
X57213670Y-59661009D01*
X57269139Y-59794925D01*
X57357379Y-59909921D01*
X57472375Y-59998161D01*
X57606291Y-60053630D01*
X57750000Y-60072550D01*
X57893709Y-60053630D01*
X58027625Y-59998161D01*
X58142621Y-59909921D01*
X58230861Y-59794925D01*
X58286330Y-59661009D01*
X58305250Y-59517300D01*
X58301346Y-59487650D01*
X58286330Y-59373591D01*
X58230861Y-59239675D01*
X58142621Y-59124679D01*
X58027625Y-59036439D01*
X58027621Y-59036437D01*
X57893709Y-58980970D01*
X57893708Y-58980969D01*
X57750000Y-58962050D01*
X57606291Y-58980969D01*
X57606290Y-58980970D01*
X57472378Y-59036437D01*
X57472374Y-59036439D01*
X57357381Y-59124677D01*
X57357377Y-59124681D01*
X57269139Y-59239674D01*
X57269137Y-59239678D01*
X57213670Y-59373590D01*
X57213669Y-59373591D01*
X57194750Y-59517299D01*
X44150500Y-59517299D01*
X44150500Y-58932399D01*
X48659050Y-58932399D01*
X48659050Y-58932400D01*
X48677969Y-59076108D01*
X48677970Y-59076109D01*
X48733439Y-59210025D01*
X48821679Y-59325021D01*
X48936675Y-59413261D01*
X49070591Y-59468730D01*
X49214300Y-59487650D01*
X49358009Y-59468730D01*
X49491925Y-59413261D01*
X49606921Y-59325021D01*
X49695161Y-59210025D01*
X49750630Y-59076109D01*
X49769550Y-58932400D01*
X49750630Y-58788691D01*
X49695161Y-58654775D01*
X49606921Y-58539779D01*
X49491925Y-58451539D01*
X49491921Y-58451537D01*
X49358009Y-58396070D01*
X49358008Y-58396069D01*
X49214300Y-58377150D01*
X49070591Y-58396069D01*
X49070590Y-58396070D01*
X48936678Y-58451537D01*
X48936674Y-58451539D01*
X48821681Y-58539777D01*
X48821677Y-58539781D01*
X48733439Y-58654774D01*
X48733437Y-58654778D01*
X48677970Y-58788690D01*
X48677969Y-58788691D01*
X48659050Y-58932399D01*
X44150500Y-58932399D01*
X44150500Y-55430399D01*
X54723250Y-55430399D01*
X54723250Y-55430400D01*
X54742169Y-55574108D01*
X54742170Y-55574109D01*
X54797639Y-55708025D01*
X54885879Y-55823021D01*
X55000875Y-55911261D01*
X55134791Y-55966730D01*
X55278500Y-55985650D01*
X55422209Y-55966730D01*
X55556125Y-55911261D01*
X55671121Y-55823021D01*
X55759361Y-55708025D01*
X55814830Y-55574109D01*
X55833750Y-55430400D01*
X55814830Y-55286691D01*
X55759361Y-55152775D01*
X55671121Y-55037779D01*
X55556125Y-54949539D01*
X55556121Y-54949537D01*
X55436523Y-54899999D01*
X58444750Y-54899999D01*
X58444750Y-54900000D01*
X58462889Y-55037781D01*
X58463670Y-55043709D01*
X58491964Y-55112018D01*
X58499500Y-55149902D01*
X58499500Y-56134108D01*
X58499500Y-56265892D01*
X58529579Y-56378151D01*
X58533609Y-56393190D01*
X58599496Y-56507309D01*
X58599497Y-56507310D01*
X58599498Y-56507311D01*
X58599500Y-56507314D01*
X58948476Y-56856290D01*
X59269385Y-57177199D01*
X59290845Y-57209317D01*
X59319138Y-57277624D01*
X59319139Y-57277625D01*
X59407379Y-57392621D01*
X59522375Y-57480861D01*
X59656291Y-57536330D01*
X59800000Y-57555250D01*
X59943709Y-57536330D01*
X60077625Y-57480861D01*
X60192621Y-57392621D01*
X60280861Y-57277625D01*
X60336330Y-57143709D01*
X60355250Y-57000000D01*
X60336330Y-56856291D01*
X60280861Y-56722375D01*
X60192621Y-56607379D01*
X60077625Y-56519139D01*
X60077624Y-56519138D01*
X60009317Y-56490845D01*
X59977199Y-56469385D01*
X59529496Y-56021682D01*
X59501719Y-55967165D01*
X59500500Y-55951678D01*
X59500500Y-55149902D01*
X59508035Y-55112018D01*
X59536330Y-55043709D01*
X59555250Y-54900000D01*
X59536330Y-54756291D01*
X59480861Y-54622375D01*
X59392621Y-54507379D01*
X59277625Y-54419139D01*
X59277621Y-54419137D01*
X59143709Y-54363670D01*
X59143708Y-54363669D01*
X59000000Y-54344750D01*
X58856291Y-54363669D01*
X58856290Y-54363670D01*
X58722378Y-54419137D01*
X58722374Y-54419139D01*
X58607381Y-54507377D01*
X58607377Y-54507381D01*
X58519139Y-54622374D01*
X58519137Y-54622378D01*
X58463670Y-54756290D01*
X58463669Y-54756291D01*
X58444750Y-54899999D01*
X55436523Y-54899999D01*
X55422209Y-54894070D01*
X55422208Y-54894069D01*
X55278500Y-54875150D01*
X55134791Y-54894069D01*
X55134790Y-54894070D01*
X55000878Y-54949537D01*
X55000874Y-54949539D01*
X54885881Y-55037777D01*
X54885877Y-55037781D01*
X54797639Y-55152774D01*
X54797637Y-55152778D01*
X54742170Y-55286690D01*
X54742169Y-55286691D01*
X54723250Y-55430399D01*
X44150500Y-55430399D01*
X44150500Y-52174099D01*
X56194750Y-52174099D01*
X56194750Y-52174100D01*
X56213669Y-52317808D01*
X56213670Y-52317809D01*
X56269139Y-52451725D01*
X56357379Y-52566721D01*
X56472375Y-52654961D01*
X56606291Y-52710430D01*
X56750000Y-52729350D01*
X56893709Y-52710430D01*
X57027625Y-52654961D01*
X57142621Y-52566721D01*
X57230861Y-52451725D01*
X57286330Y-52317809D01*
X57305250Y-52174100D01*
X57286330Y-52030391D01*
X57230861Y-51896475D01*
X57142621Y-51781479D01*
X57027625Y-51693239D01*
X57027621Y-51693237D01*
X56893709Y-51637770D01*
X56893708Y-51637769D01*
X56750000Y-51618850D01*
X56606291Y-51637769D01*
X56606290Y-51637770D01*
X56472378Y-51693237D01*
X56472374Y-51693239D01*
X56357381Y-51781477D01*
X56357377Y-51781481D01*
X56269139Y-51896474D01*
X56269137Y-51896478D01*
X56213670Y-52030390D01*
X56213669Y-52030391D01*
X56194750Y-52174099D01*
X44150500Y-52174099D01*
X44150500Y-48496999D01*
X47619750Y-48496999D01*
X47619750Y-48497000D01*
X47638669Y-48640708D01*
X47638670Y-48640709D01*
X47694139Y-48774625D01*
X47782379Y-48889621D01*
X47897375Y-48977861D01*
X48031291Y-49033330D01*
X48175000Y-49052250D01*
X48318709Y-49033330D01*
X48452625Y-48977861D01*
X48567621Y-48889621D01*
X48655861Y-48774625D01*
X48711330Y-48640709D01*
X48730250Y-48497000D01*
X48711330Y-48353291D01*
X48655861Y-48219375D01*
X48567621Y-48104379D01*
X48452625Y-48016139D01*
X48452621Y-48016137D01*
X48318709Y-47960670D01*
X48318708Y-47960669D01*
X48175000Y-47941750D01*
X48031291Y-47960669D01*
X48031290Y-47960670D01*
X47897378Y-48016137D01*
X47897374Y-48016139D01*
X47782381Y-48104377D01*
X47782377Y-48104381D01*
X47694139Y-48219374D01*
X47694137Y-48219378D01*
X47638670Y-48353290D01*
X47638669Y-48353291D01*
X47619750Y-48496999D01*
X44150500Y-48496999D01*
X44150500Y-31211189D01*
X44169407Y-31152998D01*
X44179490Y-31141191D01*
X44401082Y-30919599D01*
X50220850Y-30919599D01*
X50220850Y-30919600D01*
X50239769Y-31063308D01*
X50239770Y-31063309D01*
X50284037Y-31170182D01*
X50295239Y-31197225D01*
X50383479Y-31312221D01*
X50498475Y-31400461D01*
X50632391Y-31455930D01*
X50776100Y-31474850D01*
X50919809Y-31455930D01*
X51053725Y-31400461D01*
X51168721Y-31312221D01*
X51256961Y-31197225D01*
X51312430Y-31063309D01*
X51331350Y-30919600D01*
X51312430Y-30775891D01*
X51256961Y-30641975D01*
X51168721Y-30526979D01*
X51053725Y-30438739D01*
X51053721Y-30438737D01*
X50919809Y-30383270D01*
X50919808Y-30383269D01*
X50776100Y-30364350D01*
X50632391Y-30383269D01*
X50632390Y-30383270D01*
X50498478Y-30438737D01*
X50498474Y-30438739D01*
X50383481Y-30526977D01*
X50383477Y-30526981D01*
X50295239Y-30641974D01*
X50295237Y-30641978D01*
X50239770Y-30775890D01*
X50239769Y-30775891D01*
X50220850Y-30919599D01*
X44401082Y-30919599D01*
X46261082Y-29059599D01*
X46890550Y-29059599D01*
X46890550Y-29059600D01*
X46909469Y-29203308D01*
X46909470Y-29203309D01*
X46964939Y-29337225D01*
X47053179Y-29452221D01*
X47168175Y-29540461D01*
X47302091Y-29595930D01*
X47445800Y-29614850D01*
X47589509Y-29595930D01*
X47723425Y-29540461D01*
X47838421Y-29452221D01*
X47926661Y-29337225D01*
X47982130Y-29203309D01*
X48001050Y-29059600D01*
X47982130Y-28915891D01*
X47926661Y-28781975D01*
X47838421Y-28666979D01*
X47723425Y-28578739D01*
X47723421Y-28578737D01*
X47589509Y-28523270D01*
X47589508Y-28523269D01*
X47445800Y-28504350D01*
X47302091Y-28523269D01*
X47302090Y-28523270D01*
X47168178Y-28578737D01*
X47168174Y-28578739D01*
X47053181Y-28666977D01*
X47053177Y-28666981D01*
X46964939Y-28781974D01*
X46964937Y-28781978D01*
X46909470Y-28915890D01*
X46909469Y-28915891D01*
X46890550Y-29059599D01*
X46261082Y-29059599D01*
X47190682Y-28129999D01*
X53823450Y-28129999D01*
X53823450Y-28130000D01*
X53842369Y-28273708D01*
X53842370Y-28273709D01*
X53897839Y-28407625D01*
X53986079Y-28522621D01*
X54101075Y-28610861D01*
X54234991Y-28666330D01*
X54378700Y-28685250D01*
X54522409Y-28666330D01*
X54656325Y-28610861D01*
X54771321Y-28522621D01*
X54859561Y-28407625D01*
X54915030Y-28273709D01*
X54933950Y-28130000D01*
X54915030Y-27986291D01*
X54859561Y-27852375D01*
X54810611Y-27788583D01*
X54790188Y-27730908D01*
X54807565Y-27672242D01*
X54856107Y-27634995D01*
X54917271Y-27633393D01*
X54949422Y-27649775D01*
X54978069Y-27671757D01*
X54978071Y-27671758D01*
X54978075Y-27671761D01*
X55111991Y-27727230D01*
X55255700Y-27746150D01*
X55399409Y-27727230D01*
X55533325Y-27671761D01*
X55648321Y-27583521D01*
X55736561Y-27468525D01*
X55792030Y-27334609D01*
X55810950Y-27190900D01*
X55792030Y-27047191D01*
X55736561Y-26913275D01*
X55648321Y-26798279D01*
X55533325Y-26710039D01*
X55533321Y-26710037D01*
X55399409Y-26654570D01*
X55399408Y-26654569D01*
X55255700Y-26635650D01*
X55111991Y-26654569D01*
X55111990Y-26654570D01*
X54978078Y-26710037D01*
X54978074Y-26710039D01*
X54863081Y-26798277D01*
X54863077Y-26798281D01*
X54774839Y-26913274D01*
X54774837Y-26913278D01*
X54719370Y-27047190D01*
X54719369Y-27047191D01*
X54700450Y-27190899D01*
X54700450Y-27190900D01*
X54719369Y-27334608D01*
X54719370Y-27334609D01*
X54774839Y-27468525D01*
X54774841Y-27468528D01*
X54774842Y-27468529D01*
X54823787Y-27532316D01*
X54844211Y-27589991D01*
X54826833Y-27648657D01*
X54778292Y-27685905D01*
X54717127Y-27687506D01*
X54684978Y-27671125D01*
X54656325Y-27649139D01*
X54656321Y-27649137D01*
X54522409Y-27593670D01*
X54522408Y-27593669D01*
X54378700Y-27574750D01*
X54234991Y-27593669D01*
X54234990Y-27593670D01*
X54101078Y-27649137D01*
X54101074Y-27649139D01*
X53986081Y-27737377D01*
X53986077Y-27737381D01*
X53897839Y-27852374D01*
X53897837Y-27852378D01*
X53842370Y-27986290D01*
X53842369Y-27986291D01*
X53823450Y-28129999D01*
X47190682Y-28129999D01*
X49737841Y-25582839D01*
X49792356Y-25555064D01*
X49820769Y-25554693D01*
X49825000Y-25555250D01*
X49948236Y-25539025D01*
X50008395Y-25550175D01*
X50050513Y-25594557D01*
X50059310Y-25650099D01*
X50049450Y-25724997D01*
X50049450Y-25725000D01*
X50068369Y-25868708D01*
X50068370Y-25868709D01*
X50109334Y-25967608D01*
X50123839Y-26002625D01*
X50212079Y-26117621D01*
X50327075Y-26205861D01*
X50460991Y-26261330D01*
X50604700Y-26280250D01*
X50748409Y-26261330D01*
X50882325Y-26205861D01*
X50997321Y-26117621D01*
X51085561Y-26002625D01*
X51141030Y-25868709D01*
X51146929Y-25823899D01*
X51583550Y-25823899D01*
X51583550Y-25823900D01*
X51602469Y-25967608D01*
X51602470Y-25967609D01*
X51657939Y-26101525D01*
X51746179Y-26216521D01*
X51861175Y-26304761D01*
X51995091Y-26360230D01*
X52138800Y-26379150D01*
X52282509Y-26360230D01*
X52416425Y-26304761D01*
X52531421Y-26216521D01*
X52619661Y-26101525D01*
X52675130Y-25967609D01*
X52694050Y-25823900D01*
X52675130Y-25680191D01*
X52619661Y-25546275D01*
X52531421Y-25431279D01*
X52416425Y-25343039D01*
X52416421Y-25343037D01*
X52282509Y-25287570D01*
X52282508Y-25287569D01*
X52138800Y-25268650D01*
X51995091Y-25287569D01*
X51995090Y-25287570D01*
X51861178Y-25343037D01*
X51861174Y-25343039D01*
X51746181Y-25431277D01*
X51746177Y-25431281D01*
X51657939Y-25546274D01*
X51657937Y-25546278D01*
X51602470Y-25680190D01*
X51602469Y-25680191D01*
X51583550Y-25823899D01*
X51146929Y-25823899D01*
X51159950Y-25725000D01*
X51141030Y-25581291D01*
X51085561Y-25447375D01*
X50997321Y-25332379D01*
X50882325Y-25244139D01*
X50882321Y-25244137D01*
X50748409Y-25188670D01*
X50748408Y-25188669D01*
X50604700Y-25169750D01*
X50604699Y-25169750D01*
X50481464Y-25185974D01*
X50421303Y-25174824D01*
X50379186Y-25130441D01*
X50370389Y-25074898D01*
X50380250Y-24999999D01*
X50361330Y-24856291D01*
X50305861Y-24722375D01*
X50217621Y-24607379D01*
X50102625Y-24519139D01*
X50102621Y-24519137D01*
X49968709Y-24463670D01*
X49968708Y-24463669D01*
X49825000Y-24444750D01*
X49681291Y-24463669D01*
X49681290Y-24463670D01*
X49547378Y-24519137D01*
X49547374Y-24519139D01*
X49432381Y-24607377D01*
X49432377Y-24607381D01*
X49344139Y-24722374D01*
X49344137Y-24722378D01*
X49288670Y-24856290D01*
X49288669Y-24856291D01*
X49269750Y-24999999D01*
X49269750Y-25000001D01*
X49270307Y-25004233D01*
X49259157Y-25064393D01*
X49242158Y-25087158D01*
X43519530Y-30809788D01*
X43473386Y-30889712D01*
X43449500Y-30978857D01*
X43449500Y-91484972D01*
X43430593Y-91543163D01*
X43381093Y-91579127D01*
X43319907Y-91579127D01*
X43270407Y-91543163D01*
X43259036Y-91522857D01*
X43204162Y-91390378D01*
X43204161Y-91390375D01*
X43115921Y-91275379D01*
X43000925Y-91187139D01*
X43000921Y-91187137D01*
X42867009Y-91131670D01*
X42867008Y-91131669D01*
X42723300Y-91112750D01*
X42579591Y-91131669D01*
X42579590Y-91131670D01*
X42445678Y-91187137D01*
X42445674Y-91187139D01*
X42330681Y-91275377D01*
X42330677Y-91275381D01*
X42242439Y-91390374D01*
X42242437Y-91390378D01*
X42186970Y-91524290D01*
X42186969Y-91524291D01*
X42168050Y-91667999D01*
X42168050Y-91668000D01*
X42182174Y-91775283D01*
X42171024Y-91835444D01*
X42126642Y-91877561D01*
X42071099Y-91886358D01*
X41989001Y-91875550D01*
X41989000Y-91875550D01*
X41845291Y-91894469D01*
X41845290Y-91894470D01*
X41711378Y-91949937D01*
X41711374Y-91949939D01*
X41596381Y-92038177D01*
X41596377Y-92038181D01*
X41508139Y-92153174D01*
X41508137Y-92153178D01*
X41452670Y-92287090D01*
X41452669Y-92287091D01*
X41433750Y-92430799D01*
X41433750Y-92430800D01*
X41452669Y-92574508D01*
X41452670Y-92574509D01*
X41508139Y-92708425D01*
X41596379Y-92823421D01*
X41711375Y-92911661D01*
X41845291Y-92967130D01*
X41989000Y-92986050D01*
X42132709Y-92967130D01*
X42266625Y-92911661D01*
X42381621Y-92823421D01*
X42469861Y-92708425D01*
X42525330Y-92574509D01*
X42544250Y-92430800D01*
X42530125Y-92323514D01*
X42541275Y-92263356D01*
X42585657Y-92221238D01*
X42641200Y-92212441D01*
X42723300Y-92223250D01*
X42867009Y-92204330D01*
X43000925Y-92148861D01*
X43115921Y-92060621D01*
X43204161Y-91945625D01*
X43259036Y-91813140D01*
X43298772Y-91766616D01*
X43358267Y-91752332D01*
X43414795Y-91775746D01*
X43446764Y-91827915D01*
X43449500Y-91851027D01*
X43449500Y-127813810D01*
X43430593Y-127872001D01*
X43420504Y-127883814D01*
X33883814Y-137420504D01*
X33829297Y-137448281D01*
X33813810Y-137449500D01*
X31850409Y-137449500D01*
X31792218Y-137430593D01*
X31756254Y-137381093D01*
X31756254Y-137319907D01*
X31771867Y-137290232D01*
X31789061Y-137267825D01*
X31844530Y-137133909D01*
X31863450Y-136990200D01*
X31850862Y-136894590D01*
X31844530Y-136846491D01*
X31789061Y-136712575D01*
X31700821Y-136597579D01*
X31585825Y-136509339D01*
X31585821Y-136509337D01*
X31451909Y-136453870D01*
X31451908Y-136453869D01*
X31308200Y-136434950D01*
X31164491Y-136453869D01*
X31164490Y-136453870D01*
X31030578Y-136509337D01*
X31030574Y-136509339D01*
X30915581Y-136597577D01*
X30915577Y-136597581D01*
X30827339Y-136712574D01*
X30827337Y-136712578D01*
X30771870Y-136846490D01*
X30771869Y-136846491D01*
X30752950Y-136990199D01*
X30752950Y-136990200D01*
X30771869Y-137133908D01*
X30771870Y-137133909D01*
X30827339Y-137267825D01*
X30915579Y-137382821D01*
X30977836Y-137430593D01*
X31000007Y-137447605D01*
X31034663Y-137498029D01*
X31033062Y-137559194D01*
X31022350Y-137578924D01*
X31022775Y-137579169D01*
X30973387Y-137664709D01*
X30949500Y-137753857D01*
X30949500Y-138606490D01*
X30930593Y-138664681D01*
X30881093Y-138700645D01*
X30819907Y-138700645D01*
X30790232Y-138685032D01*
X30718825Y-138630239D01*
X30718821Y-138630237D01*
X30584909Y-138574770D01*
X30584908Y-138574769D01*
X30441200Y-138555850D01*
X30297491Y-138574769D01*
X30297490Y-138574770D01*
X30163578Y-138630237D01*
X30163574Y-138630239D01*
X30048581Y-138718477D01*
X30048577Y-138718481D01*
X29960339Y-138833474D01*
X29960337Y-138833478D01*
X29904870Y-138967390D01*
X29904869Y-138967391D01*
X29885950Y-139111099D01*
X29885950Y-139111100D01*
X29904869Y-139254808D01*
X29904870Y-139254809D01*
X29960339Y-139388725D01*
X30048579Y-139503721D01*
X30163575Y-139591961D01*
X30297491Y-139647430D01*
X30441200Y-139666350D01*
X30584909Y-139647430D01*
X30718825Y-139591961D01*
X30790232Y-139537167D01*
X30847907Y-139516743D01*
X30906573Y-139534120D01*
X30943821Y-139582661D01*
X30949500Y-139615709D01*
X30949500Y-143931505D01*
X30930593Y-143989696D01*
X30881093Y-144025660D01*
X30819907Y-144025660D01*
X30790233Y-144010047D01*
X30730929Y-143964542D01*
X30730928Y-143964541D01*
X30730925Y-143964539D01*
X30730922Y-143964538D01*
X30730921Y-143964537D01*
X30597009Y-143909070D01*
X30597008Y-143909069D01*
X30453300Y-143890150D01*
X30309591Y-143909069D01*
X30309590Y-143909070D01*
X30175678Y-143964537D01*
X30175674Y-143964539D01*
X30060681Y-144052777D01*
X30060677Y-144052781D01*
X29972439Y-144167774D01*
X29972437Y-144167778D01*
X29916970Y-144301690D01*
X29916969Y-144301691D01*
X29898050Y-144445399D01*
X29898050Y-144445400D01*
X29916969Y-144589108D01*
X29916970Y-144589109D01*
X29966779Y-144709362D01*
X29972439Y-144723025D01*
X30060679Y-144838021D01*
X30175675Y-144926261D01*
X30309591Y-144981730D01*
X30453300Y-145000650D01*
X30597009Y-144981730D01*
X30730925Y-144926261D01*
X30790232Y-144880753D01*
X30847908Y-144860328D01*
X30906573Y-144877705D01*
X30943821Y-144926246D01*
X30949500Y-144959294D01*
X30949500Y-148550500D01*
X30930593Y-148608691D01*
X30881093Y-148644655D01*
X30850500Y-148649500D01*
X25866144Y-148649500D01*
X25773856Y-148649500D01*
X25684712Y-148673386D01*
X25684711Y-148673386D01*
X25684709Y-148673387D01*
X25604790Y-148719529D01*
X25539529Y-148784790D01*
X25493387Y-148864709D01*
X25469500Y-148953857D01*
X25469500Y-151124864D01*
X25450593Y-151183055D01*
X25401093Y-151219019D01*
X25339907Y-151219019D01*
X25303805Y-151198026D01*
X25216041Y-151118019D01*
X25042637Y-151010652D01*
X24852456Y-150936976D01*
X24852455Y-150936975D01*
X24852453Y-150936975D01*
X24651976Y-150899500D01*
X24448024Y-150899500D01*
X24247546Y-150936975D01*
X24177632Y-150964059D01*
X24057363Y-151010652D01*
X23990164Y-151052260D01*
X23883959Y-151118019D01*
X23733237Y-151255420D01*
X23610328Y-151418177D01*
X23610323Y-151418186D01*
X23519419Y-151600747D01*
X23519418Y-151600750D01*
X23463603Y-151796917D01*
X23444785Y-152000000D01*
X23463603Y-152203083D01*
X23519418Y-152399250D01*
X23610327Y-152581821D01*
X23733236Y-152744579D01*
X23883959Y-152881981D01*
X24057363Y-152989348D01*
X24247544Y-153063024D01*
X24448024Y-153100500D01*
X24651976Y-153100500D01*
X24852456Y-153063024D01*
X25042637Y-152989348D01*
X25216041Y-152881981D01*
X25303807Y-152801971D01*
X25359545Y-152776743D01*
X25419471Y-152789095D01*
X25460691Y-152834311D01*
X25469500Y-152875135D01*
X25469500Y-156818809D01*
X25450593Y-156877000D01*
X25440504Y-156888813D01*
X24912158Y-157417158D01*
X24857641Y-157444935D01*
X24829233Y-157445307D01*
X24825002Y-157444750D01*
X24825000Y-157444750D01*
X24681291Y-157463669D01*
X24681290Y-157463670D01*
X24547378Y-157519137D01*
X24547374Y-157519139D01*
X24432381Y-157607377D01*
X24432377Y-157607381D01*
X24344139Y-157722374D01*
X24344137Y-157722378D01*
X24288670Y-157856290D01*
X24288669Y-157856291D01*
X24269750Y-157999999D01*
X24269750Y-158000000D01*
X24288669Y-158143708D01*
X24288670Y-158143709D01*
X24344139Y-158277625D01*
X24432379Y-158392621D01*
X24547375Y-158480861D01*
X24681291Y-158536330D01*
X24825000Y-158555250D01*
X24968709Y-158536330D01*
X25102625Y-158480861D01*
X25217621Y-158392621D01*
X25305861Y-158277625D01*
X25361330Y-158143709D01*
X25380250Y-158000000D01*
X25379693Y-157995770D01*
X25390839Y-157935610D01*
X25407837Y-157912843D01*
X26100469Y-157220213D01*
X26146614Y-157140288D01*
X26170500Y-157051144D01*
X26170500Y-152875135D01*
X26189407Y-152816944D01*
X26238907Y-152780980D01*
X26300093Y-152780980D01*
X26336191Y-152801970D01*
X26423959Y-152881981D01*
X26597363Y-152989348D01*
X26787544Y-153063024D01*
X26988024Y-153100500D01*
X27191976Y-153100500D01*
X27392456Y-153063024D01*
X27582637Y-152989348D01*
X27756041Y-152881981D01*
X27906764Y-152744579D01*
X28029673Y-152581821D01*
X28120582Y-152399250D01*
X28176397Y-152203083D01*
X28195215Y-152000000D01*
X28524785Y-152000000D01*
X28543603Y-152203083D01*
X28599418Y-152399250D01*
X28690327Y-152581821D01*
X28813236Y-152744579D01*
X28963959Y-152881981D01*
X29137363Y-152989348D01*
X29327544Y-153063024D01*
X29528024Y-153100500D01*
X29731976Y-153100500D01*
X29932456Y-153063024D01*
X30122637Y-152989348D01*
X30296041Y-152881981D01*
X30446764Y-152744579D01*
X30569673Y-152581821D01*
X30660582Y-152399250D01*
X30716397Y-152203083D01*
X30735215Y-152000000D01*
X31064785Y-152000000D01*
X31083603Y-152203083D01*
X31139418Y-152399250D01*
X31230327Y-152581821D01*
X31353236Y-152744579D01*
X31503959Y-152881981D01*
X31677363Y-152989348D01*
X31867544Y-153063024D01*
X32068024Y-153100500D01*
X32271976Y-153100500D01*
X32472456Y-153063024D01*
X32662637Y-152989348D01*
X32836041Y-152881981D01*
X32986764Y-152744579D01*
X33109673Y-152581821D01*
X33200582Y-152399250D01*
X33256397Y-152203083D01*
X33275215Y-152000000D01*
X33256397Y-151796917D01*
X33200582Y-151600750D01*
X33109673Y-151418179D01*
X32986764Y-151255421D01*
X32836041Y-151118019D01*
X32662637Y-151010652D01*
X32472456Y-150936976D01*
X32472455Y-150936975D01*
X32472453Y-150936975D01*
X32271976Y-150899500D01*
X32068024Y-150899500D01*
X31867546Y-150936975D01*
X31797632Y-150964059D01*
X31677363Y-151010652D01*
X31610164Y-151052260D01*
X31503959Y-151118019D01*
X31353237Y-151255420D01*
X31230328Y-151418177D01*
X31230323Y-151418186D01*
X31139419Y-151600747D01*
X31139418Y-151600750D01*
X31083603Y-151796917D01*
X31064785Y-152000000D01*
X30735215Y-152000000D01*
X30716397Y-151796917D01*
X30660582Y-151600750D01*
X30569673Y-151418179D01*
X30446764Y-151255421D01*
X30296041Y-151118019D01*
X30122637Y-151010652D01*
X29932456Y-150936976D01*
X29932455Y-150936975D01*
X29932453Y-150936975D01*
X29731976Y-150899500D01*
X29528024Y-150899500D01*
X29327546Y-150936975D01*
X29257632Y-150964059D01*
X29137363Y-151010652D01*
X29070164Y-151052260D01*
X28963959Y-151118019D01*
X28813237Y-151255420D01*
X28690328Y-151418177D01*
X28690323Y-151418186D01*
X28599419Y-151600747D01*
X28599418Y-151600750D01*
X28543603Y-151796917D01*
X28524785Y-152000000D01*
X28195215Y-152000000D01*
X28176397Y-151796917D01*
X28120582Y-151600750D01*
X28029673Y-151418179D01*
X27906764Y-151255421D01*
X27756041Y-151118019D01*
X27582637Y-151010652D01*
X27392456Y-150936976D01*
X27392455Y-150936975D01*
X27392453Y-150936975D01*
X27191976Y-150899500D01*
X26988024Y-150899500D01*
X26787546Y-150936975D01*
X26717632Y-150964059D01*
X26597363Y-151010652D01*
X26423959Y-151118019D01*
X26336194Y-151198026D01*
X26280454Y-151223256D01*
X26220529Y-151210904D01*
X26179309Y-151165687D01*
X26170500Y-151124864D01*
X26170500Y-149449500D01*
X26189407Y-149391309D01*
X26238907Y-149355345D01*
X26269500Y-149350500D01*
X31346142Y-149350500D01*
X31346144Y-149350500D01*
X31435288Y-149326614D01*
X31515212Y-149280469D01*
X31580469Y-149215212D01*
X31626614Y-149135288D01*
X31650500Y-149046144D01*
X31650500Y-138249500D01*
X31669407Y-138191309D01*
X31718907Y-138155345D01*
X31749500Y-138150500D01*
X31885522Y-138150500D01*
X31943713Y-138169407D01*
X31979677Y-138218907D01*
X31979677Y-138280093D01*
X31961893Y-138309113D01*
X31963491Y-138310339D01*
X31959540Y-138315487D01*
X31919980Y-138384007D01*
X31919978Y-138384011D01*
X31899500Y-138460435D01*
X31899500Y-148039564D01*
X31919978Y-148115988D01*
X31919980Y-148115992D01*
X31959538Y-148184508D01*
X31959540Y-148184511D01*
X32015489Y-148240460D01*
X32015491Y-148240461D01*
X32084007Y-148280019D01*
X32084011Y-148280021D01*
X32160435Y-148300499D01*
X32160437Y-148300500D01*
X32160438Y-148300500D01*
X35371000Y-148300500D01*
X35429191Y-148319407D01*
X35465155Y-148368907D01*
X35470000Y-148399500D01*
X35470000Y-150998457D01*
X35451093Y-151056648D01*
X35401593Y-151092612D01*
X35340407Y-151092612D01*
X35318887Y-151082630D01*
X35202637Y-151010652D01*
X35012456Y-150936976D01*
X35012455Y-150936975D01*
X35012453Y-150936975D01*
X34811976Y-150899500D01*
X34608024Y-150899500D01*
X34407546Y-150936975D01*
X34337632Y-150964059D01*
X34217363Y-151010652D01*
X34150164Y-151052260D01*
X34043959Y-151118019D01*
X33893237Y-151255420D01*
X33770328Y-151418177D01*
X33770323Y-151418186D01*
X33679419Y-151600747D01*
X33679418Y-151600750D01*
X33623603Y-151796917D01*
X33604785Y-152000000D01*
X33623603Y-152203083D01*
X33679418Y-152399250D01*
X33770327Y-152581821D01*
X33893236Y-152744579D01*
X34043959Y-152881981D01*
X34217363Y-152989348D01*
X34407544Y-153063024D01*
X34608024Y-153100500D01*
X34811976Y-153100500D01*
X35012456Y-153063024D01*
X35202637Y-152989348D01*
X35318884Y-152917370D01*
X35378311Y-152902812D01*
X35434947Y-152925965D01*
X35467157Y-152977986D01*
X35470000Y-153001542D01*
X35470000Y-171318457D01*
X35451093Y-171376648D01*
X35401593Y-171412612D01*
X35340407Y-171412612D01*
X35318887Y-171402630D01*
X35202637Y-171330652D01*
X35012456Y-171256976D01*
X35012455Y-171256975D01*
X35012453Y-171256975D01*
X34811976Y-171219500D01*
X34608024Y-171219500D01*
X34407546Y-171256975D01*
X34337632Y-171284059D01*
X34217363Y-171330652D01*
X34150164Y-171372260D01*
X34043959Y-171438019D01*
X33893237Y-171575420D01*
X33770328Y-171738177D01*
X33770323Y-171738186D01*
X33679419Y-171920747D01*
X33679418Y-171920750D01*
X33623603Y-172116917D01*
X33604785Y-172320000D01*
X33623603Y-172523083D01*
X33679418Y-172719250D01*
X33770327Y-172901821D01*
X33893236Y-173064579D01*
X34043959Y-173201981D01*
X34217363Y-173309348D01*
X34407544Y-173383024D01*
X34608024Y-173420500D01*
X34811976Y-173420500D01*
X35012456Y-173383024D01*
X35202637Y-173309348D01*
X35318884Y-173237370D01*
X35378311Y-173222812D01*
X35434947Y-173245965D01*
X35467157Y-173297986D01*
X35470000Y-173321542D01*
X35470000Y-174600500D01*
X35451093Y-174658691D01*
X35401593Y-174694655D01*
X35371000Y-174699500D01*
X4399500Y-174699500D01*
X4341309Y-174680593D01*
X4305345Y-174631093D01*
X4300500Y-174600500D01*
X4300500Y-172320000D01*
X10744785Y-172320000D01*
X10763603Y-172523083D01*
X10819418Y-172719250D01*
X10910327Y-172901821D01*
X11033236Y-173064579D01*
X11183959Y-173201981D01*
X11357363Y-173309348D01*
X11547544Y-173383024D01*
X11748024Y-173420500D01*
X11951976Y-173420500D01*
X12152456Y-173383024D01*
X12342637Y-173309348D01*
X12516041Y-173201981D01*
X12666764Y-173064579D01*
X12789673Y-172901821D01*
X12880582Y-172719250D01*
X12936397Y-172523083D01*
X12955215Y-172320000D01*
X13284785Y-172320000D01*
X13303603Y-172523083D01*
X13359418Y-172719250D01*
X13450327Y-172901821D01*
X13573236Y-173064579D01*
X13723959Y-173201981D01*
X13897363Y-173309348D01*
X14087544Y-173383024D01*
X14288024Y-173420500D01*
X14491976Y-173420500D01*
X14692456Y-173383024D01*
X14882637Y-173309348D01*
X15056041Y-173201981D01*
X15206764Y-173064579D01*
X15329673Y-172901821D01*
X15420582Y-172719250D01*
X15476397Y-172523083D01*
X15495215Y-172320000D01*
X15824785Y-172320000D01*
X15843603Y-172523083D01*
X15899418Y-172719250D01*
X15990327Y-172901821D01*
X16113236Y-173064579D01*
X16263959Y-173201981D01*
X16437363Y-173309348D01*
X16627544Y-173383024D01*
X16828024Y-173420500D01*
X17031976Y-173420500D01*
X17232456Y-173383024D01*
X17422637Y-173309348D01*
X17596041Y-173201981D01*
X17746764Y-173064579D01*
X17869673Y-172901821D01*
X17960582Y-172719250D01*
X18016397Y-172523083D01*
X18035215Y-172320000D01*
X20904785Y-172320000D01*
X20923603Y-172523083D01*
X20979418Y-172719250D01*
X21070327Y-172901821D01*
X21193236Y-173064579D01*
X21343959Y-173201981D01*
X21517363Y-173309348D01*
X21707544Y-173383024D01*
X21908024Y-173420500D01*
X22111976Y-173420500D01*
X22312456Y-173383024D01*
X22502637Y-173309348D01*
X22676041Y-173201981D01*
X22826764Y-173064579D01*
X22949673Y-172901821D01*
X23040582Y-172719250D01*
X23096397Y-172523083D01*
X23115215Y-172320000D01*
X23444785Y-172320000D01*
X23463603Y-172523083D01*
X23519418Y-172719250D01*
X23610327Y-172901821D01*
X23733236Y-173064579D01*
X23883959Y-173201981D01*
X24057363Y-173309348D01*
X24247544Y-173383024D01*
X24448024Y-173420500D01*
X24651976Y-173420500D01*
X24852456Y-173383024D01*
X25042637Y-173309348D01*
X25216041Y-173201981D01*
X25366764Y-173064579D01*
X25489673Y-172901821D01*
X25580582Y-172719250D01*
X25636397Y-172523083D01*
X25655215Y-172320000D01*
X25984785Y-172320000D01*
X26003603Y-172523083D01*
X26059418Y-172719250D01*
X26150327Y-172901821D01*
X26273236Y-173064579D01*
X26423959Y-173201981D01*
X26597363Y-173309348D01*
X26787544Y-173383024D01*
X26988024Y-173420500D01*
X27191976Y-173420500D01*
X27392456Y-173383024D01*
X27582637Y-173309348D01*
X27756041Y-173201981D01*
X27906764Y-173064579D01*
X28029673Y-172901821D01*
X28120582Y-172719250D01*
X28176397Y-172523083D01*
X28195215Y-172320000D01*
X28524785Y-172320000D01*
X28543603Y-172523083D01*
X28599418Y-172719250D01*
X28690327Y-172901821D01*
X28813236Y-173064579D01*
X28963959Y-173201981D01*
X29137363Y-173309348D01*
X29327544Y-173383024D01*
X29528024Y-173420500D01*
X29731976Y-173420500D01*
X29932456Y-173383024D01*
X30122637Y-173309348D01*
X30296041Y-173201981D01*
X30446764Y-173064579D01*
X30569673Y-172901821D01*
X30660582Y-172719250D01*
X30716397Y-172523083D01*
X30735215Y-172320000D01*
X31064785Y-172320000D01*
X31083603Y-172523083D01*
X31139418Y-172719250D01*
X31230327Y-172901821D01*
X31353236Y-173064579D01*
X31503959Y-173201981D01*
X31677363Y-173309348D01*
X31867544Y-173383024D01*
X32068024Y-173420500D01*
X32271976Y-173420500D01*
X32472456Y-173383024D01*
X32662637Y-173309348D01*
X32836041Y-173201981D01*
X32986764Y-173064579D01*
X33109673Y-172901821D01*
X33200582Y-172719250D01*
X33256397Y-172523083D01*
X33275215Y-172320000D01*
X33256397Y-172116917D01*
X33200582Y-171920750D01*
X33109673Y-171738179D01*
X32986764Y-171575421D01*
X32836041Y-171438019D01*
X32662637Y-171330652D01*
X32472456Y-171256976D01*
X32472455Y-171256975D01*
X32472453Y-171256975D01*
X32271976Y-171219500D01*
X32068024Y-171219500D01*
X31867546Y-171256975D01*
X31797632Y-171284059D01*
X31677363Y-171330652D01*
X31610164Y-171372260D01*
X31503959Y-171438019D01*
X31353237Y-171575420D01*
X31230328Y-171738177D01*
X31230323Y-171738186D01*
X31139419Y-171920747D01*
X31139418Y-171920750D01*
X31083603Y-172116917D01*
X31064785Y-172320000D01*
X30735215Y-172320000D01*
X30716397Y-172116917D01*
X30660582Y-171920750D01*
X30569673Y-171738179D01*
X30446764Y-171575421D01*
X30296041Y-171438019D01*
X30122637Y-171330652D01*
X29932456Y-171256976D01*
X29932455Y-171256975D01*
X29932453Y-171256975D01*
X29731976Y-171219500D01*
X29528024Y-171219500D01*
X29327546Y-171256975D01*
X29257632Y-171284059D01*
X29137363Y-171330652D01*
X29070164Y-171372260D01*
X28963959Y-171438019D01*
X28813237Y-171575420D01*
X28690328Y-171738177D01*
X28690323Y-171738186D01*
X28599419Y-171920747D01*
X28599418Y-171920750D01*
X28543603Y-172116917D01*
X28524785Y-172320000D01*
X28195215Y-172320000D01*
X28176397Y-172116917D01*
X28120582Y-171920750D01*
X28029673Y-171738179D01*
X27906764Y-171575421D01*
X27756041Y-171438019D01*
X27582637Y-171330652D01*
X27392456Y-171256976D01*
X27392455Y-171256975D01*
X27392453Y-171256975D01*
X27191976Y-171219500D01*
X26988024Y-171219500D01*
X26787546Y-171256975D01*
X26717632Y-171284059D01*
X26597363Y-171330652D01*
X26530164Y-171372260D01*
X26423959Y-171438019D01*
X26273237Y-171575420D01*
X26150328Y-171738177D01*
X26150323Y-171738186D01*
X26059419Y-171920747D01*
X26059418Y-171920750D01*
X26003603Y-172116917D01*
X25984785Y-172320000D01*
X25655215Y-172320000D01*
X25636397Y-172116917D01*
X25580582Y-171920750D01*
X25489673Y-171738179D01*
X25366764Y-171575421D01*
X25216041Y-171438019D01*
X25042637Y-171330652D01*
X24852456Y-171256976D01*
X24852455Y-171256975D01*
X24852453Y-171256975D01*
X24651976Y-171219500D01*
X24448024Y-171219500D01*
X24247546Y-171256975D01*
X24177632Y-171284059D01*
X24057363Y-171330652D01*
X23990164Y-171372260D01*
X23883959Y-171438019D01*
X23733237Y-171575420D01*
X23610328Y-171738177D01*
X23610323Y-171738186D01*
X23519419Y-171920747D01*
X23519418Y-171920750D01*
X23463603Y-172116917D01*
X23444785Y-172320000D01*
X23115215Y-172320000D01*
X23096397Y-172116917D01*
X23040582Y-171920750D01*
X22949673Y-171738179D01*
X22826764Y-171575421D01*
X22676041Y-171438019D01*
X22502637Y-171330652D01*
X22312456Y-171256976D01*
X22312455Y-171256975D01*
X22312453Y-171256975D01*
X22111976Y-171219500D01*
X21908024Y-171219500D01*
X21707546Y-171256975D01*
X21637632Y-171284059D01*
X21517363Y-171330652D01*
X21450164Y-171372260D01*
X21343959Y-171438019D01*
X21193237Y-171575420D01*
X21070328Y-171738177D01*
X21070323Y-171738186D01*
X20979419Y-171920747D01*
X20979418Y-171920750D01*
X20923603Y-172116917D01*
X20904785Y-172320000D01*
X18035215Y-172320000D01*
X18016397Y-172116917D01*
X17960582Y-171920750D01*
X17869673Y-171738179D01*
X17746764Y-171575421D01*
X17596041Y-171438019D01*
X17422637Y-171330652D01*
X17232456Y-171256976D01*
X17232455Y-171256975D01*
X17232453Y-171256975D01*
X17031976Y-171219500D01*
X16828024Y-171219500D01*
X16627546Y-171256975D01*
X16557632Y-171284059D01*
X16437363Y-171330652D01*
X16370164Y-171372260D01*
X16263959Y-171438019D01*
X16113237Y-171575420D01*
X15990328Y-171738177D01*
X15990323Y-171738186D01*
X15899419Y-171920747D01*
X15899418Y-171920750D01*
X15843603Y-172116917D01*
X15824785Y-172320000D01*
X15495215Y-172320000D01*
X15476397Y-172116917D01*
X15420582Y-171920750D01*
X15329673Y-171738179D01*
X15206764Y-171575421D01*
X15056041Y-171438019D01*
X14882637Y-171330652D01*
X14692456Y-171256976D01*
X14692455Y-171256975D01*
X14692453Y-171256975D01*
X14491976Y-171219500D01*
X14288024Y-171219500D01*
X14087546Y-171256975D01*
X14017632Y-171284059D01*
X13897363Y-171330652D01*
X13830164Y-171372260D01*
X13723959Y-171438019D01*
X13573237Y-171575420D01*
X13450328Y-171738177D01*
X13450323Y-171738186D01*
X13359419Y-171920747D01*
X13359418Y-171920750D01*
X13303603Y-172116917D01*
X13284785Y-172320000D01*
X12955215Y-172320000D01*
X12936397Y-172116917D01*
X12880582Y-171920750D01*
X12789673Y-171738179D01*
X12666764Y-171575421D01*
X12516041Y-171438019D01*
X12342637Y-171330652D01*
X12152456Y-171256976D01*
X12152455Y-171256975D01*
X12152453Y-171256975D01*
X11951976Y-171219500D01*
X11748024Y-171219500D01*
X11547546Y-171256975D01*
X11477632Y-171284059D01*
X11357363Y-171330652D01*
X11290164Y-171372260D01*
X11183959Y-171438019D01*
X11033237Y-171575420D01*
X10910328Y-171738177D01*
X10910323Y-171738186D01*
X10819419Y-171920747D01*
X10819418Y-171920750D01*
X10763603Y-172116917D01*
X10744785Y-172320000D01*
X4300500Y-172320000D01*
X4300500Y-168684299D01*
X23341650Y-168684299D01*
X23341650Y-168684300D01*
X23360569Y-168828008D01*
X23360570Y-168828009D01*
X23416039Y-168961925D01*
X23504279Y-169076921D01*
X23619275Y-169165161D01*
X23753191Y-169220630D01*
X23896900Y-169239550D01*
X24040609Y-169220630D01*
X24174525Y-169165161D01*
X24289521Y-169076921D01*
X24377761Y-168961925D01*
X24433230Y-168828009D01*
X24452150Y-168684300D01*
X24433230Y-168540591D01*
X24377761Y-168406675D01*
X24289521Y-168291679D01*
X24174525Y-168203439D01*
X24174521Y-168203437D01*
X24040609Y-168147970D01*
X24040608Y-168147969D01*
X23896900Y-168129050D01*
X23753191Y-168147969D01*
X23753190Y-168147970D01*
X23619278Y-168203437D01*
X23619274Y-168203439D01*
X23504281Y-168291677D01*
X23504277Y-168291681D01*
X23416039Y-168406674D01*
X23416037Y-168406678D01*
X23360570Y-168540590D01*
X23360569Y-168540591D01*
X23341650Y-168684299D01*
X4300500Y-168684299D01*
X4300500Y-165077899D01*
X22619750Y-165077899D01*
X22619750Y-165077900D01*
X22638669Y-165221608D01*
X22638670Y-165221609D01*
X22694139Y-165355525D01*
X22782379Y-165470521D01*
X22897375Y-165558761D01*
X23031291Y-165614230D01*
X23175000Y-165633150D01*
X23318709Y-165614230D01*
X23452625Y-165558761D01*
X23567621Y-165470521D01*
X23655861Y-165355525D01*
X23711330Y-165221609D01*
X23730250Y-165077900D01*
X23711330Y-164934191D01*
X23655861Y-164800275D01*
X23567621Y-164685279D01*
X23452625Y-164597039D01*
X23452621Y-164597037D01*
X23318709Y-164541570D01*
X23318708Y-164541569D01*
X23175000Y-164522650D01*
X23031291Y-164541569D01*
X23031290Y-164541570D01*
X22897378Y-164597037D01*
X22897374Y-164597039D01*
X22782381Y-164685277D01*
X22782377Y-164685281D01*
X22694139Y-164800274D01*
X22694137Y-164800278D01*
X22638670Y-164934190D01*
X22638669Y-164934191D01*
X22619750Y-165077899D01*
X4300500Y-165077899D01*
X4300500Y-161978299D01*
X22619750Y-161978299D01*
X22619750Y-161978300D01*
X22638669Y-162122008D01*
X22638670Y-162122009D01*
X22694139Y-162255925D01*
X22782379Y-162370921D01*
X22897375Y-162459161D01*
X23031291Y-162514630D01*
X23175000Y-162533550D01*
X23318709Y-162514630D01*
X23452625Y-162459161D01*
X23567621Y-162370921D01*
X23655861Y-162255925D01*
X23711330Y-162122009D01*
X23730250Y-161978300D01*
X23711330Y-161834591D01*
X23655861Y-161700675D01*
X23567621Y-161585679D01*
X23452625Y-161497439D01*
X23452621Y-161497437D01*
X23318709Y-161441970D01*
X23318708Y-161441969D01*
X23175000Y-161423050D01*
X23031291Y-161441969D01*
X23031290Y-161441970D01*
X22897378Y-161497437D01*
X22897374Y-161497439D01*
X22782381Y-161585677D01*
X22782377Y-161585681D01*
X22694139Y-161700674D01*
X22694137Y-161700678D01*
X22638670Y-161834590D01*
X22638669Y-161834591D01*
X22619750Y-161978299D01*
X4300500Y-161978299D01*
X4300500Y-159993199D01*
X24269750Y-159993199D01*
X24269750Y-159993200D01*
X24288669Y-160136908D01*
X24288670Y-160136909D01*
X24344139Y-160270825D01*
X24432379Y-160385821D01*
X24547375Y-160474061D01*
X24681291Y-160529530D01*
X24825000Y-160548450D01*
X24968709Y-160529530D01*
X25102625Y-160474061D01*
X25217621Y-160385821D01*
X25305861Y-160270825D01*
X25361330Y-160136909D01*
X25380250Y-159993200D01*
X25361330Y-159849491D01*
X25305861Y-159715575D01*
X25217621Y-159600579D01*
X25102625Y-159512339D01*
X25102621Y-159512337D01*
X24968709Y-159456870D01*
X24968708Y-159456869D01*
X24825000Y-159437950D01*
X24681291Y-159456869D01*
X24681290Y-159456870D01*
X24547378Y-159512337D01*
X24547374Y-159512339D01*
X24432381Y-159600577D01*
X24432377Y-159600581D01*
X24344139Y-159715574D01*
X24344137Y-159715578D01*
X24288670Y-159849490D01*
X24288669Y-159849491D01*
X24269750Y-159993199D01*
X4300500Y-159993199D01*
X4300500Y-158819299D01*
X18296150Y-158819299D01*
X18296150Y-158819300D01*
X18315069Y-158963008D01*
X18315070Y-158963009D01*
X18370539Y-159096925D01*
X18458779Y-159211921D01*
X18573775Y-159300161D01*
X18707691Y-159355630D01*
X18851400Y-159374550D01*
X18995109Y-159355630D01*
X19129025Y-159300161D01*
X19244021Y-159211921D01*
X19332261Y-159096925D01*
X19387730Y-158963009D01*
X19406650Y-158819300D01*
X19387730Y-158675591D01*
X19332261Y-158541675D01*
X19244021Y-158426679D01*
X19129025Y-158338439D01*
X19129021Y-158338437D01*
X18995109Y-158282970D01*
X18995108Y-158282969D01*
X18851400Y-158264050D01*
X18707691Y-158282969D01*
X18707690Y-158282970D01*
X18573778Y-158338437D01*
X18573774Y-158338439D01*
X18458781Y-158426677D01*
X18458777Y-158426681D01*
X18370539Y-158541674D01*
X18370537Y-158541678D01*
X18315070Y-158675590D01*
X18315069Y-158675591D01*
X18296150Y-158819299D01*
X4300500Y-158819299D01*
X4300500Y-151125327D01*
X20909500Y-151125327D01*
X20909500Y-152874672D01*
X20909501Y-152874684D01*
X20924033Y-152947736D01*
X20924035Y-152947742D01*
X20979397Y-153030599D01*
X20979399Y-153030601D01*
X21062260Y-153085966D01*
X21117808Y-153097015D01*
X21135315Y-153100498D01*
X21135320Y-153100498D01*
X21135326Y-153100500D01*
X21135327Y-153100500D01*
X22884673Y-153100500D01*
X22884674Y-153100500D01*
X22957740Y-153085966D01*
X23040601Y-153030601D01*
X23095966Y-152947740D01*
X23110500Y-152874674D01*
X23110500Y-151125326D01*
X23095966Y-151052260D01*
X23040601Y-150969399D01*
X23040599Y-150969397D01*
X22957742Y-150914035D01*
X22957740Y-150914034D01*
X22957737Y-150914033D01*
X22957736Y-150914033D01*
X22884684Y-150899501D01*
X22884674Y-150899500D01*
X21135326Y-150899500D01*
X21135325Y-150899500D01*
X21135315Y-150899501D01*
X21062263Y-150914033D01*
X21062257Y-150914035D01*
X20979400Y-150969397D01*
X20979397Y-150969400D01*
X20924035Y-151052257D01*
X20924033Y-151052263D01*
X20909501Y-151125315D01*
X20909500Y-151125327D01*
X4300500Y-151125327D01*
X4300500Y-149857699D01*
X18955950Y-149857699D01*
X18955950Y-149857700D01*
X18974869Y-150001408D01*
X18974870Y-150001409D01*
X19030339Y-150135325D01*
X19118579Y-150250321D01*
X19233575Y-150338561D01*
X19367491Y-150394030D01*
X19511200Y-150412950D01*
X19654909Y-150394030D01*
X19788825Y-150338561D01*
X19903821Y-150250321D01*
X19992061Y-150135325D01*
X20047530Y-150001409D01*
X20066450Y-149857700D01*
X20047530Y-149713991D01*
X19992061Y-149580075D01*
X19903821Y-149465079D01*
X19788825Y-149376839D01*
X19788821Y-149376837D01*
X19654909Y-149321370D01*
X19654908Y-149321369D01*
X19511200Y-149302450D01*
X19367491Y-149321369D01*
X19367490Y-149321370D01*
X19233578Y-149376837D01*
X19233574Y-149376839D01*
X19118581Y-149465077D01*
X19118577Y-149465081D01*
X19030339Y-149580074D01*
X19030337Y-149580078D01*
X18974870Y-149713990D01*
X18974869Y-149713991D01*
X18955950Y-149857699D01*
X4300500Y-149857699D01*
X4300500Y-147429599D01*
X20849150Y-147429599D01*
X20849150Y-147429600D01*
X20868069Y-147573308D01*
X20868070Y-147573309D01*
X20923539Y-147707225D01*
X21011779Y-147822221D01*
X21126775Y-147910461D01*
X21260691Y-147965930D01*
X21404400Y-147984850D01*
X21548109Y-147965930D01*
X21682025Y-147910461D01*
X21797021Y-147822221D01*
X21885261Y-147707225D01*
X21940730Y-147573309D01*
X21959650Y-147429600D01*
X21940730Y-147285891D01*
X21928473Y-147256299D01*
X28619750Y-147256299D01*
X28619750Y-147256300D01*
X28638669Y-147400008D01*
X28638670Y-147400009D01*
X28694139Y-147533925D01*
X28782379Y-147648921D01*
X28897375Y-147737161D01*
X29031291Y-147792630D01*
X29175000Y-147811550D01*
X29318709Y-147792630D01*
X29452625Y-147737161D01*
X29567621Y-147648921D01*
X29655861Y-147533925D01*
X29711330Y-147400009D01*
X29730250Y-147256300D01*
X29716515Y-147151978D01*
X29711330Y-147112591D01*
X29655861Y-146978675D01*
X29567621Y-146863679D01*
X29452625Y-146775439D01*
X29452621Y-146775437D01*
X29318709Y-146719970D01*
X29318708Y-146719969D01*
X29175000Y-146701050D01*
X29031291Y-146719969D01*
X29031290Y-146719970D01*
X28897378Y-146775437D01*
X28897374Y-146775439D01*
X28782381Y-146863677D01*
X28782377Y-146863681D01*
X28694139Y-146978674D01*
X28694137Y-146978678D01*
X28638670Y-147112590D01*
X28638669Y-147112591D01*
X28619750Y-147256299D01*
X21928473Y-147256299D01*
X21885261Y-147151975D01*
X21797021Y-147036979D01*
X21682025Y-146948739D01*
X21682021Y-146948737D01*
X21548109Y-146893270D01*
X21548108Y-146893269D01*
X21404400Y-146874350D01*
X21260691Y-146893269D01*
X21260690Y-146893270D01*
X21126778Y-146948737D01*
X21126774Y-146948739D01*
X21011781Y-147036977D01*
X21011777Y-147036981D01*
X20923539Y-147151974D01*
X20923537Y-147151978D01*
X20868070Y-147285890D01*
X20868069Y-147285891D01*
X20849150Y-147429599D01*
X4300500Y-147429599D01*
X4300500Y-143874034D01*
X6399500Y-143874034D01*
X6399500Y-144125965D01*
X6438908Y-144374780D01*
X6516759Y-144614379D01*
X6630710Y-144838022D01*
X6631130Y-144838845D01*
X6779207Y-145042656D01*
X6957344Y-145220793D01*
X7161155Y-145368870D01*
X7385621Y-145483241D01*
X7625215Y-145561090D01*
X7625216Y-145561090D01*
X7625219Y-145561091D01*
X7874035Y-145600500D01*
X7874038Y-145600500D01*
X8125965Y-145600500D01*
X8374780Y-145561091D01*
X8374781Y-145561090D01*
X8374785Y-145561090D01*
X8614379Y-145483241D01*
X8838845Y-145368870D01*
X9042656Y-145220793D01*
X9220793Y-145042656D01*
X9368870Y-144838845D01*
X9483241Y-144614379D01*
X9561090Y-144374785D01*
X9572667Y-144301690D01*
X9584260Y-144228499D01*
X24619750Y-144228499D01*
X24619750Y-144228500D01*
X24638669Y-144372208D01*
X24638670Y-144372209D01*
X24694139Y-144506125D01*
X24782379Y-144621121D01*
X24897375Y-144709361D01*
X25031291Y-144764830D01*
X25175000Y-144783750D01*
X25318709Y-144764830D01*
X25452625Y-144709361D01*
X25567621Y-144621121D01*
X25655861Y-144506125D01*
X25711330Y-144372209D01*
X25730250Y-144228500D01*
X25711330Y-144084791D01*
X25655861Y-143950875D01*
X25567621Y-143835879D01*
X25452625Y-143747639D01*
X25452621Y-143747637D01*
X25318709Y-143692170D01*
X25318708Y-143692169D01*
X25175000Y-143673250D01*
X25031291Y-143692169D01*
X25031290Y-143692170D01*
X24897378Y-143747637D01*
X24897374Y-143747639D01*
X24782381Y-143835877D01*
X24782377Y-143835881D01*
X24694139Y-143950874D01*
X24694137Y-143950878D01*
X24638670Y-144084790D01*
X24638669Y-144084791D01*
X24619750Y-144228499D01*
X9584260Y-144228499D01*
X9600500Y-144125965D01*
X9600500Y-143874034D01*
X9561091Y-143625219D01*
X9561090Y-143625215D01*
X9483241Y-143385621D01*
X9368870Y-143161155D01*
X9220793Y-142957344D01*
X9042656Y-142779207D01*
X8838845Y-142631130D01*
X8838844Y-142631129D01*
X8838842Y-142631128D01*
X8614379Y-142516759D01*
X8374780Y-142438908D01*
X8125965Y-142399500D01*
X8125962Y-142399500D01*
X7874038Y-142399500D01*
X7874035Y-142399500D01*
X7625219Y-142438908D01*
X7385620Y-142516759D01*
X7161157Y-142631128D01*
X6957345Y-142779206D01*
X6779206Y-142957345D01*
X6631128Y-143161157D01*
X6516759Y-143385620D01*
X6438908Y-143625219D01*
X6399500Y-143874034D01*
X4300500Y-143874034D01*
X4300500Y-135894034D01*
X17619500Y-135894034D01*
X17619500Y-136145965D01*
X17658908Y-136394780D01*
X17736759Y-136634379D01*
X17844834Y-136846490D01*
X17851130Y-136858845D01*
X17999207Y-137062656D01*
X18177344Y-137240793D01*
X18381155Y-137388870D01*
X18605621Y-137503241D01*
X18845215Y-137581090D01*
X18845216Y-137581090D01*
X18845219Y-137581091D01*
X19094035Y-137620500D01*
X19094038Y-137620500D01*
X19345965Y-137620500D01*
X19594780Y-137581091D01*
X19594781Y-137581090D01*
X19594785Y-137581090D01*
X19834379Y-137503241D01*
X20058845Y-137388870D01*
X20262656Y-137240793D01*
X20440793Y-137062656D01*
X20458489Y-137038299D01*
X22269750Y-137038299D01*
X22269750Y-137038300D01*
X22288669Y-137182008D01*
X22288670Y-137182009D01*
X22333496Y-137290232D01*
X22344139Y-137315925D01*
X22432379Y-137430921D01*
X22547375Y-137519161D01*
X22681291Y-137574630D01*
X22825000Y-137593550D01*
X22968709Y-137574630D01*
X23102625Y-137519161D01*
X23217621Y-137430921D01*
X23305861Y-137315925D01*
X23361330Y-137182009D01*
X23380250Y-137038300D01*
X23361330Y-136894591D01*
X23305861Y-136760675D01*
X23217621Y-136645679D01*
X23102625Y-136557439D01*
X23102621Y-136557437D01*
X22968709Y-136501970D01*
X22968708Y-136501969D01*
X22825000Y-136483050D01*
X22681291Y-136501969D01*
X22681290Y-136501970D01*
X22547378Y-136557437D01*
X22547374Y-136557439D01*
X22432381Y-136645677D01*
X22432377Y-136645681D01*
X22344139Y-136760674D01*
X22344137Y-136760678D01*
X22288670Y-136894590D01*
X22288669Y-136894591D01*
X22269750Y-137038299D01*
X20458489Y-137038299D01*
X20588870Y-136858845D01*
X20703241Y-136634379D01*
X20781090Y-136394785D01*
X20820500Y-136145962D01*
X20820500Y-135894038D01*
X20820500Y-135894034D01*
X20781091Y-135645219D01*
X20781090Y-135645215D01*
X20703241Y-135405621D01*
X20588870Y-135181155D01*
X20440793Y-134977344D01*
X20264048Y-134800599D01*
X32944750Y-134800599D01*
X32944750Y-134800600D01*
X32963669Y-134944308D01*
X32963670Y-134944309D01*
X33019139Y-135078225D01*
X33107379Y-135193221D01*
X33222375Y-135281461D01*
X33356291Y-135336930D01*
X33500000Y-135355850D01*
X33643709Y-135336930D01*
X33777625Y-135281461D01*
X33892621Y-135193221D01*
X33980861Y-135078225D01*
X34036330Y-134944309D01*
X34055250Y-134800600D01*
X34055066Y-134799206D01*
X34036330Y-134656891D01*
X33980861Y-134522975D01*
X33892621Y-134407979D01*
X33777625Y-134319739D01*
X33777621Y-134319737D01*
X33643709Y-134264270D01*
X33643708Y-134264269D01*
X33500000Y-134245350D01*
X33356291Y-134264269D01*
X33356290Y-134264270D01*
X33222378Y-134319737D01*
X33222374Y-134319739D01*
X33107381Y-134407977D01*
X33107377Y-134407981D01*
X33019139Y-134522974D01*
X33019137Y-134522978D01*
X32963670Y-134656890D01*
X32963669Y-134656891D01*
X32944750Y-134800599D01*
X20264048Y-134800599D01*
X20262656Y-134799207D01*
X20058845Y-134651130D01*
X20058844Y-134651129D01*
X20058842Y-134651128D01*
X19834379Y-134536759D01*
X19594780Y-134458908D01*
X19345965Y-134419500D01*
X19345962Y-134419500D01*
X19094038Y-134419500D01*
X19094035Y-134419500D01*
X18845219Y-134458908D01*
X18605620Y-134536759D01*
X18381157Y-134651128D01*
X18177345Y-134799206D01*
X17999206Y-134977345D01*
X17851128Y-135181157D01*
X17736759Y-135405620D01*
X17658908Y-135645219D01*
X17619500Y-135894034D01*
X4300500Y-135894034D01*
X4300500Y-129431099D01*
X21855050Y-129431099D01*
X21855050Y-129431100D01*
X21873969Y-129574808D01*
X21873970Y-129574809D01*
X21929439Y-129708725D01*
X22017679Y-129823721D01*
X22132675Y-129911961D01*
X22266591Y-129967430D01*
X22410300Y-129986350D01*
X22554009Y-129967430D01*
X22687925Y-129911961D01*
X22802921Y-129823721D01*
X22891161Y-129708725D01*
X22946630Y-129574809D01*
X22965550Y-129431100D01*
X22946630Y-129287391D01*
X22891161Y-129153475D01*
X22802921Y-129038479D01*
X22687925Y-128950239D01*
X22687921Y-128950237D01*
X22554009Y-128894770D01*
X22554008Y-128894769D01*
X22410300Y-128875850D01*
X22266591Y-128894769D01*
X22266590Y-128894770D01*
X22132678Y-128950237D01*
X22132674Y-128950239D01*
X22017681Y-129038477D01*
X22017677Y-129038481D01*
X21929439Y-129153474D01*
X21929437Y-129153478D01*
X21873970Y-129287390D01*
X21873969Y-129287391D01*
X21855050Y-129431099D01*
X4300500Y-129431099D01*
X4300500Y-108816099D01*
X25383250Y-108816099D01*
X25383250Y-108816100D01*
X25402169Y-108959808D01*
X25402170Y-108959809D01*
X25457639Y-109093725D01*
X25545879Y-109208721D01*
X25660875Y-109296961D01*
X25794791Y-109352430D01*
X25938500Y-109371350D01*
X26082209Y-109352430D01*
X26216125Y-109296961D01*
X26331121Y-109208721D01*
X26419361Y-109093725D01*
X26474830Y-108959809D01*
X26493750Y-108816100D01*
X26474830Y-108672391D01*
X26419361Y-108538475D01*
X26331121Y-108423479D01*
X26216125Y-108335239D01*
X26216121Y-108335237D01*
X26082209Y-108279770D01*
X26082208Y-108279769D01*
X25938500Y-108260850D01*
X25794791Y-108279769D01*
X25794790Y-108279770D01*
X25660878Y-108335237D01*
X25660874Y-108335239D01*
X25545881Y-108423477D01*
X25545877Y-108423481D01*
X25457639Y-108538474D01*
X25457637Y-108538478D01*
X25402170Y-108672390D01*
X25402169Y-108672391D01*
X25383250Y-108816099D01*
X4300500Y-108816099D01*
X4300500Y-105414034D01*
X17619500Y-105414034D01*
X17619500Y-105665965D01*
X17658908Y-105914780D01*
X17736759Y-106154379D01*
X17849159Y-106374978D01*
X17851130Y-106378845D01*
X17999207Y-106582656D01*
X18177344Y-106760793D01*
X18381155Y-106908870D01*
X18605621Y-107023241D01*
X18845215Y-107101090D01*
X18845216Y-107101090D01*
X18845219Y-107101091D01*
X19094035Y-107140500D01*
X19094038Y-107140500D01*
X19345965Y-107140500D01*
X19594780Y-107101091D01*
X19594781Y-107101090D01*
X19594785Y-107101090D01*
X19834379Y-107023241D01*
X20058845Y-106908870D01*
X20262656Y-106760793D01*
X20370850Y-106652599D01*
X26269750Y-106652599D01*
X26269750Y-106652600D01*
X26288669Y-106796308D01*
X26288670Y-106796309D01*
X26335293Y-106908870D01*
X26344139Y-106930225D01*
X26432379Y-107045221D01*
X26547375Y-107133461D01*
X26681291Y-107188930D01*
X26825000Y-107207850D01*
X26968709Y-107188930D01*
X27102625Y-107133461D01*
X27217621Y-107045221D01*
X27305861Y-106930225D01*
X27361330Y-106796309D01*
X27380250Y-106652600D01*
X27361330Y-106508891D01*
X27305861Y-106374975D01*
X27217621Y-106259979D01*
X27102625Y-106171739D01*
X27102621Y-106171737D01*
X26968709Y-106116270D01*
X26968708Y-106116269D01*
X26825000Y-106097350D01*
X26681291Y-106116269D01*
X26681290Y-106116270D01*
X26547378Y-106171737D01*
X26547374Y-106171739D01*
X26432381Y-106259977D01*
X26432377Y-106259981D01*
X26344139Y-106374974D01*
X26344137Y-106374978D01*
X26288670Y-106508890D01*
X26288669Y-106508891D01*
X26269750Y-106652599D01*
X20370850Y-106652599D01*
X20440793Y-106582656D01*
X20588870Y-106378845D01*
X20703241Y-106154379D01*
X20781090Y-105914785D01*
X20820500Y-105665962D01*
X20820500Y-105414038D01*
X20820500Y-105414034D01*
X20781091Y-105165219D01*
X20781090Y-105165215D01*
X20703241Y-104925621D01*
X20588870Y-104701155D01*
X20440793Y-104497344D01*
X20262656Y-104319207D01*
X20058845Y-104171130D01*
X20058844Y-104171129D01*
X20058842Y-104171128D01*
X19834379Y-104056759D01*
X19594780Y-103978908D01*
X19345965Y-103939500D01*
X19345962Y-103939500D01*
X19094038Y-103939500D01*
X19094035Y-103939500D01*
X18845219Y-103978908D01*
X18605620Y-104056759D01*
X18381157Y-104171128D01*
X18177345Y-104319206D01*
X17999206Y-104497345D01*
X17851128Y-104701157D01*
X17736759Y-104925620D01*
X17658908Y-105165219D01*
X17619500Y-105414034D01*
X4300500Y-105414034D01*
X4300500Y-102562299D01*
X23146550Y-102562299D01*
X23146550Y-102562300D01*
X23165469Y-102706008D01*
X23165470Y-102706009D01*
X23220939Y-102839925D01*
X23309179Y-102954921D01*
X23424175Y-103043161D01*
X23558091Y-103098630D01*
X23701800Y-103117550D01*
X23845509Y-103098630D01*
X23979425Y-103043161D01*
X24094421Y-102954921D01*
X24182661Y-102839925D01*
X24238130Y-102706009D01*
X24257050Y-102562300D01*
X24238130Y-102418591D01*
X24182661Y-102284675D01*
X24094421Y-102169679D01*
X23979425Y-102081439D01*
X23979421Y-102081437D01*
X23845509Y-102025970D01*
X23845508Y-102025969D01*
X23701800Y-102007050D01*
X23558091Y-102025969D01*
X23558090Y-102025970D01*
X23424178Y-102081437D01*
X23424174Y-102081439D01*
X23309181Y-102169677D01*
X23309177Y-102169681D01*
X23220939Y-102284674D01*
X23220937Y-102284678D01*
X23165470Y-102418590D01*
X23165469Y-102418591D01*
X23146550Y-102562299D01*
X4300500Y-102562299D01*
X4300500Y-100944299D01*
X27273750Y-100944299D01*
X27273750Y-100944300D01*
X27292669Y-101088008D01*
X27292670Y-101088009D01*
X27348139Y-101221925D01*
X27436379Y-101336921D01*
X27551375Y-101425161D01*
X27685291Y-101480630D01*
X27829000Y-101499550D01*
X27972709Y-101480630D01*
X28106625Y-101425161D01*
X28221621Y-101336921D01*
X28309861Y-101221925D01*
X28365330Y-101088009D01*
X28384250Y-100944300D01*
X28365330Y-100800591D01*
X28309861Y-100666675D01*
X28221621Y-100551679D01*
X28106625Y-100463439D01*
X28106621Y-100463437D01*
X27972709Y-100407970D01*
X27972708Y-100407969D01*
X27829000Y-100389050D01*
X27685291Y-100407969D01*
X27685290Y-100407970D01*
X27551378Y-100463437D01*
X27551374Y-100463439D01*
X27436381Y-100551677D01*
X27436377Y-100551681D01*
X27348139Y-100666674D01*
X27348137Y-100666678D01*
X27292670Y-100800590D01*
X27292669Y-100800591D01*
X27273750Y-100944299D01*
X4300500Y-100944299D01*
X4300500Y-97874034D01*
X6399500Y-97874034D01*
X6399500Y-98125965D01*
X6438908Y-98374780D01*
X6438910Y-98374785D01*
X6516759Y-98614379D01*
X6631130Y-98838845D01*
X6779207Y-99042656D01*
X6957344Y-99220793D01*
X7161155Y-99368870D01*
X7385621Y-99483241D01*
X7625215Y-99561090D01*
X7625216Y-99561090D01*
X7625219Y-99561091D01*
X7874035Y-99600500D01*
X7874038Y-99600500D01*
X8125965Y-99600500D01*
X8374780Y-99561091D01*
X8374781Y-99561090D01*
X8374785Y-99561090D01*
X8614379Y-99483241D01*
X8838845Y-99368870D01*
X9042656Y-99220793D01*
X9220793Y-99042656D01*
X9368870Y-98838845D01*
X9483241Y-98614379D01*
X9561090Y-98374785D01*
X9600500Y-98125962D01*
X9600500Y-97874038D01*
X9600500Y-97874034D01*
X9561091Y-97625219D01*
X9561090Y-97625215D01*
X9483241Y-97385621D01*
X9368870Y-97161155D01*
X9220793Y-96957344D01*
X9042656Y-96779207D01*
X8838845Y-96631130D01*
X8838844Y-96631129D01*
X8838842Y-96631128D01*
X8614379Y-96516759D01*
X8374780Y-96438908D01*
X8125965Y-96399500D01*
X8125962Y-96399500D01*
X7874038Y-96399500D01*
X7874035Y-96399500D01*
X7625219Y-96438908D01*
X7385620Y-96516759D01*
X7161157Y-96631128D01*
X6957345Y-96779206D01*
X6779206Y-96957345D01*
X6631128Y-97161157D01*
X6516759Y-97385620D01*
X6438908Y-97625219D01*
X6399500Y-97874034D01*
X4300500Y-97874034D01*
X4300500Y-94199500D01*
X4319407Y-94141309D01*
X4368907Y-94105345D01*
X4399500Y-94100500D01*
X40039563Y-94100500D01*
X40039563Y-94100499D01*
X40115989Y-94080021D01*
X40184511Y-94040460D01*
X40240460Y-93984511D01*
X40280021Y-93915989D01*
X40300500Y-93839562D01*
X40300500Y-20729199D01*
X51149150Y-20729199D01*
X51149150Y-20729200D01*
X51168069Y-20872908D01*
X51168070Y-20872909D01*
X51223539Y-21006825D01*
X51311779Y-21121821D01*
X51426775Y-21210061D01*
X51560691Y-21265530D01*
X51704400Y-21284450D01*
X51848109Y-21265530D01*
X51982025Y-21210061D01*
X52097021Y-21121821D01*
X52185261Y-21006825D01*
X52240730Y-20872909D01*
X52259650Y-20729200D01*
X52240730Y-20585491D01*
X52185261Y-20451575D01*
X52097021Y-20336579D01*
X51982025Y-20248339D01*
X51982021Y-20248337D01*
X51848109Y-20192870D01*
X51848108Y-20192869D01*
X51704400Y-20173950D01*
X51560691Y-20192869D01*
X51560690Y-20192870D01*
X51426778Y-20248337D01*
X51426774Y-20248339D01*
X51311781Y-20336577D01*
X51311777Y-20336581D01*
X51223539Y-20451574D01*
X51223537Y-20451578D01*
X51168070Y-20585490D01*
X51168069Y-20585491D01*
X51149150Y-20729199D01*
X40300500Y-20729199D01*
X40300500Y-9874034D01*
X42399500Y-9874034D01*
X42399500Y-10125965D01*
X42438908Y-10374780D01*
X42438910Y-10374785D01*
X42516759Y-10614379D01*
X42631130Y-10838845D01*
X42779207Y-11042656D01*
X42957344Y-11220793D01*
X43161155Y-11368870D01*
X43385621Y-11483241D01*
X43625215Y-11561090D01*
X43625216Y-11561090D01*
X43625219Y-11561091D01*
X43874035Y-11600500D01*
X43874038Y-11600500D01*
X44125965Y-11600500D01*
X44374780Y-11561091D01*
X44374781Y-11561090D01*
X44374785Y-11561090D01*
X44614379Y-11483241D01*
X44838845Y-11368870D01*
X45042656Y-11220793D01*
X45220793Y-11042656D01*
X45368870Y-10838845D01*
X45483241Y-10614379D01*
X45561090Y-10374785D01*
X45600500Y-10125962D01*
X45600500Y-9874038D01*
X45600500Y-9874034D01*
X45561091Y-9625219D01*
X45561090Y-9625215D01*
X45483241Y-9385621D01*
X45368870Y-9161155D01*
X45220793Y-8957344D01*
X45042656Y-8779207D01*
X44838845Y-8631130D01*
X44838844Y-8631129D01*
X44838842Y-8631128D01*
X44614379Y-8516759D01*
X44374780Y-8438908D01*
X44125965Y-8399500D01*
X44125962Y-8399500D01*
X43874038Y-8399500D01*
X43874035Y-8399500D01*
X43625219Y-8438908D01*
X43385620Y-8516759D01*
X43161157Y-8631128D01*
X42957345Y-8779206D01*
X42779206Y-8957345D01*
X42631128Y-9161157D01*
X42516759Y-9385620D01*
X42438908Y-9625219D01*
X42399500Y-9874034D01*
X40300500Y-9874034D01*
X40300500Y-6399500D01*
X40319407Y-6341309D01*
X40368907Y-6305345D01*
X40399500Y-6300500D01*
X69800500Y-6300500D01*
X69858691Y-6319407D01*
G37*
%TD.AperFunction*%
%TD*%
M02*
