%TF.GenerationSoftware,KiCad,Pcbnew,8.0.9*%
%TF.CreationDate,2026-09-22T08:41:33-04:00*%
%TF.ProjectId,harmony-mark6-carrier,6861726d-6f6e-4792-9d6d-61726b362d63,rev?*%
%TF.SameCoordinates,Original*%
%TF.FileFunction,Legend,Top*%
%TF.FilePolarity,Positive*%
%FSLAX46Y46*%
G04 Gerber Fmt 4.6, Leading zero omitted, Abs format (unit mm)*
G04 Created by KiCad (PCBNEW 8.0.9) date 2026-09-22 08:41:33*
%MOMM*%
%LPD*%
G01*
G04 APERTURE LIST*
%ADD10C,0.150000*%
%ADD11C,0.130000*%
%ADD12C,0.120000*%
G04 APERTURE END LIST*
D10*
X48771428Y-44347342D02*
X48771428Y-45318771D01*
X48771428Y-45318771D02*
X48828571Y-45433057D01*
X48828571Y-45433057D02*
X48885714Y-45490200D01*
X48885714Y-45490200D02*
X48999999Y-45547342D01*
X48999999Y-45547342D02*
X49228571Y-45547342D01*
X49228571Y-45547342D02*
X49342856Y-45490200D01*
X49342856Y-45490200D02*
X49399999Y-45433057D01*
X49399999Y-45433057D02*
X49457142Y-45318771D01*
X49457142Y-45318771D02*
X49457142Y-44347342D01*
X49971428Y-45490200D02*
X50142857Y-45547342D01*
X50142857Y-45547342D02*
X50428571Y-45547342D01*
X50428571Y-45547342D02*
X50542857Y-45490200D01*
X50542857Y-45490200D02*
X50599999Y-45433057D01*
X50599999Y-45433057D02*
X50657142Y-45318771D01*
X50657142Y-45318771D02*
X50657142Y-45204485D01*
X50657142Y-45204485D02*
X50599999Y-45090200D01*
X50599999Y-45090200D02*
X50542857Y-45033057D01*
X50542857Y-45033057D02*
X50428571Y-44975914D01*
X50428571Y-44975914D02*
X50199999Y-44918771D01*
X50199999Y-44918771D02*
X50085714Y-44861628D01*
X50085714Y-44861628D02*
X50028571Y-44804485D01*
X50028571Y-44804485D02*
X49971428Y-44690200D01*
X49971428Y-44690200D02*
X49971428Y-44575914D01*
X49971428Y-44575914D02*
X50028571Y-44461628D01*
X50028571Y-44461628D02*
X50085714Y-44404485D01*
X50085714Y-44404485D02*
X50199999Y-44347342D01*
X50199999Y-44347342D02*
X50485714Y-44347342D01*
X50485714Y-44347342D02*
X50657142Y-44404485D01*
X51571428Y-44918771D02*
X51742856Y-44975914D01*
X51742856Y-44975914D02*
X51799999Y-45033057D01*
X51799999Y-45033057D02*
X51857142Y-45147342D01*
X51857142Y-45147342D02*
X51857142Y-45318771D01*
X51857142Y-45318771D02*
X51799999Y-45433057D01*
X51799999Y-45433057D02*
X51742856Y-45490200D01*
X51742856Y-45490200D02*
X51628571Y-45547342D01*
X51628571Y-45547342D02*
X51171428Y-45547342D01*
X51171428Y-45547342D02*
X51171428Y-44347342D01*
X51171428Y-44347342D02*
X51571428Y-44347342D01*
X51571428Y-44347342D02*
X51685714Y-44404485D01*
X51685714Y-44404485D02*
X51742856Y-44461628D01*
X51742856Y-44461628D02*
X51799999Y-44575914D01*
X51799999Y-44575914D02*
X51799999Y-44690200D01*
X51799999Y-44690200D02*
X51742856Y-44804485D01*
X51742856Y-44804485D02*
X51685714Y-44861628D01*
X51685714Y-44861628D02*
X51571428Y-44918771D01*
X51571428Y-44918771D02*
X51171428Y-44918771D01*
X53514285Y-44347342D02*
X53742857Y-44347342D01*
X53742857Y-44347342D02*
X53857142Y-44404485D01*
X53857142Y-44404485D02*
X53971428Y-44518771D01*
X53971428Y-44518771D02*
X54028571Y-44747342D01*
X54028571Y-44747342D02*
X54028571Y-45147342D01*
X54028571Y-45147342D02*
X53971428Y-45375914D01*
X53971428Y-45375914D02*
X53857142Y-45490200D01*
X53857142Y-45490200D02*
X53742857Y-45547342D01*
X53742857Y-45547342D02*
X53514285Y-45547342D01*
X53514285Y-45547342D02*
X53400000Y-45490200D01*
X53400000Y-45490200D02*
X53285714Y-45375914D01*
X53285714Y-45375914D02*
X53228571Y-45147342D01*
X53228571Y-45147342D02*
X53228571Y-44747342D01*
X53228571Y-44747342D02*
X53285714Y-44518771D01*
X53285714Y-44518771D02*
X53400000Y-44404485D01*
X53400000Y-44404485D02*
X53514285Y-44347342D01*
X54542857Y-45547342D02*
X54542857Y-44347342D01*
X54542857Y-44347342D02*
X55228571Y-45547342D01*
X55228571Y-45547342D02*
X55228571Y-44347342D01*
X56371428Y-45547342D02*
X55800000Y-45547342D01*
X55800000Y-45547342D02*
X55800000Y-44347342D01*
X57000000Y-44975914D02*
X57000000Y-45547342D01*
X56600000Y-44347342D02*
X57000000Y-44975914D01*
X57000000Y-44975914D02*
X57400000Y-44347342D01*
X47352380Y-125385427D02*
X47352380Y-124535427D01*
X47352380Y-124535427D02*
X47676190Y-124535427D01*
X47676190Y-124535427D02*
X47757142Y-124575903D01*
X47757142Y-124575903D02*
X47797619Y-124616379D01*
X47797619Y-124616379D02*
X47838095Y-124697331D01*
X47838095Y-124697331D02*
X47838095Y-124818760D01*
X47838095Y-124818760D02*
X47797619Y-124899712D01*
X47797619Y-124899712D02*
X47757142Y-124940189D01*
X47757142Y-124940189D02*
X47676190Y-124980665D01*
X47676190Y-124980665D02*
X47352380Y-124980665D01*
X48647619Y-124575903D02*
X48566666Y-124535427D01*
X48566666Y-124535427D02*
X48445238Y-124535427D01*
X48445238Y-124535427D02*
X48323809Y-124575903D01*
X48323809Y-124575903D02*
X48242857Y-124656855D01*
X48242857Y-124656855D02*
X48202380Y-124737808D01*
X48202380Y-124737808D02*
X48161904Y-124899712D01*
X48161904Y-124899712D02*
X48161904Y-125021141D01*
X48161904Y-125021141D02*
X48202380Y-125183046D01*
X48202380Y-125183046D02*
X48242857Y-125263998D01*
X48242857Y-125263998D02*
X48323809Y-125344951D01*
X48323809Y-125344951D02*
X48445238Y-125385427D01*
X48445238Y-125385427D02*
X48526190Y-125385427D01*
X48526190Y-125385427D02*
X48647619Y-125344951D01*
X48647619Y-125344951D02*
X48688095Y-125304474D01*
X48688095Y-125304474D02*
X48688095Y-125021141D01*
X48688095Y-125021141D02*
X48526190Y-125021141D01*
X47838095Y-104535427D02*
X47433333Y-104535427D01*
X47433333Y-104535427D02*
X47392857Y-104940189D01*
X47392857Y-104940189D02*
X47433333Y-104899712D01*
X47433333Y-104899712D02*
X47514286Y-104859236D01*
X47514286Y-104859236D02*
X47716667Y-104859236D01*
X47716667Y-104859236D02*
X47797619Y-104899712D01*
X47797619Y-104899712D02*
X47838095Y-104940189D01*
X47838095Y-104940189D02*
X47878572Y-105021141D01*
X47878572Y-105021141D02*
X47878572Y-105223522D01*
X47878572Y-105223522D02*
X47838095Y-105304474D01*
X47838095Y-105304474D02*
X47797619Y-105344951D01*
X47797619Y-105344951D02*
X47716667Y-105385427D01*
X47716667Y-105385427D02*
X47514286Y-105385427D01*
X47514286Y-105385427D02*
X47433333Y-105344951D01*
X47433333Y-105344951D02*
X47392857Y-105304474D01*
X48121429Y-104535427D02*
X48404762Y-105385427D01*
X48404762Y-105385427D02*
X48688096Y-104535427D01*
X46846428Y-110385427D02*
X46846428Y-109535427D01*
X46846428Y-109535427D02*
X47129762Y-110142570D01*
X47129762Y-110142570D02*
X47413095Y-109535427D01*
X47413095Y-109535427D02*
X47413095Y-110385427D01*
X48303572Y-110304474D02*
X48263096Y-110344951D01*
X48263096Y-110344951D02*
X48141667Y-110385427D01*
X48141667Y-110385427D02*
X48060715Y-110385427D01*
X48060715Y-110385427D02*
X47939286Y-110344951D01*
X47939286Y-110344951D02*
X47858334Y-110263998D01*
X47858334Y-110263998D02*
X47817857Y-110183046D01*
X47817857Y-110183046D02*
X47777381Y-110021141D01*
X47777381Y-110021141D02*
X47777381Y-109899712D01*
X47777381Y-109899712D02*
X47817857Y-109737808D01*
X47817857Y-109737808D02*
X47858334Y-109656855D01*
X47858334Y-109656855D02*
X47939286Y-109575903D01*
X47939286Y-109575903D02*
X48060715Y-109535427D01*
X48060715Y-109535427D02*
X48141667Y-109535427D01*
X48141667Y-109535427D02*
X48263096Y-109575903D01*
X48263096Y-109575903D02*
X48303572Y-109616379D01*
X48667857Y-109535427D02*
X48667857Y-110223522D01*
X48667857Y-110223522D02*
X48708334Y-110304474D01*
X48708334Y-110304474D02*
X48748810Y-110344951D01*
X48748810Y-110344951D02*
X48829762Y-110385427D01*
X48829762Y-110385427D02*
X48991667Y-110385427D01*
X48991667Y-110385427D02*
X49072619Y-110344951D01*
X49072619Y-110344951D02*
X49113096Y-110304474D01*
X49113096Y-110304474D02*
X49153572Y-110223522D01*
X49153572Y-110223522D02*
X49153572Y-109535427D01*
X31238094Y-104550057D02*
X31142856Y-104502438D01*
X31142856Y-104502438D02*
X31047618Y-104407200D01*
X31047618Y-104407200D02*
X30904761Y-104264342D01*
X30904761Y-104264342D02*
X30809523Y-104216723D01*
X30809523Y-104216723D02*
X30714285Y-104216723D01*
X30761904Y-104454819D02*
X30666666Y-104407200D01*
X30666666Y-104407200D02*
X30571428Y-104311961D01*
X30571428Y-104311961D02*
X30523809Y-104121485D01*
X30523809Y-104121485D02*
X30523809Y-103788152D01*
X30523809Y-103788152D02*
X30571428Y-103597676D01*
X30571428Y-103597676D02*
X30666666Y-103502438D01*
X30666666Y-103502438D02*
X30761904Y-103454819D01*
X30761904Y-103454819D02*
X30952380Y-103454819D01*
X30952380Y-103454819D02*
X31047618Y-103502438D01*
X31047618Y-103502438D02*
X31142856Y-103597676D01*
X31142856Y-103597676D02*
X31190475Y-103788152D01*
X31190475Y-103788152D02*
X31190475Y-104121485D01*
X31190475Y-104121485D02*
X31142856Y-104311961D01*
X31142856Y-104311961D02*
X31047618Y-104407200D01*
X31047618Y-104407200D02*
X30952380Y-104454819D01*
X30952380Y-104454819D02*
X30761904Y-104454819D01*
X31476190Y-103454819D02*
X32047618Y-103454819D01*
X31761904Y-104454819D02*
X31761904Y-103454819D01*
X33857142Y-103407200D02*
X33000000Y-104692914D01*
X34904762Y-104169104D02*
X35380952Y-104169104D01*
X34809524Y-104454819D02*
X35142857Y-103454819D01*
X35142857Y-103454819D02*
X35476190Y-104454819D01*
X35809524Y-104454819D02*
X35809524Y-103454819D01*
X35809524Y-103454819D02*
X36380952Y-104454819D01*
X36380952Y-104454819D02*
X36380952Y-103454819D01*
X37047619Y-103454819D02*
X37238095Y-103454819D01*
X37238095Y-103454819D02*
X37333333Y-103502438D01*
X37333333Y-103502438D02*
X37428571Y-103597676D01*
X37428571Y-103597676D02*
X37476190Y-103788152D01*
X37476190Y-103788152D02*
X37476190Y-104121485D01*
X37476190Y-104121485D02*
X37428571Y-104311961D01*
X37428571Y-104311961D02*
X37333333Y-104407200D01*
X37333333Y-104407200D02*
X37238095Y-104454819D01*
X37238095Y-104454819D02*
X37047619Y-104454819D01*
X37047619Y-104454819D02*
X36952381Y-104407200D01*
X36952381Y-104407200D02*
X36857143Y-104311961D01*
X36857143Y-104311961D02*
X36809524Y-104121485D01*
X36809524Y-104121485D02*
X36809524Y-103788152D01*
X36809524Y-103788152D02*
X36857143Y-103597676D01*
X36857143Y-103597676D02*
X36952381Y-103502438D01*
X36952381Y-103502438D02*
X37047619Y-103454819D01*
X63214286Y-14407200D02*
X63357143Y-14454819D01*
X63357143Y-14454819D02*
X63595238Y-14454819D01*
X63595238Y-14454819D02*
X63690476Y-14407200D01*
X63690476Y-14407200D02*
X63738095Y-14359580D01*
X63738095Y-14359580D02*
X63785714Y-14264342D01*
X63785714Y-14264342D02*
X63785714Y-14169104D01*
X63785714Y-14169104D02*
X63738095Y-14073866D01*
X63738095Y-14073866D02*
X63690476Y-14026247D01*
X63690476Y-14026247D02*
X63595238Y-13978628D01*
X63595238Y-13978628D02*
X63404762Y-13931009D01*
X63404762Y-13931009D02*
X63309524Y-13883390D01*
X63309524Y-13883390D02*
X63261905Y-13835771D01*
X63261905Y-13835771D02*
X63214286Y-13740533D01*
X63214286Y-13740533D02*
X63214286Y-13645295D01*
X63214286Y-13645295D02*
X63261905Y-13550057D01*
X63261905Y-13550057D02*
X63309524Y-13502438D01*
X63309524Y-13502438D02*
X63404762Y-13454819D01*
X63404762Y-13454819D02*
X63642857Y-13454819D01*
X63642857Y-13454819D02*
X63785714Y-13502438D01*
X64214286Y-14454819D02*
X64214286Y-13454819D01*
X64214286Y-13454819D02*
X64452381Y-13454819D01*
X64452381Y-13454819D02*
X64595238Y-13502438D01*
X64595238Y-13502438D02*
X64690476Y-13597676D01*
X64690476Y-13597676D02*
X64738095Y-13692914D01*
X64738095Y-13692914D02*
X64785714Y-13883390D01*
X64785714Y-13883390D02*
X64785714Y-14026247D01*
X64785714Y-14026247D02*
X64738095Y-14216723D01*
X64738095Y-14216723D02*
X64690476Y-14311961D01*
X64690476Y-14311961D02*
X64595238Y-14407200D01*
X64595238Y-14407200D02*
X64452381Y-14454819D01*
X64452381Y-14454819D02*
X64214286Y-14454819D01*
X65976191Y-13788152D02*
X66738096Y-14073866D01*
X66738096Y-14073866D02*
X65976191Y-14359580D01*
X48333333Y-63454819D02*
X48904761Y-63454819D01*
X48619047Y-64454819D02*
X48619047Y-63454819D01*
X49571428Y-63931009D02*
X49238095Y-63931009D01*
X49238095Y-64454819D02*
X49238095Y-63454819D01*
X49238095Y-63454819D02*
X49714285Y-63454819D01*
X49952381Y-63454819D02*
X50523809Y-63454819D01*
X50238095Y-64454819D02*
X50238095Y-63454819D01*
X52333333Y-63407200D02*
X51476191Y-64692914D01*
X53761905Y-63931009D02*
X53904762Y-63978628D01*
X53904762Y-63978628D02*
X53952381Y-64026247D01*
X53952381Y-64026247D02*
X54000000Y-64121485D01*
X54000000Y-64121485D02*
X54000000Y-64264342D01*
X54000000Y-64264342D02*
X53952381Y-64359580D01*
X53952381Y-64359580D02*
X53904762Y-64407200D01*
X53904762Y-64407200D02*
X53809524Y-64454819D01*
X53809524Y-64454819D02*
X53428572Y-64454819D01*
X53428572Y-64454819D02*
X53428572Y-63454819D01*
X53428572Y-63454819D02*
X53761905Y-63454819D01*
X53761905Y-63454819D02*
X53857143Y-63502438D01*
X53857143Y-63502438D02*
X53904762Y-63550057D01*
X53904762Y-63550057D02*
X53952381Y-63645295D01*
X53952381Y-63645295D02*
X53952381Y-63740533D01*
X53952381Y-63740533D02*
X53904762Y-63835771D01*
X53904762Y-63835771D02*
X53857143Y-63883390D01*
X53857143Y-63883390D02*
X53761905Y-63931009D01*
X53761905Y-63931009D02*
X53428572Y-63931009D01*
X54904762Y-64454819D02*
X54428572Y-64454819D01*
X54428572Y-64454819D02*
X54428572Y-63454819D01*
X55238096Y-63454819D02*
X55238096Y-64264342D01*
X55238096Y-64264342D02*
X55285715Y-64359580D01*
X55285715Y-64359580D02*
X55333334Y-64407200D01*
X55333334Y-64407200D02*
X55428572Y-64454819D01*
X55428572Y-64454819D02*
X55619048Y-64454819D01*
X55619048Y-64454819D02*
X55714286Y-64407200D01*
X55714286Y-64407200D02*
X55761905Y-64359580D01*
X55761905Y-64359580D02*
X55809524Y-64264342D01*
X55809524Y-64264342D02*
X55809524Y-63454819D01*
X56285715Y-63931009D02*
X56619048Y-63931009D01*
X56761905Y-64454819D02*
X56285715Y-64454819D01*
X56285715Y-64454819D02*
X56285715Y-63454819D01*
X56285715Y-63454819D02*
X56761905Y-63454819D01*
X57952382Y-63454819D02*
X57952382Y-64264342D01*
X57952382Y-64264342D02*
X58000001Y-64359580D01*
X58000001Y-64359580D02*
X58047620Y-64407200D01*
X58047620Y-64407200D02*
X58142858Y-64454819D01*
X58142858Y-64454819D02*
X58333334Y-64454819D01*
X58333334Y-64454819D02*
X58428572Y-64407200D01*
X58428572Y-64407200D02*
X58476191Y-64359580D01*
X58476191Y-64359580D02*
X58523810Y-64264342D01*
X58523810Y-64264342D02*
X58523810Y-63454819D01*
X59000001Y-64454819D02*
X59000001Y-63454819D01*
X59000001Y-63454819D02*
X59380953Y-63454819D01*
X59380953Y-63454819D02*
X59476191Y-63502438D01*
X59476191Y-63502438D02*
X59523810Y-63550057D01*
X59523810Y-63550057D02*
X59571429Y-63645295D01*
X59571429Y-63645295D02*
X59571429Y-63788152D01*
X59571429Y-63788152D02*
X59523810Y-63883390D01*
X59523810Y-63883390D02*
X59476191Y-63931009D01*
X59476191Y-63931009D02*
X59380953Y-63978628D01*
X59380953Y-63978628D02*
X59000001Y-63978628D01*
X46947619Y-114535427D02*
X47473810Y-114535427D01*
X47473810Y-114535427D02*
X47190476Y-114859236D01*
X47190476Y-114859236D02*
X47311905Y-114859236D01*
X47311905Y-114859236D02*
X47392857Y-114899712D01*
X47392857Y-114899712D02*
X47433333Y-114940189D01*
X47433333Y-114940189D02*
X47473810Y-115021141D01*
X47473810Y-115021141D02*
X47473810Y-115223522D01*
X47473810Y-115223522D02*
X47433333Y-115304474D01*
X47433333Y-115304474D02*
X47392857Y-115344951D01*
X47392857Y-115344951D02*
X47311905Y-115385427D01*
X47311905Y-115385427D02*
X47069048Y-115385427D01*
X47069048Y-115385427D02*
X46988095Y-115344951D01*
X46988095Y-115344951D02*
X46947619Y-115304474D01*
X47716667Y-114535427D02*
X48000000Y-115385427D01*
X48000000Y-115385427D02*
X48283334Y-114535427D01*
X48485714Y-114535427D02*
X49011905Y-114535427D01*
X49011905Y-114535427D02*
X48728571Y-114859236D01*
X48728571Y-114859236D02*
X48850000Y-114859236D01*
X48850000Y-114859236D02*
X48930952Y-114899712D01*
X48930952Y-114899712D02*
X48971428Y-114940189D01*
X48971428Y-114940189D02*
X49011905Y-115021141D01*
X49011905Y-115021141D02*
X49011905Y-115223522D01*
X49011905Y-115223522D02*
X48971428Y-115304474D01*
X48971428Y-115304474D02*
X48930952Y-115344951D01*
X48930952Y-115344951D02*
X48850000Y-115385427D01*
X48850000Y-115385427D02*
X48607143Y-115385427D01*
X48607143Y-115385427D02*
X48526190Y-115344951D01*
X48526190Y-115344951D02*
X48485714Y-115304474D01*
X9999999Y-150126037D02*
X9666666Y-150126037D01*
X9666666Y-150649847D02*
X9666666Y-149649847D01*
X9666666Y-149649847D02*
X10142856Y-149649847D01*
X10904761Y-150602228D02*
X10809523Y-150649847D01*
X10809523Y-150649847D02*
X10619047Y-150649847D01*
X10619047Y-150649847D02*
X10523809Y-150602228D01*
X10523809Y-150602228D02*
X10476190Y-150506989D01*
X10476190Y-150506989D02*
X10476190Y-150126037D01*
X10476190Y-150126037D02*
X10523809Y-150030799D01*
X10523809Y-150030799D02*
X10619047Y-149983180D01*
X10619047Y-149983180D02*
X10809523Y-149983180D01*
X10809523Y-149983180D02*
X10904761Y-150030799D01*
X10904761Y-150030799D02*
X10952380Y-150126037D01*
X10952380Y-150126037D02*
X10952380Y-150221275D01*
X10952380Y-150221275D02*
X10476190Y-150316513D01*
X11809523Y-150649847D02*
X11809523Y-150126037D01*
X11809523Y-150126037D02*
X11761904Y-150030799D01*
X11761904Y-150030799D02*
X11666666Y-149983180D01*
X11666666Y-149983180D02*
X11476190Y-149983180D01*
X11476190Y-149983180D02*
X11380952Y-150030799D01*
X11809523Y-150602228D02*
X11714285Y-150649847D01*
X11714285Y-150649847D02*
X11476190Y-150649847D01*
X11476190Y-150649847D02*
X11380952Y-150602228D01*
X11380952Y-150602228D02*
X11333333Y-150506989D01*
X11333333Y-150506989D02*
X11333333Y-150411751D01*
X11333333Y-150411751D02*
X11380952Y-150316513D01*
X11380952Y-150316513D02*
X11476190Y-150268894D01*
X11476190Y-150268894D02*
X11714285Y-150268894D01*
X11714285Y-150268894D02*
X11809523Y-150221275D01*
X12142857Y-149983180D02*
X12523809Y-149983180D01*
X12285714Y-149649847D02*
X12285714Y-150506989D01*
X12285714Y-150506989D02*
X12333333Y-150602228D01*
X12333333Y-150602228D02*
X12428571Y-150649847D01*
X12428571Y-150649847D02*
X12523809Y-150649847D01*
X12857143Y-150649847D02*
X12857143Y-149649847D01*
X13285714Y-150649847D02*
X13285714Y-150126037D01*
X13285714Y-150126037D02*
X13238095Y-150030799D01*
X13238095Y-150030799D02*
X13142857Y-149983180D01*
X13142857Y-149983180D02*
X13000000Y-149983180D01*
X13000000Y-149983180D02*
X12904762Y-150030799D01*
X12904762Y-150030799D02*
X12857143Y-150078418D01*
X14142857Y-150602228D02*
X14047619Y-150649847D01*
X14047619Y-150649847D02*
X13857143Y-150649847D01*
X13857143Y-150649847D02*
X13761905Y-150602228D01*
X13761905Y-150602228D02*
X13714286Y-150506989D01*
X13714286Y-150506989D02*
X13714286Y-150126037D01*
X13714286Y-150126037D02*
X13761905Y-150030799D01*
X13761905Y-150030799D02*
X13857143Y-149983180D01*
X13857143Y-149983180D02*
X14047619Y-149983180D01*
X14047619Y-149983180D02*
X14142857Y-150030799D01*
X14142857Y-150030799D02*
X14190476Y-150126037D01*
X14190476Y-150126037D02*
X14190476Y-150221275D01*
X14190476Y-150221275D02*
X13714286Y-150316513D01*
X14619048Y-150649847D02*
X14619048Y-149983180D01*
X14619048Y-150173656D02*
X14666667Y-150078418D01*
X14666667Y-150078418D02*
X14714286Y-150030799D01*
X14714286Y-150030799D02*
X14809524Y-149983180D01*
X14809524Y-149983180D02*
X14904762Y-149983180D01*
X15952382Y-149983180D02*
X16666667Y-149983180D01*
X16238096Y-149554608D02*
X15952382Y-150840323D01*
X16571429Y-150411751D02*
X15857144Y-150411751D01*
X16285715Y-150840323D02*
X16571429Y-149554608D01*
X17476191Y-149649847D02*
X17000001Y-149649847D01*
X17000001Y-149649847D02*
X16952382Y-150126037D01*
X16952382Y-150126037D02*
X17000001Y-150078418D01*
X17000001Y-150078418D02*
X17095239Y-150030799D01*
X17095239Y-150030799D02*
X17333334Y-150030799D01*
X17333334Y-150030799D02*
X17428572Y-150078418D01*
X17428572Y-150078418D02*
X17476191Y-150126037D01*
X17476191Y-150126037D02*
X17523810Y-150221275D01*
X17523810Y-150221275D02*
X17523810Y-150459370D01*
X17523810Y-150459370D02*
X17476191Y-150554608D01*
X17476191Y-150554608D02*
X17428572Y-150602228D01*
X17428572Y-150602228D02*
X17333334Y-150649847D01*
X17333334Y-150649847D02*
X17095239Y-150649847D01*
X17095239Y-150649847D02*
X17000001Y-150602228D01*
X17000001Y-150602228D02*
X16952382Y-150554608D01*
X18000001Y-150649847D02*
X18190477Y-150649847D01*
X18190477Y-150649847D02*
X18285715Y-150602228D01*
X18285715Y-150602228D02*
X18333334Y-150554608D01*
X18333334Y-150554608D02*
X18428572Y-150411751D01*
X18428572Y-150411751D02*
X18476191Y-150221275D01*
X18476191Y-150221275D02*
X18476191Y-149840323D01*
X18476191Y-149840323D02*
X18428572Y-149745085D01*
X18428572Y-149745085D02*
X18380953Y-149697466D01*
X18380953Y-149697466D02*
X18285715Y-149649847D01*
X18285715Y-149649847D02*
X18095239Y-149649847D01*
X18095239Y-149649847D02*
X18000001Y-149697466D01*
X18000001Y-149697466D02*
X17952382Y-149745085D01*
X17952382Y-149745085D02*
X17904763Y-149840323D01*
X17904763Y-149840323D02*
X17904763Y-150078418D01*
X17904763Y-150078418D02*
X17952382Y-150173656D01*
X17952382Y-150173656D02*
X18000001Y-150221275D01*
X18000001Y-150221275D02*
X18095239Y-150268894D01*
X18095239Y-150268894D02*
X18285715Y-150268894D01*
X18285715Y-150268894D02*
X18380953Y-150221275D01*
X18380953Y-150221275D02*
X18428572Y-150173656D01*
X18428572Y-150173656D02*
X18476191Y-150078418D01*
X19095239Y-149649847D02*
X19190477Y-149649847D01*
X19190477Y-149649847D02*
X19285715Y-149697466D01*
X19285715Y-149697466D02*
X19333334Y-149745085D01*
X19333334Y-149745085D02*
X19380953Y-149840323D01*
X19380953Y-149840323D02*
X19428572Y-150030799D01*
X19428572Y-150030799D02*
X19428572Y-150268894D01*
X19428572Y-150268894D02*
X19380953Y-150459370D01*
X19380953Y-150459370D02*
X19333334Y-150554608D01*
X19333334Y-150554608D02*
X19285715Y-150602228D01*
X19285715Y-150602228D02*
X19190477Y-150649847D01*
X19190477Y-150649847D02*
X19095239Y-150649847D01*
X19095239Y-150649847D02*
X19000001Y-150602228D01*
X19000001Y-150602228D02*
X18952382Y-150554608D01*
X18952382Y-150554608D02*
X18904763Y-150459370D01*
X18904763Y-150459370D02*
X18857144Y-150268894D01*
X18857144Y-150268894D02*
X18857144Y-150030799D01*
X18857144Y-150030799D02*
X18904763Y-149840323D01*
X18904763Y-149840323D02*
X18952382Y-149745085D01*
X18952382Y-149745085D02*
X19000001Y-149697466D01*
X19000001Y-149697466D02*
X19095239Y-149649847D01*
X20047620Y-149649847D02*
X20142858Y-149649847D01*
X20142858Y-149649847D02*
X20238096Y-149697466D01*
X20238096Y-149697466D02*
X20285715Y-149745085D01*
X20285715Y-149745085D02*
X20333334Y-149840323D01*
X20333334Y-149840323D02*
X20380953Y-150030799D01*
X20380953Y-150030799D02*
X20380953Y-150268894D01*
X20380953Y-150268894D02*
X20333334Y-150459370D01*
X20333334Y-150459370D02*
X20285715Y-150554608D01*
X20285715Y-150554608D02*
X20238096Y-150602228D01*
X20238096Y-150602228D02*
X20142858Y-150649847D01*
X20142858Y-150649847D02*
X20047620Y-150649847D01*
X20047620Y-150649847D02*
X19952382Y-150602228D01*
X19952382Y-150602228D02*
X19904763Y-150554608D01*
X19904763Y-150554608D02*
X19857144Y-150459370D01*
X19857144Y-150459370D02*
X19809525Y-150268894D01*
X19809525Y-150268894D02*
X19809525Y-150030799D01*
X19809525Y-150030799D02*
X19857144Y-149840323D01*
X19857144Y-149840323D02*
X19904763Y-149745085D01*
X19904763Y-149745085D02*
X19952382Y-149697466D01*
X19952382Y-149697466D02*
X20047620Y-149649847D01*
X12738095Y-151259791D02*
X12738095Y-152069314D01*
X12738095Y-152069314D02*
X12785714Y-152164552D01*
X12785714Y-152164552D02*
X12833333Y-152212172D01*
X12833333Y-152212172D02*
X12928571Y-152259791D01*
X12928571Y-152259791D02*
X13119047Y-152259791D01*
X13119047Y-152259791D02*
X13214285Y-152212172D01*
X13214285Y-152212172D02*
X13261904Y-152164552D01*
X13261904Y-152164552D02*
X13309523Y-152069314D01*
X13309523Y-152069314D02*
X13309523Y-151259791D01*
X13738095Y-152212172D02*
X13880952Y-152259791D01*
X13880952Y-152259791D02*
X14119047Y-152259791D01*
X14119047Y-152259791D02*
X14214285Y-152212172D01*
X14214285Y-152212172D02*
X14261904Y-152164552D01*
X14261904Y-152164552D02*
X14309523Y-152069314D01*
X14309523Y-152069314D02*
X14309523Y-151974076D01*
X14309523Y-151974076D02*
X14261904Y-151878838D01*
X14261904Y-151878838D02*
X14214285Y-151831219D01*
X14214285Y-151831219D02*
X14119047Y-151783600D01*
X14119047Y-151783600D02*
X13928571Y-151735981D01*
X13928571Y-151735981D02*
X13833333Y-151688362D01*
X13833333Y-151688362D02*
X13785714Y-151640743D01*
X13785714Y-151640743D02*
X13738095Y-151545505D01*
X13738095Y-151545505D02*
X13738095Y-151450267D01*
X13738095Y-151450267D02*
X13785714Y-151355029D01*
X13785714Y-151355029D02*
X13833333Y-151307410D01*
X13833333Y-151307410D02*
X13928571Y-151259791D01*
X13928571Y-151259791D02*
X14166666Y-151259791D01*
X14166666Y-151259791D02*
X14309523Y-151307410D01*
X15071428Y-151735981D02*
X15214285Y-151783600D01*
X15214285Y-151783600D02*
X15261904Y-151831219D01*
X15261904Y-151831219D02*
X15309523Y-151926457D01*
X15309523Y-151926457D02*
X15309523Y-152069314D01*
X15309523Y-152069314D02*
X15261904Y-152164552D01*
X15261904Y-152164552D02*
X15214285Y-152212172D01*
X15214285Y-152212172D02*
X15119047Y-152259791D01*
X15119047Y-152259791D02*
X14738095Y-152259791D01*
X14738095Y-152259791D02*
X14738095Y-151259791D01*
X14738095Y-151259791D02*
X15071428Y-151259791D01*
X15071428Y-151259791D02*
X15166666Y-151307410D01*
X15166666Y-151307410D02*
X15214285Y-151355029D01*
X15214285Y-151355029D02*
X15261904Y-151450267D01*
X15261904Y-151450267D02*
X15261904Y-151545505D01*
X15261904Y-151545505D02*
X15214285Y-151640743D01*
X15214285Y-151640743D02*
X15166666Y-151688362D01*
X15166666Y-151688362D02*
X15071428Y-151735981D01*
X15071428Y-151735981D02*
X14738095Y-151735981D01*
X17261905Y-151593124D02*
X16500000Y-151878838D01*
X16500000Y-151878838D02*
X17261905Y-152164552D01*
X47314285Y-42547342D02*
X47314285Y-41347342D01*
X47314285Y-41918771D02*
X47999999Y-41918771D01*
X47999999Y-42547342D02*
X47999999Y-41347342D01*
X48514285Y-42204485D02*
X49085714Y-42204485D01*
X48399999Y-42547342D02*
X48799999Y-41347342D01*
X48799999Y-41347342D02*
X49199999Y-42547342D01*
X50285713Y-42547342D02*
X49885713Y-41975914D01*
X49599999Y-42547342D02*
X49599999Y-41347342D01*
X49599999Y-41347342D02*
X50057142Y-41347342D01*
X50057142Y-41347342D02*
X50171427Y-41404485D01*
X50171427Y-41404485D02*
X50228570Y-41461628D01*
X50228570Y-41461628D02*
X50285713Y-41575914D01*
X50285713Y-41575914D02*
X50285713Y-41747342D01*
X50285713Y-41747342D02*
X50228570Y-41861628D01*
X50228570Y-41861628D02*
X50171427Y-41918771D01*
X50171427Y-41918771D02*
X50057142Y-41975914D01*
X50057142Y-41975914D02*
X49599999Y-41975914D01*
X50799999Y-42547342D02*
X50799999Y-41347342D01*
X50799999Y-41347342D02*
X51199999Y-42204485D01*
X51199999Y-42204485D02*
X51599999Y-41347342D01*
X51599999Y-41347342D02*
X51599999Y-42547342D01*
X52399999Y-41347342D02*
X52628571Y-41347342D01*
X52628571Y-41347342D02*
X52742856Y-41404485D01*
X52742856Y-41404485D02*
X52857142Y-41518771D01*
X52857142Y-41518771D02*
X52914285Y-41747342D01*
X52914285Y-41747342D02*
X52914285Y-42147342D01*
X52914285Y-42147342D02*
X52857142Y-42375914D01*
X52857142Y-42375914D02*
X52742856Y-42490200D01*
X52742856Y-42490200D02*
X52628571Y-42547342D01*
X52628571Y-42547342D02*
X52399999Y-42547342D01*
X52399999Y-42547342D02*
X52285714Y-42490200D01*
X52285714Y-42490200D02*
X52171428Y-42375914D01*
X52171428Y-42375914D02*
X52114285Y-42147342D01*
X52114285Y-42147342D02*
X52114285Y-41747342D01*
X52114285Y-41747342D02*
X52171428Y-41518771D01*
X52171428Y-41518771D02*
X52285714Y-41404485D01*
X52285714Y-41404485D02*
X52399999Y-41347342D01*
X53428571Y-42547342D02*
X53428571Y-41347342D01*
X53428571Y-41347342D02*
X54114285Y-42547342D01*
X54114285Y-42547342D02*
X54114285Y-41347342D01*
X54914285Y-41975914D02*
X54914285Y-42547342D01*
X54514285Y-41347342D02*
X54914285Y-41975914D01*
X54914285Y-41975914D02*
X55314285Y-41347342D01*
X56628571Y-42547342D02*
X56628571Y-41347342D01*
X56628571Y-41347342D02*
X57028571Y-42204485D01*
X57028571Y-42204485D02*
X57428571Y-41347342D01*
X57428571Y-41347342D02*
X57428571Y-42547342D01*
X58514286Y-41347342D02*
X58285714Y-41347342D01*
X58285714Y-41347342D02*
X58171428Y-41404485D01*
X58171428Y-41404485D02*
X58114286Y-41461628D01*
X58114286Y-41461628D02*
X58000000Y-41633057D01*
X58000000Y-41633057D02*
X57942857Y-41861628D01*
X57942857Y-41861628D02*
X57942857Y-42318771D01*
X57942857Y-42318771D02*
X58000000Y-42433057D01*
X58000000Y-42433057D02*
X58057143Y-42490200D01*
X58057143Y-42490200D02*
X58171428Y-42547342D01*
X58171428Y-42547342D02*
X58400000Y-42547342D01*
X58400000Y-42547342D02*
X58514286Y-42490200D01*
X58514286Y-42490200D02*
X58571428Y-42433057D01*
X58571428Y-42433057D02*
X58628571Y-42318771D01*
X58628571Y-42318771D02*
X58628571Y-42033057D01*
X58628571Y-42033057D02*
X58571428Y-41918771D01*
X58571428Y-41918771D02*
X58514286Y-41861628D01*
X58514286Y-41861628D02*
X58400000Y-41804485D01*
X58400000Y-41804485D02*
X58171428Y-41804485D01*
X58171428Y-41804485D02*
X58057143Y-41861628D01*
X58057143Y-41861628D02*
X58000000Y-41918771D01*
X58000000Y-41918771D02*
X57942857Y-42033057D01*
X60914286Y-41290200D02*
X59885714Y-42833057D01*
X62171429Y-42204485D02*
X62742858Y-42204485D01*
X62057143Y-42547342D02*
X62457143Y-41347342D01*
X62457143Y-41347342D02*
X62857143Y-42547342D01*
X47352381Y-119575903D02*
X47271428Y-119535427D01*
X47271428Y-119535427D02*
X47150000Y-119535427D01*
X47150000Y-119535427D02*
X47028571Y-119575903D01*
X47028571Y-119575903D02*
X46947619Y-119656855D01*
X46947619Y-119656855D02*
X46907142Y-119737808D01*
X46907142Y-119737808D02*
X46866666Y-119899712D01*
X46866666Y-119899712D02*
X46866666Y-120021141D01*
X46866666Y-120021141D02*
X46907142Y-120183046D01*
X46907142Y-120183046D02*
X46947619Y-120263998D01*
X46947619Y-120263998D02*
X47028571Y-120344951D01*
X47028571Y-120344951D02*
X47150000Y-120385427D01*
X47150000Y-120385427D02*
X47230952Y-120385427D01*
X47230952Y-120385427D02*
X47352381Y-120344951D01*
X47352381Y-120344951D02*
X47392857Y-120304474D01*
X47392857Y-120304474D02*
X47392857Y-120021141D01*
X47392857Y-120021141D02*
X47230952Y-120021141D01*
X47757142Y-120385427D02*
X47757142Y-119535427D01*
X47757142Y-119535427D02*
X48242857Y-120385427D01*
X48242857Y-120385427D02*
X48242857Y-119535427D01*
X48647618Y-120385427D02*
X48647618Y-119535427D01*
X48647618Y-119535427D02*
X48849999Y-119535427D01*
X48849999Y-119535427D02*
X48971428Y-119575903D01*
X48971428Y-119575903D02*
X49052380Y-119656855D01*
X49052380Y-119656855D02*
X49092857Y-119737808D01*
X49092857Y-119737808D02*
X49133333Y-119899712D01*
X49133333Y-119899712D02*
X49133333Y-120021141D01*
X49133333Y-120021141D02*
X49092857Y-120183046D01*
X49092857Y-120183046D02*
X49052380Y-120263998D01*
X49052380Y-120263998D02*
X48971428Y-120344951D01*
X48971428Y-120344951D02*
X48849999Y-120385427D01*
X48849999Y-120385427D02*
X48647618Y-120385427D01*
D11*
X42927381Y-102538467D02*
X43413095Y-102538467D01*
X43170238Y-103388467D02*
X43170238Y-102538467D01*
X43696428Y-103388467D02*
X43696428Y-102538467D01*
X43696428Y-102538467D02*
X44020238Y-102538467D01*
X44020238Y-102538467D02*
X44101190Y-102578943D01*
X44101190Y-102578943D02*
X44141667Y-102619419D01*
X44141667Y-102619419D02*
X44182143Y-102700371D01*
X44182143Y-102700371D02*
X44182143Y-102821800D01*
X44182143Y-102821800D02*
X44141667Y-102902752D01*
X44141667Y-102902752D02*
X44101190Y-102943229D01*
X44101190Y-102943229D02*
X44020238Y-102983705D01*
X44020238Y-102983705D02*
X43696428Y-102983705D01*
X44991667Y-103388467D02*
X44505952Y-103388467D01*
X44748809Y-103388467D02*
X44748809Y-102538467D01*
X44748809Y-102538467D02*
X44667857Y-102659895D01*
X44667857Y-102659895D02*
X44586905Y-102740848D01*
X44586905Y-102740848D02*
X44505952Y-102781324D01*
X44121229Y-86283332D02*
X44121229Y-86566666D01*
X44566467Y-86566666D02*
X43716467Y-86566666D01*
X43716467Y-86566666D02*
X43716467Y-86161904D01*
X44566467Y-85392856D02*
X44566467Y-85878571D01*
X44566467Y-85635714D02*
X43716467Y-85635714D01*
X43716467Y-85635714D02*
X43837895Y-85716666D01*
X43837895Y-85716666D02*
X43918848Y-85797618D01*
X43918848Y-85797618D02*
X43959324Y-85878571D01*
X42927381Y-107538467D02*
X43413095Y-107538467D01*
X43170238Y-108388467D02*
X43170238Y-107538467D01*
X43696428Y-108388467D02*
X43696428Y-107538467D01*
X43696428Y-107538467D02*
X44020238Y-107538467D01*
X44020238Y-107538467D02*
X44101190Y-107578943D01*
X44101190Y-107578943D02*
X44141667Y-107619419D01*
X44141667Y-107619419D02*
X44182143Y-107700371D01*
X44182143Y-107700371D02*
X44182143Y-107821800D01*
X44182143Y-107821800D02*
X44141667Y-107902752D01*
X44141667Y-107902752D02*
X44101190Y-107943229D01*
X44101190Y-107943229D02*
X44020238Y-107983705D01*
X44020238Y-107983705D02*
X43696428Y-107983705D01*
X44505952Y-107619419D02*
X44546428Y-107578943D01*
X44546428Y-107578943D02*
X44627381Y-107538467D01*
X44627381Y-107538467D02*
X44829762Y-107538467D01*
X44829762Y-107538467D02*
X44910714Y-107578943D01*
X44910714Y-107578943D02*
X44951190Y-107619419D01*
X44951190Y-107619419D02*
X44991667Y-107700371D01*
X44991667Y-107700371D02*
X44991667Y-107781324D01*
X44991667Y-107781324D02*
X44951190Y-107902752D01*
X44951190Y-107902752D02*
X44465476Y-108388467D01*
X44465476Y-108388467D02*
X44991667Y-108388467D01*
X48453571Y-23956467D02*
X48170237Y-23551705D01*
X47967856Y-23956467D02*
X47967856Y-23106467D01*
X47967856Y-23106467D02*
X48291666Y-23106467D01*
X48291666Y-23106467D02*
X48372618Y-23146943D01*
X48372618Y-23146943D02*
X48413095Y-23187419D01*
X48413095Y-23187419D02*
X48453571Y-23268371D01*
X48453571Y-23268371D02*
X48453571Y-23389800D01*
X48453571Y-23389800D02*
X48413095Y-23470752D01*
X48413095Y-23470752D02*
X48372618Y-23511229D01*
X48372618Y-23511229D02*
X48291666Y-23551705D01*
X48291666Y-23551705D02*
X47967856Y-23551705D01*
X49263095Y-23956467D02*
X48777380Y-23956467D01*
X49020237Y-23956467D02*
X49020237Y-23106467D01*
X49020237Y-23106467D02*
X48939285Y-23227895D01*
X48939285Y-23227895D02*
X48858333Y-23308848D01*
X48858333Y-23308848D02*
X48777380Y-23349324D01*
X49546428Y-23106467D02*
X50072619Y-23106467D01*
X50072619Y-23106467D02*
X49789285Y-23430276D01*
X49789285Y-23430276D02*
X49910714Y-23430276D01*
X49910714Y-23430276D02*
X49991666Y-23470752D01*
X49991666Y-23470752D02*
X50032142Y-23511229D01*
X50032142Y-23511229D02*
X50072619Y-23592181D01*
X50072619Y-23592181D02*
X50072619Y-23794562D01*
X50072619Y-23794562D02*
X50032142Y-23875514D01*
X50032142Y-23875514D02*
X49991666Y-23915991D01*
X49991666Y-23915991D02*
X49910714Y-23956467D01*
X49910714Y-23956467D02*
X49667857Y-23956467D01*
X49667857Y-23956467D02*
X49586904Y-23915991D01*
X49586904Y-23915991D02*
X49546428Y-23875514D01*
X56858333Y-69136467D02*
X56453571Y-69136467D01*
X56453571Y-69136467D02*
X56453571Y-68286467D01*
X57586905Y-69136467D02*
X57101190Y-69136467D01*
X57344047Y-69136467D02*
X57344047Y-68286467D01*
X57344047Y-68286467D02*
X57263095Y-68407895D01*
X57263095Y-68407895D02*
X57182143Y-68488848D01*
X57182143Y-68488848D02*
X57101190Y-68529324D01*
X51732380Y-69636467D02*
X51732380Y-70324562D01*
X51732380Y-70324562D02*
X51772857Y-70405514D01*
X51772857Y-70405514D02*
X51813333Y-70445991D01*
X51813333Y-70445991D02*
X51894285Y-70486467D01*
X51894285Y-70486467D02*
X52056190Y-70486467D01*
X52056190Y-70486467D02*
X52137142Y-70445991D01*
X52137142Y-70445991D02*
X52177619Y-70405514D01*
X52177619Y-70405514D02*
X52218095Y-70324562D01*
X52218095Y-70324562D02*
X52218095Y-69636467D01*
X53068095Y-70486467D02*
X52582380Y-70486467D01*
X52825237Y-70486467D02*
X52825237Y-69636467D01*
X52825237Y-69636467D02*
X52744285Y-69757895D01*
X52744285Y-69757895D02*
X52663333Y-69838848D01*
X52663333Y-69838848D02*
X52582380Y-69879324D01*
X48453571Y-20956467D02*
X48170237Y-20551705D01*
X47967856Y-20956467D02*
X47967856Y-20106467D01*
X47967856Y-20106467D02*
X48291666Y-20106467D01*
X48291666Y-20106467D02*
X48372618Y-20146943D01*
X48372618Y-20146943D02*
X48413095Y-20187419D01*
X48413095Y-20187419D02*
X48453571Y-20268371D01*
X48453571Y-20268371D02*
X48453571Y-20389800D01*
X48453571Y-20389800D02*
X48413095Y-20470752D01*
X48413095Y-20470752D02*
X48372618Y-20511229D01*
X48372618Y-20511229D02*
X48291666Y-20551705D01*
X48291666Y-20551705D02*
X47967856Y-20551705D01*
X49263095Y-20956467D02*
X48777380Y-20956467D01*
X49020237Y-20956467D02*
X49020237Y-20106467D01*
X49020237Y-20106467D02*
X48939285Y-20227895D01*
X48939285Y-20227895D02*
X48858333Y-20308848D01*
X48858333Y-20308848D02*
X48777380Y-20349324D01*
X49586904Y-20187419D02*
X49627380Y-20146943D01*
X49627380Y-20146943D02*
X49708333Y-20106467D01*
X49708333Y-20106467D02*
X49910714Y-20106467D01*
X49910714Y-20106467D02*
X49991666Y-20146943D01*
X49991666Y-20146943D02*
X50032142Y-20187419D01*
X50032142Y-20187419D02*
X50072619Y-20268371D01*
X50072619Y-20268371D02*
X50072619Y-20349324D01*
X50072619Y-20349324D02*
X50032142Y-20470752D01*
X50032142Y-20470752D02*
X49546428Y-20956467D01*
X49546428Y-20956467D02*
X50072619Y-20956467D01*
X61858333Y-59625514D02*
X61817857Y-59665991D01*
X61817857Y-59665991D02*
X61696428Y-59706467D01*
X61696428Y-59706467D02*
X61615476Y-59706467D01*
X61615476Y-59706467D02*
X61494047Y-59665991D01*
X61494047Y-59665991D02*
X61413095Y-59585038D01*
X61413095Y-59585038D02*
X61372618Y-59504086D01*
X61372618Y-59504086D02*
X61332142Y-59342181D01*
X61332142Y-59342181D02*
X61332142Y-59220752D01*
X61332142Y-59220752D02*
X61372618Y-59058848D01*
X61372618Y-59058848D02*
X61413095Y-58977895D01*
X61413095Y-58977895D02*
X61494047Y-58896943D01*
X61494047Y-58896943D02*
X61615476Y-58856467D01*
X61615476Y-58856467D02*
X61696428Y-58856467D01*
X61696428Y-58856467D02*
X61817857Y-58896943D01*
X61817857Y-58896943D02*
X61858333Y-58937419D01*
X62141666Y-58856467D02*
X62708333Y-58856467D01*
X62708333Y-58856467D02*
X62344047Y-59706467D01*
X42956467Y-59546428D02*
X42551705Y-59829762D01*
X42956467Y-60032143D02*
X42106467Y-60032143D01*
X42106467Y-60032143D02*
X42106467Y-59708333D01*
X42106467Y-59708333D02*
X42146943Y-59627381D01*
X42146943Y-59627381D02*
X42187419Y-59586904D01*
X42187419Y-59586904D02*
X42268371Y-59546428D01*
X42268371Y-59546428D02*
X42389800Y-59546428D01*
X42389800Y-59546428D02*
X42470752Y-59586904D01*
X42470752Y-59586904D02*
X42511229Y-59627381D01*
X42511229Y-59627381D02*
X42551705Y-59708333D01*
X42551705Y-59708333D02*
X42551705Y-60032143D01*
X42956467Y-58736904D02*
X42956467Y-59222619D01*
X42956467Y-58979762D02*
X42106467Y-58979762D01*
X42106467Y-58979762D02*
X42227895Y-59060714D01*
X42227895Y-59060714D02*
X42308848Y-59141666D01*
X42308848Y-59141666D02*
X42349324Y-59222619D01*
X42106467Y-58453571D02*
X42106467Y-57886904D01*
X42106467Y-57886904D02*
X42956467Y-58251190D01*
X25858333Y-144956467D02*
X25574999Y-144551705D01*
X25372618Y-144956467D02*
X25372618Y-144106467D01*
X25372618Y-144106467D02*
X25696428Y-144106467D01*
X25696428Y-144106467D02*
X25777380Y-144146943D01*
X25777380Y-144146943D02*
X25817857Y-144187419D01*
X25817857Y-144187419D02*
X25858333Y-144268371D01*
X25858333Y-144268371D02*
X25858333Y-144389800D01*
X25858333Y-144389800D02*
X25817857Y-144470752D01*
X25817857Y-144470752D02*
X25777380Y-144511229D01*
X25777380Y-144511229D02*
X25696428Y-144551705D01*
X25696428Y-144551705D02*
X25372618Y-144551705D01*
X26141666Y-144106467D02*
X26708333Y-144106467D01*
X26708333Y-144106467D02*
X26344047Y-144956467D01*
D10*
X22610476Y-136382295D02*
X22610476Y-135582295D01*
X22610476Y-135963247D02*
X23067619Y-135963247D01*
X23067619Y-136382295D02*
X23067619Y-135582295D01*
X23372380Y-135582295D02*
X23905714Y-135582295D01*
X23905714Y-135582295D02*
X23562856Y-136382295D01*
X47390476Y-10362295D02*
X47390476Y-9562295D01*
X47390476Y-9943247D02*
X47847619Y-9943247D01*
X47847619Y-10362295D02*
X47847619Y-9562295D01*
X48647618Y-10362295D02*
X48190475Y-10362295D01*
X48419047Y-10362295D02*
X48419047Y-9562295D01*
X48419047Y-9562295D02*
X48342856Y-9676580D01*
X48342856Y-9676580D02*
X48266666Y-9752771D01*
X48266666Y-9752771D02*
X48190475Y-9790866D01*
D11*
X23858333Y-156956467D02*
X23574999Y-156551705D01*
X23372618Y-156956467D02*
X23372618Y-156106467D01*
X23372618Y-156106467D02*
X23696428Y-156106467D01*
X23696428Y-156106467D02*
X23777380Y-156146943D01*
X23777380Y-156146943D02*
X23817857Y-156187419D01*
X23817857Y-156187419D02*
X23858333Y-156268371D01*
X23858333Y-156268371D02*
X23858333Y-156389800D01*
X23858333Y-156389800D02*
X23817857Y-156470752D01*
X23817857Y-156470752D02*
X23777380Y-156511229D01*
X23777380Y-156511229D02*
X23696428Y-156551705D01*
X23696428Y-156551705D02*
X23372618Y-156551705D01*
X24586904Y-156389800D02*
X24586904Y-156956467D01*
X24384523Y-156065991D02*
X24182142Y-156673133D01*
X24182142Y-156673133D02*
X24708333Y-156673133D01*
X48453571Y-29956467D02*
X48170237Y-29551705D01*
X47967856Y-29956467D02*
X47967856Y-29106467D01*
X47967856Y-29106467D02*
X48291666Y-29106467D01*
X48291666Y-29106467D02*
X48372618Y-29146943D01*
X48372618Y-29146943D02*
X48413095Y-29187419D01*
X48413095Y-29187419D02*
X48453571Y-29268371D01*
X48453571Y-29268371D02*
X48453571Y-29389800D01*
X48453571Y-29389800D02*
X48413095Y-29470752D01*
X48413095Y-29470752D02*
X48372618Y-29511229D01*
X48372618Y-29511229D02*
X48291666Y-29551705D01*
X48291666Y-29551705D02*
X47967856Y-29551705D01*
X49263095Y-29956467D02*
X48777380Y-29956467D01*
X49020237Y-29956467D02*
X49020237Y-29106467D01*
X49020237Y-29106467D02*
X48939285Y-29227895D01*
X48939285Y-29227895D02*
X48858333Y-29308848D01*
X48858333Y-29308848D02*
X48777380Y-29349324D01*
X50032142Y-29106467D02*
X49627380Y-29106467D01*
X49627380Y-29106467D02*
X49586904Y-29511229D01*
X49586904Y-29511229D02*
X49627380Y-29470752D01*
X49627380Y-29470752D02*
X49708333Y-29430276D01*
X49708333Y-29430276D02*
X49910714Y-29430276D01*
X49910714Y-29430276D02*
X49991666Y-29470752D01*
X49991666Y-29470752D02*
X50032142Y-29511229D01*
X50032142Y-29511229D02*
X50072619Y-29592181D01*
X50072619Y-29592181D02*
X50072619Y-29794562D01*
X50072619Y-29794562D02*
X50032142Y-29875514D01*
X50032142Y-29875514D02*
X49991666Y-29915991D01*
X49991666Y-29915991D02*
X49910714Y-29956467D01*
X49910714Y-29956467D02*
X49708333Y-29956467D01*
X49708333Y-29956467D02*
X49627380Y-29915991D01*
X49627380Y-29915991D02*
X49586904Y-29875514D01*
X42927381Y-122538467D02*
X43413095Y-122538467D01*
X43170238Y-123388467D02*
X43170238Y-122538467D01*
X43696428Y-123388467D02*
X43696428Y-122538467D01*
X43696428Y-122538467D02*
X44020238Y-122538467D01*
X44020238Y-122538467D02*
X44101190Y-122578943D01*
X44101190Y-122578943D02*
X44141667Y-122619419D01*
X44141667Y-122619419D02*
X44182143Y-122700371D01*
X44182143Y-122700371D02*
X44182143Y-122821800D01*
X44182143Y-122821800D02*
X44141667Y-122902752D01*
X44141667Y-122902752D02*
X44101190Y-122943229D01*
X44101190Y-122943229D02*
X44020238Y-122983705D01*
X44020238Y-122983705D02*
X43696428Y-122983705D01*
X44951190Y-122538467D02*
X44546428Y-122538467D01*
X44546428Y-122538467D02*
X44505952Y-122943229D01*
X44505952Y-122943229D02*
X44546428Y-122902752D01*
X44546428Y-122902752D02*
X44627381Y-122862276D01*
X44627381Y-122862276D02*
X44829762Y-122862276D01*
X44829762Y-122862276D02*
X44910714Y-122902752D01*
X44910714Y-122902752D02*
X44951190Y-122943229D01*
X44951190Y-122943229D02*
X44991667Y-123024181D01*
X44991667Y-123024181D02*
X44991667Y-123226562D01*
X44991667Y-123226562D02*
X44951190Y-123307514D01*
X44951190Y-123307514D02*
X44910714Y-123347991D01*
X44910714Y-123347991D02*
X44829762Y-123388467D01*
X44829762Y-123388467D02*
X44627381Y-123388467D01*
X44627381Y-123388467D02*
X44546428Y-123347991D01*
X44546428Y-123347991D02*
X44505952Y-123307514D01*
X46625514Y-75141666D02*
X46665991Y-75182142D01*
X46665991Y-75182142D02*
X46706467Y-75303571D01*
X46706467Y-75303571D02*
X46706467Y-75384523D01*
X46706467Y-75384523D02*
X46665991Y-75505952D01*
X46665991Y-75505952D02*
X46585038Y-75586904D01*
X46585038Y-75586904D02*
X46504086Y-75627381D01*
X46504086Y-75627381D02*
X46342181Y-75667857D01*
X46342181Y-75667857D02*
X46220752Y-75667857D01*
X46220752Y-75667857D02*
X46058848Y-75627381D01*
X46058848Y-75627381D02*
X45977895Y-75586904D01*
X45977895Y-75586904D02*
X45896943Y-75505952D01*
X45896943Y-75505952D02*
X45856467Y-75384523D01*
X45856467Y-75384523D02*
X45856467Y-75303571D01*
X45856467Y-75303571D02*
X45896943Y-75182142D01*
X45896943Y-75182142D02*
X45937419Y-75141666D01*
X45856467Y-74858333D02*
X45856467Y-74332142D01*
X45856467Y-74332142D02*
X46180276Y-74615476D01*
X46180276Y-74615476D02*
X46180276Y-74494047D01*
X46180276Y-74494047D02*
X46220752Y-74413095D01*
X46220752Y-74413095D02*
X46261229Y-74372619D01*
X46261229Y-74372619D02*
X46342181Y-74332142D01*
X46342181Y-74332142D02*
X46544562Y-74332142D01*
X46544562Y-74332142D02*
X46625514Y-74372619D01*
X46625514Y-74372619D02*
X46665991Y-74413095D01*
X46665991Y-74413095D02*
X46706467Y-74494047D01*
X46706467Y-74494047D02*
X46706467Y-74736904D01*
X46706467Y-74736904D02*
X46665991Y-74817857D01*
X46665991Y-74817857D02*
X46625514Y-74858333D01*
X15453571Y-155956467D02*
X15170237Y-155551705D01*
X14967856Y-155956467D02*
X14967856Y-155106467D01*
X14967856Y-155106467D02*
X15291666Y-155106467D01*
X15291666Y-155106467D02*
X15372618Y-155146943D01*
X15372618Y-155146943D02*
X15413095Y-155187419D01*
X15413095Y-155187419D02*
X15453571Y-155268371D01*
X15453571Y-155268371D02*
X15453571Y-155389800D01*
X15453571Y-155389800D02*
X15413095Y-155470752D01*
X15413095Y-155470752D02*
X15372618Y-155511229D01*
X15372618Y-155511229D02*
X15291666Y-155551705D01*
X15291666Y-155551705D02*
X14967856Y-155551705D01*
X16263095Y-155956467D02*
X15777380Y-155956467D01*
X16020237Y-155956467D02*
X16020237Y-155106467D01*
X16020237Y-155106467D02*
X15939285Y-155227895D01*
X15939285Y-155227895D02*
X15858333Y-155308848D01*
X15858333Y-155308848D02*
X15777380Y-155349324D01*
X16991666Y-155106467D02*
X16829761Y-155106467D01*
X16829761Y-155106467D02*
X16748809Y-155146943D01*
X16748809Y-155146943D02*
X16708333Y-155187419D01*
X16708333Y-155187419D02*
X16627380Y-155308848D01*
X16627380Y-155308848D02*
X16586904Y-155470752D01*
X16586904Y-155470752D02*
X16586904Y-155794562D01*
X16586904Y-155794562D02*
X16627380Y-155875514D01*
X16627380Y-155875514D02*
X16667857Y-155915991D01*
X16667857Y-155915991D02*
X16748809Y-155956467D01*
X16748809Y-155956467D02*
X16910714Y-155956467D01*
X16910714Y-155956467D02*
X16991666Y-155915991D01*
X16991666Y-155915991D02*
X17032142Y-155875514D01*
X17032142Y-155875514D02*
X17072619Y-155794562D01*
X17072619Y-155794562D02*
X17072619Y-155592181D01*
X17072619Y-155592181D02*
X17032142Y-155511229D01*
X17032142Y-155511229D02*
X16991666Y-155470752D01*
X16991666Y-155470752D02*
X16910714Y-155430276D01*
X16910714Y-155430276D02*
X16748809Y-155430276D01*
X16748809Y-155430276D02*
X16667857Y-155470752D01*
X16667857Y-155470752D02*
X16627380Y-155511229D01*
X16627380Y-155511229D02*
X16586904Y-155592181D01*
D10*
X11390476Y-98362295D02*
X11390476Y-97562295D01*
X11390476Y-97943247D02*
X11847619Y-97943247D01*
X11847619Y-98362295D02*
X11847619Y-97562295D01*
X12152380Y-97562295D02*
X12647618Y-97562295D01*
X12647618Y-97562295D02*
X12380952Y-97867057D01*
X12380952Y-97867057D02*
X12495237Y-97867057D01*
X12495237Y-97867057D02*
X12571428Y-97905152D01*
X12571428Y-97905152D02*
X12609523Y-97943247D01*
X12609523Y-97943247D02*
X12647618Y-98019438D01*
X12647618Y-98019438D02*
X12647618Y-98209914D01*
X12647618Y-98209914D02*
X12609523Y-98286104D01*
X12609523Y-98286104D02*
X12571428Y-98324200D01*
X12571428Y-98324200D02*
X12495237Y-98362295D01*
X12495237Y-98362295D02*
X12266666Y-98362295D01*
X12266666Y-98362295D02*
X12190475Y-98324200D01*
X12190475Y-98324200D02*
X12152380Y-98286104D01*
D11*
X15453571Y-162956467D02*
X15170237Y-162551705D01*
X14967856Y-162956467D02*
X14967856Y-162106467D01*
X14967856Y-162106467D02*
X15291666Y-162106467D01*
X15291666Y-162106467D02*
X15372618Y-162146943D01*
X15372618Y-162146943D02*
X15413095Y-162187419D01*
X15413095Y-162187419D02*
X15453571Y-162268371D01*
X15453571Y-162268371D02*
X15453571Y-162389800D01*
X15453571Y-162389800D02*
X15413095Y-162470752D01*
X15413095Y-162470752D02*
X15372618Y-162511229D01*
X15372618Y-162511229D02*
X15291666Y-162551705D01*
X15291666Y-162551705D02*
X14967856Y-162551705D01*
X15777380Y-162187419D02*
X15817856Y-162146943D01*
X15817856Y-162146943D02*
X15898809Y-162106467D01*
X15898809Y-162106467D02*
X16101190Y-162106467D01*
X16101190Y-162106467D02*
X16182142Y-162146943D01*
X16182142Y-162146943D02*
X16222618Y-162187419D01*
X16222618Y-162187419D02*
X16263095Y-162268371D01*
X16263095Y-162268371D02*
X16263095Y-162349324D01*
X16263095Y-162349324D02*
X16222618Y-162470752D01*
X16222618Y-162470752D02*
X15736904Y-162956467D01*
X15736904Y-162956467D02*
X16263095Y-162956467D01*
X16789285Y-162106467D02*
X16870238Y-162106467D01*
X16870238Y-162106467D02*
X16951190Y-162146943D01*
X16951190Y-162146943D02*
X16991666Y-162187419D01*
X16991666Y-162187419D02*
X17032142Y-162268371D01*
X17032142Y-162268371D02*
X17072619Y-162430276D01*
X17072619Y-162430276D02*
X17072619Y-162632657D01*
X17072619Y-162632657D02*
X17032142Y-162794562D01*
X17032142Y-162794562D02*
X16991666Y-162875514D01*
X16991666Y-162875514D02*
X16951190Y-162915991D01*
X16951190Y-162915991D02*
X16870238Y-162956467D01*
X16870238Y-162956467D02*
X16789285Y-162956467D01*
X16789285Y-162956467D02*
X16708333Y-162915991D01*
X16708333Y-162915991D02*
X16667857Y-162875514D01*
X16667857Y-162875514D02*
X16627380Y-162794562D01*
X16627380Y-162794562D02*
X16586904Y-162632657D01*
X16586904Y-162632657D02*
X16586904Y-162430276D01*
X16586904Y-162430276D02*
X16627380Y-162268371D01*
X16627380Y-162268371D02*
X16667857Y-162187419D01*
X16667857Y-162187419D02*
X16708333Y-162146943D01*
X16708333Y-162146943D02*
X16789285Y-162106467D01*
X51011467Y-24358332D02*
X51618610Y-24358332D01*
X51618610Y-24358332D02*
X51740038Y-24398809D01*
X51740038Y-24398809D02*
X51820991Y-24479761D01*
X51820991Y-24479761D02*
X51861467Y-24601190D01*
X51861467Y-24601190D02*
X51861467Y-24682142D01*
X51294800Y-23589285D02*
X51861467Y-23589285D01*
X50970991Y-23791666D02*
X51578133Y-23994047D01*
X51578133Y-23994047D02*
X51578133Y-23467856D01*
X57858333Y-34625514D02*
X57817857Y-34665991D01*
X57817857Y-34665991D02*
X57696428Y-34706467D01*
X57696428Y-34706467D02*
X57615476Y-34706467D01*
X57615476Y-34706467D02*
X57494047Y-34665991D01*
X57494047Y-34665991D02*
X57413095Y-34585038D01*
X57413095Y-34585038D02*
X57372618Y-34504086D01*
X57372618Y-34504086D02*
X57332142Y-34342181D01*
X57332142Y-34342181D02*
X57332142Y-34220752D01*
X57332142Y-34220752D02*
X57372618Y-34058848D01*
X57372618Y-34058848D02*
X57413095Y-33977895D01*
X57413095Y-33977895D02*
X57494047Y-33896943D01*
X57494047Y-33896943D02*
X57615476Y-33856467D01*
X57615476Y-33856467D02*
X57696428Y-33856467D01*
X57696428Y-33856467D02*
X57817857Y-33896943D01*
X57817857Y-33896943D02*
X57858333Y-33937419D01*
X58586904Y-34139800D02*
X58586904Y-34706467D01*
X58384523Y-33815991D02*
X58182142Y-34423133D01*
X58182142Y-34423133D02*
X58708333Y-34423133D01*
X48453571Y-26956467D02*
X48170237Y-26551705D01*
X47967856Y-26956467D02*
X47967856Y-26106467D01*
X47967856Y-26106467D02*
X48291666Y-26106467D01*
X48291666Y-26106467D02*
X48372618Y-26146943D01*
X48372618Y-26146943D02*
X48413095Y-26187419D01*
X48413095Y-26187419D02*
X48453571Y-26268371D01*
X48453571Y-26268371D02*
X48453571Y-26389800D01*
X48453571Y-26389800D02*
X48413095Y-26470752D01*
X48413095Y-26470752D02*
X48372618Y-26511229D01*
X48372618Y-26511229D02*
X48291666Y-26551705D01*
X48291666Y-26551705D02*
X47967856Y-26551705D01*
X49263095Y-26956467D02*
X48777380Y-26956467D01*
X49020237Y-26956467D02*
X49020237Y-26106467D01*
X49020237Y-26106467D02*
X48939285Y-26227895D01*
X48939285Y-26227895D02*
X48858333Y-26308848D01*
X48858333Y-26308848D02*
X48777380Y-26349324D01*
X49991666Y-26389800D02*
X49991666Y-26956467D01*
X49789285Y-26065991D02*
X49586904Y-26673133D01*
X49586904Y-26673133D02*
X50113095Y-26673133D01*
X61858333Y-55625514D02*
X61817857Y-55665991D01*
X61817857Y-55665991D02*
X61696428Y-55706467D01*
X61696428Y-55706467D02*
X61615476Y-55706467D01*
X61615476Y-55706467D02*
X61494047Y-55665991D01*
X61494047Y-55665991D02*
X61413095Y-55585038D01*
X61413095Y-55585038D02*
X61372618Y-55504086D01*
X61372618Y-55504086D02*
X61332142Y-55342181D01*
X61332142Y-55342181D02*
X61332142Y-55220752D01*
X61332142Y-55220752D02*
X61372618Y-55058848D01*
X61372618Y-55058848D02*
X61413095Y-54977895D01*
X61413095Y-54977895D02*
X61494047Y-54896943D01*
X61494047Y-54896943D02*
X61615476Y-54856467D01*
X61615476Y-54856467D02*
X61696428Y-54856467D01*
X61696428Y-54856467D02*
X61817857Y-54896943D01*
X61817857Y-54896943D02*
X61858333Y-54937419D01*
X62586904Y-54856467D02*
X62424999Y-54856467D01*
X62424999Y-54856467D02*
X62344047Y-54896943D01*
X62344047Y-54896943D02*
X62303571Y-54937419D01*
X62303571Y-54937419D02*
X62222618Y-55058848D01*
X62222618Y-55058848D02*
X62182142Y-55220752D01*
X62182142Y-55220752D02*
X62182142Y-55544562D01*
X62182142Y-55544562D02*
X62222618Y-55625514D01*
X62222618Y-55625514D02*
X62263095Y-55665991D01*
X62263095Y-55665991D02*
X62344047Y-55706467D01*
X62344047Y-55706467D02*
X62505952Y-55706467D01*
X62505952Y-55706467D02*
X62586904Y-55665991D01*
X62586904Y-55665991D02*
X62627380Y-55625514D01*
X62627380Y-55625514D02*
X62667857Y-55544562D01*
X62667857Y-55544562D02*
X62667857Y-55342181D01*
X62667857Y-55342181D02*
X62627380Y-55261229D01*
X62627380Y-55261229D02*
X62586904Y-55220752D01*
X62586904Y-55220752D02*
X62505952Y-55180276D01*
X62505952Y-55180276D02*
X62344047Y-55180276D01*
X62344047Y-55180276D02*
X62263095Y-55220752D01*
X62263095Y-55220752D02*
X62222618Y-55261229D01*
X62222618Y-55261229D02*
X62182142Y-55342181D01*
D10*
X64928571Y-80931009D02*
X64595238Y-80931009D01*
X64595238Y-81454819D02*
X64595238Y-80454819D01*
X64595238Y-80454819D02*
X65071428Y-80454819D01*
X65452381Y-81454819D02*
X65452381Y-80454819D01*
X65928571Y-81454819D02*
X65928571Y-80454819D01*
X65928571Y-80454819D02*
X66166666Y-80454819D01*
X66166666Y-80454819D02*
X66309523Y-80502438D01*
X66309523Y-80502438D02*
X66404761Y-80597676D01*
X66404761Y-80597676D02*
X66452380Y-80692914D01*
X66452380Y-80692914D02*
X66499999Y-80883390D01*
X66499999Y-80883390D02*
X66499999Y-81026247D01*
X66499999Y-81026247D02*
X66452380Y-81216723D01*
X66452380Y-81216723D02*
X66404761Y-81311961D01*
X66404761Y-81311961D02*
X66309523Y-81407200D01*
X66309523Y-81407200D02*
X66166666Y-81454819D01*
X66166666Y-81454819D02*
X65928571Y-81454819D01*
X66880952Y-80550057D02*
X66928571Y-80502438D01*
X66928571Y-80502438D02*
X67023809Y-80454819D01*
X67023809Y-80454819D02*
X67261904Y-80454819D01*
X67261904Y-80454819D02*
X67357142Y-80502438D01*
X67357142Y-80502438D02*
X67404761Y-80550057D01*
X67404761Y-80550057D02*
X67452380Y-80645295D01*
X67452380Y-80645295D02*
X67452380Y-80740533D01*
X67452380Y-80740533D02*
X67404761Y-80883390D01*
X67404761Y-80883390D02*
X66833333Y-81454819D01*
X66833333Y-81454819D02*
X67452380Y-81454819D01*
D11*
X61858333Y-34625514D02*
X61817857Y-34665991D01*
X61817857Y-34665991D02*
X61696428Y-34706467D01*
X61696428Y-34706467D02*
X61615476Y-34706467D01*
X61615476Y-34706467D02*
X61494047Y-34665991D01*
X61494047Y-34665991D02*
X61413095Y-34585038D01*
X61413095Y-34585038D02*
X61372618Y-34504086D01*
X61372618Y-34504086D02*
X61332142Y-34342181D01*
X61332142Y-34342181D02*
X61332142Y-34220752D01*
X61332142Y-34220752D02*
X61372618Y-34058848D01*
X61372618Y-34058848D02*
X61413095Y-33977895D01*
X61413095Y-33977895D02*
X61494047Y-33896943D01*
X61494047Y-33896943D02*
X61615476Y-33856467D01*
X61615476Y-33856467D02*
X61696428Y-33856467D01*
X61696428Y-33856467D02*
X61817857Y-33896943D01*
X61817857Y-33896943D02*
X61858333Y-33937419D01*
X62627380Y-33856467D02*
X62222618Y-33856467D01*
X62222618Y-33856467D02*
X62182142Y-34261229D01*
X62182142Y-34261229D02*
X62222618Y-34220752D01*
X62222618Y-34220752D02*
X62303571Y-34180276D01*
X62303571Y-34180276D02*
X62505952Y-34180276D01*
X62505952Y-34180276D02*
X62586904Y-34220752D01*
X62586904Y-34220752D02*
X62627380Y-34261229D01*
X62627380Y-34261229D02*
X62667857Y-34342181D01*
X62667857Y-34342181D02*
X62667857Y-34544562D01*
X62667857Y-34544562D02*
X62627380Y-34625514D01*
X62627380Y-34625514D02*
X62586904Y-34665991D01*
X62586904Y-34665991D02*
X62505952Y-34706467D01*
X62505952Y-34706467D02*
X62303571Y-34706467D01*
X62303571Y-34706467D02*
X62222618Y-34665991D01*
X62222618Y-34665991D02*
X62182142Y-34625514D01*
X48858333Y-32956467D02*
X48574999Y-32551705D01*
X48372618Y-32956467D02*
X48372618Y-32106467D01*
X48372618Y-32106467D02*
X48696428Y-32106467D01*
X48696428Y-32106467D02*
X48777380Y-32146943D01*
X48777380Y-32146943D02*
X48817857Y-32187419D01*
X48817857Y-32187419D02*
X48858333Y-32268371D01*
X48858333Y-32268371D02*
X48858333Y-32389800D01*
X48858333Y-32389800D02*
X48817857Y-32470752D01*
X48817857Y-32470752D02*
X48777380Y-32511229D01*
X48777380Y-32511229D02*
X48696428Y-32551705D01*
X48696428Y-32551705D02*
X48372618Y-32551705D01*
X49141666Y-32106467D02*
X49667857Y-32106467D01*
X49667857Y-32106467D02*
X49384523Y-32430276D01*
X49384523Y-32430276D02*
X49505952Y-32430276D01*
X49505952Y-32430276D02*
X49586904Y-32470752D01*
X49586904Y-32470752D02*
X49627380Y-32511229D01*
X49627380Y-32511229D02*
X49667857Y-32592181D01*
X49667857Y-32592181D02*
X49667857Y-32794562D01*
X49667857Y-32794562D02*
X49627380Y-32875514D01*
X49627380Y-32875514D02*
X49586904Y-32915991D01*
X49586904Y-32915991D02*
X49505952Y-32956467D01*
X49505952Y-32956467D02*
X49263095Y-32956467D01*
X49263095Y-32956467D02*
X49182142Y-32915991D01*
X49182142Y-32915991D02*
X49141666Y-32875514D01*
D10*
X6928571Y-135931009D02*
X6595238Y-135931009D01*
X6595238Y-136454819D02*
X6595238Y-135454819D01*
X6595238Y-135454819D02*
X7071428Y-135454819D01*
X7452381Y-136454819D02*
X7452381Y-135454819D01*
X7928571Y-136454819D02*
X7928571Y-135454819D01*
X7928571Y-135454819D02*
X8166666Y-135454819D01*
X8166666Y-135454819D02*
X8309523Y-135502438D01*
X8309523Y-135502438D02*
X8404761Y-135597676D01*
X8404761Y-135597676D02*
X8452380Y-135692914D01*
X8452380Y-135692914D02*
X8499999Y-135883390D01*
X8499999Y-135883390D02*
X8499999Y-136026247D01*
X8499999Y-136026247D02*
X8452380Y-136216723D01*
X8452380Y-136216723D02*
X8404761Y-136311961D01*
X8404761Y-136311961D02*
X8309523Y-136407200D01*
X8309523Y-136407200D02*
X8166666Y-136454819D01*
X8166666Y-136454819D02*
X7928571Y-136454819D01*
X8833333Y-135454819D02*
X9452380Y-135454819D01*
X9452380Y-135454819D02*
X9119047Y-135835771D01*
X9119047Y-135835771D02*
X9261904Y-135835771D01*
X9261904Y-135835771D02*
X9357142Y-135883390D01*
X9357142Y-135883390D02*
X9404761Y-135931009D01*
X9404761Y-135931009D02*
X9452380Y-136026247D01*
X9452380Y-136026247D02*
X9452380Y-136264342D01*
X9452380Y-136264342D02*
X9404761Y-136359580D01*
X9404761Y-136359580D02*
X9357142Y-136407200D01*
X9357142Y-136407200D02*
X9261904Y-136454819D01*
X9261904Y-136454819D02*
X8976190Y-136454819D01*
X8976190Y-136454819D02*
X8880952Y-136407200D01*
X8880952Y-136407200D02*
X8833333Y-136359580D01*
D11*
X18776467Y-152283332D02*
X19383610Y-152283332D01*
X19383610Y-152283332D02*
X19505038Y-152323809D01*
X19505038Y-152323809D02*
X19585991Y-152404761D01*
X19585991Y-152404761D02*
X19626467Y-152526190D01*
X19626467Y-152526190D02*
X19626467Y-152607142D01*
X18857419Y-151919047D02*
X18816943Y-151878571D01*
X18816943Y-151878571D02*
X18776467Y-151797618D01*
X18776467Y-151797618D02*
X18776467Y-151595237D01*
X18776467Y-151595237D02*
X18816943Y-151514285D01*
X18816943Y-151514285D02*
X18857419Y-151473809D01*
X18857419Y-151473809D02*
X18938371Y-151433332D01*
X18938371Y-151433332D02*
X19019324Y-151433332D01*
X19019324Y-151433332D02*
X19140752Y-151473809D01*
X19140752Y-151473809D02*
X19626467Y-151959523D01*
X19626467Y-151959523D02*
X19626467Y-151433332D01*
X42927381Y-117538467D02*
X43413095Y-117538467D01*
X43170238Y-118388467D02*
X43170238Y-117538467D01*
X43696428Y-118388467D02*
X43696428Y-117538467D01*
X43696428Y-117538467D02*
X44020238Y-117538467D01*
X44020238Y-117538467D02*
X44101190Y-117578943D01*
X44101190Y-117578943D02*
X44141667Y-117619419D01*
X44141667Y-117619419D02*
X44182143Y-117700371D01*
X44182143Y-117700371D02*
X44182143Y-117821800D01*
X44182143Y-117821800D02*
X44141667Y-117902752D01*
X44141667Y-117902752D02*
X44101190Y-117943229D01*
X44101190Y-117943229D02*
X44020238Y-117983705D01*
X44020238Y-117983705D02*
X43696428Y-117983705D01*
X44910714Y-117821800D02*
X44910714Y-118388467D01*
X44708333Y-117497991D02*
X44505952Y-118105133D01*
X44505952Y-118105133D02*
X45032143Y-118105133D01*
X52256467Y-172603332D02*
X52863610Y-172603332D01*
X52863610Y-172603332D02*
X52985038Y-172643809D01*
X52985038Y-172643809D02*
X53065991Y-172724761D01*
X53065991Y-172724761D02*
X53106467Y-172846190D01*
X53106467Y-172846190D02*
X53106467Y-172927142D01*
X53106467Y-171753332D02*
X53106467Y-172239047D01*
X53106467Y-171996190D02*
X52256467Y-171996190D01*
X52256467Y-171996190D02*
X52377895Y-172077142D01*
X52377895Y-172077142D02*
X52458848Y-172158094D01*
X52458848Y-172158094D02*
X52499324Y-172239047D01*
X60858333Y-74005514D02*
X60817857Y-74045991D01*
X60817857Y-74045991D02*
X60696428Y-74086467D01*
X60696428Y-74086467D02*
X60615476Y-74086467D01*
X60615476Y-74086467D02*
X60494047Y-74045991D01*
X60494047Y-74045991D02*
X60413095Y-73965038D01*
X60413095Y-73965038D02*
X60372618Y-73884086D01*
X60372618Y-73884086D02*
X60332142Y-73722181D01*
X60332142Y-73722181D02*
X60332142Y-73600752D01*
X60332142Y-73600752D02*
X60372618Y-73438848D01*
X60372618Y-73438848D02*
X60413095Y-73357895D01*
X60413095Y-73357895D02*
X60494047Y-73276943D01*
X60494047Y-73276943D02*
X60615476Y-73236467D01*
X60615476Y-73236467D02*
X60696428Y-73236467D01*
X60696428Y-73236467D02*
X60817857Y-73276943D01*
X60817857Y-73276943D02*
X60858333Y-73317419D01*
X61182142Y-73317419D02*
X61222618Y-73276943D01*
X61222618Y-73276943D02*
X61303571Y-73236467D01*
X61303571Y-73236467D02*
X61505952Y-73236467D01*
X61505952Y-73236467D02*
X61586904Y-73276943D01*
X61586904Y-73276943D02*
X61627380Y-73317419D01*
X61627380Y-73317419D02*
X61667857Y-73398371D01*
X61667857Y-73398371D02*
X61667857Y-73479324D01*
X61667857Y-73479324D02*
X61627380Y-73600752D01*
X61627380Y-73600752D02*
X61141666Y-74086467D01*
X61141666Y-74086467D02*
X61667857Y-74086467D01*
X29858333Y-144956467D02*
X29574999Y-144551705D01*
X29372618Y-144956467D02*
X29372618Y-144106467D01*
X29372618Y-144106467D02*
X29696428Y-144106467D01*
X29696428Y-144106467D02*
X29777380Y-144146943D01*
X29777380Y-144146943D02*
X29817857Y-144187419D01*
X29817857Y-144187419D02*
X29858333Y-144268371D01*
X29858333Y-144268371D02*
X29858333Y-144389800D01*
X29858333Y-144389800D02*
X29817857Y-144470752D01*
X29817857Y-144470752D02*
X29777380Y-144511229D01*
X29777380Y-144511229D02*
X29696428Y-144551705D01*
X29696428Y-144551705D02*
X29372618Y-144551705D01*
X30627380Y-144106467D02*
X30222618Y-144106467D01*
X30222618Y-144106467D02*
X30182142Y-144511229D01*
X30182142Y-144511229D02*
X30222618Y-144470752D01*
X30222618Y-144470752D02*
X30303571Y-144430276D01*
X30303571Y-144430276D02*
X30505952Y-144430276D01*
X30505952Y-144430276D02*
X30586904Y-144470752D01*
X30586904Y-144470752D02*
X30627380Y-144511229D01*
X30627380Y-144511229D02*
X30667857Y-144592181D01*
X30667857Y-144592181D02*
X30667857Y-144794562D01*
X30667857Y-144794562D02*
X30627380Y-144875514D01*
X30627380Y-144875514D02*
X30586904Y-144915991D01*
X30586904Y-144915991D02*
X30505952Y-144956467D01*
X30505952Y-144956467D02*
X30303571Y-144956467D01*
X30303571Y-144956467D02*
X30222618Y-144915991D01*
X30222618Y-144915991D02*
X30182142Y-144875514D01*
X15453571Y-158956467D02*
X15170237Y-158551705D01*
X14967856Y-158956467D02*
X14967856Y-158106467D01*
X14967856Y-158106467D02*
X15291666Y-158106467D01*
X15291666Y-158106467D02*
X15372618Y-158146943D01*
X15372618Y-158146943D02*
X15413095Y-158187419D01*
X15413095Y-158187419D02*
X15453571Y-158268371D01*
X15453571Y-158268371D02*
X15453571Y-158389800D01*
X15453571Y-158389800D02*
X15413095Y-158470752D01*
X15413095Y-158470752D02*
X15372618Y-158511229D01*
X15372618Y-158511229D02*
X15291666Y-158551705D01*
X15291666Y-158551705D02*
X14967856Y-158551705D01*
X15777380Y-158187419D02*
X15817856Y-158146943D01*
X15817856Y-158146943D02*
X15898809Y-158106467D01*
X15898809Y-158106467D02*
X16101190Y-158106467D01*
X16101190Y-158106467D02*
X16182142Y-158146943D01*
X16182142Y-158146943D02*
X16222618Y-158187419D01*
X16222618Y-158187419D02*
X16263095Y-158268371D01*
X16263095Y-158268371D02*
X16263095Y-158349324D01*
X16263095Y-158349324D02*
X16222618Y-158470752D01*
X16222618Y-158470752D02*
X15736904Y-158956467D01*
X15736904Y-158956467D02*
X16263095Y-158956467D01*
X17072619Y-158956467D02*
X16586904Y-158956467D01*
X16829761Y-158956467D02*
X16829761Y-158106467D01*
X16829761Y-158106467D02*
X16748809Y-158227895D01*
X16748809Y-158227895D02*
X16667857Y-158308848D01*
X16667857Y-158308848D02*
X16586904Y-158349324D01*
X23858333Y-159956467D02*
X23574999Y-159551705D01*
X23372618Y-159956467D02*
X23372618Y-159106467D01*
X23372618Y-159106467D02*
X23696428Y-159106467D01*
X23696428Y-159106467D02*
X23777380Y-159146943D01*
X23777380Y-159146943D02*
X23817857Y-159187419D01*
X23817857Y-159187419D02*
X23858333Y-159268371D01*
X23858333Y-159268371D02*
X23858333Y-159389800D01*
X23858333Y-159389800D02*
X23817857Y-159470752D01*
X23817857Y-159470752D02*
X23777380Y-159511229D01*
X23777380Y-159511229D02*
X23696428Y-159551705D01*
X23696428Y-159551705D02*
X23372618Y-159551705D01*
X24182142Y-159187419D02*
X24222618Y-159146943D01*
X24222618Y-159146943D02*
X24303571Y-159106467D01*
X24303571Y-159106467D02*
X24505952Y-159106467D01*
X24505952Y-159106467D02*
X24586904Y-159146943D01*
X24586904Y-159146943D02*
X24627380Y-159187419D01*
X24627380Y-159187419D02*
X24667857Y-159268371D01*
X24667857Y-159268371D02*
X24667857Y-159349324D01*
X24667857Y-159349324D02*
X24627380Y-159470752D01*
X24627380Y-159470752D02*
X24141666Y-159956467D01*
X24141666Y-159956467D02*
X24667857Y-159956467D01*
D10*
X63390476Y-94362295D02*
X63390476Y-93562295D01*
X63390476Y-93943247D02*
X63847619Y-93943247D01*
X63847619Y-94362295D02*
X63847619Y-93562295D01*
X64190475Y-93638485D02*
X64228571Y-93600390D01*
X64228571Y-93600390D02*
X64304761Y-93562295D01*
X64304761Y-93562295D02*
X64495237Y-93562295D01*
X64495237Y-93562295D02*
X64571428Y-93600390D01*
X64571428Y-93600390D02*
X64609523Y-93638485D01*
X64609523Y-93638485D02*
X64647618Y-93714676D01*
X64647618Y-93714676D02*
X64647618Y-93790866D01*
X64647618Y-93790866D02*
X64609523Y-93905152D01*
X64609523Y-93905152D02*
X64152380Y-94362295D01*
X64152380Y-94362295D02*
X64647618Y-94362295D01*
D11*
X46005514Y-70641666D02*
X46045991Y-70682142D01*
X46045991Y-70682142D02*
X46086467Y-70803571D01*
X46086467Y-70803571D02*
X46086467Y-70884523D01*
X46086467Y-70884523D02*
X46045991Y-71005952D01*
X46045991Y-71005952D02*
X45965038Y-71086904D01*
X45965038Y-71086904D02*
X45884086Y-71127381D01*
X45884086Y-71127381D02*
X45722181Y-71167857D01*
X45722181Y-71167857D02*
X45600752Y-71167857D01*
X45600752Y-71167857D02*
X45438848Y-71127381D01*
X45438848Y-71127381D02*
X45357895Y-71086904D01*
X45357895Y-71086904D02*
X45276943Y-71005952D01*
X45276943Y-71005952D02*
X45236467Y-70884523D01*
X45236467Y-70884523D02*
X45236467Y-70803571D01*
X45236467Y-70803571D02*
X45276943Y-70682142D01*
X45276943Y-70682142D02*
X45317419Y-70641666D01*
X46086467Y-69832142D02*
X46086467Y-70317857D01*
X46086467Y-70075000D02*
X45236467Y-70075000D01*
X45236467Y-70075000D02*
X45357895Y-70155952D01*
X45357895Y-70155952D02*
X45438848Y-70236904D01*
X45438848Y-70236904D02*
X45479324Y-70317857D01*
X23858333Y-162956467D02*
X23574999Y-162551705D01*
X23372618Y-162956467D02*
X23372618Y-162106467D01*
X23372618Y-162106467D02*
X23696428Y-162106467D01*
X23696428Y-162106467D02*
X23777380Y-162146943D01*
X23777380Y-162146943D02*
X23817857Y-162187419D01*
X23817857Y-162187419D02*
X23858333Y-162268371D01*
X23858333Y-162268371D02*
X23858333Y-162389800D01*
X23858333Y-162389800D02*
X23817857Y-162470752D01*
X23817857Y-162470752D02*
X23777380Y-162511229D01*
X23777380Y-162511229D02*
X23696428Y-162551705D01*
X23696428Y-162551705D02*
X23372618Y-162551705D01*
X24667857Y-162956467D02*
X24182142Y-162956467D01*
X24424999Y-162956467D02*
X24424999Y-162106467D01*
X24424999Y-162106467D02*
X24344047Y-162227895D01*
X24344047Y-162227895D02*
X24263095Y-162308848D01*
X24263095Y-162308848D02*
X24182142Y-162349324D01*
X48453571Y-17956467D02*
X48170237Y-17551705D01*
X47967856Y-17956467D02*
X47967856Y-17106467D01*
X47967856Y-17106467D02*
X48291666Y-17106467D01*
X48291666Y-17106467D02*
X48372618Y-17146943D01*
X48372618Y-17146943D02*
X48413095Y-17187419D01*
X48413095Y-17187419D02*
X48453571Y-17268371D01*
X48453571Y-17268371D02*
X48453571Y-17389800D01*
X48453571Y-17389800D02*
X48413095Y-17470752D01*
X48413095Y-17470752D02*
X48372618Y-17511229D01*
X48372618Y-17511229D02*
X48291666Y-17551705D01*
X48291666Y-17551705D02*
X47967856Y-17551705D01*
X49263095Y-17956467D02*
X48777380Y-17956467D01*
X49020237Y-17956467D02*
X49020237Y-17106467D01*
X49020237Y-17106467D02*
X48939285Y-17227895D01*
X48939285Y-17227895D02*
X48858333Y-17308848D01*
X48858333Y-17308848D02*
X48777380Y-17349324D01*
X50072619Y-17956467D02*
X49586904Y-17956467D01*
X49829761Y-17956467D02*
X49829761Y-17106467D01*
X49829761Y-17106467D02*
X49748809Y-17227895D01*
X49748809Y-17227895D02*
X49667857Y-17308848D01*
X49667857Y-17308848D02*
X49586904Y-17349324D01*
X21858333Y-144956467D02*
X21574999Y-144551705D01*
X21372618Y-144956467D02*
X21372618Y-144106467D01*
X21372618Y-144106467D02*
X21696428Y-144106467D01*
X21696428Y-144106467D02*
X21777380Y-144146943D01*
X21777380Y-144146943D02*
X21817857Y-144187419D01*
X21817857Y-144187419D02*
X21858333Y-144268371D01*
X21858333Y-144268371D02*
X21858333Y-144389800D01*
X21858333Y-144389800D02*
X21817857Y-144470752D01*
X21817857Y-144470752D02*
X21777380Y-144511229D01*
X21777380Y-144511229D02*
X21696428Y-144551705D01*
X21696428Y-144551705D02*
X21372618Y-144551705D01*
X22263095Y-144956467D02*
X22424999Y-144956467D01*
X22424999Y-144956467D02*
X22505952Y-144915991D01*
X22505952Y-144915991D02*
X22546428Y-144875514D01*
X22546428Y-144875514D02*
X22627380Y-144754086D01*
X22627380Y-144754086D02*
X22667857Y-144592181D01*
X22667857Y-144592181D02*
X22667857Y-144268371D01*
X22667857Y-144268371D02*
X22627380Y-144187419D01*
X22627380Y-144187419D02*
X22586904Y-144146943D01*
X22586904Y-144146943D02*
X22505952Y-144106467D01*
X22505952Y-144106467D02*
X22344047Y-144106467D01*
X22344047Y-144106467D02*
X22263095Y-144146943D01*
X22263095Y-144146943D02*
X22222618Y-144187419D01*
X22222618Y-144187419D02*
X22182142Y-144268371D01*
X22182142Y-144268371D02*
X22182142Y-144470752D01*
X22182142Y-144470752D02*
X22222618Y-144551705D01*
X22222618Y-144551705D02*
X22263095Y-144592181D01*
X22263095Y-144592181D02*
X22344047Y-144632657D01*
X22344047Y-144632657D02*
X22505952Y-144632657D01*
X22505952Y-144632657D02*
X22586904Y-144592181D01*
X22586904Y-144592181D02*
X22627380Y-144551705D01*
X22627380Y-144551705D02*
X22667857Y-144470752D01*
X21453571Y-141956467D02*
X21170237Y-141551705D01*
X20967856Y-141956467D02*
X20967856Y-141106467D01*
X20967856Y-141106467D02*
X21291666Y-141106467D01*
X21291666Y-141106467D02*
X21372618Y-141146943D01*
X21372618Y-141146943D02*
X21413095Y-141187419D01*
X21413095Y-141187419D02*
X21453571Y-141268371D01*
X21453571Y-141268371D02*
X21453571Y-141389800D01*
X21453571Y-141389800D02*
X21413095Y-141470752D01*
X21413095Y-141470752D02*
X21372618Y-141511229D01*
X21372618Y-141511229D02*
X21291666Y-141551705D01*
X21291666Y-141551705D02*
X20967856Y-141551705D01*
X22263095Y-141956467D02*
X21777380Y-141956467D01*
X22020237Y-141956467D02*
X22020237Y-141106467D01*
X22020237Y-141106467D02*
X21939285Y-141227895D01*
X21939285Y-141227895D02*
X21858333Y-141308848D01*
X21858333Y-141308848D02*
X21777380Y-141349324D01*
X22789285Y-141106467D02*
X22870238Y-141106467D01*
X22870238Y-141106467D02*
X22951190Y-141146943D01*
X22951190Y-141146943D02*
X22991666Y-141187419D01*
X22991666Y-141187419D02*
X23032142Y-141268371D01*
X23032142Y-141268371D02*
X23072619Y-141430276D01*
X23072619Y-141430276D02*
X23072619Y-141632657D01*
X23072619Y-141632657D02*
X23032142Y-141794562D01*
X23032142Y-141794562D02*
X22991666Y-141875514D01*
X22991666Y-141875514D02*
X22951190Y-141915991D01*
X22951190Y-141915991D02*
X22870238Y-141956467D01*
X22870238Y-141956467D02*
X22789285Y-141956467D01*
X22789285Y-141956467D02*
X22708333Y-141915991D01*
X22708333Y-141915991D02*
X22667857Y-141875514D01*
X22667857Y-141875514D02*
X22627380Y-141794562D01*
X22627380Y-141794562D02*
X22586904Y-141632657D01*
X22586904Y-141632657D02*
X22586904Y-141430276D01*
X22586904Y-141430276D02*
X22627380Y-141268371D01*
X22627380Y-141268371D02*
X22667857Y-141187419D01*
X22667857Y-141187419D02*
X22708333Y-141146943D01*
X22708333Y-141146943D02*
X22789285Y-141106467D01*
X50956467Y-59546428D02*
X50551705Y-59829762D01*
X50956467Y-60032143D02*
X50106467Y-60032143D01*
X50106467Y-60032143D02*
X50106467Y-59708333D01*
X50106467Y-59708333D02*
X50146943Y-59627381D01*
X50146943Y-59627381D02*
X50187419Y-59586904D01*
X50187419Y-59586904D02*
X50268371Y-59546428D01*
X50268371Y-59546428D02*
X50389800Y-59546428D01*
X50389800Y-59546428D02*
X50470752Y-59586904D01*
X50470752Y-59586904D02*
X50511229Y-59627381D01*
X50511229Y-59627381D02*
X50551705Y-59708333D01*
X50551705Y-59708333D02*
X50551705Y-60032143D01*
X50956467Y-58736904D02*
X50956467Y-59222619D01*
X50956467Y-58979762D02*
X50106467Y-58979762D01*
X50106467Y-58979762D02*
X50227895Y-59060714D01*
X50227895Y-59060714D02*
X50308848Y-59141666D01*
X50308848Y-59141666D02*
X50349324Y-59222619D01*
X50956467Y-58332142D02*
X50956467Y-58170238D01*
X50956467Y-58170238D02*
X50915991Y-58089285D01*
X50915991Y-58089285D02*
X50875514Y-58048809D01*
X50875514Y-58048809D02*
X50754086Y-57967857D01*
X50754086Y-57967857D02*
X50592181Y-57927380D01*
X50592181Y-57927380D02*
X50268371Y-57927380D01*
X50268371Y-57927380D02*
X50187419Y-57967857D01*
X50187419Y-57967857D02*
X50146943Y-58008333D01*
X50146943Y-58008333D02*
X50106467Y-58089285D01*
X50106467Y-58089285D02*
X50106467Y-58251190D01*
X50106467Y-58251190D02*
X50146943Y-58332142D01*
X50146943Y-58332142D02*
X50187419Y-58372619D01*
X50187419Y-58372619D02*
X50268371Y-58413095D01*
X50268371Y-58413095D02*
X50470752Y-58413095D01*
X50470752Y-58413095D02*
X50551705Y-58372619D01*
X50551705Y-58372619D02*
X50592181Y-58332142D01*
X50592181Y-58332142D02*
X50632657Y-58251190D01*
X50632657Y-58251190D02*
X50632657Y-58089285D01*
X50632657Y-58089285D02*
X50592181Y-58008333D01*
X50592181Y-58008333D02*
X50551705Y-57967857D01*
X50551705Y-57967857D02*
X50470752Y-57927380D01*
D10*
X22610476Y-105902295D02*
X22610476Y-105102295D01*
X22610476Y-105483247D02*
X23067619Y-105483247D01*
X23067619Y-105902295D02*
X23067619Y-105102295D01*
X23829523Y-105102295D02*
X23448571Y-105102295D01*
X23448571Y-105102295D02*
X23410475Y-105483247D01*
X23410475Y-105483247D02*
X23448571Y-105445152D01*
X23448571Y-105445152D02*
X23524761Y-105407057D01*
X23524761Y-105407057D02*
X23715237Y-105407057D01*
X23715237Y-105407057D02*
X23791428Y-105445152D01*
X23791428Y-105445152D02*
X23829523Y-105483247D01*
X23829523Y-105483247D02*
X23867618Y-105559438D01*
X23867618Y-105559438D02*
X23867618Y-105749914D01*
X23867618Y-105749914D02*
X23829523Y-105826104D01*
X23829523Y-105826104D02*
X23791428Y-105864200D01*
X23791428Y-105864200D02*
X23715237Y-105902295D01*
X23715237Y-105902295D02*
X23524761Y-105902295D01*
X23524761Y-105902295D02*
X23448571Y-105864200D01*
X23448571Y-105864200D02*
X23410475Y-105826104D01*
X58170476Y-136382295D02*
X58170476Y-135582295D01*
X58170476Y-135963247D02*
X58627619Y-135963247D01*
X58627619Y-136382295D02*
X58627619Y-135582295D01*
X59122856Y-135925152D02*
X59046666Y-135887057D01*
X59046666Y-135887057D02*
X59008571Y-135848961D01*
X59008571Y-135848961D02*
X58970475Y-135772771D01*
X58970475Y-135772771D02*
X58970475Y-135734676D01*
X58970475Y-135734676D02*
X59008571Y-135658485D01*
X59008571Y-135658485D02*
X59046666Y-135620390D01*
X59046666Y-135620390D02*
X59122856Y-135582295D01*
X59122856Y-135582295D02*
X59275237Y-135582295D01*
X59275237Y-135582295D02*
X59351428Y-135620390D01*
X59351428Y-135620390D02*
X59389523Y-135658485D01*
X59389523Y-135658485D02*
X59427618Y-135734676D01*
X59427618Y-135734676D02*
X59427618Y-135772771D01*
X59427618Y-135772771D02*
X59389523Y-135848961D01*
X59389523Y-135848961D02*
X59351428Y-135887057D01*
X59351428Y-135887057D02*
X59275237Y-135925152D01*
X59275237Y-135925152D02*
X59122856Y-135925152D01*
X59122856Y-135925152D02*
X59046666Y-135963247D01*
X59046666Y-135963247D02*
X59008571Y-136001342D01*
X59008571Y-136001342D02*
X58970475Y-136077533D01*
X58970475Y-136077533D02*
X58970475Y-136229914D01*
X58970475Y-136229914D02*
X59008571Y-136306104D01*
X59008571Y-136306104D02*
X59046666Y-136344200D01*
X59046666Y-136344200D02*
X59122856Y-136382295D01*
X59122856Y-136382295D02*
X59275237Y-136382295D01*
X59275237Y-136382295D02*
X59351428Y-136344200D01*
X59351428Y-136344200D02*
X59389523Y-136306104D01*
X59389523Y-136306104D02*
X59427618Y-136229914D01*
X59427618Y-136229914D02*
X59427618Y-136077533D01*
X59427618Y-136077533D02*
X59389523Y-136001342D01*
X59389523Y-136001342D02*
X59351428Y-135963247D01*
X59351428Y-135963247D02*
X59275237Y-135925152D01*
X11390476Y-144362295D02*
X11390476Y-143562295D01*
X11390476Y-143943247D02*
X11847619Y-143943247D01*
X11847619Y-144362295D02*
X11847619Y-143562295D01*
X12571428Y-143828961D02*
X12571428Y-144362295D01*
X12380952Y-143524200D02*
X12190475Y-144095628D01*
X12190475Y-144095628D02*
X12685714Y-144095628D01*
X58170476Y-105902295D02*
X58170476Y-105102295D01*
X58170476Y-105483247D02*
X58627619Y-105483247D01*
X58627619Y-105902295D02*
X58627619Y-105102295D01*
X59351428Y-105102295D02*
X59199047Y-105102295D01*
X59199047Y-105102295D02*
X59122856Y-105140390D01*
X59122856Y-105140390D02*
X59084761Y-105178485D01*
X59084761Y-105178485D02*
X59008571Y-105292771D01*
X59008571Y-105292771D02*
X58970475Y-105445152D01*
X58970475Y-105445152D02*
X58970475Y-105749914D01*
X58970475Y-105749914D02*
X59008571Y-105826104D01*
X59008571Y-105826104D02*
X59046666Y-105864200D01*
X59046666Y-105864200D02*
X59122856Y-105902295D01*
X59122856Y-105902295D02*
X59275237Y-105902295D01*
X59275237Y-105902295D02*
X59351428Y-105864200D01*
X59351428Y-105864200D02*
X59389523Y-105826104D01*
X59389523Y-105826104D02*
X59427618Y-105749914D01*
X59427618Y-105749914D02*
X59427618Y-105559438D01*
X59427618Y-105559438D02*
X59389523Y-105483247D01*
X59389523Y-105483247D02*
X59351428Y-105445152D01*
X59351428Y-105445152D02*
X59275237Y-105407057D01*
X59275237Y-105407057D02*
X59122856Y-105407057D01*
X59122856Y-105407057D02*
X59046666Y-105445152D01*
X59046666Y-105445152D02*
X59008571Y-105483247D01*
X59008571Y-105483247D02*
X58970475Y-105559438D01*
D11*
X42927381Y-112538467D02*
X43413095Y-112538467D01*
X43170238Y-113388467D02*
X43170238Y-112538467D01*
X43696428Y-113388467D02*
X43696428Y-112538467D01*
X43696428Y-112538467D02*
X44020238Y-112538467D01*
X44020238Y-112538467D02*
X44101190Y-112578943D01*
X44101190Y-112578943D02*
X44141667Y-112619419D01*
X44141667Y-112619419D02*
X44182143Y-112700371D01*
X44182143Y-112700371D02*
X44182143Y-112821800D01*
X44182143Y-112821800D02*
X44141667Y-112902752D01*
X44141667Y-112902752D02*
X44101190Y-112943229D01*
X44101190Y-112943229D02*
X44020238Y-112983705D01*
X44020238Y-112983705D02*
X43696428Y-112983705D01*
X44465476Y-112538467D02*
X44991667Y-112538467D01*
X44991667Y-112538467D02*
X44708333Y-112862276D01*
X44708333Y-112862276D02*
X44829762Y-112862276D01*
X44829762Y-112862276D02*
X44910714Y-112902752D01*
X44910714Y-112902752D02*
X44951190Y-112943229D01*
X44951190Y-112943229D02*
X44991667Y-113024181D01*
X44991667Y-113024181D02*
X44991667Y-113226562D01*
X44991667Y-113226562D02*
X44951190Y-113307514D01*
X44951190Y-113307514D02*
X44910714Y-113347991D01*
X44910714Y-113347991D02*
X44829762Y-113388467D01*
X44829762Y-113388467D02*
X44586905Y-113388467D01*
X44586905Y-113388467D02*
X44505952Y-113347991D01*
X44505952Y-113347991D02*
X44465476Y-113307514D01*
X53716667Y-55236467D02*
X53716667Y-55843610D01*
X53716667Y-55843610D02*
X53676190Y-55965038D01*
X53676190Y-55965038D02*
X53595238Y-56045991D01*
X53595238Y-56045991D02*
X53473809Y-56086467D01*
X53473809Y-56086467D02*
X53392857Y-56086467D01*
X54040476Y-55236467D02*
X54566667Y-55236467D01*
X54566667Y-55236467D02*
X54283333Y-55560276D01*
X54283333Y-55560276D02*
X54404762Y-55560276D01*
X54404762Y-55560276D02*
X54485714Y-55600752D01*
X54485714Y-55600752D02*
X54526190Y-55641229D01*
X54526190Y-55641229D02*
X54566667Y-55722181D01*
X54566667Y-55722181D02*
X54566667Y-55924562D01*
X54566667Y-55924562D02*
X54526190Y-56005514D01*
X54526190Y-56005514D02*
X54485714Y-56045991D01*
X54485714Y-56045991D02*
X54404762Y-56086467D01*
X54404762Y-56086467D02*
X54161905Y-56086467D01*
X54161905Y-56086467D02*
X54080952Y-56045991D01*
X54080952Y-56045991D02*
X54040476Y-56005514D01*
X46956467Y-59546428D02*
X46551705Y-59829762D01*
X46956467Y-60032143D02*
X46106467Y-60032143D01*
X46106467Y-60032143D02*
X46106467Y-59708333D01*
X46106467Y-59708333D02*
X46146943Y-59627381D01*
X46146943Y-59627381D02*
X46187419Y-59586904D01*
X46187419Y-59586904D02*
X46268371Y-59546428D01*
X46268371Y-59546428D02*
X46389800Y-59546428D01*
X46389800Y-59546428D02*
X46470752Y-59586904D01*
X46470752Y-59586904D02*
X46511229Y-59627381D01*
X46511229Y-59627381D02*
X46551705Y-59708333D01*
X46551705Y-59708333D02*
X46551705Y-60032143D01*
X46956467Y-58736904D02*
X46956467Y-59222619D01*
X46956467Y-58979762D02*
X46106467Y-58979762D01*
X46106467Y-58979762D02*
X46227895Y-59060714D01*
X46227895Y-59060714D02*
X46308848Y-59141666D01*
X46308848Y-59141666D02*
X46349324Y-59222619D01*
X46470752Y-58251190D02*
X46430276Y-58332142D01*
X46430276Y-58332142D02*
X46389800Y-58372619D01*
X46389800Y-58372619D02*
X46308848Y-58413095D01*
X46308848Y-58413095D02*
X46268371Y-58413095D01*
X46268371Y-58413095D02*
X46187419Y-58372619D01*
X46187419Y-58372619D02*
X46146943Y-58332142D01*
X46146943Y-58332142D02*
X46106467Y-58251190D01*
X46106467Y-58251190D02*
X46106467Y-58089285D01*
X46106467Y-58089285D02*
X46146943Y-58008333D01*
X46146943Y-58008333D02*
X46187419Y-57967857D01*
X46187419Y-57967857D02*
X46268371Y-57927380D01*
X46268371Y-57927380D02*
X46308848Y-57927380D01*
X46308848Y-57927380D02*
X46389800Y-57967857D01*
X46389800Y-57967857D02*
X46430276Y-58008333D01*
X46430276Y-58008333D02*
X46470752Y-58089285D01*
X46470752Y-58089285D02*
X46470752Y-58251190D01*
X46470752Y-58251190D02*
X46511229Y-58332142D01*
X46511229Y-58332142D02*
X46551705Y-58372619D01*
X46551705Y-58372619D02*
X46632657Y-58413095D01*
X46632657Y-58413095D02*
X46794562Y-58413095D01*
X46794562Y-58413095D02*
X46875514Y-58372619D01*
X46875514Y-58372619D02*
X46915991Y-58332142D01*
X46915991Y-58332142D02*
X46956467Y-58251190D01*
X46956467Y-58251190D02*
X46956467Y-58089285D01*
X46956467Y-58089285D02*
X46915991Y-58008333D01*
X46915991Y-58008333D02*
X46875514Y-57967857D01*
X46875514Y-57967857D02*
X46794562Y-57927380D01*
X46794562Y-57927380D02*
X46632657Y-57927380D01*
X46632657Y-57927380D02*
X46551705Y-57967857D01*
X46551705Y-57967857D02*
X46511229Y-58008333D01*
X46511229Y-58008333D02*
X46470752Y-58089285D01*
D10*
X41928571Y-12931009D02*
X41595238Y-12931009D01*
X41595238Y-13454819D02*
X41595238Y-12454819D01*
X41595238Y-12454819D02*
X42071428Y-12454819D01*
X42452381Y-13454819D02*
X42452381Y-12454819D01*
X42928571Y-13454819D02*
X42928571Y-12454819D01*
X42928571Y-12454819D02*
X43166666Y-12454819D01*
X43166666Y-12454819D02*
X43309523Y-12502438D01*
X43309523Y-12502438D02*
X43404761Y-12597676D01*
X43404761Y-12597676D02*
X43452380Y-12692914D01*
X43452380Y-12692914D02*
X43499999Y-12883390D01*
X43499999Y-12883390D02*
X43499999Y-13026247D01*
X43499999Y-13026247D02*
X43452380Y-13216723D01*
X43452380Y-13216723D02*
X43404761Y-13311961D01*
X43404761Y-13311961D02*
X43309523Y-13407200D01*
X43309523Y-13407200D02*
X43166666Y-13454819D01*
X43166666Y-13454819D02*
X42928571Y-13454819D01*
X44452380Y-13454819D02*
X43880952Y-13454819D01*
X44166666Y-13454819D02*
X44166666Y-12454819D01*
X44166666Y-12454819D02*
X44071428Y-12597676D01*
X44071428Y-12597676D02*
X43976190Y-12692914D01*
X43976190Y-12692914D02*
X43880952Y-12740533D01*
D11*
X29858333Y-141956467D02*
X29574999Y-141551705D01*
X29372618Y-141956467D02*
X29372618Y-141106467D01*
X29372618Y-141106467D02*
X29696428Y-141106467D01*
X29696428Y-141106467D02*
X29777380Y-141146943D01*
X29777380Y-141146943D02*
X29817857Y-141187419D01*
X29817857Y-141187419D02*
X29858333Y-141268371D01*
X29858333Y-141268371D02*
X29858333Y-141389800D01*
X29858333Y-141389800D02*
X29817857Y-141470752D01*
X29817857Y-141470752D02*
X29777380Y-141511229D01*
X29777380Y-141511229D02*
X29696428Y-141551705D01*
X29696428Y-141551705D02*
X29372618Y-141551705D01*
X30586904Y-141106467D02*
X30424999Y-141106467D01*
X30424999Y-141106467D02*
X30344047Y-141146943D01*
X30344047Y-141146943D02*
X30303571Y-141187419D01*
X30303571Y-141187419D02*
X30222618Y-141308848D01*
X30222618Y-141308848D02*
X30182142Y-141470752D01*
X30182142Y-141470752D02*
X30182142Y-141794562D01*
X30182142Y-141794562D02*
X30222618Y-141875514D01*
X30222618Y-141875514D02*
X30263095Y-141915991D01*
X30263095Y-141915991D02*
X30344047Y-141956467D01*
X30344047Y-141956467D02*
X30505952Y-141956467D01*
X30505952Y-141956467D02*
X30586904Y-141915991D01*
X30586904Y-141915991D02*
X30627380Y-141875514D01*
X30627380Y-141875514D02*
X30667857Y-141794562D01*
X30667857Y-141794562D02*
X30667857Y-141592181D01*
X30667857Y-141592181D02*
X30627380Y-141511229D01*
X30627380Y-141511229D02*
X30586904Y-141470752D01*
X30586904Y-141470752D02*
X30505952Y-141430276D01*
X30505952Y-141430276D02*
X30344047Y-141430276D01*
X30344047Y-141430276D02*
X30263095Y-141470752D01*
X30263095Y-141470752D02*
X30222618Y-141511229D01*
X30222618Y-141511229D02*
X30182142Y-141592181D01*
X33716667Y-101516467D02*
X33716667Y-102123610D01*
X33716667Y-102123610D02*
X33676190Y-102245038D01*
X33676190Y-102245038D02*
X33595238Y-102325991D01*
X33595238Y-102325991D02*
X33473809Y-102366467D01*
X33473809Y-102366467D02*
X33392857Y-102366467D01*
X34526190Y-101516467D02*
X34121428Y-101516467D01*
X34121428Y-101516467D02*
X34080952Y-101921229D01*
X34080952Y-101921229D02*
X34121428Y-101880752D01*
X34121428Y-101880752D02*
X34202381Y-101840276D01*
X34202381Y-101840276D02*
X34404762Y-101840276D01*
X34404762Y-101840276D02*
X34485714Y-101880752D01*
X34485714Y-101880752D02*
X34526190Y-101921229D01*
X34526190Y-101921229D02*
X34566667Y-102002181D01*
X34566667Y-102002181D02*
X34566667Y-102204562D01*
X34566667Y-102204562D02*
X34526190Y-102285514D01*
X34526190Y-102285514D02*
X34485714Y-102325991D01*
X34485714Y-102325991D02*
X34404762Y-102366467D01*
X34404762Y-102366467D02*
X34202381Y-102366467D01*
X34202381Y-102366467D02*
X34121428Y-102325991D01*
X34121428Y-102325991D02*
X34080952Y-102285514D01*
X25858333Y-141956467D02*
X25574999Y-141551705D01*
X25372618Y-141956467D02*
X25372618Y-141106467D01*
X25372618Y-141106467D02*
X25696428Y-141106467D01*
X25696428Y-141106467D02*
X25777380Y-141146943D01*
X25777380Y-141146943D02*
X25817857Y-141187419D01*
X25817857Y-141187419D02*
X25858333Y-141268371D01*
X25858333Y-141268371D02*
X25858333Y-141389800D01*
X25858333Y-141389800D02*
X25817857Y-141470752D01*
X25817857Y-141470752D02*
X25777380Y-141511229D01*
X25777380Y-141511229D02*
X25696428Y-141551705D01*
X25696428Y-141551705D02*
X25372618Y-141551705D01*
X26344047Y-141470752D02*
X26263095Y-141430276D01*
X26263095Y-141430276D02*
X26222618Y-141389800D01*
X26222618Y-141389800D02*
X26182142Y-141308848D01*
X26182142Y-141308848D02*
X26182142Y-141268371D01*
X26182142Y-141268371D02*
X26222618Y-141187419D01*
X26222618Y-141187419D02*
X26263095Y-141146943D01*
X26263095Y-141146943D02*
X26344047Y-141106467D01*
X26344047Y-141106467D02*
X26505952Y-141106467D01*
X26505952Y-141106467D02*
X26586904Y-141146943D01*
X26586904Y-141146943D02*
X26627380Y-141187419D01*
X26627380Y-141187419D02*
X26667857Y-141268371D01*
X26667857Y-141268371D02*
X26667857Y-141308848D01*
X26667857Y-141308848D02*
X26627380Y-141389800D01*
X26627380Y-141389800D02*
X26586904Y-141430276D01*
X26586904Y-141430276D02*
X26505952Y-141470752D01*
X26505952Y-141470752D02*
X26344047Y-141470752D01*
X26344047Y-141470752D02*
X26263095Y-141511229D01*
X26263095Y-141511229D02*
X26222618Y-141551705D01*
X26222618Y-141551705D02*
X26182142Y-141632657D01*
X26182142Y-141632657D02*
X26182142Y-141794562D01*
X26182142Y-141794562D02*
X26222618Y-141875514D01*
X26222618Y-141875514D02*
X26263095Y-141915991D01*
X26263095Y-141915991D02*
X26344047Y-141956467D01*
X26344047Y-141956467D02*
X26505952Y-141956467D01*
X26505952Y-141956467D02*
X26586904Y-141915991D01*
X26586904Y-141915991D02*
X26627380Y-141875514D01*
X26627380Y-141875514D02*
X26667857Y-141794562D01*
X26667857Y-141794562D02*
X26667857Y-141632657D01*
X26667857Y-141632657D02*
X26627380Y-141551705D01*
X26627380Y-141551705D02*
X26586904Y-141511229D01*
X26586904Y-141511229D02*
X26505952Y-141470752D01*
D12*
%TO.C,TP1*%
X45200000Y-105000000D02*
G75*
G02*
X42800000Y-105000000I-1200000J0D01*
G01*
X42800000Y-105000000D02*
G75*
G02*
X45200000Y-105000000I1200000J0D01*
G01*
%TO.C,F1*%
X45090000Y-86602064D02*
X45090000Y-85397936D01*
X46910000Y-86602064D02*
X46910000Y-85397936D01*
%TO.C,TP2*%
X45200000Y-110000000D02*
G75*
G02*
X42800000Y-110000000I-1200000J0D01*
G01*
X42800000Y-110000000D02*
G75*
G02*
X45200000Y-110000000I1200000J0D01*
G01*
%TO.C,R13*%
X48762742Y-24477500D02*
X49237258Y-24477500D01*
X48762742Y-25522500D02*
X49237258Y-25522500D01*
%TO.C,L1*%
X54846000Y-69596000D02*
X59154000Y-69596000D01*
X59154000Y-73904000D02*
X54846000Y-73904000D01*
%TO.C,U1*%
X50990000Y-70860000D02*
X52990000Y-70860000D01*
X51000000Y-73140000D02*
X53000000Y-73140000D01*
X50630000Y-70930000D02*
X50350000Y-70930000D01*
X50630000Y-70650000D01*
X50630000Y-70930000D01*
G36*
X50630000Y-70930000D02*
G01*
X50350000Y-70930000D01*
X50630000Y-70650000D01*
X50630000Y-70930000D01*
G37*
%TO.C,R12*%
X48762742Y-21477500D02*
X49237258Y-21477500D01*
X48762742Y-22522500D02*
X49237258Y-22522500D01*
%TO.C,C7*%
X61738748Y-60265000D02*
X62261252Y-60265000D01*
X61738748Y-61735000D02*
X62261252Y-61735000D01*
%TO.C,R17*%
X43477500Y-59237258D02*
X43477500Y-58762742D01*
X44522500Y-59237258D02*
X44522500Y-58762742D01*
%TO.C,R7*%
X25762742Y-145477500D02*
X26237258Y-145477500D01*
X25762742Y-146522500D02*
X26237258Y-146522500D01*
%TO.C,R4*%
X23762742Y-157477500D02*
X24237258Y-157477500D01*
X23762742Y-158522500D02*
X24237258Y-158522500D01*
%TO.C,R15*%
X48762742Y-30477500D02*
X49237258Y-30477500D01*
X48762742Y-31522500D02*
X49237258Y-31522500D01*
%TO.C,TP5*%
X45200000Y-125000000D02*
G75*
G02*
X42800000Y-125000000I-1200000J0D01*
G01*
X42800000Y-125000000D02*
G75*
G02*
X45200000Y-125000000I1200000J0D01*
G01*
%TO.C,C3*%
X47265000Y-75261252D02*
X47265000Y-74738748D01*
X48735000Y-75261252D02*
X48735000Y-74738748D01*
%TO.C,R16*%
X15762742Y-156477500D02*
X16237258Y-156477500D01*
X15762742Y-157522500D02*
X16237258Y-157522500D01*
%TO.C,R20*%
X15762742Y-163477500D02*
X16237258Y-163477500D01*
X15762742Y-164522500D02*
X16237258Y-164522500D01*
%TO.C,J4*%
X53115000Y-17005000D02*
X67125000Y-17005000D01*
X53115000Y-18925000D02*
X53115000Y-17005000D01*
X53115000Y-30525000D02*
X53115000Y-30975000D01*
X53115000Y-30975000D02*
X56725000Y-30975000D01*
X58425000Y-30975000D02*
X63125000Y-30975000D01*
X64425000Y-30975000D02*
X66225000Y-30975000D01*
X69035000Y-27875000D02*
X69035000Y-21505000D01*
X69035000Y-27875000D02*
X69185000Y-27875000D01*
X69185000Y-18485000D02*
X69185000Y-18225000D01*
X69385000Y-18685000D02*
X69185000Y-18485000D01*
X69385000Y-18685000D02*
X69385000Y-20995000D01*
X69385000Y-20995000D02*
X69035000Y-21505000D01*
X69385000Y-28085000D02*
X69185000Y-27875000D01*
X69385000Y-29945000D02*
X69185000Y-30145000D01*
X69385000Y-29945000D02*
X69385000Y-28085000D01*
%TO.C,C4*%
X57738748Y-35265000D02*
X58261252Y-35265000D01*
X57738748Y-36735000D02*
X58261252Y-36735000D01*
%TO.C,R14*%
X48762742Y-27477500D02*
X49237258Y-27477500D01*
X48762742Y-28522500D02*
X49237258Y-28522500D01*
%TO.C,C6*%
X61738748Y-56265000D02*
X62261252Y-56265000D01*
X61738748Y-57735000D02*
X62261252Y-57735000D01*
%TO.C,C5*%
X61738748Y-35265000D02*
X62261252Y-35265000D01*
X61738748Y-36735000D02*
X62261252Y-36735000D01*
%TO.C,R3*%
X48762742Y-33477500D02*
X49237258Y-33477500D01*
X48762742Y-34522500D02*
X49237258Y-34522500D01*
%TO.C,J2*%
X20680000Y-150670000D02*
X22010000Y-150670000D01*
X20680000Y-152000000D02*
X20680000Y-150670000D01*
X23280000Y-150670000D02*
X51280000Y-150670000D01*
X23280000Y-153330000D02*
X23280000Y-150670000D01*
X23280000Y-153330000D02*
X51280000Y-153330000D01*
X51280000Y-153330000D02*
X51280000Y-150670000D01*
%TO.C,TP4*%
X45200000Y-120000000D02*
G75*
G02*
X42800000Y-120000000I-1200000J0D01*
G01*
X42800000Y-120000000D02*
G75*
G02*
X45200000Y-120000000I1200000J0D01*
G01*
%TO.C,J1*%
X10520000Y-170990000D02*
X10520000Y-173650000D01*
X48680000Y-170990000D02*
X10520000Y-170990000D01*
X48680000Y-170990000D02*
X48680000Y-173650000D01*
X48680000Y-173650000D02*
X10520000Y-173650000D01*
X51280000Y-172320000D02*
X51280000Y-173650000D01*
X51280000Y-173650000D02*
X49950000Y-173650000D01*
%TO.C,C2*%
X60288748Y-74640000D02*
X61711252Y-74640000D01*
X60288748Y-77360000D02*
X61711252Y-77360000D01*
%TO.C,R5*%
X29762742Y-145477500D02*
X30237258Y-145477500D01*
X29762742Y-146522500D02*
X30237258Y-146522500D01*
%TO.C,R21*%
X15762742Y-159477500D02*
X16237258Y-159477500D01*
X15762742Y-160522500D02*
X16237258Y-160522500D01*
%TO.C,R2*%
X23762742Y-160477500D02*
X24237258Y-160477500D01*
X23762742Y-161522500D02*
X24237258Y-161522500D01*
%TO.C,C1*%
X46640000Y-71211252D02*
X46640000Y-69788748D01*
X49360000Y-71211252D02*
X49360000Y-69788748D01*
%TO.C,R1*%
X23762742Y-163477500D02*
X24237258Y-163477500D01*
X23762742Y-164522500D02*
X24237258Y-164522500D01*
%TO.C,R11*%
X48762742Y-18477500D02*
X49237258Y-18477500D01*
X48762742Y-19522500D02*
X49237258Y-19522500D01*
%TO.C,R9*%
X21762742Y-145477500D02*
X22237258Y-145477500D01*
X21762742Y-146522500D02*
X22237258Y-146522500D01*
%TO.C,R10*%
X21762742Y-142477500D02*
X22237258Y-142477500D01*
X21762742Y-143522500D02*
X22237258Y-143522500D01*
%TO.C,R19*%
X51477500Y-59237258D02*
X51477500Y-58762742D01*
X52522500Y-59237258D02*
X52522500Y-58762742D01*
%TO.C,TP3*%
X45200000Y-115000000D02*
G75*
G02*
X42800000Y-115000000I-1200000J0D01*
G01*
X42800000Y-115000000D02*
G75*
G02*
X45200000Y-115000000I1200000J0D01*
G01*
%TO.C,J3*%
X47850000Y-47500000D02*
X47850000Y-49240000D01*
X47850000Y-53300000D02*
X47850000Y-51960000D01*
X49340000Y-53300000D02*
X47850000Y-53300000D01*
X58660000Y-53300000D02*
X58660000Y-54500000D01*
X58660000Y-53300000D02*
X60150000Y-53300000D01*
X60150000Y-47500000D02*
X47850000Y-47500000D01*
X60150000Y-49240000D02*
X60150000Y-47500000D01*
X60150000Y-53300000D02*
X60150000Y-51960000D01*
%TO.C,R18*%
X47477500Y-59237258D02*
X47477500Y-58762742D01*
X48522500Y-59237258D02*
X48522500Y-58762742D01*
%TO.C,R6*%
X29762742Y-142477500D02*
X30237258Y-142477500D01*
X29762742Y-143522500D02*
X30237258Y-143522500D01*
%TO.C,J5*%
X30890000Y-97285000D02*
X30890000Y-99785000D01*
X30890000Y-99785000D02*
X31940000Y-99785000D01*
X35940000Y-95315000D02*
X32060000Y-95315000D01*
X36060000Y-99785000D02*
X36060000Y-100775000D01*
X37110000Y-97285000D02*
X37110000Y-99785000D01*
X37110000Y-99785000D02*
X36060000Y-99785000D01*
%TO.C,R8*%
X25762742Y-142477500D02*
X26237258Y-142477500D01*
X25762742Y-143522500D02*
X26237258Y-143522500D01*
%TD*%
M02*
