%TF.GenerationSoftware,KiCad,Pcbnew,8.0.9*%
%TF.CreationDate,2026-09-14T10:14:20-04:00*%
%TF.ProjectId,tangara-faceplate,74616e67-6172-4612-9d66-616365706c61,rev?*%
%TF.SameCoordinates,Original*%
%TF.FileFunction,Soldermask,Top*%
%TF.FilePolarity,Negative*%
%FSLAX46Y46*%
G04 Gerber Fmt 4.6, Leading zero omitted, Abs format (unit mm)*
G04 Created by KiCad (PCBNEW 8.0.9) date 2026-09-14 10:14:20*
%MOMM*%
%LPD*%
G01*
G04 APERTURE LIST*
%ADD10C,0.700000*%
%ADD11C,4.400000*%
%ADD12R,1.998980X0.497840*%
G04 APERTURE END LIST*
D10*
%TO.C,H3*%
X132650000Y-140200000D03*
X133133274Y-139033274D03*
X133133274Y-141366726D03*
X134300000Y-138550000D03*
D11*
X134300000Y-140200000D03*
D10*
X134300000Y-141850000D03*
X135466726Y-139033274D03*
X135466726Y-141366726D03*
X135950000Y-140200000D03*
%TD*%
%TO.C,H1*%
X132650000Y-51250000D03*
X133133274Y-50083274D03*
X133133274Y-52416726D03*
X134300000Y-49600000D03*
D11*
X134300000Y-51250000D03*
D10*
X134300000Y-52900000D03*
X135466726Y-50083274D03*
X135466726Y-52416726D03*
X135950000Y-51250000D03*
%TD*%
%TO.C,H2*%
X179450000Y-51250000D03*
X179933274Y-50083274D03*
X179933274Y-52416726D03*
X181100000Y-49600000D03*
D11*
X181100000Y-51250000D03*
D10*
X181100000Y-52900000D03*
X182266726Y-50083274D03*
X182266726Y-52416726D03*
X182750000Y-51250000D03*
%TD*%
D12*
%TO.C,LCD1*%
X173298454Y-65932176D03*
X173298454Y-66732276D03*
X173298454Y-67532376D03*
X173298454Y-68332476D03*
X173298454Y-69132576D03*
X173298454Y-69932676D03*
X173298454Y-70732776D03*
X173298454Y-71530336D03*
X173298454Y-72330436D03*
X173298454Y-73130536D03*
X173298454Y-73930636D03*
X173298454Y-74730736D03*
X173298454Y-75530836D03*
X173298454Y-76330936D03*
%TD*%
D10*
%TO.C,H4*%
X179450000Y-140200000D03*
X179933274Y-139033274D03*
X179933274Y-141366726D03*
X181100000Y-138550000D03*
D11*
X181100000Y-140200000D03*
D10*
X181100000Y-141850000D03*
X182266726Y-139033274D03*
X182266726Y-141366726D03*
X182750000Y-140200000D03*
%TD*%
M02*
