M48
; DRILL file {KiCad 8.0.9} date 2026-09-14T10:14:20-0400
; FORMAT={-:-/ absolute / metric / decimal}
; #@! TF.CreationDate,2026-09-14T10:14:20-04:00
; #@! TF.GenerationSoftware,Kicad,Pcbnew,8.0.9
; #@! TF.FileFunction,MixedPlating,1,2
FMAT,2
METRIC
; #@! TA.AperFunction,Plated,PTH,ViaDrill
T1C0.200
; #@! TA.AperFunction,Plated,PTH,ComponentDrill
T2C0.200
; #@! TA.AperFunction,Plated,PTH,ComponentDrill
T3C0.400
; #@! TA.AperFunction,Plated,PTH,ComponentDrill
T4C2.200
%
G90
G05
T1
X134.955Y-93.393
X134.955Y-95.429
X136.392Y-97.124
X136.396Y-93.393
X136.396Y-95.429
X136.849Y-88.105
X136.859Y-83.81
X137.829Y-97.133
X138.748Y-92.213
X138.779Y-88.694
X140.914Y-93.675
X140.922Y-94.721
X146.988Y-91.486
X167.406Y-96.001
X167.523Y-73.626
X167.523Y-76.478
X167.523Y-79.33
X167.523Y-82.182
X169.056Y-77.63
X169.953Y-66.226
X169.953Y-67.842
X169.953Y-69.466
X169.953Y-73.624
X169.953Y-76.476
X169.953Y-79.328
X169.953Y-82.18
X170.846Y-84.883
X170.918Y-80.553
X170.965Y-140.248
X171.545Y-74.421
X171.682Y-70.857
X171.718Y-69.914
X171.769Y-75.162
X173.06Y-86.926
X173.298Y-82.648
X173.366Y-141.65
X174.102Y-60.688
X175.158Y-141.805
X175.191Y-73.907
X175.198Y-73.131
X175.401Y-89.289
X175.493Y-95.063
X175.512Y-84.691
X175.654Y-135.184
X175.929Y-93.04
X176.246Y-97.302
X176.246Y-98.751
X176.246Y-100.199
X176.425Y-138.415
X176.815Y-68.337
X177.296Y-92.468
X177.411Y-65.387
X177.448Y-93.599
X177.742Y-91.587
X178.3Y-138.666
X178.628Y-90.509
X178.846Y-83.496
X179.314Y-135.081
X179.381Y-71.086
X179.381Y-68.19
X179.384Y-78.92
X179.384Y-76.023
X179.384Y-62.391
X179.384Y-65.289
X179.396Y-92.455
X179.459Y-128.863
X179.9Y-135.631
X179.95Y-105.937
X179.95Y-107.386
X179.95Y-108.835
X179.954Y-97.051
X179.954Y-98.5
X179.954Y-99.949
X180.362Y-126.328
X180.639Y-88.419
X180.956Y-129.704
X180.996Y-71.086
X180.997Y-68.19
X180.998Y-73.526
X180.999Y-78.92
X180.999Y-76.023
X180.999Y-62.391
X180.999Y-65.289
X181.024Y-97.794
X181.378Y-88.427
X182.137Y-93.551
X182.192Y-92.513
X182.192Y-94.519
X182.374Y-95.482
X183.024Y-130.728
X183.024Y-132.177
X183.024Y-133.626
X183.025Y-97.314
X183.025Y-98.763
X183.025Y-100.212
T2
X144.225Y-126.303
X157.689Y-99.919
X157.7Y-117.8
X173.101Y-126.979
T3
X132.65Y-51.25
X132.65Y-140.2
X133.133Y-50.083
X133.133Y-52.417
X133.133Y-139.033
X133.133Y-141.367
X134.3Y-49.6
X134.3Y-52.9
X134.3Y-138.55
X134.3Y-141.85
X135.467Y-50.083
X135.467Y-52.417
X135.467Y-139.033
X135.467Y-141.367
X135.95Y-51.25
X135.95Y-140.2
X179.45Y-51.25
X179.45Y-140.2
X179.933Y-50.083
X179.933Y-52.417
X179.933Y-139.033
X179.933Y-141.367
X181.1Y-49.6
X181.1Y-52.9
X181.1Y-138.55
X181.1Y-141.85
X182.267Y-50.083
X182.267Y-52.417
X182.267Y-139.033
X182.267Y-141.367
X182.75Y-51.25
X182.75Y-140.2
T4
X134.3Y-51.25
X134.3Y-140.2
X181.1Y-51.25
X181.1Y-140.2
M30
