
CASCADE Topology V1, (c) Matra-Datavision
Locations 41
1
1.000000000000000 0.000000000000000 0.000000000000000 0.000000000000000 
0.000000000000000 1.000000000000000 0.000000000000000 -11.210000000000001 
0.000000000000000 0.000000000000000 1.000000000000000 0.000000000000000 
1
1.000000000000000 0.000000000000000 0.000000000000000 -26.199999999999999 
0.000000000000000 1.000000000000000 0.000000000000000 35.939999999999998 
0.000000000000000 0.000000000000000 1.000000000000000 0.000000000000000 
2  2 -1 0
1
1.000000000000000 0.000000000000000 0.000000000000000 0.000000000000000 
0.000000000000000 1.000000000000000 0.000000000000000 0.000000000000000 
0.000000000000000 0.000000000000000 1.000000000000000 0.000000000000000 
1
-0.000000000000000 0.000000000000000 1.000000000000000 0.000000000000000 
1.000000000000000 -0.000000000000000 0.000000000000000 0.000000000000000 
0.000000000000000 1.000000000000000 -0.000000000000000 0.000000000000000 
1
1.000000000000000 0.000000000000000 0.000000000000000 0.000000000000002 
0.000000000000000 1.000000000000000 0.000000000000000 -0.000000000000001 
0.000000000000000 0.000000000000000 1.000000000000000 -3.500000000000000 
1
0.000000000000000 -0.000000000000000 1.000000000000000 0.000000000000000 
1.000000000000000 0.000000000000000 0.000000000000000 0.000000000000000 
-0.000000000000000 1.000000000000000 0.000000000000000 0.000000000000000 
1
-0.000000000000000 0.000000000000000 1.000000000000000 0.000000000000000 
1.000000000000000 -0.000000000000000 0.000000000000000 0.000000000000000 
0.000000000000000 1.000000000000000 -0.000000000000000 0.000000000000000 
1
1.000000000000000 0.000000000000000 0.000000000000000 0.000000000000000 
0.000000000000000 1.000000000000000 0.000000000000000 0.000000000000000 
0.000000000000000 0.000000000000000 1.000000000000000 0.000000000000000 
2  5 -1 6 1 7 1 8 -1 9 1 4 1 0
2  4 -1 9 -1 8 1 7 -1 6 -1 5 1 0
2  5 -1 6 1 7 1 8 -1 9 1 0
2  2 -1 4 -1 0
2  4 -1 0
2  7 1 8 -1 9 1 4 1 0
2  4 -1 9 -1 8 1 7 -1 0
2  2 -1 4 -1 9 -1 8 1 7 -1 0
1
1.000000000000000 0.000000000000000 0.000000000000000 0.000000000000000 
0.000000000000000 1.000000000000000 0.000000000000000 0.000000000000000 
0.000000000000000 0.000000000000000 1.000000000000000 0.000000000000000 
1
-0.000000000000000 0.000000000000000 -1.000000000000000 0.000000000000000 
-1.000000000000000 0.000000000000000 0.000000000000000 0.000000000000000 
0.000000000000000 1.000000000000000 -0.000000000000000 0.000000000000000 
1
1.000000000000000 0.000000000000000 0.000000000000000 0.000000000000000 
0.000000000000000 1.000000000000000 0.000000000000000 -0.000000000000000 
0.000000000000000 0.000000000000000 1.000000000000000 -0.100000000000000 
2  18 1 19 1 8 -1 20 1 9 1 4 1 0
2  2 -1 4 -1 9 -1 20 -1 8 1 19 -1 18 -1 0
1
1.000000000000000 0.000000000000000 0.000000000000000 0.000000000000000 
0.000000000000000 1.000000000000000 0.000000000000000 0.000000000000000 
0.000000000000000 0.000000000000000 1.000000000000000 0.000000000000000 
1
0.000000000000000 -0.000000000000000 1.000000000000000 0.000000000000000 
1.000000000000000 0.000000000000000 0.000000000000000 0.000000000000000 
-0.000000000000000 1.000000000000000 0.000000000000000 0.000000000000000 
2  23 1 24 1 5 -1 7 1 8 -1 9 1 4 1 0
2  2 -1 4 -1 9 -1 8 1 7 -1 5 1 24 -1 23 -1 0
2  24 1 5 -1 0
1
-0.000000000000000 0.000000000000000 1.000000000000000 0.000000000000000 
1.000000000000000 -0.000000000000000 0.000000000000000 0.000000000000000 
0.000000000000000 1.000000000000000 -0.000000000000000 0.000000000000000 
1
1.000000000000000 0.000000000000000 0.000000000000000 0.000000000000000 
0.000000000000000 1.000000000000000 0.000000000000000 -0.000000000000000 
0.000000000000000 0.000000000000000 1.000000000000000 -0.850000000000000 
2  28 -1 29 1 23 1 24 1 5 -1 0
2  2 -1 4 -1 9 -1 8 1 7 -1 5 1 24 -1 0
2  24 1 5 -1 7 1 8 -1 9 1 4 1 0
2  9 1 4 1 0
2  23 1 24 1 5 -1 7 1 8 -1 0
2  18 1 19 1 8 -1 20 1 0
2  23 1 24 1 5 -1 7 1 8 -1 20 -1 8 1 19 -1 18 -1 0
2  24 1 5 -1 7 1 8 -1 0
2  8 -1 20 1 9 1 4 1 0
2  4 -1 9 -1 20 -1 8 1 0
2  4 -1 9 -1 20 -1 8 1 19 -1 18 -1 0
2  4 -1 9 -1 8 1 7 -1 5 1 24 -1 23 -1 0
Curve2ds 90
1 1.57079632679489678 0.00000000000000000 0.00000000000000000 1.00000000000000000 
1 0.00000000000000000 0.21213203435596401 0.00000000000000000 1.00000000000000000 
1 0.00000000000000000 -0.21213203435596423 0.00000000000000000 1.00000000000000000 
1 0.00000000000000000 -0.42426406871192851 1.00000000000000000 0.00000000000000000 
1 0.00000000000000000 0.00000000000000000 1.00000000000000000 0.00000000000000000 
1 0.00000000000000000 7.70000000000000284 1.00000000000000000 0.00000000000000000 
1 0.00000000000000000 0.00000000000000000 1.00000000000000000 0.00000000000000000 
1 4.71238898038468879 -3.19999999999999973 1.00000000000000000 -0.00000000000000071 
1 0.00000000000000000 0.42426406871192851 1.00000000000000000 0.00000000000000000 
1 3.14159265358979312 0.00000000000000000 0.00000000000000000 1.00000000000000000 
1 1.57079632679489678 0.00000000000000000 0.00000000000000000 1.00000000000000000 
1 0.00000000000000000 0.00000000000000000 0.00000000000000000 1.00000000000000000 
1 1.57079632679489745 0.29999999999999982 -1.00000000000000000 -0.00000000000000000 
1 0.00000000000000000 0.00000000000000000 1.00000000000000000 0.00000000000000000 
1 0.00000000000000067 -0.21213203435596423 0.00000000000000000 1.00000000000000000 
1 0.00000000000000000 -0.42426406871192851 1.00000000000000000 0.00000000000000000 
1 1.57079632679489745 0.00000000000000000 0.00000000000000000 1.00000000000000000 
1 4.71238898038468879 0.00000000000000100 0.00000000000000000 -1.00000000000000000 
1 1.57079632679489634 0.00000000000000000 0.00000000000000000 -1.00000000000000000 
7 0 0  5 6 2  1.18100003032063627 0.00000000000000557  1.13637132005779651 0.00000000000000554  1.09174258824477088 0.00704178920822011  1.04729915132273654 0.02112543770172254  1.00322579310733362 0.04230914082243853  0.95968558797285575 0.07071067811865449 
 -0.00000000000000022 6 0.22314355131419855 6
1 0.00000000000000000 0.07071067811865477 1.00000000000000000 0.00000000000000000 
1 0.00000000000000000 0.07071067811865477 1.00000000000000000 0.00000000000000000 
1 0.00000000000000000 0.07071067811865477 1.00000000000000000 0.00000000000000000 
1 0.00000000000000000 0.07071067811865477 1.00000000000000000 0.00000000000000000 
1 12.56637061435917246 -0.84999999999999776 -1.00000000000000000 -0.00000000000000021 
1 -0.00000000000000022 0.00000000000000000 0.00000000000000000 1.00000000000000000 
1 1.18100003032063583 0.00000000000000000 0.00000000000000000 1.00000000000000000 
1 0.00000000000000000 0.00000000000000000 1.00000000000000000 0.00000000000000000 
1 0.38979629647426034 -0.79999999999999993 1.00000000000000000 0.00000000000000000 
7 0 0  6 7 2  0.17161401000611781 0.07071067811865418  0.14566926178939438 0.04874562845467757  0.11835903535384687 0.03004859684773929  0.08980245548564585 0.01527295984610212  0.06024505542574090 0.00508760278439508  0.03011535517305733 0.00000000000000014  0.00000000000000000 0.00000000000000000 
 0.00000000000000000 7 1.00000000000000000 7
7 0 0  3 25 23  5.78309946761718674 -0.84999999999999676  5.78444386871814054 -0.84858803273105909  5.78714211735654516 -0.84581184380066599  5.79121725211028515 -0.84179600520038500  5.79531959549648246 -0.83793382555247076  5.79944850912756937 -0.83423049736929433  5.80360329687574428 -0.83069117447829022  5.80778319540097154 -0.82732095107006887  5.81198737434731250 -0.82412484077382753  5.81621493371223330 -0.82110775470461606  5.82046490173456732 -0.81827447876528181  5.82473623240226868 -0.81562965012725375  5.82902780281860888 -0.81317773291067885  5.83333841036053347 -0.81092299305771609  5.83766676964551579 -0.80886947240325791  5.84201150929829272 -0.80702096193217576  5.84637116852657890 -0.80538097426243571  5.85074419346952901 -0.80395271520763611  5.85512893344704022 -0.80273905496536024  5.85952363662648956 -0.80174249689226851  5.86392644690585030 -0.80096515147580694  5.86833539529512560 -0.80040868710211810  5.87274841086385280 -0.80007436361192708  5.87569164208617956 -0.79999995658912160  5.87716319811207999 -0.79999999999999849 
 0.00000000000000000 4 0.04545454545454546 1 0.09090909090909091 1 0.13636363636363635 1 0.18181818181818182 1 0.22727272727272729 1 0.27272727272727271 1 0.31818181818181818 1 0.36363636363636365 1 0.40909090909090912 1 0.45454545454545459 1 0.50000000000000000 1 0.54545454545454541 1 0.59090909090909094 1 0.63636363636363635 1 0.68181818181818188 1 0.72727272727272729 1 0.77272727272727271 1 0.81818181818181823 1 0.86363636363636365 1 0.90909090909090917 1 0.95454545454545459 1 1.00000000000000000 4
1 0.40602210906750624 0.00000000000000000 0.00000000000000000 1.00000000000000000 
1 0.00000000000000000 0.00000000000000000 1.00000000000000000 0.00000000000000000 
1 2.73557054452228732 -0.79999999999999993 1.00000000000000000 0.00000000000000000 
1 -0.00000000000000089 0.03535533905932775 0.00000000000000000 1.00000000000000000 
1 0.00000000000000000 0.00000000000000000 1.00000000000000000 0.00000000000000000 
1 4.71238898038468967 -0.79999999999999993 -1.00000000000000000 -0.00000000000000000 
1 1.57079632679489656 0.00000000000000000 0.00000000000000000 1.00000000000000000 
1 -0.00000000000000089 0.03535533905932753 0.00000000000000000 1.00000000000000000 
1 0.00000000000000000 0.00000000000000000 1.00000000000000000 0.00000000000000000 
1 6.28318530717958623 -0.79999999999999993 -1.00000000000000000 -0.00000000000000000 
1 -0.00000000000000089 -0.10000000000000400 1.00000000000000000 0.00000000000000000 
1 0.38979629647426012 0.00000000000000000 0.00000000000000000 -1.00000000000000000 
1 3.53138895006405384 0.00000000000000000 0.00000000000000000 -1.00000000000000000 
1 -0.00000000000000089 -0.10000000000000336 1.00000000000000000 0.00000000000000000 
1 -0.00000000000000178 -0.10000000000000336 1.00000000000000000 0.00000000000000000 
1 -0.00000000000000178 -0.09999999999999601 1.00000000000000000 0.00000000000000000 
1 -0.00000000000000089 -0.09999999999999665 1.00000000000000000 0.00000000000000000 
1 -0.00000000000000178 -0.10000000000000163 1.00000000000000000 0.00000000000000000 
1 0.00000000000000000 -0.10000000000000198 1.00000000000000000 0.00000000000000044 
1 -0.00000000000000089 -0.09999999999999665 1.00000000000000000 0.00000000000000000 
1 -0.00000000000000089 -0.09999999999999838 1.00000000000000000 0.00000000000000000 
1 3.54761476265729936 0.00000000000000000 0.00000000000000000 -1.00000000000000000 
1 6.68920741624709336 -0.00000000000000006 0.00000000000000016 -1.00000000000000000 
1 3.14159265358979312 -0.79999999999999993 1.00000000000000000 0.00000000000000000 
1 0.00000000000000000 0.00000000000000000 1.00000000000000000 0.00000000000000000 
1 3.14159265358979312 0.00000000000000000 0.00000000000000000 -1.00000000000000000 
1 12.56637061435917246 -0.85000000000000653 -1.00000000000000000 0.00000000000000114 
1 0.00000000000000000 0.07071067811865477 1.00000000000000000 0.00000000000000000 
1 0.00000000000000000 0.07071067811865477 1.00000000000000000 0.00000000000000000 
1 0.00000000000000000 0.07071067811865477 1.00000000000000000 0.00000000000000000 
1 0.00000000000000000 0.07071067811865477 1.00000000000000000 0.00000000000000000 
1 0.00000000000000000 0.03535533905932686 0.00000000000000000 1.00000000000000000 
7 0 0  6 7 2  0.40602210906750646 0.00000000000003698  0.37590671428460587 0.00000000000003694  0.34577696283358500 0.00508761647832398  0.31621954593422408 0.01527300613342633  0.28766297517521178 0.03004865765743380  0.26035278189412586 0.04874568380933703  0.23440809906139570 0.07071067811865477 
 0.00000000000000000 7 1.00000000000000000 7
7 0 0  3 25 23  6.68920741624709336 -0.80000000000002658  6.69067897421167235 -0.79999995658604961  6.69362220942712227 -0.80007436381468067  6.69803523112526911 -0.80040868822822586  6.70244418556207666 -0.80096515413146863  6.70684700163467618 -0.80174250162961891  6.71124171020765559 -0.80273906226039793  6.71562645506149991 -0.80395272543887975  6.71999948426903959 -0.80538098769563560  6.72435914707537119 -0.80702097870885037  6.72870388956120635 -0.80886949253285834  6.73303225088907631 -0.81092301641266984  6.73734285964886137 -0.81317775922371383  6.74163443043078203 -0.81562967899036742  6.74590576058960778 -0.81827450962972437  6.75015572720916435 -0.82110778688125541  6.75438328425855428 -0.82412487343327301  6.75858745995639332 -0.82732098324191272  6.76276735427681075 -0.83069120504886040  6.76692213683581034 -0.83423052507721251  6.77105104425927795 -0.83793384898165713  6.77515338037779458 -0.84179602276887755  6.77922850675483435 -0.84581185374836410  6.78192674902829662 -0.84858803628743729  6.78327114674198306 -0.85000000000000064 
 0.00000000000000000 4 0.04545454545454546 1 0.09090909090909091 1 0.13636363636363635 1 0.18181818181818182 1 0.22727272727272729 1 0.27272727272727271 1 0.31818181818181818 1 0.36363636363636365 1 0.40909090909090912 1 0.45454545454545459 1 0.50000000000000000 1 0.54545454545454541 1 0.59090909090909094 1 0.63636363636363635 1 0.68181818181818188 1 0.72727272727272729 1 0.77272727272727271 1 0.81818181818181823 1 0.86363636363636365 1 0.90909090909090917 1 0.95454545454545459 1 1.00000000000000000 4
7 0 0  5 6 2  0.22131444234779174 0.07071067811865513  0.17777423721331154 0.04230914082243614  0.13370087899791727 0.02112543770172182  0.08925744207587272 0.00704178920821334  0.04462871026284265 -0.00000000000000023  0.00000000000000000 -0.00000000000000008 
 -0.22314355131421010 6 0.00000000000000111 6
1 1.18100003032063583 0.00000000000000000 0.00000000000000000 1.00000000000000000 
1 -0.00000000000000044 0.00000000000000000 0.00000000000000000 1.00000000000000000 
1 0.00000000000000000 0.00000000000000000 1.00000000000000000 0.00000000000000000 
1 4.71238898038468967 -0.79999999999999993 1.00000000000000000 0.00000000000000000 
1 1.57079632679489500 0.00000000000000000 0.00000000000000000 1.00000000000000000 
1 -0.00000000000000111 0.03535533905932819 0.00000000000000000 1.00000000000000000 
1 0.00000000000000000 0.00000000000000000 1.00000000000000000 0.00000000000000000 
1 1.57079632679489567 -0.79999999999999993 -1.00000000000000000 -0.00000000000000000 
1 1.18100003032063605 0.00000000000000000 0.00000000000000000 1.00000000000000000 
1 0.00000000000000000 0.00000000000000000 1.00000000000000000 0.00000000000000000 
1 2.75179635711553283 -0.79999999999999993 -1.00000000000000000 -0.00000000000000000 
1 3.14159265358979356 0.00000000000000000 0.00000000000000000 -1.00000000000000000 
1 2.73557054452228732 0.00000000000000000 0.00000000000000000 -1.00000000000000000 
1 5.87716319811208088 0.00000000000000169 0.00000000000000000 -1.00000000000000000 
1 4.71238898038469056 0.00000000000000000 0.00000000000000000 -1.00000000000000000 
1 4.71238898038468967 0.00000000000000000 0.00000000000000000 -1.00000000000000000 
1 6.28318530717958712 0.00000000000000000 0.00000000000000000 -1.00000000000000000 
1 5.89338901070532550 0.00000000000000000 0.00000000000000000 -1.00000000000000000 
1 2.75179635711553328 0.00000000000000000 0.00000000000000000 -1.00000000000000000 
1 4.71238898038468967 0.00000000000000000 0.00000000000000000 -1.00000000000000000 
1 1.57079632679489678 0.00000000000000000 0.00000000000000000 -1.00000000000000000 
1 1.57079632679489678 0.00000000000000000 0.00000000000000000 -1.00000000000000000 
1 0.00000000000000070 0.00000000000000000 0.00000000000000000 -1.00000000000000000 
1 7.85398163397448190 -0.00000000000000078 0.00000000000000038 -1.00000000000000000 
Curves 98
1 -29.69999999999999574 39.20499999999999829 -3.70000000000000595 -0.70710678118654791 0.00000000000000334 0.70710678118654735 
1 -29.39999999999999503 39.20499999999999119 -4.00000000000000533 -0.00000000000000044 -1.00000000000000000 0.00000000000000089 
1 -29.69999999999999574 39.20499999999999829 -3.70000000000000639 -0.00000000000000044 -1.00000000000000000 0.00000000000000089 
1 -29.54999999999999716 35.85499999999999687 -3.85000000000000409 -0.70710678118654813 0.00000000000000094 0.70710678118654702 
1 -28.69999999999999218 40.05499999999999261 -3.85000000000000586 0.00000000000000016 0.70710678118654768 0.70710678118654735 
2 -28.69999999999999574 39.20499999999999119 -4.00000000000000444 -0.00000000000000050 0.00000000000000089 1.00000000000000000 0.00000000000000400 1.00000000000000000 -0.00000000000000089 -1.00000000000000000 0.00000000000000400 -0.00000000000000050 0.69999999999999996
2 -28.69999999999999574 39.20499999999999119 -3.70000000000000551 -0.00000000000000050 0.00000000000000089 1.00000000000000000 0.00000000000000400 1.00000000000000000 -0.00000000000000089 -1.00000000000000000 0.00000000000000400 -0.00000000000000050 1.00000000000000000
2 -29.39999999999999858 35.85499999999999687 -0.00000000000000254 -1.00000000000000000 0.00000000000000044 -0.00000000000000094 0.00000000000000094 -0.00000000000000001 -1.00000000000000000 -0.00000000000000044 -1.00000000000000000 0.00000000000000001 3.99999999999999956
2 -29.69999999999999929 35.85499999999999687 -0.00000000000000282 -1.00000000000000000 0.00000000000000044 -0.00000000000000094 0.00000000000000094 -0.00000000000000001 -1.00000000000000000 -0.00000000000000044 -1.00000000000000000 0.00000000000000001 3.69999999999999973
1 -29.40000000000000568 35.85499999999999687 3.99999999999999689 -0.70710678118654657 0.00000000000000039 -0.70710678118654857 
1 -29.69999999999999929 39.20499999999999829 3.99999999999999600 0.00000000000000094 -0.00000000000000044 -1.00000000000000000 
1 -29.70000000000000284 35.85499999999999687 3.69999999999999885 0.00000000000000044 1.00000000000000000 -0.00000000000000089 
1 -28.69999999999999929 40.20499999999999829 3.99999999999999645 0.00000000000000094 -0.00000000000000044 -1.00000000000000000 
2 -28.69999999999999929 39.20499999999999829 3.69999999999999662 0.00000000000000050 -0.00000000000000089 -1.00000000000000000 -1.00000000000000000 0.00000000000000000 -0.00000000000000050 0.00000000000000000 1.00000000000000000 -0.00000000000000089 1.00000000000000000
1 -29.55000000000000071 39.20499999999999829 3.84999999999999520 -0.70710678118654691 -0.00000000000000031 -0.70710678118654813 
2 -28.69999999999999929 39.20499999999999829 3.99999999999999645 0.00000000000000050 -0.00000000000000089 -1.00000000000000000 -1.00000000000000000 0.00000000000000000 -0.00000000000000050 0.00000000000000000 1.00000000000000000 -0.00000000000000089 0.69999999999999996
1 -28.69999999999999929 40.20499999999999829 3.69999999999999574 0.00000000000000094 0.70710678118654680 -0.70710678118654824 
1 -29.40000000000000213 35.85499999999999687 3.99999999999999867 0.00000000000000044 1.00000000000000000 -0.00000000000000089 
1 -26.20000000000001350 35.85500000000000398 -3.99999999999999378 -1.00000000000000000 0.00000000000000083 -0.00000000000000006 
1 -26.99999999999999289 39.90499999999999403 -4.00000000000000444 -1.00000000000000000 0.00000000000000072 -0.00000000000000050 
1 26.30000000000001847 40.20499999999999829 3.89999999999997682 -0.00000000000000022 -1.00000000000000000 -0.00000000000000024 
1 -26.20000000000003126 38.47300000000000608 -3.99999999999999201 -1.00000000000000000 0.00000000000000117 0.00000000000000028 
5 -25.00000000000000000 38.47299999999999898 -3.99999999999999645 -0.00000000000000006 0.00000000000000100 1.00000000000000000 -1.00000000000000000 0.00000000000000100 -0.00000000000000006 -0.00000000000000100 -1.00000000000000000 0.00000000000000100 2.00000000000001377 2.00000000000000444
1 -27.05000000000001137 38.08350476553862052 -3.99999999999999645 -0.00000000000000033 -1.00000000000000000 0.00000000000000100 
2 -27.05000000000002913 38.47300000000000608 -5.99999999999999734 -1.00000000000000000 -0.00000000000000067 -0.00000000000000172 -0.00000000000000003 -0.92498648638777381 0.38000000000000106 -0.00000000000000185 0.38000000000000106 0.92498648638777381 2.04999999999999982
2 -27.05000000000002913 36.16053378403056939 -5.04999999999999094 1.00000000000000000 0.00000000000000067 0.00000000000000172 0.00000000000000172 -0.00000000000000228 -1.00000000000000000 -0.00000000000000067 1.00000000000000000 -0.00000000000000228 0.45000000000000001
1 -27.05000000000002558 32.85499999999999687 -5.49999999999998579 -0.00000000000000067 1.00000000000000000 -0.00000000000000171 
2 -27.05000000000002558 32.85499999999999687 -5.04999999999998384 1.00000000000000000 0.00000000000000067 0.00000000000000172 0.00000000000000067 -1.00000000000000000 -0.00000000000000078 0.00000000000000172 0.00000000000000078 -1.00000000000000000 0.45000000000000001
1 -27.05000000000003268 32.40499999999999403 -2.42899156029824992 0.00000000000000172 0.00000000000000056 -1.00000000000000000 
2 -27.05000000000002913 30.20499999999998764 -2.42899156029824459 -1.00000000000000000 -0.00000000000000067 -0.00000000000000172 -0.00000000000000129 0.91869918699186814 0.39495797728426840 0.00000000000000132 0.39495797728426840 -0.91869918699186814 2.19999999999999973
2 -27.05000000000001847 35.85500000000000398 0.00000000000000966 1.00000000000000000 0.00000000000000011 0.00000000000000117 0.00000000000000011 -1.00000000000000000 0.00000000000000100 0.00000000000000117 -0.00000000000000100 -1.00000000000000000 3.99999999999999956
1 -27.00000000000002842 36.62302702722445247 -5.23999999999999222 -0.70710678118654768 -0.65406421703071205 0.26870057685089099 
2 -27.00000000000002842 38.47300000000000608 -5.99999999999999734 -1.00000000000000000 -0.00000000000000067 -0.00000000000000172 -0.00000000000000003 -0.92498648638777381 0.38000000000000106 -0.00000000000000185 0.38000000000000106 0.92498648638777381 2.00000000000000000
7 0 0  6 7 2  -27.05000000000001137 32.34483438008486189 -1.91800347256353199  -27.03446836443351486 32.31647004655041400 -1.86609349960015836  -27.02124756659618754 32.28815174983975567 -1.81207860436635659  -27.01079961347598513 32.26007922416729201 -1.75607039435189827  -27.00359747842883706 32.23251631360624003 -1.69833120737984933  -27.00000000000001421 32.20577599652585832 -1.63931585661101331  -27.00000000000001421 32.18020325203251275 -1.57983190913707627 
 0.00000000000000000 7 1.00000000000000000 7
1 -27.00000000000002842 32.35499999999998977 -2.42899156029824947 -0.70710678118654891 0.70710678118654624 -0.00000000000000150 
2 -27.00000000000002842 30.20499999999998764 -2.42899156029824459 -1.00000000000000000 -0.00000000000000067 -0.00000000000000172 -0.00000000000000129 0.91869918699186814 0.39495797728426840 0.00000000000000132 0.39495797728426840 -0.91869918699186814 2.14999999999999991
1 -27.02500000000002700 36.16053378403056939 -5.52499999999999059 -0.70710678118654935 0.00000000000000074 0.70710678118654569 
2 -27.00000000000002842 36.16053378403056939 -5.04999999999999094 1.00000000000000000 0.00000000000000067 0.00000000000000172 0.00000000000000172 -0.00000000000000228 -1.00000000000000000 -0.00000000000000067 1.00000000000000000 -0.00000000000000228 0.50000000000000000
1 -27.00000000000002487 32.85499999999999687 -5.54999999999998561 -0.70710678118654979 -0.00000000000000098 0.70710678118654546 
1 -27.00000000000002487 32.85499999999999687 -5.54999999999998650 -0.00000000000000067 1.00000000000000000 -0.00000000000000171 
1 -27.02500000000002700 32.37999999999999545 -5.04999999999998472 -0.70710678118654924 0.70710678118654591 -0.00000000000000082 
2 -27.00000000000002487 32.85499999999999687 -5.04999999999998384 1.00000000000000000 0.00000000000000067 0.00000000000000172 0.00000000000000067 -1.00000000000000000 -0.00000000000000078 0.00000000000000172 0.00000000000000078 -1.00000000000000000 0.50000000000000000
1 -27.00000000000003197 32.35499999999998977 -2.42899156029824992 0.00000000000000172 0.00000000000000056 -1.00000000000000000 
2 26.30000000000001847 38.47299999999999898 5.89999999999997993 1.00000000000000000 -0.00000000000000022 0.00000000000000039 -0.00000000000000022 -1.00000000000000000 -0.00000000000000050 0.00000000000000039 0.00000000000000050 -1.00000000000000000 2.00000000000000000
1 -26.20000000000002771 36.62302702722445247 -5.23999999999999222 -1.00000000000000000 0.00000000000000117 0.00000000000000028 
8 -0.12622193018647471 0.29804213852545203
1 -26.29999999999999361 39.99425238276930372 -3.91074761723069519 0.00000000000000020 0.70710678118654768 0.70710678118654746 
1 26.30000000000002203 40.20499999999999119 -4.10000000000002807 -0.00000000000000039 0.00000000000000039 1.00000000000000000 
2 26.30000000000001847 36.16053378403055518 4.94999999999997886 1.00000000000000000 -0.00000000000000022 0.00000000000000039 -0.00000000000000022 -1.00000000000000000 -0.00000000000000050 0.00000000000000039 0.00000000000000050 -1.00000000000000000 0.50000000000000000
8 -0.12622193018647312 0.29804213852545514
1 -26.29999999999999716 39.99425238276930372 3.91074761723068720 0.00000000000000075 0.70710678118654691 -0.70710678118654813 
1 26.30000000000001847 32.85499999999998977 5.44999999999997620 0.00000000000000022 1.00000000000000000 0.00000000000000077 
1 26.30000000000002203 38.47299999999999187 -4.10000000000002807 0.00000000000000022 1.00000000000000000 0.00000000000000024 
2 26.30000000000001847 32.85499999999998977 4.94999999999997620 1.00000000000000000 -0.00000000000000022 0.00000000000000039 -0.00000000000000022 -1.00000000000000000 -0.00000000000000050 0.00000000000000039 0.00000000000000050 -1.00000000000000000 0.50000000000000000
2 26.30000000000002203 38.47299999999999187 -6.10000000000002984 1.00000000000000000 -0.00000000000000022 0.00000000000000039 -0.00000000000000022 -1.00000000000000000 -0.00000000000000050 0.00000000000000039 0.00000000000000050 -1.00000000000000000 2.00000000000000000
1 26.30000000000001847 32.35499999999998977 2.32899156029824228 -0.00000000000000039 0.00000000000000039 1.00000000000000000 
2 26.30000000000002203 36.16053378403055518 -5.15000000000003233 1.00000000000000000 -0.00000000000000022 0.00000000000000039 -0.00000000000000022 -1.00000000000000000 -0.00000000000000050 0.00000000000000039 0.00000000000000050 -1.00000000000000000 0.50000000000000000
2 26.30000000000001847 30.20499999999998764 2.32899156029824006 1.00000000000000000 -0.00000000000000022 0.00000000000000039 -0.00000000000000022 -1.00000000000000000 -0.00000000000000050 0.00000000000000039 0.00000000000000050 -1.00000000000000000 2.14999999999999991
1 26.30000000000002203 36.16053378403055518 -5.65000000000003233 -0.00000000000000022 -1.00000000000000000 -0.00000000000000050 
2 26.30000000000002203 35.85499999999998977 -0.10000000000002759 1.00000000000000000 -0.00000000000000022 0.00000000000000039 -0.00000000000000022 -1.00000000000000000 -0.00000000000000050 0.00000000000000039 0.00000000000000050 -1.00000000000000000 3.99999999999999956
2 26.30000000000002203 32.85499999999998977 -5.15000000000003322 1.00000000000000000 -0.00000000000000022 0.00000000000000039 -0.00000000000000022 -1.00000000000000000 -0.00000000000000050 0.00000000000000039 0.00000000000000050 -1.00000000000000000 0.50000000000000000
2 26.30000000000002203 30.20499999999998408 -2.52899156029830241 1.00000000000000000 -0.00000000000000022 0.00000000000000039 -0.00000000000000022 -1.00000000000000000 -0.00000000000000050 0.00000000000000039 0.00000000000000050 -1.00000000000000000 2.14999999999999991
1 26.30000000000002203 32.35499999999998266 -5.15000000000003322 -0.00000000000000039 0.00000000000000039 1.00000000000000000 
1 -26.20000000000003482 32.18020325203251275 1.57983190913711424 -1.00000000000000000 0.00000000000000117 0.00000000000000028 
2 -27.00000000000003553 30.20499999999998408 2.42899156029830365 -1.00000000000000000 -0.00000000000000067 -0.00000000000000172 -0.00000000000000067 1.00000000000000000 -0.00000000000000183 0.00000000000000172 -0.00000000000000183 -1.00000000000000000 2.14999999999999991
1 -26.20000000000003837 32.35499999999998977 2.42899156029829966 -1.00000000000000000 0.00000000000000117 0.00000000000000028 
1 -27.05000000000002203 35.90850476553861625 4.00000000000001243 0.00000000000000033 1.00000000000000000 -0.00000000000000100 
2 -27.05000000000001847 35.85500000000000398 0.00000000000000966 1.00000000000000000 0.00000000000000011 0.00000000000000117 0.00000000000000011 -1.00000000000000000 0.00000000000000100 0.00000000000000117 -0.00000000000000100 -1.00000000000000000 3.99999999999999956
2 -27.05000000000003624 30.20499999999998408 2.42899156029830365 -1.00000000000000000 -0.00000000000000067 -0.00000000000000172 -0.00000000000000067 1.00000000000000000 -0.00000000000000183 0.00000000000000172 -0.00000000000000183 -1.00000000000000000 2.19999999999999973
1 -27.05000000000004334 32.40499999999998693 5.05000000000003446 0.00000000000000172 0.00000000000000056 -1.00000000000000000 
2 -27.05000000000004334 32.85499999999998977 5.05000000000003535 1.00000000000000000 0.00000000000000067 0.00000000000000172 -0.00000000000000172 0.00000000000000189 1.00000000000000000 0.00000000000000067 -1.00000000000000000 0.00000000000000189 0.45000000000000001
1 -27.05000000000004334 36.16053378403056229 5.50000000000003109 0.00000000000000067 -1.00000000000000000 0.00000000000000144 
2 -27.05000000000004690 36.16053378403056229 5.05000000000002913 1.00000000000000000 0.00000000000000067 0.00000000000000172 -0.00000000000000127 0.92498648638777525 0.37999999999999762 -0.00000000000000134 -0.37999999999999762 0.92498648638777525 0.45000000000000001
2 -27.05000000000004690 38.47299999999999898 6.00000000000002576 -1.00000000000000000 -0.00000000000000067 -0.00000000000000172 0.00000000000000172 0.00000000000000144 -1.00000000000000000 0.00000000000000067 -1.00000000000000000 -0.00000000000000144 2.04999999999999982
1 -27.02500000000003766 32.37999999999998835 2.42899156029830010 -0.70710678118654924 0.70710678118654591 -0.00000000000000082 
7 0 0  6 7 2  -27.00000000000004619 32.18020325203252696 1.57983190913709692  -27.00000000000004619 32.20577603016096191 1.63931593484852600  -27.00359748811191807 32.23251639377492950 1.69833138528951522  -27.01079964620607043 32.26007932690126978 1.75607060435210260  -27.02124760959514660 32.28815184977894859 1.81207879847530196  -27.03446840357517900 32.31647011803205771 1.86609363041976239  -27.05000000000002203 32.34483438008486189 1.91800347256354597 
 0.00000000000000000 7 1.00000000000000000 7
5 -25.00000000000001421 38.47299999999999898 4.00000000000001066 0.00000000000000006 -0.00000000000000100 -1.00000000000000000 -1.00000000000000000 0.00000000000000100 -0.00000000000000006 0.00000000000000100 1.00000000000000000 -0.00000000000000100 2.00000000000000933 2.00000000000000000
1 -27.00000000000004619 36.62302702722445247 5.24000000000002508 -0.70710678118654935 -0.65406421703071160 -0.26870057685088777 
2 -27.00000000000004974 38.47299999999999898 6.00000000000002576 -1.00000000000000000 -0.00000000000000067 -0.00000000000000172 0.00000000000000172 0.00000000000000144 -1.00000000000000000 0.00000000000000067 -1.00000000000000000 -0.00000000000000144 2.00000000000000000
1 -27.00000000000004263 32.35499999999998977 5.05000000000003713 -0.70710678118654891 0.70710678118654624 -0.00000000000000369 
1 -27.00000000000004263 32.35499999999998977 5.05000000000003446 0.00000000000000172 0.00000000000000056 -1.00000000000000000 
1 -27.02500000000004121 32.85499999999998977 5.52500000000003499 -0.70710678118654891 0.00000000000000102 -0.70710678118654624 
2 -27.00000000000004263 32.85499999999998977 5.05000000000003535 1.00000000000000000 0.00000000000000067 0.00000000000000172 -0.00000000000000172 0.00000000000000189 1.00000000000000000 0.00000000000000067 -1.00000000000000000 0.00000000000000189 0.50000000000000000
1 -27.00000000000004619 36.16053378403056229 5.55000000000003091 -0.70710678118654691 -0.00000000000000005 -0.70710678118654824 
1 -27.00000000000004619 36.16053378403056229 5.55000000000003091 0.00000000000000067 -1.00000000000000000 0.00000000000000144 
2 -27.00000000000004619 36.16053378403056229 5.05000000000002913 1.00000000000000000 0.00000000000000067 0.00000000000000172 -0.00000000000000127 0.92498648638777525 0.37999999999999762 -0.00000000000000134 -0.37999999999999762 0.92498648638777525 0.50000000000000000
1 -26.20000000000002771 32.35499999999998977 -2.42899156029824992 -1.00000000000000000 0.00000000000000117 0.00000000000000028 
1 -26.20000000000003126 32.18020325203251275 -1.57983190913706317 -1.00000000000000000 0.00000000000000117 0.00000000000000028 
1 -26.20000000000002416 36.16053378403056229 -5.54999999999999272 -1.00000000000000000 0.00000000000000117 0.00000000000000028 
1 -26.20000000000002416 32.85499999999999687 -5.54999999999998650 -1.00000000000000000 0.00000000000000117 0.00000000000000028 
1 -26.20000000000002416 32.35499999999999687 -5.04999999999998472 -1.00000000000000000 0.00000000000000117 0.00000000000000028 
1 -26.20000000000004547 36.62302702722444536 5.24000000000002863 -1.00000000000000000 0.00000000000000117 0.00000000000000028 
1 -26.20000000000004192 38.47299999999999898 4.00000000000002220 -1.00000000000000000 0.00000000000000117 0.00000000000000028 
1 -26.20000000000004547 36.16053378403056229 5.55000000000003002 -1.00000000000000000 0.00000000000000117 0.00000000000000028 
1 -26.20000000000004192 32.85499999999998977 5.55000000000003535 -1.00000000000000000 0.00000000000000117 0.00000000000000028 
1 -26.20000000000004192 32.35499999999998977 5.05000000000003446 -1.00000000000000000 0.00000000000000117 0.00000000000000028 
1 -26.99999999999999289 40.20499999999999119 -3.70000000000000506 -1.00000000000000000 0.00000000000000072 -0.00000000000000050 
1 -26.20000000000002061 35.85499999999999687 4.00000000000001332 -1.00000000000000000 0.00000000000000083 -0.00000000000000006 
1 -27.00000000000000000 39.90499999999999403 3.99999999999999645 1.00000000000000000 -0.00000000000000094 0.00000000000000061 
1 -28.69999999999999929 40.20499999999999829 3.69999999999999662 1.00000000000000000 -0.00000000000000072 0.00000000000000050 
Polygon3D 0
PolygonOnTriangulations 0
Surfaces 40
1 -29.54999999999999716 39.20499999999999119 -3.85000000000000631 -0.70710678118654702 0.00000000000000011 -0.70710678118654813 -0.00000000000000074 -1.00000000000000000 0.00000000000000059 -0.70710678118654813 0.00000000000000094 0.70710678118654702 
3 -28.69999999999999574 39.20499999999999119 -3.70000000000000551 -0.00000000000000050 0.00000000000000089 1.00000000000000000 0.00000000000000400 1.00000000000000000 -0.00000000000000089 -1.00000000000000000 0.00000000000000400 -0.00000000000000050 1.00000000000000000
0.78539816339744828
3 -29.39999999999999858 35.85499999999999687 -0.00000000000000254 -1.00000000000000000 0.00000000000000044 -0.00000000000000094 0.00000000000000094 -0.00000000000000001 -1.00000000000000000 -0.00000000000000044 -1.00000000000000000 0.00000000000000001 3.99999999999999956
-0.78539816339744883
2 -28.69999999999999929 39.20499999999999829 3.99999999999999689 0.00000000000000094 -0.00000000000000044 -1.00000000000000000 0.00000000000000072 1.00000000000000000 -0.00000000000000044 -1.00000000000000000 0.00000000000000072 -0.00000000000000094 1.00000000000000000
2 -26.19999999999999929 35.85499999999998977 0.00000000000000008 1.00000000000000000 -0.00000000000000067 0.00000000000000072 -0.00000000000000067 -1.00000000000000000 0.00000000000000089 -0.00000000000000072 0.00000000000000089 1.00000000000000000 3.99999999999999956
1 -29.55000000000000426 35.85499999999999687 3.84999999999999876 -0.70710678118654813 0.00000000000000108 0.70710678118654691 0.00000000000000054 1.00000000000000000 -0.00000000000000099 -0.70710678118654691 -0.00000000000000032 -0.70710678118654813 
1 3.50000000000002176 -29.70000000000004192 36.76126087382920815 -0.00000000000000039 1.00000000000000000 -0.00000000000000122 -0.00000000000000100 0.00000000000000122 1.00000000000000000 1.00000000000000000 0.00000000000000039 0.00000000000000100 
3 -28.69999999999999929 39.20499999999999829 3.69999999999999662 0.00000000000000050 -0.00000000000000089 -1.00000000000000000 -1.00000000000000000 0.00000000000000000 -0.00000000000000050 0.00000000000000000 1.00000000000000000 -0.00000000000000089 1.00000000000000000
0.78539816339744828
1 -27.95469879513822420 37.97027085301758831 -4.00000000000000266 0.00000000000000059 -0.00000000000000092 -1.00000000000000000 -0.00000000000000000 -1.00000000000000000 0.00000000000000092 -1.00000000000000000 -0.00000000000000000 -0.00000000000000059 
2 -26.20000000000002771 38.47300000000000608 -5.99999999999999645 1.00000000000000000 -0.00000000000000111 -0.00000000000000006 -0.00000000000000111 -1.00000000000000000 0.00000000000000144 0.00000000000000006 0.00000000000000144 1.00000000000000000 2.00000000000000000
3 -27.00000000000002842 38.47300000000000608 -5.99999999999999734 -1.00000000000000000 0.00000000000000111 0.00000000000000006 -0.00000000000000100 -0.92498648638777381 0.38000000000000106 0.00000000000000048 0.38000000000000106 0.92498648638777381 2.00000000000000000
0.78539816339744606
1 0.85000000000002784 -27.05000000000005400 35.96200953107724274 -0.00000000000000072 1.00000000000000000 -0.00000000000000155 -0.00000000000000144 0.00000000000000155 1.00000000000000000 1.00000000000000000 0.00000000000000072 0.00000000000000144 
3 -27.00000000000002842 36.16053378403056939 -5.04999999999999094 -1.00000000000000000 0.00000000000000111 0.00000000000000006 -0.00000000000000006 -0.00000000000000228 -1.00000000000000000 0.00000000000000111 1.00000000000000000 -0.00000000000000228 0.50000000000000000
-0.78539816339744839
3 -27.00000000000002487 32.85499999999999687 -5.04999999999998384 -1.00000000000000000 0.00000000000000111 0.00000000000000006 -0.00000000000000111 -1.00000000000000000 -0.00000000000000078 -0.00000000000000006 0.00000000000000078 -1.00000000000000000 0.50000000000000000
-0.78539816339744606
3 -27.00000000000002842 30.20499999999998764 -2.42899156029824459 -1.00000000000000000 0.00000000000000111 0.00000000000000006 0.00000000000000104 0.91869918699186814 0.39495797728426840 0.00000000000000038 0.39495797728426840 -0.91869918699186814 2.14999999999999991
0.78539816339744606
1 -27.02500000000003055 32.37999999999999545 -2.42899156029824992 0.70710678118654580 0.70710678118654935 -0.00000000000000106 -0.00000000000000016 -0.00000000000000133 -1.00000000000000000 -0.70710678118654935 0.70710678118654580 -0.00000000000000083 
2 -26.20000000000002771 30.20499999999998764 -2.42899156029824592 1.00000000000000000 -0.00000000000000111 -0.00000000000000006 -0.00000000000000111 -1.00000000000000000 0.00000000000000144 0.00000000000000006 0.00000000000000144 1.00000000000000000 2.14999999999999991
1 -27.02500000000002700 32.85499999999999687 -5.52499999999998614 0.70710678118654580 -0.00000000000000099 0.70710678118654935 0.00000000000000123 1.00000000000000000 0.00000000000000018 -0.70710678118654935 0.00000000000000074 0.70710678118654580 
2 -26.20000000000002771 36.16053378403056939 -5.04999999999999094 1.00000000000000000 -0.00000000000000111 -0.00000000000000006 -0.00000000000000111 -1.00000000000000000 0.00000000000000144 0.00000000000000006 0.00000000000000144 1.00000000000000000 0.50000000000000000
2 -26.20000000000002416 32.85499999999999687 -5.04999999999998561 1.00000000000000000 -0.00000000000000111 -0.00000000000000006 -0.00000000000000111 -1.00000000000000000 0.00000000000000144 0.00000000000000006 0.00000000000000144 1.00000000000000000 0.50000000000000000
1 0.10000000000000578 -26.30000000000001492 35.96200953107723564 -0.00000000000000006 1.00000000000000000 -0.00000000000000089 -0.00000000000000056 0.00000000000000089 1.00000000000000000 1.00000000000000000 0.00000000000000006 0.00000000000000056 
2 -26.20000000000004547 38.47299999999999898 6.00000000000002665 1.00000000000000000 -0.00000000000000111 -0.00000000000000006 -0.00000000000000111 -1.00000000000000000 0.00000000000000144 0.00000000000000006 0.00000000000000144 1.00000000000000000 2.00000000000000000
2 -26.20000000000004192 36.16053378403056229 5.05000000000002913 1.00000000000000000 -0.00000000000000111 -0.00000000000000006 -0.00000000000000111 -1.00000000000000000 0.00000000000000144 0.00000000000000006 0.00000000000000144 1.00000000000000000 0.50000000000000000
2 -26.20000000000004192 32.85499999999998977 5.05000000000003446 1.00000000000000000 -0.00000000000000111 -0.00000000000000006 -0.00000000000000111 -1.00000000000000000 0.00000000000000144 0.00000000000000006 0.00000000000000144 1.00000000000000000 0.50000000000000000
2 -26.20000000000003482 30.20499999999998408 2.42899156029830277 1.00000000000000000 -0.00000000000000111 -0.00000000000000006 -0.00000000000000111 -1.00000000000000000 0.00000000000000144 0.00000000000000006 0.00000000000000144 1.00000000000000000 2.14999999999999991
3 -27.00000000000003553 30.20499999999998408 2.42899156029830365 -1.00000000000000000 0.00000000000000111 0.00000000000000006 0.00000000000000111 1.00000000000000000 -0.00000000000000183 -0.00000000000000006 -0.00000000000000183 -1.00000000000000000 2.14999999999999991
0.78539816339744606
1 -26.20000000000004192 32.35499999999998977 5.05000000000003446 0.00000000000000061 -1.00000000000000000 0.00000000000000122 0.00000000000000172 -0.00000000000000122 -1.00000000000000000 1.00000000000000000 0.00000000000000061 0.00000000000000172 
1 0.85000000000002784 -27.05000000000005400 35.96200953107724274 -0.00000000000000072 1.00000000000000000 -0.00000000000000155 -0.00000000000000144 0.00000000000000155 1.00000000000000000 1.00000000000000000 0.00000000000000072 0.00000000000000144 
3 -27.00000000000004263 32.85499999999998977 5.05000000000003535 -1.00000000000000000 0.00000000000000111 0.00000000000000006 0.00000000000000006 0.00000000000000189 1.00000000000000000 -0.00000000000000111 -1.00000000000000000 0.00000000000000189 0.50000000000000000
-0.78539816339744606
3 -27.00000000000004619 36.16053378403056229 5.05000000000002913 -1.00000000000000000 0.00000000000000111 0.00000000000000006 0.00000000000000105 0.92498648638777525 0.37999999999999762 -0.00000000000000037 -0.37999999999999762 0.92498648638777525 0.50000000000000000
-0.78539816339744839
3 -27.00000000000004974 38.47299999999999898 6.00000000000002576 -1.00000000000000000 0.00000000000000111 0.00000000000000006 -0.00000000000000006 0.00000000000000144 -1.00000000000000000 -0.00000000000000111 -1.00000000000000000 -0.00000000000000144 2.00000000000000000
0.78539816339744606
1 -27.02500000000004121 32.37999999999998835 5.05000000000003446 0.70710678118654580 0.70710678118654935 -0.00000000000000106 -0.00000000000000016 -0.00000000000000133 -1.00000000000000000 -0.70710678118654935 0.70710678118654580 -0.00000000000000083 
1 -27.02500000000004476 36.16053378403056229 5.52500000000003055 0.70710678118654624 -0.00000000000000071 -0.70710678118654879 0.00000000000000055 -1.00000000000000000 0.00000000000000156 -0.70710678118654879 -0.00000000000000149 -0.70710678118654624 
1 -26.20000000000002771 32.35499999999998977 -2.42899156029824992 0.00000000000000061 -1.00000000000000000 0.00000000000000122 0.00000000000000172 -0.00000000000000122 -1.00000000000000000 1.00000000000000000 0.00000000000000061 0.00000000000000172 
1 -26.20000000000002416 32.85499999999999687 -5.54999999999998650 0.00000000000000150 0.00000000000000006 -1.00000000000000000 -0.00000000000000067 1.00000000000000000 0.00000000000000006 1.00000000000000000 0.00000000000000067 0.00000000000000150 
1 -26.20000000000004547 36.16053378403056229 5.55000000000003002 -0.00000000000000150 -0.00000000000000033 1.00000000000000000 0.00000000000000067 -1.00000000000000000 -0.00000000000000033 1.00000000000000000 0.00000000000000067 0.00000000000000150 
1 -27.49999999999999289 40.05499999999999261 -3.85000000000000497 0.00000000000000096 0.70710678118654757 -0.70710678118654746 -0.00000000000000008 0.70710678118654746 0.70710678118654757 1.00000000000000000 -0.00000000000000062 0.00000000000000074 
1 -27.95469879513822775 37.97027085301759541 3.99999999999999734 -0.00000000000000051 0.00000000000000073 1.00000000000000000 0.00000000000000000 1.00000000000000000 -0.00000000000000073 -1.00000000000000000 -0.00000000000000000 -0.00000000000000051 
1 -27.49999999999999645 40.20499999999999829 -0.00000000000000490 0.00000000000000189 1.00000000000000000 -0.00000000000000050 1.00000000000000000 -0.00000000000000189 0.00000000000000011 0.00000000000000011 -0.00000000000000050 -1.00000000000000000 
1 -27.50000000000000000 40.05499999999999972 3.84999999999999698 0.00000000000000060 0.70710678118654802 0.70710678118654702 -0.00000000000000008 -0.70710678118654702 0.70710678118654802 1.00000000000000000 -0.00000000000000048 -0.00000000000000037 
Triangulations 0

TShapes 240
Ve
0.000000150000000
-55.599999999999994 75.144999999999982 -4.000000000000005
0 0

0101101
*
Ve
0.000000100000000
-55.899999999999991 75.144999999999996 -3.700000000000006
0 0

0101101
*
Ed
 0.000000100000000 1 1 0
1  1 0 -0.424264068711929 0.000000000000000
2  1 2 0 -0.424264068711929 0.000000000000000
4 G1 1 0 2 0
0

0101000
+240 3 -239 3 *
Ve
0.000000150000000
-55.599999999999994 71.794999999999987 -4.000000000000004
0 0

0101101
*
Ed
 0.000000150000000 1 1 0
1  2 0 0.000000000000000 3.350000000000000
0

0101000
+240 3 -237 3 *
Ve
0.000000100000000
-55.899999999999999 71.794999999999987 -3.700000000000004
0 0

0101101
*
Ed
 0.000000100000000 1 1 0
1  3 0 0.000000000000000 3.350000000000000
0

0101000
+239 3 -235 3 *
Ed
 0.000000100000000 1 1 0
1  4 0 -0.212132034355964 0.212132034355964
2  2 3 0 -0.212132034355964 0.212132034355964
4 G1 1 0 3 0
0

0101000
+237 3 -235 3 *
Wi

0101100
-238 0 +236 0 -234 0 +233 0 *
Fa
0  0.000000100000000 1 0

0111000
+232 0 *
Ve
0.000000150000000
-54.899999999999991 75.844999999999999 -4.000000000000005
0 0

0101101
*
Ve
0.000000150000000
-54.899999999999991 76.144999999999982 -3.700000000000006
0 0

0101101
*
Ed
 0.000000150000000 1 1 0
1  5 0 -0.212132034355964 0.212132034355964
2  3 2 0 -0.212132034355964 0.212132034355964
0

0101000
+230 3 -229 3 *
Ed
 0.000000150000000 1 1 0
1  6 0 0.000000000000000 1.570796326794897
2  4 2 0 0.000000000000000 1.570796326794897
0

0101000
+230 3 -240 3 *
Ed
 0.000000100000000 1 1 0
1  7 0 0.000000000000000 1.570796326794897
2  5 2 0 0.000000000000000 1.570796326794897
2  6 4 4 0.000000000000000 1.570796326794897
0

0101000
+229 3 -239 3 *
Wi

0101100
-228 0 +227 0 -226 0 +238 0 *
Fa
0  0.000000100000000 2 0

0111000
+225 0 *
Ve
0.000000150000000
-55.600000000000009 71.794999999999987 3.999999999999997
0 0

0101101
*
Ed
 0.000000100000000 1 1 0
1  8 0 0.000000000000000 3.141592653589793
2  7 3 0 0.000000000000000 3.141592653589793
2  8 5 0 0.000000000000000 3.141592653589793
0

0101000
+237 3 -223 3 *
Ve
0.000000100000000
-55.900000000000006 71.794999999999987 3.699999999999996
0 0

0101101
*
Ed
 0.000000100000000 1 1 0
1  9 0 0.000000000000000 3.141592653589793
2  9 3 0 0.000000000000000 3.141592653589793
0

0101000
+235 3 -221 3 *
Ed
 0.000000100000000 1 1 0
1  10 0 0.000000000000000 0.424264068711929
2  10 3 0 0.000000000000000 0.424264068711929
4 G1 3 0 6 0
0

0101000
+223 3 -221 3 *
Wi

0101100
-233 0 +222 0 -220 0 +219 0 *
Fa
0  0.000000100000000 3 0

0111000
+218 0 *
Ve
0.000000100000000
-55.899999999999999 75.144999999999996 3.699999999999996
0 0

0101101
*
Ed
 0.000000100000000 1 1 0
1  11 0 0.300000000000000 7.700000000000003
2  11 4 0 0.300000000000000 7.700000000000003
4 G1 7 12 4 0
0

0101000
+216 13 -239 13 *
Ed
 0.000000100000000 1 1 0
1  12 0 -0.000000000000001 3.350000000000003
0

0101000
+221 3 -216 3 *
Wi

0101100
-215 4 -214 0 -234 0 -220 0 *
Fa
0  0.000000100000000 7 0

0111000
+213 11 *
Ve
0.000000150000000
-54.899999999999999 76.144999999999996 3.699999999999996
0 0

0101101
*
Ed
 0.000000150000000 1 1 0
1  13 0 0.300000000000000 7.700000000000003
2  12 4 0 0.300000000000000 7.700000000000003
0

0101000
+211 13 -229 13 *
Ed
 0.000000100000000 1 1 0
1  14 0 0.000000000000001 1.570796326794897
2  13 4 4 0.000000000000001 1.570796326794897
2  14 8 0 0.000000000000001 1.570796326794897
0

0101000
+216 3 -211 3 *
Wi

0101100
-210 4 -209 0 -226 0 +215 4 *
Fa
0  0.000000100000000 4 0

0111000
+208 14 *
Ve
0.000000150000000
-55.600000000000001 75.144999999999996 3.999999999999996
0 0

0101101
*
Ed
 0.000000100000000 1 1 0
1  15 0 -0.212132034355964 0.212132034355964
2  15 8 0 -0.212132034355964 0.212132034355964
4 G1 8 0 6 0
0

0101000
+206 3 -216 3 *
Ve
0.000000150000000
-54.899999999999999 75.844999999999999 3.999999999999996
0 0

0101101
*
Ed
 0.000000150000000 1 1 0
1  16 0 0.000000000000001 1.570796326794897
2  16 8 0 0.000000000000001 1.570796326794897
0

0101000
+206 3 -204 3 *
Ed
 0.000000150000000 1 1 0
1  17 0 -0.424264068711929 0.000000000000000
2  17 8 0 -0.424264068711929 0.000000000000000
0

0101000
+204 3 -211 3 *
Wi

0101100
-205 0 +203 0 -209 0 +202 0 *
Fa
0  0.000000100000000 8 0

0111000
+201 0 *
Ed
 0.000000150000000 1 1 0
1  18 0 -0.000000000000001 3.350000000000003
0

0101000
+223 3 -206 3 *
Wi

0101100
-219 0 +199 0 -214 0 +205 0 *
Fa
0  0.000000100000000 6 0

0111000
+198 0 *
Ve
0.000000150000002
-53.249999999999993 71.794999999999987 -4.000000000000001
0 0

0101101
*
Ed
 0.000000150000000 1 1 0
1  19 0 0.849999999999999 3.200000000000001
2  18 5 16 0.849999999999999 3.200000000000001
0

0101000
-237 17 +196 17 *
Ve
0.000000150000000
-52.499999999999993 75.844999999999985 -4.000000000000006
0 0

0101101
*
Ed
 0.000000100000000 1 1 0
1  20 0 -0.699999999999998 1.699999999999998
0

0101000
+194 3 -230 3 *
Ve
0.000000150000000
-52.500000000000000 74.412999999999982 -4.000000000000003
0 0

0101101
*
Ed
 0.000000150000000 1 1 0
1  21 0 0.300000000000002 1.732000000000000
0

0101000
+194 22 -192 22 *
Ve
0.000000150000000
-53.199999999999989 74.412999999999982 -4.000000000000007
0 0

0101101
*
Ed
 0.000000150000000 1 1 0
1  22 0 0.100000000000003 0.800000000000000
2  19 10 0 0.100000000000003 0.800000000000000
0

0101000
+192 26 -190 26 *
Ve
0.000000150000001
-53.249999999999993 73.963000000000022 -4.000000000000003
0 0

0101101
*
Ed
 0.000000150000000 1 1 0
1  23 0 -0.000000000000000 0.223143551314199
2  20 11 27 -0.000000000000000 0.223143551314199
0

0101000
+190 17 -188 17 *
Ed
 0.000000150000000 1 1 0
1  24 0 0.060504765538596 2.228504765538619
0

0101000
+188 17 -196 17 *
Wi

0101000
+195 15 -236 0 -227 0 -193 0 +191 21 +189 25 +187 15 +186 15 *
Fa
0  0.000000150000000 9 0

0111000
+185 0 *
Ve
0.000000100000000
-53.249999999999993 72.516777702905046 -5.221000000000006
0 0

0101101
*
Ed
 0.000000100000000 1 1 0
1  25 0 -0.000000000000000 0.959685587972856
2  21 11 0 -0.000000000000000 0.959685587972856
0

0101000
+183 31 -188 31 *
Ve
0.000000100000000
-53.249999999999993 72.100533784030546 -5.500000000000004
0 0

0101101
*
Ed
 0.000000100000000 1 1 0
1  26 0 -0.000000000000001 1.181000030320636
2  22 13 0 -0.000000000000001 1.181000030320636
0

0101000
+181 31 -183 31 *
Ve
0.000000100000000
-53.249999999999993 68.794999999999987 -5.499999999999998
0 0

0101101
*
Ed
 0.000000100000000 1 1 0
1  27 0 0.000000000000000 3.305533784030565
0

0101000
+179 31 -181 31 *
Ve
0.000000100000000
-53.250000000000000 68.344999999999985 -5.049999999999999
0 0

0101101
*
Ed
 0.000000100000000 1 1 0
1  28 0 -0.000000000000001 1.570796326794897
2  23 14 0 -0.000000000000001 1.570796326794897
0

0101000
+177 31 -179 31 *
Ve
0.000000100000000
-53.250000000000000 68.344999999999985 -2.428991560298267
0 0

0101101
*
Ed
 0.000000100000000 1 1 0
1  29 0 -0.000000000000000 2.621008439701730
0

0101000
+175 31 -177 31 *
Ve
0.000000100000003
-53.250000000000000 68.284834380084860 -1.918003472563539
0 0

0101101
*
Ed
 0.000000100000000 1 1 0
1  30 0 0.171614010006117 0.406022109067506
2  24 15 0 0.171614010006117 0.406022109067506
0

0101000
+173 31 -175 31 *
Ed
 0.000000100000000 1 1 0
1  31 0 6.783271146741986 7.853981633974483
2  25 5 16 6.783271146741986 7.853981633974483
0

0101000
+173 17 -196 17 *
Wi

0101100
+182 27 +180 27 +178 27 +176 27 +174 27 +172 27 -171 0 +186 0 *
Fa
0  0.000000100000000 12 30

0111000
+170 0 *
Ve
0.000000100000000
-53.199999999999989 72.563027027224436 -5.240000000000006
0 0

0101101
*
Ed
 0.000000100000000 1 1 0
1  32 0 0.000000000000000 0.070710678118655
2  26 11 0 0.000000000000000 0.070710678118655
2  27 13 0 0.000000000000000 0.070710678118655
4 G1 11 0 13 0
0

0101000
+168 31 -183 31 *
Ed
 0.000000100000000 1 1 0
1  33 0 -0.000000000000000 1.181000030320636
2  28 11 0 -0.000000000000000 1.181000030320636
2  29 10 23 -0.000000000000000 1.181000030320636
0

0101000
+168 31 -190 31 *
Wi

0101100
-167 27 -182 27 +187 0 +166 27 *
Fa
0  0.000000100000000 11 27

0111000
+165 0 *
Ve
0.000000100000023
-53.200000000000003 68.120203252032525 -1.579831909137074
0 0

0101101
*
Ed
 0.000000100000000 1 1 0
1  34 0 0.000000000000000 1.000000000000000
2  30 15 27 0.000000000000000 1.000000000000000
2  31 5 16 0.000000000000000 1.000000000000000
0

0101000
+173 17 -163 17 *
Ve
0.000000100000000
-53.199999999999996 68.294999999999987 -2.428991560298267
0 0

0101101
*
Ed
 0.000000100000000 1 1 0
1  35 0 0.000000000000000 0.070710678118655
2  32 15 0 0.000000000000000 0.070710678118655
4 G1 15 0 16 0
0

0101000
+161 31 -175 31 *
Ed
 0.000000100000000 1 1 0
1  36 0 0.000000000000000 0.406022109067506
2  33 15 0 0.000000000000000 0.406022109067506
2  34 17 23 0.000000000000000 0.406022109067506
0

0101000
+163 31 -161 31 *
Wi

0101100
+162 0 -172 27 +160 27 +159 27 *
Fa
0  0.000000100000000 15 27

0111000
+158 0 *
Ve
0.000000100000000
-53.199999999999989 72.100533784030546 -5.550000000000003
0 0

0101101
*
Ed
 0.000000100000000 1 1 0
1  37 0 -0.035355339059328 0.035355339059327
2  35 13 0 -0.035355339059328 0.035355339059327
4 G1 13 0 18 0
0

0101000
+156 31 -181 31 *
Ed
 0.000000100000000 1 1 0
1  38 0 -0.000000000000001 1.181000030320636
2  36 13 0 -0.000000000000001 1.181000030320636
2  37 19 23 -0.000000000000001 1.181000030320636
0

0101000
+156 31 -168 31 *
Wi

0101100
-155 0 +154 0 -180 0 +167 0 *
Fa
0  0.000000100000000 13 0

0111000
+153 0 *
Ve
0.000000100000000
-53.199999999999989 68.794999999999987 -5.549999999999998
0 0

0101101
*
Ed
 0.000000100000000 1 1 0
1  39 0 0.000000000000000 0.070710678118655
2  38 14 0 0.000000000000000 0.070710678118655
4 G1 18 0 14 0
0

0101000
+151 31 -179 31 *
Ed
 0.000000100000000 1 1 0
1  40 0 0.000000000000000 3.305533784030565
0

0101000
+151 31 -156 31 *
Wi

0101100
-150 0 +149 0 -178 0 +155 0 *
Fa
0  0.000000100000000 18 0

0111000
+148 0 *
Ve
0.000000100000000
-53.199999999999996 68.294999999999987 -5.049999999999999
0 0

0101101
*
Ed
 0.000000100000000 1 1 0
1  41 0 -0.035355339059328 0.035355339059327
2  39 14 0 -0.035355339059328 0.035355339059327
4 G1 14 0 16 0
0

0101000
+146 31 -177 31 *
Ed
 0.000000100000000 1 1 0
1  42 0 -0.000000000000001 1.570796326794897
2  40 14 0 -0.000000000000001 1.570796326794897
2  41 20 23 -0.000000000000001 1.570796326794897
0

0101000
+146 31 -151 31 *
Wi

0101100
-145 0 +144 0 -176 0 +150 0 *
Fa
0  0.000000100000000 14 0

0111000
+143 0 *
Ed
 0.000000100000000 1 1 0
1  43 0 -0.000000000000000 2.621008439701730
0

0101000
+161 31 -146 31 *
Wi

0101100
-160 0 +141 0 -174 0 +145 0 *
Fa
0  0.000000100000000 16 0

0111000
+140 0 *
Ve
0.000000100000008
-52.500000000000000 72.563027027224436 -5.240000000000002
0 0

0101101
*
Ed
 0.000000100000005 1 1 0
1  44 0 0.389796296474260 1.570796326794896
2  42 10 36 0.389796296474260 1.570796326794896
0

0101000
+138 22 -192 22 *
Ed
 0.000000100000000 1 1 0
1  45 0 0.100000000000004 0.800000000000000
2  43 10 0 0.100000000000004 0.800000000000000
2  44 19 0 0.100000000000004 0.800000000000000
4 G1 10 0 19 0
0

0101000
+138 26 -168 26 *
Wi

0101100
-137 35 -189 34 +166 37 +136 34 *
Fa
0  0.000000100000000 10 34

0111000
+135 0 *
Ve
0.000000150000000
-52.500000000000000 76.144999999999982 -3.700000000000007
0 0

0101101
*
Ed
 0.000000150000000 1 1 0
1  46 0 -0.126221930186475 0.298042138525452
0

0101000
+194 3 -133 3 *
Ve
0.000000150000000
-52.500000000000000 76.144999999999996 3.699999999999997
0 0

0101101
*
Ed
 0.000000150000000 1 1 0
1  47 0 0.300000000000002 7.700000000000005
0

0101000
+131 22 -133 22 *
Ve
0.000000100000007
-52.500000000000000 72.100533784030546 -5.550000000000002
0 0

0101101
*
Ed
 0.000000100000004 1 1 0
1  48 0 3.531388950064054 4.712388980384691
2  45 19 36 3.531388950064054 4.712388980384691
0

0101000
+138 22 -129 22 *
Ve
0.000000150000000
-52.500000000000000 75.844999999999999 3.999999999999997
0 0

0101101
*
Ed
 0.000000150000000 1 1 0
1  49 0 -0.126221930186473 0.298042138525455
0

0101000
+127 3 -131 3 *
Ve
0.000000100000007
-52.500000000000000 68.794999999999987 -5.549999999999999
0 0

0101101
*
Ed
 0.000000100000004 1 1 0
1  50 0 0.000000000000000 3.305533784030564
0

0101000
+125 22 -129 22 *
Ve
0.000000150000000
-52.500000000000000 74.412999999999982 3.999999999999999
0 0

0101101
*
Ed
 0.000000150000000 1 1 0
1  51 0 0.000000000000000 1.432000000000003
0

0101000
-127 22 +123 22 *
Ve
0.000000100000007
-52.500000000000000 68.294999999999987 -5.049999999999999
0 0

0101101
*
Ed
 0.000000100000004 1 1 0
1  52 0 4.712388980384690 6.283185307179587
2  46 20 36 4.712388980384690 6.283185307179587
0

0101000
+125 22 -121 22 *
Ve
0.000000100000006
-52.500000000000000 72.563027027224450 5.240000000000000
0 0

0101101
*
Ed
 0.000000100000004 1 1 0
1  53 0 4.712388980384690 5.893389010705326
2  47 22 36 4.712388980384690 5.893389010705326
0

0101000
+123 22 -119 22 *
Ve
0.000000100000006
-52.500000000000000 68.294999999999987 -2.428991560298269
0 0

0101101
*
Ed
 0.000000100000004 1 1 0
1  54 0 0.000000000000000 2.621008439701730
0

0101000
+117 22 -121 22 *
Ve
0.000000100000007
-52.500000000000000 72.100533784030546 5.550000000000001
0 0

0101101
*
Ed
 0.000000100000004 1 1 0
1  55 0 1.570796326794897 2.751796357115533
2  48 23 36 1.570796326794897 2.751796357115533
0

0101000
+115 22 -119 22 *
Ve
0.000016888842293
-52.500000000000000 68.120203252032510 -1.579831909137083
0 0

0101101
*
Ed
 0.000000100000004 1 1 0
1  56 0 2.735570544522287 3.141592653589794
2  49 17 36 2.735570544522287 3.141592653589794
0

0101000
+113 22 -117 22 *
Ve
0.000000100000008
-52.500000000000000 68.794999999999987 5.550000000000002
0 0

0101101
*
Ed
 0.000000100000004 1 1 0
1  57 0 0.000000000000000 3.305533784030565
0

0101000
+115 22 -111 22 *
Ve
0.000016889056884
-52.500000000000000 68.120203252032510 1.579831909137088
0 0

0101101
*
Ed
 0.000000100000004 1 1 0
1  58 0 5.877163198112080 6.689207416247093
2  50 5 40 5.877163198112080 6.689207416247093
0

0101000
+113 22 -109 22 *
Ve
0.000000100000009
-52.500000000000000 68.294999999999987 5.050000000000002
0 0

0101101
*
Ed
 0.000000100000005 1 1 0
1  59 0 0.000000000000001 1.570796326794897
2  51 24 36 0.000000000000001 1.570796326794897
0

0101000
+107 22 -111 22 *
Ve
0.000000100000007
-52.500000000000000 68.294999999999987 2.428991560298273
0 0

0101101
*
Ed
 0.000000100000004 1 1 0
1  60 0 3.141592653589793 3.547614762657299
2  52 25 36 3.141592653589793 3.547614762657299
0

0101000
+105 22 -109 22 *
Ed
 0.000000100000004 1 1 0
1  61 0 0.000000000000000 2.621008439701729
0

0101000
+107 22 -105 22 *
Wi

0101100
-191 21 +132 0 +137 21 -130 21 -128 21 -126 0 +124 21 -122 21 -120 21 +118 21 
+116 21 -114 21 +112 21 +110 21 -108 21 -106 21 +104 21 +103 21 *
Fa
0  0.000000100000000 21 0

0111000
+102 39 *
Ve
0.000000100000036
-53.200000000000003 68.120203252032496 1.579831909137095
0 0

0101101
*
Ed
 0.000000100000014 1 1 0
1  62 0 0.099999999999999 0.800000000000000
2  53 25 0 0.099999999999999 0.800000000000000
2  54 5 41 0.099999999999999 0.800000000000000
0

0101000
+109 26 -100 26 *
Ve
0.000000100000000
-53.200000000000003 68.294999999999987 2.428991560298276
0 0

0101101
*
Ed
 0.000000100000000 1 1 0
1  63 0 0.000000000000000 0.406022109067506
2  55 25 23 0.000000000000000 0.406022109067506
2  56 26 0 0.000000000000000 0.406022109067506
0

0101000
+98 31 -100 31 *
Ed
 0.000000100000000 1 1 0
1  64 0 0.099999999999998 0.800000000000000
2  57 25 0 0.099999999999998 0.800000000000000
4 G1 25 0 27 0
0

0101000
+105 26 -98 26 *
Wi

0101100
-104 35 -99 34 +97 37 +96 34 *
Fa
0  0.000000100000000 25 34

0111000
+95 0 *
Ve
0.000000150000002
-53.250000000000000 71.794999999999987 4.000000000000000
0 0

0101101
*
Ve
0.000000150000003
-53.250000000000000 73.962999999999994 3.999999999999999
0 0

0101101
*
Ed
 0.000000150000000 1 1 0
1  65 0 -0.053504765538621 2.114495234461379
0

0101000
+93 17 -92 17 *
Ve
0.000000100000003
-53.250000000000000 68.284834380084845 1.918003472563532
0 0

0101101
*
Ed
 0.000000100000000 1 1 0
1  66 0 4.712388980384690 5.783099467617190
2  58 5 16 4.712388980384690 5.783099467617190
0

0101000
+93 17 -90 17 *
Ve
0.000000100000000
-53.250000000000000 68.344999999999985 2.428991560298276
0 0

0101101
*
Ed
 0.000000100000000 1 1 0
1  67 0 0.000000000000000 0.234408099061397
2  59 26 0 0.000000000000000 0.234408099061397
0

0101000
+88 31 -90 31 *
Ve
0.000000100000000
-53.250000000000007 68.344999999999999 5.050000000000010
0 0

0101101
*
Ed
 0.000000100000000 1 1 0
1  68 0 -0.000000000000000 2.621008439701730
0

0101000
+86 31 -88 31 *
Ve
0.000000100000000
-53.250000000000007 68.794999999999987 5.500000000000008
0 0

0101101
*
Ed
 0.000000100000000 1 1 0
1  69 0 -0.000000000000001 1.570796326794895
2  60 29 0 -0.000000000000001 1.570796326794895
0

0101000
+84 31 -86 31 *
Ve
0.000000100000000
-53.250000000000007 72.100533784030560 5.500000000000004
0 0

0101101
*
Ed
 0.000000100000000 1 1 0
1  70 0 -0.000000000000000 3.305533784030565
0

0101000
+82 31 -84 31 *
Ve
0.000000100000000
-53.250000000000007 72.516777702905046 5.220999999999998
0 0

0101101
*
Ed
 0.000000100000000 1 1 0
1  71 0 -0.000000000000000 1.181000030320636
2  61 30 0 -0.000000000000000 1.181000030320636
0

0101000
+80 31 -82 31 *
Ed
 0.000000100000000 1 1 0
1  72 0 0.221314442347792 1.181000030320636
2  62 31 0 0.221314442347792 1.181000030320636
0

0101000
+92 31 -80 31 *
Wi

0101100
+91 0 -89 0 +87 27 +85 27 +83 27 +81 27 +79 27 +78 27 *
Fa
0  0.000000100000000 28 30

0111000
+77 0 *
Ed
 0.000000100000000 1 1 0
1  73 0 -0.035355339059327 0.035355339059327
2  63 26 0 -0.035355339059327 0.035355339059327
4 G1 26 0 32 0
0

0101000
+98 31 -88 31 *
Ed
 0.000000100000000 1 1 0
1  74 0 0.000000000000000 1.000000000000000
2  64 26 27 0.000000000000000 1.000000000000000
2  65 5 16 0.000000000000000 1.000000000000000
0

0101000
+100 17 -90 17 *
Wi

0101100
-75 27 -87 27 +74 0 +97 27 *
Fa
0  0.000000100000000 26 27

0111000
+73 0 *
Ve
0.000000150000000
-53.200000000000003 74.412999999999997 3.999999999999997
0 0

0101101
*
Ed
 0.000000150000000 1 1 0
1  75 0 -0.223143551314210 0.000000000000001
2  66 31 27 -0.223143551314210 0.000000000000001
0

0101000
+92 17 -71 17 *
Ve
0.000000100000000
-53.200000000000003 72.563027027224450 5.239999999999998
0 0

0101101
*
Ed
 0.000000100000000 1 1 0
1  76 0 0.000000000000000 0.070710678118655
2  67 31 0 0.000000000000000 0.070710678118655
2  68 30 0 0.000000000000000 0.070710678118655
4 G1 31 0 30 0
0

0101000
+69 31 -80 31 *
Ed
 0.000000100000000 1 1 0
1  77 0 0.000000000000000 1.181000030320636
2  69 31 0 0.000000000000000 1.181000030320636
2  70 22 23 0.000000000000000 1.181000030320636
0

0101000
+71 31 -69 31 *
Wi

0101100
+70 0 -78 27 +68 27 +67 27 *
Fa
0  0.000000100000000 31 27

0111000
+66 0 *
Ve
0.000000100000000
-53.200000000000003 68.294999999999987 5.050000000000010
0 0

0101101
*
Ed
 0.000000100000000 1 1 0
1  78 0 0.000000000000000 0.070710678118655
2  71 29 0 0.000000000000000 0.070710678118655
4 G1 32 0 29 0
0

0101000
+64 31 -86 31 *
Ed
 0.000000100000000 1 1 0
1  79 0 -0.000000000000000 2.621008439701730
0

0101000
+64 31 -98 31 *
Wi

0101100
-63 0 +62 0 -85 0 +75 0 *
Fa
0  0.000000100000000 32 0

0111000
+61 0 *
Ve
0.000000100000000
-53.200000000000003 68.794999999999987 5.550000000000008
0 0

0101101
*
Ed
 0.000000100000000 1 1 0
1  80 0 -0.035355339059328 0.035355339059327
2  72 29 0 -0.035355339059328 0.035355339059327
4 G1 29 0 33 0
0

0101000
+59 31 -84 31 *
Ed
 0.000000100000000 1 1 0
1  81 0 -0.000000000000001 1.570796326794895
2  73 29 0 -0.000000000000001 1.570796326794895
2  74 24 23 -0.000000000000001 1.570796326794895
0

0101000
+59 31 -64 31 *
Wi

0101100
-58 0 +57 0 -83 0 +63 0 *
Fa
0  0.000000100000000 29 0

0111000
+56 0 *
Ve
0.000000100000000
-53.200000000000003 72.100533784030560 5.550000000000003
0 0

0101101
*
Ed
 0.000000100000000 1 1 0
1  82 0 0.000000000000000 0.070710678118655
2  75 30 0 0.000000000000000 0.070710678118655
4 G1 33 0 30 0
0

0101000
+54 31 -82 31 *
Ed
 0.000000100000000 1 1 0
1  83 0 -0.000000000000000 3.305533784030565
0

0101000
+54 31 -59 31 *
Wi

0101100
-53 0 +52 0 -81 0 +58 0 *
Fa
0  0.000000100000000 33 0

0111000
+51 0 *
Ed
 0.000000100000000 1 1 0
1  84 0 -0.000000000000000 1.181000030320636
2  76 30 0 -0.000000000000000 1.181000030320636
2  77 23 23 -0.000000000000000 1.181000030320636
0

0101000
+69 31 -54 31 *
Wi

0101100
-68 0 +49 0 -79 0 +53 0 *
Fa
0  0.000000100000000 30 0

0111000
+48 0 *
Ed
 0.000000100000000 1 1 0
1  85 0 0.100000000000002 0.800000000000000
2  78 17 0 0.100000000000002 0.800000000000000
4 G1 17 0 34 0
0

0101000
+117 26 -161 26 *
Ed
 0.000000100000013 1 1 0
1  86 0 0.100000000000001 0.800000000000000
2  79 17 0 0.100000000000001 0.800000000000000
2  80 5 41 0.100000000000001 0.800000000000000
0

0101000
+113 26 -163 26 *
Wi

0101100
-112 35 -46 34 +159 37 +45 34 *
Fa
0  0.000000100000000 17 34

0111000
+44 0 *
Ed
 0.000000100000000 1 1 0
1  87 0 0.100000000000004 0.800000000000002
2  81 19 0 0.100000000000004 0.800000000000002
4 G1 19 0 35 0
0

0101000
+129 26 -156 26 *
Wi

0101100
-128 35 -42 34 -154 37 +136 34 *
Fa
0  0.000000100000000 19 34

0111000
+41 0 *
Ed
 0.000000100000000 1 1 0
1  88 0 0.100000000000004 0.800000000000000
2  82 20 0 0.100000000000004 0.800000000000000
4 G1 35 0 20 0
0

0101000
+125 26 -151 26 *
Wi

0101100
-124 35 -42 34 +149 37 +39 34 *
Fa
0  0.000000100000000 35 34

0111000
+38 0 *
Ed
 0.000000100000000 1 1 0
1  89 0 0.100000000000003 0.800000000000001
2  83 20 0 0.100000000000003 0.800000000000001
4 G1 20 0 34 0
0

0101000
+121 26 -146 26 *
Wi

0101100
-120 35 -36 34 -144 37 +39 34 *
Fa
0  0.000000100000000 20 34

0111000
+35 0 *
Wi

0101100
-116 35 -36 34 +141 37 +46 34 *
Fa
0  0.000000100000000 34 34

0111000
+33 0 *
Ed
 0.000000100000000 1 1 0
1  90 0 0.099999999999997 0.800000000000000
2  84 22 0 0.099999999999997 0.800000000000000
2  85 23 0 0.099999999999997 0.800000000000000
4 G1 22 0 23 0
0

0101000
+119 26 -69 26 *
Ed
 0.000000150000000 1 1 0
1  91 0 0.099999999999997 0.799999999999998
2  86 22 0 0.099999999999997 0.799999999999998
0

0101000
+123 26 -71 26 *
Wi

0101100
-118 35 -31 34 +67 37 +30 34 *
Fa
0  0.000000100000000 22 34

0111000
+29 0 *
Ed
 0.000000100000000 1 1 0
1  92 0 0.099999999999996 0.800000000000000
2  87 23 0 0.099999999999996 0.800000000000000
4 G1 23 0 36 0
0

0101000
+115 26 -54 26 *
Wi

0101100
-114 35 -31 34 -49 37 +27 34 *
Fa
0  0.000000100000000 23 34

0111000
+26 0 *
Ed
 0.000000100000000 1 1 0
1  93 0 0.099999999999996 0.799999999999999
2  88 24 0 0.099999999999996 0.799999999999999
4 G1 36 0 24 0
0

0101000
+111 26 -59 26 *
Wi

0101100
-110 35 -24 34 +52 37 +27 34 *
Fa
0  0.000000100000000 36 34

0111000
+23 0 *
Ed
 0.000000100000000 1 1 0
1  94 0 0.099999999999997 0.800000000000000
2  89 24 0 0.099999999999997 0.800000000000000
4 G1 24 0 27 0
0

0101000
+107 26 -64 26 *
Wi

0101100
-106 35 -24 34 -57 37 +21 34 *
Fa
0  0.000000100000000 24 34

0111000
+20 0 *
Wi

0101100
-103 35 -96 34 +62 37 +21 34 *
Fa
0  0.000000100000000 27 34

0111000
+18 0 *
Ed
 0.000000100000000 1 1 0
1  95 0 -0.699999999999994 1.699999999999998
0

0101000
+133 3 -229 3 *
Wi

0101000
+193 0 +228 0 -16 0 -132 0 *
Fa
0  0.000000150000000 37 0

0111000
+15 0 *
Ed
 0.000000150000000 1 1 0
1  96 0 0.850000000000002 3.200000000000000
2  90 5 16 0.850000000000002 3.200000000000000
0

0101000
-223 17 +93 17 *
Ed
 0.000000100000000 1 1 0
1  97 0 -1.699999999999998 0.699999999999998
0

0101000
+204 3 -127 3 *
Wi

0101000
-203 0 -199 0 -13 15 +91 15 +70 15 -30 25 +122 21 -12 0 *
Fa
0  0.000000150000000 38 0

0111000
+11 0 *
Ed
 0.000000100000000 1 1 0
1  98 0 -0.000000000000000 2.399999999999995
0

0101000
+211 3 -131 3 *
Wi

0101000
-210 4 +9 0 +130 21 +16 0 *
Fa
0  0.000000150000000 39 0

0111000
+8 0 *
Wi

0101000
-202 0 +12 0 +126 0 -9 0 *
Fa
0  0.000000150000000 40 0

0111000
+6 0 *
Wi

0101100
-162 15 +171 15 +195 15 +222 0 -13 15 +89 15 -74 15 -99 25 -108 21 +45 25 
*
Fa
0  0.000000100000000 5 0

0111000
+4 0 *
Sh

0101000
+231 0 +224 0 +217 0 -212 10 -207 4 +200 0 +197 0 +184 0 -169 15 -164 15 
-157 15 -152 32 -147 32 -142 32 -139 32 +134 33 +101 38 +94 33 -76 15 -72 15 
-65 15 -60 32 -55 32 -50 32 -47 32 +43 33 -40 33 +37 33 -34 33 +32 33 
+28 33 -25 33 +22 33 -19 33 +17 33 +14 0 +10 0 +7 0 +5 0 -3 0 
*
So

1100000
+2 0 *

+1 1 