ISO-10303-21;
HEADER;
FILE_DESCRIPTION(('FreeCAD Model'),'2;1');
FILE_NAME('Open CASCADE Shape Model','2024-08-03T18:06:37',(''),(''),
  'Open CASCADE STEP processor 7.6','FreeCAD','Unknown');
FILE_SCHEMA(('AUTOMOTIVE_DESIGN { 1 0 10303 214 1 1 1 1 }'));
ENDSEC;
DATA;
#1 = APPLICATION_PROTOCOL_DEFINITION('international standard',
  'automotive_design',2000,#2);
#2 = APPLICATION_CONTEXT(
  'core data for automotive mechanical design processes');
#3 = SHAPE_DEFINITION_REPRESENTATION(#4,#10);
#4 = PRODUCT_DEFINITION_SHAPE('','',#5);
#5 = PRODUCT_DEFINITION('design','',#6,#9);
#6 = PRODUCT_DEFINITION_FORMATION('','',#7);
#7 = PRODUCT('Switch','Switch','',(#8));
#8 = PRODUCT_CONTEXT('',#2,'mechanical');
#9 = PRODUCT_DEFINITION_CONTEXT('part definition',#2,'design');
#10 = ADVANCED_BREP_SHAPE_REPRESENTATION('',(#11,#15),#1000);
#11 = AXIS2_PLACEMENT_3D('',#12,#13,#14);
#12 = CARTESIAN_POINT('',(0.,0.,0.));
#13 = DIRECTION('',(0.,0.,1.));
#14 = DIRECTION('',(1.,0.,-0.));
#15 = MANIFOLD_SOLID_BREP('',#16);
#16 = CLOSED_SHELL('',(#17,#176,#237,#261,#308,#333,#358,#382,#422,#447,
    #472,#496,#521,#539,#563,#588,#628,#645,#669,#747,#759,#790,#807,
    #832,#849,#873,#890,#907,#924,#942,#959,#976,#988));
#17 = ADVANCED_FACE('',(#18),#171,.T.);
#18 = FACE_BOUND('',#19,.T.);
#19 = EDGE_LOOP('',(#20,#30,#38,#47,#55,#64,#72,#81,#89,#98,#106,#114,
    #122,#131,#139,#148,#156,#165));
#20 = ORIENTED_EDGE('',*,*,#21,.F.);
#21 = EDGE_CURVE('',#22,#24,#26,.T.);
#22 = VERTEX_POINT('',#23);
#23 = CARTESIAN_POINT('',(27.2,29.63,-7.4));
#24 = VERTEX_POINT('',#25);
#25 = CARTESIAN_POINT('',(27.2,29.63,-4.));
#26 = LINE('',#27,#28);
#27 = CARTESIAN_POINT('',(27.2,29.63,2.));
#28 = VECTOR('',#29,1.);
#29 = DIRECTION('',(-1.110223024625E-16,-5.551115123126E-17,1.));
#30 = ORIENTED_EDGE('',*,*,#31,.T.);
#31 = EDGE_CURVE('',#22,#32,#34,.T.);
#32 = VERTEX_POINT('',#33);
#33 = CARTESIAN_POINT('',(27.2,35.075,-7.4));
#34 = LINE('',#35,#36);
#35 = CARTESIAN_POINT('',(27.2,29.63,-7.4));
#36 = VECTOR('',#37,1.);
#37 = DIRECTION('',(-1.232595164408E-32,1.,2.22044604925E-16));
#38 = ORIENTED_EDGE('',*,*,#39,.T.);
#39 = EDGE_CURVE('',#32,#40,#42,.T.);
#40 = VERTEX_POINT('',#41);
#41 = CARTESIAN_POINT('',(27.2,37.025,-5.45));
#42 = CIRCLE('',#43,1.95);
#43 = AXIS2_PLACEMENT_3D('',#44,#45,#46);
#44 = CARTESIAN_POINT('',(27.2,35.075,-5.45));
#45 = DIRECTION('',(1.,-3.697785493223E-32,2.22044604925E-16));
#46 = DIRECTION('',(2.22044604925E-16,9.992007221626E-16,-1.));
#47 = ORIENTED_EDGE('',*,*,#48,.T.);
#48 = EDGE_CURVE('',#40,#49,#51,.T.);
#49 = VERTEX_POINT('',#50);
#50 = CARTESIAN_POINT('',(27.2,37.025,5.45));
#51 = LINE('',#52,#53);
#52 = CARTESIAN_POINT('',(27.2,37.025,-5.45));
#53 = VECTOR('',#54,1.);
#54 = DIRECTION('',(-2.22044604925E-16,-1.110223024625E-16,1.));
#55 = ORIENTED_EDGE('',*,*,#56,.T.);
#56 = EDGE_CURVE('',#49,#57,#59,.T.);
#57 = VERTEX_POINT('',#58);
#58 = CARTESIAN_POINT('',(27.2,35.075,7.4));
#59 = CIRCLE('',#60,1.95);
#60 = AXIS2_PLACEMENT_3D('',#61,#62,#63);
#61 = CARTESIAN_POINT('',(27.2,35.075,5.45));
#62 = DIRECTION('',(1.,-3.697785493223E-32,2.22044604925E-16));
#63 = DIRECTION('',(1.109335647967E-31,1.,-3.330669073875E-16));
#64 = ORIENTED_EDGE('',*,*,#65,.T.);
#65 = EDGE_CURVE('',#57,#66,#68,.T.);
#66 = VERTEX_POINT('',#67);
#67 = CARTESIAN_POINT('',(27.2,17.875,7.4));
#68 = LINE('',#69,#70);
#69 = CARTESIAN_POINT('',(27.2,35.075,7.4));
#70 = VECTOR('',#71,1.);
#71 = DIRECTION('',(1.232595164408E-32,-1.,-2.22044604925E-16));
#72 = ORIENTED_EDGE('',*,*,#73,.T.);
#73 = EDGE_CURVE('',#66,#74,#76,.T.);
#74 = VERTEX_POINT('',#75);
#75 = CARTESIAN_POINT('',(27.2,15.925,5.45));
#76 = CIRCLE('',#77,1.95);
#77 = AXIS2_PLACEMENT_3D('',#78,#79,#80);
#78 = CARTESIAN_POINT('',(27.2,17.875,5.45));
#79 = DIRECTION('',(1.,-3.697785493223E-32,2.22044604925E-16));
#80 = DIRECTION('',(-2.22044604925E-16,-1.110223024625E-16,1.));
#81 = ORIENTED_EDGE('',*,*,#82,.T.);
#82 = EDGE_CURVE('',#74,#83,#85,.T.);
#83 = VERTEX_POINT('',#84);
#84 = CARTESIAN_POINT('',(27.2,15.925,-5.45));
#85 = LINE('',#86,#87);
#86 = CARTESIAN_POINT('',(27.2,15.925,5.45));
#87 = VECTOR('',#88,1.);
#88 = DIRECTION('',(2.22044604925E-16,1.110223024625E-16,-1.));
#89 = ORIENTED_EDGE('',*,*,#90,.T.);
#90 = EDGE_CURVE('',#83,#91,#93,.T.);
#91 = VERTEX_POINT('',#92);
#92 = CARTESIAN_POINT('',(27.2,17.875,-7.4));
#93 = CIRCLE('',#94,1.95);
#94 = AXIS2_PLACEMENT_3D('',#95,#96,#97);
#95 = CARTESIAN_POINT('',(27.2,17.875,-5.45));
#96 = DIRECTION('',(1.,-3.697785493223E-32,2.22044604925E-16));
#97 = DIRECTION('',(8.628166150855E-32,-1.,-5.551115123126E-16));
#98 = ORIENTED_EDGE('',*,*,#99,.T.);
#99 = EDGE_CURVE('',#91,#100,#102,.T.);
#100 = VERTEX_POINT('',#101);
#101 = CARTESIAN_POINT('',(27.2,28.03,-7.4));
#102 = LINE('',#103,#104);
#103 = CARTESIAN_POINT('',(27.2,17.875,-7.4));
#104 = VECTOR('',#105,1.);
#105 = DIRECTION('',(-1.232595164408E-32,1.,2.22044604925E-16));
#106 = ORIENTED_EDGE('',*,*,#107,.F.);
#107 = EDGE_CURVE('',#108,#100,#110,.T.);
#108 = VERTEX_POINT('',#109);
#109 = CARTESIAN_POINT('',(27.2,28.03,-4.));
#110 = LINE('',#111,#112);
#111 = CARTESIAN_POINT('',(27.2,28.03,-3.725));
#112 = VECTOR('',#113,1.);
#113 = DIRECTION('',(1.110223024625E-16,5.551115123126E-17,-1.));
#114 = ORIENTED_EDGE('',*,*,#115,.T.);
#115 = EDGE_CURVE('',#108,#116,#118,.T.);
#116 = VERTEX_POINT('',#117);
#117 = CARTESIAN_POINT('',(27.2,22.975,-4.));
#118 = LINE('',#119,#120);
#119 = CARTESIAN_POINT('',(27.2,28.225,-4.));
#120 = VECTOR('',#121,1.);
#121 = DIRECTION('',(5.551115123126E-17,-1.,-4.599495387733E-16));
#122 = ORIENTED_EDGE('',*,*,#123,.T.);
#123 = EDGE_CURVE('',#116,#124,#126,.T.);
#124 = VERTEX_POINT('',#125);
#125 = CARTESIAN_POINT('',(27.2,22.975,4.));
#126 = CIRCLE('',#127,4.);
#127 = AXIS2_PLACEMENT_3D('',#128,#129,#130);
#128 = CARTESIAN_POINT('',(27.2,22.975,-7.560241073648E-16));
#129 = DIRECTION('',(-1.,-5.551115123126E-17,-2.775557561563E-16));
#130 = DIRECTION('',(5.551115123126E-17,-1.,-3.885780586188E-16));
#131 = ORIENTED_EDGE('',*,*,#132,.T.);
#132 = EDGE_CURVE('',#124,#133,#135,.T.);
#133 = VERTEX_POINT('',#134);
#134 = CARTESIAN_POINT('',(27.2,28.03,4.));
#135 = LINE('',#136,#137);
#136 = CARTESIAN_POINT('',(27.2,24.725,4.));
#137 = VECTOR('',#138,1.);
#138 = DIRECTION('',(-5.551115123126E-17,1.,3.330669073875E-16));
#139 = ORIENTED_EDGE('',*,*,#140,.T.);
#140 = EDGE_CURVE('',#133,#141,#143,.T.);
#141 = VERTEX_POINT('',#142);
#142 = CARTESIAN_POINT('',(27.2,29.63,4.));
#143 = CIRCLE('',#144,0.8);
#144 = AXIS2_PLACEMENT_3D('',#145,#146,#147);
#145 = CARTESIAN_POINT('',(27.2,28.83,4.));
#146 = DIRECTION('',(-1.,1.232595164408E-32,-1.110223024625E-16));
#147 = DIRECTION('',(0.,-1.,-1.110223024625E-16));
#148 = ORIENTED_EDGE('',*,*,#149,.T.);
#149 = EDGE_CURVE('',#141,#150,#152,.T.);
#150 = VERTEX_POINT('',#151);
#151 = CARTESIAN_POINT('',(27.2,29.975,4.));
#152 = LINE('',#153,#154);
#153 = CARTESIAN_POINT('',(27.2,24.725,4.));
#154 = VECTOR('',#155,1.);
#155 = DIRECTION('',(-5.551115123126E-17,1.,3.330669073875E-16));
#156 = ORIENTED_EDGE('',*,*,#157,.T.);
#157 = EDGE_CURVE('',#150,#158,#160,.T.);
#158 = VERTEX_POINT('',#159);
#159 = CARTESIAN_POINT('',(27.2,29.975,-4.));
#160 = CIRCLE('',#161,4.);
#161 = AXIS2_PLACEMENT_3D('',#162,#163,#164);
#162 = CARTESIAN_POINT('',(27.2,29.975,2.264022302967E-15));
#163 = DIRECTION('',(-1.,-5.551115123126E-17,-2.775557561563E-16));
#164 = DIRECTION('',(5.551115123126E-17,-1.,-3.885780586188E-16));
#165 = ORIENTED_EDGE('',*,*,#166,.T.);
#166 = EDGE_CURVE('',#158,#24,#167,.T.);
#167 = LINE('',#168,#169);
#168 = CARTESIAN_POINT('',(27.2,28.225,-4.));
#169 = VECTOR('',#170,1.);
#170 = DIRECTION('',(5.551115123126E-17,-1.,-4.599495387733E-16));
#171 = PLANE('',#172);
#172 = AXIS2_PLACEMENT_3D('',#173,#174,#175);
#173 = CARTESIAN_POINT('',(27.2,26.475,0.));
#174 = DIRECTION('',(1.,-1.110223024625E-16,1.110223024625E-16));
#175 = DIRECTION('',(-2.22044604925E-16,2.465190328816E-32,1.));
#176 = ADVANCED_FACE('',(#177),#232,.F.);
#177 = FACE_BOUND('',#178,.F.);
#178 = EDGE_LOOP('',(#179,#189,#197,#203,#211,#219,#225,#226));
#179 = ORIENTED_EDGE('',*,*,#180,.F.);
#180 = EDGE_CURVE('',#181,#183,#185,.T.);
#181 = VERTEX_POINT('',#182);
#182 = CARTESIAN_POINT('',(26.2,29.63,-7.45));
#183 = VERTEX_POINT('',#184);
#184 = CARTESIAN_POINT('',(27.15,29.63,-7.45));
#185 = LINE('',#186,#187);
#186 = CARTESIAN_POINT('',(26.2,29.63,-7.45));
#187 = VECTOR('',#188,1.);
#188 = DIRECTION('',(1.,-6.162975822039E-33,5.551115123126E-17));
#189 = ORIENTED_EDGE('',*,*,#190,.F.);
#190 = EDGE_CURVE('',#191,#181,#193,.T.);
#191 = VERTEX_POINT('',#192);
#192 = CARTESIAN_POINT('',(26.2,29.63,4.));
#193 = LINE('',#194,#195);
#194 = CARTESIAN_POINT('',(26.2,29.63,4.));
#195 = VECTOR('',#196,1.);
#196 = DIRECTION('',(1.110223024625E-16,5.551115123126E-17,-1.));
#197 = ORIENTED_EDGE('',*,*,#198,.T.);
#198 = EDGE_CURVE('',#191,#141,#199,.T.);
#199 = LINE('',#200,#201);
#200 = CARTESIAN_POINT('',(26.2,29.63,4.));
#201 = VECTOR('',#202,1.);
#202 = DIRECTION('',(1.,-6.162975822039E-33,5.551115123126E-17));
#203 = ORIENTED_EDGE('',*,*,#204,.T.);
#204 = EDGE_CURVE('',#141,#205,#207,.T.);
#205 = VERTEX_POINT('',#206);
#206 = CARTESIAN_POINT('',(27.8,29.63,4.));
#207 = LINE('',#208,#209);
#208 = CARTESIAN_POINT('',(26.2,29.63,4.));
#209 = VECTOR('',#210,1.);
#210 = DIRECTION('',(1.,-6.162975822039E-33,5.551115123126E-17));
#211 = ORIENTED_EDGE('',*,*,#212,.T.);
#212 = EDGE_CURVE('',#205,#213,#215,.T.);
#213 = VERTEX_POINT('',#214);
#214 = CARTESIAN_POINT('',(27.8,29.63,-4.));
#215 = LINE('',#216,#217);
#216 = CARTESIAN_POINT('',(27.8,29.63,4.));
#217 = VECTOR('',#218,1.);
#218 = DIRECTION('',(1.110223024625E-16,-6.162975822039E-33,-1.));
#219 = ORIENTED_EDGE('',*,*,#220,.F.);
#220 = EDGE_CURVE('',#24,#213,#221,.T.);
#221 = LINE('',#222,#223);
#222 = CARTESIAN_POINT('',(26.2,29.63,-4.));
#223 = VECTOR('',#224,1.);
#224 = DIRECTION('',(1.,-1.848892746612E-32,2.775557561563E-16));
#225 = ORIENTED_EDGE('',*,*,#21,.F.);
#226 = ORIENTED_EDGE('',*,*,#227,.T.);
#227 = EDGE_CURVE('',#22,#183,#228,.T.);
#228 = LINE('',#229,#230);
#229 = CARTESIAN_POINT('',(29.7875,29.63,-4.8125));
#230 = VECTOR('',#231,1.);
#231 = DIRECTION('',(-0.707106781187,3.925231146709E-17,-0.707106781187)
  );
#232 = PLANE('',#233);
#233 = AXIS2_PLACEMENT_3D('',#234,#235,#236);
#234 = CARTESIAN_POINT('',(26.2,29.63,4.));
#235 = DIRECTION('',(3.08148791102E-33,1.,5.551115123126E-17));
#236 = DIRECTION('',(1.110223024625E-16,5.551115123126E-17,-1.));
#237 = ADVANCED_FACE('',(#238),#256,.F.);
#238 = FACE_BOUND('',#239,.F.);
#239 = EDGE_LOOP('',(#240,#241,#242,#250));
#240 = ORIENTED_EDGE('',*,*,#227,.F.);
#241 = ORIENTED_EDGE('',*,*,#31,.T.);
#242 = ORIENTED_EDGE('',*,*,#243,.T.);
#243 = EDGE_CURVE('',#32,#244,#246,.T.);
#244 = VERTEX_POINT('',#245);
#245 = CARTESIAN_POINT('',(27.15,35.075,-7.45));
#246 = LINE('',#247,#248);
#247 = CARTESIAN_POINT('',(27.175,35.075,-7.425));
#248 = VECTOR('',#249,1.);
#249 = DIRECTION('',(-0.707106781187,1.570092458684E-16,-0.707106781187)
  );
#250 = ORIENTED_EDGE('',*,*,#251,.F.);
#251 = EDGE_CURVE('',#183,#244,#252,.T.);
#252 = LINE('',#253,#254);
#253 = CARTESIAN_POINT('',(27.15,29.63,-7.45));
#254 = VECTOR('',#255,1.);
#255 = DIRECTION('',(-1.232595164408E-32,1.,2.22044604925E-16));
#256 = PLANE('',#257);
#257 = AXIS2_PLACEMENT_3D('',#258,#259,#260);
#258 = CARTESIAN_POINT('',(27.175,29.63,-7.425));
#259 = DIRECTION('',(-0.707106781187,-7.860879710588E-17,0.707106781187)
  );
#260 = DIRECTION('',(5.543748896803E-17,1.,1.66607115957E-16));
#261 = ADVANCED_FACE('',(#262),#303,.T.);
#262 = FACE_BOUND('',#263,.T.);
#263 = EDGE_LOOP('',(#264,#274,#280,#281,#289,#295,#296,#297));
#264 = ORIENTED_EDGE('',*,*,#265,.T.);
#265 = EDGE_CURVE('',#266,#268,#270,.T.);
#266 = VERTEX_POINT('',#267);
#267 = CARTESIAN_POINT('',(29.2,29.975,-4.));
#268 = VERTEX_POINT('',#269);
#269 = CARTESIAN_POINT('',(29.2,22.975,-4.));
#270 = LINE('',#271,#272);
#271 = CARTESIAN_POINT('',(29.2,29.975,-4.));
#272 = VECTOR('',#273,1.);
#273 = DIRECTION('',(5.551115123126E-17,-1.,-5.154606900045E-16));
#274 = ORIENTED_EDGE('',*,*,#275,.F.);
#275 = EDGE_CURVE('',#116,#268,#276,.T.);
#276 = LINE('',#277,#278);
#277 = CARTESIAN_POINT('',(26.2,22.975,-4.));
#278 = VECTOR('',#279,1.);
#279 = DIRECTION('',(1.,-1.110223024625E-16,1.665334536938E-16));
#280 = ORIENTED_EDGE('',*,*,#115,.F.);
#281 = ORIENTED_EDGE('',*,*,#282,.F.);
#282 = EDGE_CURVE('',#283,#108,#285,.T.);
#283 = VERTEX_POINT('',#284);
#284 = CARTESIAN_POINT('',(27.8,28.03,-4.));
#285 = LINE('',#286,#287);
#286 = CARTESIAN_POINT('',(26.2,28.03,-4.));
#287 = VECTOR('',#288,1.);
#288 = DIRECTION('',(-1.,1.848892746612E-32,-2.775557561563E-16));
#289 = ORIENTED_EDGE('',*,*,#290,.F.);
#290 = EDGE_CURVE('',#213,#283,#291,.T.);
#291 = LINE('',#292,#293);
#292 = CARTESIAN_POINT('',(27.8,29.4025,-4.));
#293 = VECTOR('',#294,1.);
#294 = DIRECTION('',(1.320637676151E-32,-1.,-3.489272363108E-16));
#295 = ORIENTED_EDGE('',*,*,#220,.F.);
#296 = ORIENTED_EDGE('',*,*,#166,.F.);
#297 = ORIENTED_EDGE('',*,*,#298,.T.);
#298 = EDGE_CURVE('',#158,#266,#299,.T.);
#299 = LINE('',#300,#301);
#300 = CARTESIAN_POINT('',(26.2,29.975,-4.));
#301 = VECTOR('',#302,1.);
#302 = DIRECTION('',(1.,-1.110223024625E-16,1.665334536938E-16));
#303 = PLANE('',#304);
#304 = AXIS2_PLACEMENT_3D('',#305,#306,#307);
#305 = CARTESIAN_POINT('',(26.2,29.975,-4.));
#306 = DIRECTION('',(2.775557561563E-16,2.379049338482E-16,-1.));
#307 = DIRECTION('',(1.110223024625E-16,-1.,-5.709718412358E-16));
#308 = ADVANCED_FACE('',(#309),#328,.T.);
#309 = FACE_BOUND('',#310,.F.);
#310 = EDGE_LOOP('',(#311,#312,#313,#321));
#311 = ORIENTED_EDGE('',*,*,#243,.F.);
#312 = ORIENTED_EDGE('',*,*,#39,.T.);
#313 = ORIENTED_EDGE('',*,*,#314,.T.);
#314 = EDGE_CURVE('',#40,#315,#317,.T.);
#315 = VERTEX_POINT('',#316);
#316 = CARTESIAN_POINT('',(27.15,37.075,-5.45));
#317 = LINE('',#318,#319);
#318 = CARTESIAN_POINT('',(27.15,37.075,-5.45));
#319 = VECTOR('',#320,1.);
#320 = DIRECTION('',(-0.707106781187,0.707106781187,5.062345577275E-16)
  );
#321 = ORIENTED_EDGE('',*,*,#322,.F.);
#322 = EDGE_CURVE('',#244,#315,#323,.T.);
#323 = CIRCLE('',#324,2.);
#324 = AXIS2_PLACEMENT_3D('',#325,#326,#327);
#325 = CARTESIAN_POINT('',(27.15,35.075,-5.45));
#326 = DIRECTION('',(1.,-3.697785493223E-32,2.22044604925E-16));
#327 = DIRECTION('',(2.22044604925E-16,9.992007221626E-16,-1.));
#328 = CONICAL_SURFACE('',#329,2.,0.785398163397);
#329 = AXIS2_PLACEMENT_3D('',#330,#331,#332);
#330 = CARTESIAN_POINT('',(27.15,35.075,-5.45));
#331 = DIRECTION('',(-1.,3.697785493223E-32,-2.22044604925E-16));
#332 = DIRECTION('',(2.22044604925E-16,9.992007221626E-16,-1.));
#333 = ADVANCED_FACE('',(#334),#353,.T.);
#334 = FACE_BOUND('',#335,.T.);
#335 = EDGE_LOOP('',(#336,#337,#338,#346));
#336 = ORIENTED_EDGE('',*,*,#298,.F.);
#337 = ORIENTED_EDGE('',*,*,#157,.F.);
#338 = ORIENTED_EDGE('',*,*,#339,.T.);
#339 = EDGE_CURVE('',#150,#340,#342,.T.);
#340 = VERTEX_POINT('',#341);
#341 = CARTESIAN_POINT('',(29.2,29.975,4.));
#342 = LINE('',#343,#344);
#343 = CARTESIAN_POINT('',(26.2,29.975,4.));
#344 = VECTOR('',#345,1.);
#345 = DIRECTION('',(1.,-1.110223024625E-16,1.665334536938E-16));
#346 = ORIENTED_EDGE('',*,*,#347,.T.);
#347 = EDGE_CURVE('',#340,#266,#348,.T.);
#348 = CIRCLE('',#349,4.);
#349 = AXIS2_PLACEMENT_3D('',#350,#351,#352);
#350 = CARTESIAN_POINT('',(29.2,29.975,3.263223025129E-15));
#351 = DIRECTION('',(-1.,-5.551115123126E-17,-3.330669073875E-16));
#352 = DIRECTION('',(-3.330669073875E-16,-1.665334536938E-16,1.));
#353 = CYLINDRICAL_SURFACE('',#354,4.);
#354 = AXIS2_PLACEMENT_3D('',#355,#356,#357);
#355 = CARTESIAN_POINT('',(26.2,29.975,3.705924456199E-15));
#356 = DIRECTION('',(-1.,1.110223024625E-16,-2.22044604925E-16));
#357 = DIRECTION('',(1.110223024625E-16,-1.,-4.440892098501E-16));
#358 = ADVANCED_FACE('',(#359),#377,.F.);
#359 = FACE_BOUND('',#360,.F.);
#360 = EDGE_LOOP('',(#361,#362,#363,#371));
#361 = ORIENTED_EDGE('',*,*,#314,.F.);
#362 = ORIENTED_EDGE('',*,*,#48,.T.);
#363 = ORIENTED_EDGE('',*,*,#364,.T.);
#364 = EDGE_CURVE('',#49,#365,#367,.T.);
#365 = VERTEX_POINT('',#366);
#366 = CARTESIAN_POINT('',(27.15,37.075,5.45));
#367 = LINE('',#368,#369);
#368 = CARTESIAN_POINT('',(27.175,37.05,5.45));
#369 = VECTOR('',#370,1.);
#370 = DIRECTION('',(-0.707106781187,0.707106781187,-7.850462293419E-17)
  );
#371 = ORIENTED_EDGE('',*,*,#372,.F.);
#372 = EDGE_CURVE('',#315,#365,#373,.T.);
#373 = LINE('',#374,#375);
#374 = CARTESIAN_POINT('',(27.15,37.075,-5.45));
#375 = VECTOR('',#376,1.);
#376 = DIRECTION('',(-2.22044604925E-16,-1.110223024625E-16,1.));
#377 = PLANE('',#378);
#378 = AXIS2_PLACEMENT_3D('',#379,#380,#381);
#379 = CARTESIAN_POINT('',(27.175,37.05,-5.45));
#380 = DIRECTION('',(-0.707106781187,-0.707106781187,-1.57675035933E-16)
  );
#381 = DIRECTION('',(-1.670042383633E-16,-5.598193590081E-17,1.));
#382 = ADVANCED_FACE('',(#383),#417,.T.);
#383 = FACE_BOUND('',#384,.T.);
#384 = EDGE_LOOP('',(#385,#393,#394,#395,#396,#404,#410,#411));
#385 = ORIENTED_EDGE('',*,*,#386,.T.);
#386 = EDGE_CURVE('',#387,#340,#389,.T.);
#387 = VERTEX_POINT('',#388);
#388 = CARTESIAN_POINT('',(29.2,22.975,4.));
#389 = LINE('',#390,#391);
#390 = CARTESIAN_POINT('',(29.2,22.975,4.));
#391 = VECTOR('',#392,1.);
#392 = DIRECTION('',(-5.551115123126E-17,1.,3.885780586188E-16));
#393 = ORIENTED_EDGE('',*,*,#339,.F.);
#394 = ORIENTED_EDGE('',*,*,#149,.F.);
#395 = ORIENTED_EDGE('',*,*,#204,.T.);
#396 = ORIENTED_EDGE('',*,*,#397,.F.);
#397 = EDGE_CURVE('',#398,#205,#400,.T.);
#398 = VERTEX_POINT('',#399);
#399 = CARTESIAN_POINT('',(27.8,28.03,4.));
#400 = LINE('',#401,#402);
#401 = CARTESIAN_POINT('',(27.8,25.9025,4.));
#402 = VECTOR('',#403,1.);
#403 = DIRECTION('',(-6.162975822039E-33,1.,2.22044604925E-16));
#404 = ORIENTED_EDGE('',*,*,#405,.F.);
#405 = EDGE_CURVE('',#133,#398,#406,.T.);
#406 = LINE('',#407,#408);
#407 = CARTESIAN_POINT('',(26.2,28.03,4.));
#408 = VECTOR('',#409,1.);
#409 = DIRECTION('',(1.,-6.162975822039E-33,5.551115123126E-17));
#410 = ORIENTED_EDGE('',*,*,#132,.F.);
#411 = ORIENTED_EDGE('',*,*,#412,.T.);
#412 = EDGE_CURVE('',#124,#387,#413,.T.);
#413 = LINE('',#414,#415);
#414 = CARTESIAN_POINT('',(26.2,22.975,4.));
#415 = VECTOR('',#416,1.);
#416 = DIRECTION('',(1.,-1.110223024625E-16,1.665334536938E-16));
#417 = PLANE('',#418);
#418 = AXIS2_PLACEMENT_3D('',#419,#420,#421);
#419 = CARTESIAN_POINT('',(26.2,22.975,4.));
#420 = DIRECTION('',(-2.775557561563E-16,-1.110223024625E-16,1.));
#421 = DIRECTION('',(-1.110223024625E-16,1.,4.440892098501E-16));
#422 = ADVANCED_FACE('',(#423),#442,.T.);
#423 = FACE_BOUND('',#424,.F.);
#424 = EDGE_LOOP('',(#425,#426,#427,#435));
#425 = ORIENTED_EDGE('',*,*,#364,.F.);
#426 = ORIENTED_EDGE('',*,*,#56,.T.);
#427 = ORIENTED_EDGE('',*,*,#428,.T.);
#428 = EDGE_CURVE('',#57,#429,#431,.T.);
#429 = VERTEX_POINT('',#430);
#430 = CARTESIAN_POINT('',(27.15,35.075,7.45));
#431 = LINE('',#432,#433);
#432 = CARTESIAN_POINT('',(27.15,35.075,7.45));
#433 = VECTOR('',#434,1.);
#434 = DIRECTION('',(-0.707106781187,5.928301633511E-16,0.707106781187)
  );
#435 = ORIENTED_EDGE('',*,*,#436,.F.);
#436 = EDGE_CURVE('',#365,#429,#437,.T.);
#437 = CIRCLE('',#438,2.);
#438 = AXIS2_PLACEMENT_3D('',#439,#440,#441);
#439 = CARTESIAN_POINT('',(27.15,35.075,5.45));
#440 = DIRECTION('',(1.,-3.697785493223E-32,2.22044604925E-16));
#441 = DIRECTION('',(1.109335647967E-31,1.,-3.330669073875E-16));
#442 = CONICAL_SURFACE('',#443,2.,0.785398163397);
#443 = AXIS2_PLACEMENT_3D('',#444,#445,#446);
#444 = CARTESIAN_POINT('',(27.15,35.075,5.45));
#445 = DIRECTION('',(-1.,3.697785493223E-32,-2.22044604925E-16));
#446 = DIRECTION('',(1.109335647967E-31,1.,-3.330669073875E-16));
#447 = ADVANCED_FACE('',(#448),#467,.F.);
#448 = FACE_BOUND('',#449,.F.);
#449 = EDGE_LOOP('',(#450,#459,#465,#466));
#450 = ORIENTED_EDGE('',*,*,#451,.F.);
#451 = EDGE_CURVE('',#452,#191,#454,.T.);
#452 = VERTEX_POINT('',#453);
#453 = CARTESIAN_POINT('',(26.2,28.03,4.));
#454 = CIRCLE('',#455,0.8);
#455 = AXIS2_PLACEMENT_3D('',#456,#457,#458);
#456 = CARTESIAN_POINT('',(26.2,28.83,4.));
#457 = DIRECTION('',(-1.,-5.551115123126E-17,-1.110223024625E-16));
#458 = DIRECTION('',(5.551115123126E-17,-1.,-1.665334536938E-16));
#459 = ORIENTED_EDGE('',*,*,#460,.T.);
#460 = EDGE_CURVE('',#452,#133,#461,.T.);
#461 = LINE('',#462,#463);
#462 = CARTESIAN_POINT('',(26.2,28.03,4.));
#463 = VECTOR('',#464,1.);
#464 = DIRECTION('',(1.,-6.162975822039E-33,5.551115123126E-17));
#465 = ORIENTED_EDGE('',*,*,#140,.T.);
#466 = ORIENTED_EDGE('',*,*,#198,.F.);
#467 = CYLINDRICAL_SURFACE('',#468,0.8);
#468 = AXIS2_PLACEMENT_3D('',#469,#470,#471);
#469 = CARTESIAN_POINT('',(26.2,28.83,4.));
#470 = DIRECTION('',(-1.,1.232595164408E-32,-1.110223024625E-16));
#471 = DIRECTION('',(0.,-1.,-1.110223024625E-16));
#472 = ADVANCED_FACE('',(#473),#491,.F.);
#473 = FACE_BOUND('',#474,.F.);
#474 = EDGE_LOOP('',(#475,#476,#477,#485));
#475 = ORIENTED_EDGE('',*,*,#428,.F.);
#476 = ORIENTED_EDGE('',*,*,#65,.T.);
#477 = ORIENTED_EDGE('',*,*,#478,.T.);
#478 = EDGE_CURVE('',#66,#479,#481,.T.);
#479 = VERTEX_POINT('',#480);
#480 = CARTESIAN_POINT('',(27.15,17.875,7.45));
#481 = LINE('',#482,#483);
#482 = CARTESIAN_POINT('',(27.175,17.875,7.425));
#483 = VECTOR('',#484,1.);
#484 = DIRECTION('',(-0.707106781187,-1.570092458684E-16,0.707106781187)
  );
#485 = ORIENTED_EDGE('',*,*,#486,.F.);
#486 = EDGE_CURVE('',#429,#479,#487,.T.);
#487 = LINE('',#488,#489);
#488 = CARTESIAN_POINT('',(27.15,35.075,7.45));
#489 = VECTOR('',#490,1.);
#490 = DIRECTION('',(1.232595164408E-32,-1.,-2.22044604925E-16));
#491 = PLANE('',#492);
#492 = AXIS2_PLACEMENT_3D('',#493,#494,#495);
#493 = CARTESIAN_POINT('',(27.175,35.075,7.425));
#494 = DIRECTION('',(-0.707106781187,1.410604034727E-16,-0.707106781187)
  );
#495 = DIRECTION('',(1.127753461009E-17,-1.,-2.107670703149E-16));
#496 = ADVANCED_FACE('',(#497),#516,.T.);
#497 = FACE_BOUND('',#498,.F.);
#498 = EDGE_LOOP('',(#499,#500,#501,#509));
#499 = ORIENTED_EDGE('',*,*,#478,.F.);
#500 = ORIENTED_EDGE('',*,*,#73,.T.);
#501 = ORIENTED_EDGE('',*,*,#502,.T.);
#502 = EDGE_CURVE('',#74,#503,#505,.T.);
#503 = VERTEX_POINT('',#504);
#504 = CARTESIAN_POINT('',(27.15,15.875,5.45));
#505 = LINE('',#506,#507);
#506 = CARTESIAN_POINT('',(27.15,15.875,5.45));
#507 = VECTOR('',#508,1.);
#508 = DIRECTION('',(-0.707106781187,-0.707106781187,1.21802425746E-16)
  );
#509 = ORIENTED_EDGE('',*,*,#510,.F.);
#510 = EDGE_CURVE('',#479,#503,#511,.T.);
#511 = CIRCLE('',#512,2.);
#512 = AXIS2_PLACEMENT_3D('',#513,#514,#515);
#513 = CARTESIAN_POINT('',(27.15,17.875,5.45));
#514 = DIRECTION('',(1.,-3.697785493223E-32,2.22044604925E-16));
#515 = DIRECTION('',(-2.22044604925E-16,-1.110223024625E-16,1.));
#516 = CONICAL_SURFACE('',#517,2.,0.785398163397);
#517 = AXIS2_PLACEMENT_3D('',#518,#519,#520);
#518 = CARTESIAN_POINT('',(27.15,17.875,5.45));
#519 = DIRECTION('',(-1.,3.697785493223E-32,-2.22044604925E-16));
#520 = DIRECTION('',(-2.22044604925E-16,-1.110223024625E-16,1.));
#521 = ADVANCED_FACE('',(#522),#534,.T.);
#522 = FACE_BOUND('',#523,.T.);
#523 = EDGE_LOOP('',(#524,#525,#526,#527));
#524 = ORIENTED_EDGE('',*,*,#412,.F.);
#525 = ORIENTED_EDGE('',*,*,#123,.F.);
#526 = ORIENTED_EDGE('',*,*,#275,.T.);
#527 = ORIENTED_EDGE('',*,*,#528,.T.);
#528 = EDGE_CURVE('',#268,#387,#529,.T.);
#529 = CIRCLE('',#530,4.);
#530 = AXIS2_PLACEMENT_3D('',#531,#532,#533);
#531 = CARTESIAN_POINT('',(29.2,22.975,-5.339795024398E-16));
#532 = DIRECTION('',(-1.,-5.551115123126E-17,-3.330669073875E-16));
#533 = DIRECTION('',(3.330669073875E-16,3.330669073875E-16,-1.));
#534 = CYLINDRICAL_SURFACE('',#535,4.);
#535 = AXIS2_PLACEMENT_3D('',#536,#537,#538);
#536 = CARTESIAN_POINT('',(26.2,22.975,2.972999872483E-16));
#537 = DIRECTION('',(-1.,1.110223024625E-16,-2.22044604925E-16));
#538 = DIRECTION('',(1.110223024625E-16,-1.,-4.440892098501E-16));
#539 = ADVANCED_FACE('',(#540),#558,.F.);
#540 = FACE_BOUND('',#541,.F.);
#541 = EDGE_LOOP('',(#542,#543,#544,#552));
#542 = ORIENTED_EDGE('',*,*,#502,.F.);
#543 = ORIENTED_EDGE('',*,*,#82,.T.);
#544 = ORIENTED_EDGE('',*,*,#545,.T.);
#545 = EDGE_CURVE('',#83,#546,#548,.T.);
#546 = VERTEX_POINT('',#547);
#547 = CARTESIAN_POINT('',(27.15,15.875,-5.45));
#548 = LINE('',#549,#550);
#549 = CARTESIAN_POINT('',(27.175,15.9,-5.45));
#550 = VECTOR('',#551,1.);
#551 = DIRECTION('',(-0.707106781187,-0.707106781187,-2.355138688026E-16
    ));
#552 = ORIENTED_EDGE('',*,*,#553,.F.);
#553 = EDGE_CURVE('',#503,#546,#554,.T.);
#554 = LINE('',#555,#556);
#555 = CARTESIAN_POINT('',(27.15,15.875,5.45));
#556 = VECTOR('',#557,1.);
#557 = DIRECTION('',(2.22044604925E-16,1.110223024625E-16,-1.));
#558 = PLANE('',#559);
#559 = AXIS2_PLACEMENT_3D('',#560,#561,#562);
#560 = CARTESIAN_POINT('',(27.175,15.9,5.45));
#561 = DIRECTION('',(-0.707106781187,0.707106781187,6.657900646347E-19)
  );
#562 = DIRECTION('',(1.660626690242E-16,1.670042383633E-16,-1.));
#563 = ADVANCED_FACE('',(#564),#583,.T.);
#564 = FACE_BOUND('',#565,.F.);
#565 = EDGE_LOOP('',(#566,#567,#568,#576));
#566 = ORIENTED_EDGE('',*,*,#545,.F.);
#567 = ORIENTED_EDGE('',*,*,#90,.T.);
#568 = ORIENTED_EDGE('',*,*,#569,.T.);
#569 = EDGE_CURVE('',#91,#570,#572,.T.);
#570 = VERTEX_POINT('',#571);
#571 = CARTESIAN_POINT('',(27.15,17.875,-7.45));
#572 = LINE('',#573,#574);
#573 = CARTESIAN_POINT('',(27.15,17.875,-7.45));
#574 = VECTOR('',#575,1.);
#575 = DIRECTION('',(-0.707106781187,-2.788116716143E-16,-0.707106781187
    ));
#576 = ORIENTED_EDGE('',*,*,#577,.F.);
#577 = EDGE_CURVE('',#546,#570,#578,.T.);
#578 = CIRCLE('',#579,2.);
#579 = AXIS2_PLACEMENT_3D('',#580,#581,#582);
#580 = CARTESIAN_POINT('',(27.15,17.875,-5.45));
#581 = DIRECTION('',(1.,-3.697785493223E-32,2.22044604925E-16));
#582 = DIRECTION('',(8.628166150855E-32,-1.,-5.551115123126E-16));
#583 = CONICAL_SURFACE('',#584,2.,0.785398163397);
#584 = AXIS2_PLACEMENT_3D('',#585,#586,#587);
#585 = CARTESIAN_POINT('',(27.15,17.875,-5.45));
#586 = DIRECTION('',(-1.,3.697785493223E-32,-2.22044604925E-16));
#587 = DIRECTION('',(8.628166150855E-32,-1.,-5.551115123126E-16));
#588 = ADVANCED_FACE('',(#589),#623,.F.);
#589 = FACE_BOUND('',#590,.F.);
#590 = EDGE_LOOP('',(#591,#592,#593,#599,#600,#601,#609,#617));
#591 = ORIENTED_EDGE('',*,*,#107,.F.);
#592 = ORIENTED_EDGE('',*,*,#282,.F.);
#593 = ORIENTED_EDGE('',*,*,#594,.T.);
#594 = EDGE_CURVE('',#283,#398,#595,.T.);
#595 = LINE('',#596,#597);
#596 = CARTESIAN_POINT('',(27.8,28.03,-7.45));
#597 = VECTOR('',#598,1.);
#598 = DIRECTION('',(-1.110223024625E-16,6.162975822039E-33,1.));
#599 = ORIENTED_EDGE('',*,*,#405,.F.);
#600 = ORIENTED_EDGE('',*,*,#460,.F.);
#601 = ORIENTED_EDGE('',*,*,#602,.F.);
#602 = EDGE_CURVE('',#603,#452,#605,.T.);
#603 = VERTEX_POINT('',#604);
#604 = CARTESIAN_POINT('',(26.2,28.03,-7.45));
#605 = LINE('',#606,#607);
#606 = CARTESIAN_POINT('',(26.2,28.03,-7.45));
#607 = VECTOR('',#608,1.);
#608 = DIRECTION('',(-1.110223024625E-16,-5.551115123126E-17,1.));
#609 = ORIENTED_EDGE('',*,*,#610,.T.);
#610 = EDGE_CURVE('',#603,#611,#613,.T.);
#611 = VERTEX_POINT('',#612);
#612 = CARTESIAN_POINT('',(27.15,28.03,-7.45));
#613 = LINE('',#614,#615);
#614 = CARTESIAN_POINT('',(26.2,28.03,-7.45));
#615 = VECTOR('',#616,1.);
#616 = DIRECTION('',(1.,-6.162975822039E-33,5.551115123126E-17));
#617 = ORIENTED_EDGE('',*,*,#618,.F.);
#618 = EDGE_CURVE('',#100,#611,#619,.T.);
#619 = LINE('',#620,#621);
#620 = CARTESIAN_POINT('',(26.925,28.03,-7.675));
#621 = VECTOR('',#622,1.);
#622 = DIRECTION('',(-0.707106781187,3.925231146709E-17,-0.707106781187)
  );
#623 = PLANE('',#624);
#624 = AXIS2_PLACEMENT_3D('',#625,#626,#627);
#625 = CARTESIAN_POINT('',(26.2,28.03,-7.45));
#626 = DIRECTION('',(-3.08148791102E-33,-1.,-5.551115123126E-17));
#627 = DIRECTION('',(-1.110223024625E-16,-5.551115123126E-17,1.));
#628 = ADVANCED_FACE('',(#629),#640,.F.);
#629 = FACE_BOUND('',#630,.F.);
#630 = EDGE_LOOP('',(#631,#632,#633,#634));
#631 = ORIENTED_EDGE('',*,*,#569,.F.);
#632 = ORIENTED_EDGE('',*,*,#99,.T.);
#633 = ORIENTED_EDGE('',*,*,#618,.T.);
#634 = ORIENTED_EDGE('',*,*,#635,.F.);
#635 = EDGE_CURVE('',#570,#611,#636,.T.);
#636 = LINE('',#637,#638);
#637 = CARTESIAN_POINT('',(27.15,17.875,-7.45));
#638 = VECTOR('',#639,1.);
#639 = DIRECTION('',(-1.232595164408E-32,1.,2.22044604925E-16));
#640 = PLANE('',#641);
#641 = AXIS2_PLACEMENT_3D('',#642,#643,#644);
#642 = CARTESIAN_POINT('',(27.175,17.875,-7.425));
#643 = DIRECTION('',(-0.707106781187,-1.410604034727E-16,0.707106781187)
  );
#644 = DIRECTION('',(1.127753461009E-17,1.,2.107670703149E-16));
#645 = ADVANCED_FACE('',(#646),#664,.F.);
#646 = FACE_BOUND('',#647,.F.);
#647 = EDGE_LOOP('',(#648,#656,#662,#663));
#648 = ORIENTED_EDGE('',*,*,#649,.F.);
#649 = EDGE_CURVE('',#650,#244,#652,.T.);
#650 = VERTEX_POINT('',#651);
#651 = CARTESIAN_POINT('',(26.2,35.075,-7.45));
#652 = LINE('',#653,#654);
#653 = CARTESIAN_POINT('',(26.2,35.075,-7.45));
#654 = VECTOR('',#655,1.);
#655 = DIRECTION('',(1.,-5.551115123126E-17,1.110223024625E-16));
#656 = ORIENTED_EDGE('',*,*,#657,.F.);
#657 = EDGE_CURVE('',#181,#650,#658,.T.);
#658 = LINE('',#659,#660);
#659 = CARTESIAN_POINT('',(26.2,17.875,-7.45));
#660 = VECTOR('',#661,1.);
#661 = DIRECTION('',(-1.110223024625E-16,1.,3.330669073875E-16));
#662 = ORIENTED_EDGE('',*,*,#180,.T.);
#663 = ORIENTED_EDGE('',*,*,#251,.T.);
#664 = PLANE('',#665);
#665 = AXIS2_PLACEMENT_3D('',#666,#667,#668);
#666 = CARTESIAN_POINT('',(26.2,17.875,-7.45));
#667 = DIRECTION('',(-1.665334536938E-16,-1.110223024625E-16,1.));
#668 = DIRECTION('',(-5.551115123126E-17,1.,2.775557561563E-16));
#669 = ADVANCED_FACE('',(#670),#742,.T.);
#670 = FACE_BOUND('',#671,.T.);
#671 = EDGE_LOOP('',(#672,#673,#674,#675,#683,#692,#700,#709,#717,#726,
    #734,#741));
#672 = ORIENTED_EDGE('',*,*,#190,.F.);
#673 = ORIENTED_EDGE('',*,*,#451,.F.);
#674 = ORIENTED_EDGE('',*,*,#602,.F.);
#675 = ORIENTED_EDGE('',*,*,#676,.F.);
#676 = EDGE_CURVE('',#677,#603,#679,.T.);
#677 = VERTEX_POINT('',#678);
#678 = CARTESIAN_POINT('',(26.2,17.875,-7.45));
#679 = LINE('',#680,#681);
#680 = CARTESIAN_POINT('',(26.2,17.875,-7.45));
#681 = VECTOR('',#682,1.);
#682 = DIRECTION('',(-1.110223024625E-16,1.,3.330669073875E-16));
#683 = ORIENTED_EDGE('',*,*,#684,.T.);
#684 = EDGE_CURVE('',#677,#685,#687,.T.);
#685 = VERTEX_POINT('',#686);
#686 = CARTESIAN_POINT('',(26.2,15.875,-5.45));
#687 = CIRCLE('',#688,2.);
#688 = AXIS2_PLACEMENT_3D('',#689,#690,#691);
#689 = CARTESIAN_POINT('',(26.2,17.875,-5.45));
#690 = DIRECTION('',(-1.,-1.110223024625E-16,-2.22044604925E-16));
#691 = DIRECTION('',(1.110223024625E-16,-1.,-3.330669073875E-16));
#692 = ORIENTED_EDGE('',*,*,#693,.F.);
#693 = EDGE_CURVE('',#694,#685,#696,.T.);
#694 = VERTEX_POINT('',#695);
#695 = CARTESIAN_POINT('',(26.2,15.875,5.45));
#696 = LINE('',#697,#698);
#697 = CARTESIAN_POINT('',(26.2,15.875,5.45));
#698 = VECTOR('',#699,1.);
#699 = DIRECTION('',(2.22044604925E-16,-2.465190328816E-32,-1.));
#700 = ORIENTED_EDGE('',*,*,#701,.T.);
#701 = EDGE_CURVE('',#694,#702,#704,.T.);
#702 = VERTEX_POINT('',#703);
#703 = CARTESIAN_POINT('',(26.2,17.875,7.45));
#704 = CIRCLE('',#705,2.);
#705 = AXIS2_PLACEMENT_3D('',#706,#707,#708);
#706 = CARTESIAN_POINT('',(26.2,17.875,5.45));
#707 = DIRECTION('',(-1.,-1.110223024625E-16,-2.22044604925E-16));
#708 = DIRECTION('',(1.110223024625E-16,-1.,-3.330669073875E-16));
#709 = ORIENTED_EDGE('',*,*,#710,.F.);
#710 = EDGE_CURVE('',#711,#702,#713,.T.);
#711 = VERTEX_POINT('',#712);
#712 = CARTESIAN_POINT('',(26.2,35.075,7.45));
#713 = LINE('',#714,#715);
#714 = CARTESIAN_POINT('',(26.2,35.075,7.45));
#715 = VECTOR('',#716,1.);
#716 = DIRECTION('',(1.110223024625E-16,-1.,-3.330669073875E-16));
#717 = ORIENTED_EDGE('',*,*,#718,.T.);
#718 = EDGE_CURVE('',#711,#719,#721,.T.);
#719 = VERTEX_POINT('',#720);
#720 = CARTESIAN_POINT('',(26.2,37.075,5.45));
#721 = CIRCLE('',#722,2.);
#722 = AXIS2_PLACEMENT_3D('',#723,#724,#725);
#723 = CARTESIAN_POINT('',(26.2,35.075,5.45));
#724 = DIRECTION('',(-1.,-1.110223024625E-16,-2.22044604925E-16));
#725 = DIRECTION('',(1.110223024625E-16,-1.,-3.330669073875E-16));
#726 = ORIENTED_EDGE('',*,*,#727,.F.);
#727 = EDGE_CURVE('',#728,#719,#730,.T.);
#728 = VERTEX_POINT('',#729);
#729 = CARTESIAN_POINT('',(26.2,37.075,-5.45));
#730 = LINE('',#731,#732);
#731 = CARTESIAN_POINT('',(26.2,37.075,-5.45));
#732 = VECTOR('',#733,1.);
#733 = DIRECTION('',(-2.22044604925E-16,2.465190328816E-32,1.));
#734 = ORIENTED_EDGE('',*,*,#735,.T.);
#735 = EDGE_CURVE('',#728,#650,#736,.T.);
#736 = CIRCLE('',#737,2.);
#737 = AXIS2_PLACEMENT_3D('',#738,#739,#740);
#738 = CARTESIAN_POINT('',(26.2,35.075,-5.45));
#739 = DIRECTION('',(-1.,-1.110223024625E-16,-2.22044604925E-16));
#740 = DIRECTION('',(1.110223024625E-16,-1.,-3.330669073875E-16));
#741 = ORIENTED_EDGE('',*,*,#657,.F.);
#742 = PLANE('',#743);
#743 = AXIS2_PLACEMENT_3D('',#744,#745,#746);
#744 = CARTESIAN_POINT('',(26.2,27.079543938926,-0.182770599559));
#745 = DIRECTION('',(-1.,-8.98891939856E-19,-2.051266719354E-16));
#746 = DIRECTION('',(-2.051266719354E-16,-1.110223024625E-16,1.));
#747 = ADVANCED_FACE('',(#748),#754,.F.);
#748 = FACE_BOUND('',#749,.F.);
#749 = EDGE_LOOP('',(#750,#751,#752,#753));
#750 = ORIENTED_EDGE('',*,*,#594,.F.);
#751 = ORIENTED_EDGE('',*,*,#290,.F.);
#752 = ORIENTED_EDGE('',*,*,#212,.F.);
#753 = ORIENTED_EDGE('',*,*,#397,.F.);
#754 = PLANE('',#755);
#755 = AXIS2_PLACEMENT_3D('',#756,#757,#758);
#756 = CARTESIAN_POINT('',(27.8,28.83,-1.513531133203));
#757 = DIRECTION('',(1.,-5.551115123126E-17,5.551115123126E-17));
#758 = DIRECTION('',(-1.110223024625E-16,6.162975822039E-33,1.));
#759 = ADVANCED_FACE('',(#760),#785,.T.);
#760 = FACE_BOUND('',#761,.F.);
#761 = EDGE_LOOP('',(#762,#770,#771,#779));
#762 = ORIENTED_EDGE('',*,*,#763,.F.);
#763 = EDGE_CURVE('',#266,#764,#766,.T.);
#764 = VERTEX_POINT('',#765);
#765 = CARTESIAN_POINT('',(29.7,29.975,-3.5));
#766 = LINE('',#767,#768);
#767 = CARTESIAN_POINT('',(29.2,29.975,-4.));
#768 = VECTOR('',#769,1.);
#769 = DIRECTION('',(0.707106781187,-2.436048514919E-16,0.707106781187)
  );
#770 = ORIENTED_EDGE('',*,*,#265,.T.);
#771 = ORIENTED_EDGE('',*,*,#772,.T.);
#772 = EDGE_CURVE('',#268,#773,#775,.T.);
#773 = VERTEX_POINT('',#774);
#774 = CARTESIAN_POINT('',(29.7,22.975,-3.5));
#775 = LINE('',#776,#777);
#776 = CARTESIAN_POINT('',(29.2,22.975,-4.));
#777 = VECTOR('',#778,1.);
#778 = DIRECTION('',(0.707106781187,-2.747661802697E-16,0.707106781187)
  );
#779 = ORIENTED_EDGE('',*,*,#780,.F.);
#780 = EDGE_CURVE('',#764,#773,#781,.T.);
#781 = LINE('',#782,#783);
#782 = CARTESIAN_POINT('',(29.7,29.975,-3.5));
#783 = VECTOR('',#784,1.);
#784 = DIRECTION('',(5.551115123126E-17,-1.,-5.154606900045E-16));
#785 = PLANE('',#786);
#786 = AXIS2_PLACEMENT_3D('',#787,#788,#789);
#787 = CARTESIAN_POINT('',(29.45,29.975,-3.75));
#788 = DIRECTION('',(0.707106781187,1.663537764436E-16,-0.707106781187)
  );
#789 = DIRECTION('',(-2.643299209075E-17,1.,4.86382530864E-16));
#790 = ADVANCED_FACE('',(#791),#802,.T.);
#791 = FACE_BOUND('',#792,.T.);
#792 = EDGE_LOOP('',(#793,#799,#800,#801));
#793 = ORIENTED_EDGE('',*,*,#794,.T.);
#794 = EDGE_CURVE('',#728,#315,#795,.T.);
#795 = LINE('',#796,#797);
#796 = CARTESIAN_POINT('',(26.2,37.075,-5.45));
#797 = VECTOR('',#798,1.);
#798 = DIRECTION('',(1.,-5.551115123126E-17,1.110223024625E-16));
#799 = ORIENTED_EDGE('',*,*,#322,.F.);
#800 = ORIENTED_EDGE('',*,*,#649,.F.);
#801 = ORIENTED_EDGE('',*,*,#735,.F.);
#802 = CYLINDRICAL_SURFACE('',#803,2.);
#803 = AXIS2_PLACEMENT_3D('',#804,#805,#806);
#804 = CARTESIAN_POINT('',(26.2,35.075,-5.45));
#805 = DIRECTION('',(-1.,5.551115123126E-17,-1.665334536938E-16));
#806 = DIRECTION('',(5.551115123126E-17,-1.,-2.775557561563E-16));
#807 = ADVANCED_FACE('',(#808),#827,.T.);
#808 = FACE_BOUND('',#809,.F.);
#809 = EDGE_LOOP('',(#810,#818,#819,#820));
#810 = ORIENTED_EDGE('',*,*,#811,.F.);
#811 = EDGE_CURVE('',#340,#812,#814,.T.);
#812 = VERTEX_POINT('',#813);
#813 = CARTESIAN_POINT('',(29.7,29.975,3.5));
#814 = LINE('',#815,#816);
#815 = CARTESIAN_POINT('',(29.45,29.975,3.75));
#816 = VECTOR('',#817,1.);
#817 = DIRECTION('',(0.707106781187,1.177569344013E-16,-0.707106781187)
  );
#818 = ORIENTED_EDGE('',*,*,#347,.T.);
#819 = ORIENTED_EDGE('',*,*,#763,.T.);
#820 = ORIENTED_EDGE('',*,*,#821,.F.);
#821 = EDGE_CURVE('',#812,#764,#822,.T.);
#822 = CIRCLE('',#823,3.5);
#823 = AXIS2_PLACEMENT_3D('',#824,#825,#826);
#824 = CARTESIAN_POINT('',(29.7,29.975,3.402000903208E-15));
#825 = DIRECTION('',(-1.,-5.551115123126E-17,-3.330669073875E-16));
#826 = DIRECTION('',(-3.330669073875E-16,-1.665334536938E-16,1.));
#827 = CONICAL_SURFACE('',#828,4.,0.785398163397);
#828 = AXIS2_PLACEMENT_3D('',#829,#830,#831);
#829 = CARTESIAN_POINT('',(29.2,29.975,3.263223025129E-15));
#830 = DIRECTION('',(-1.,5.551115123126E-17,-2.775557561563E-16));
#831 = DIRECTION('',(-3.330669073875E-16,-1.665334536938E-16,1.));
#832 = ADVANCED_FACE('',(#833),#844,.F.);
#833 = FACE_BOUND('',#834,.F.);
#834 = EDGE_LOOP('',(#835,#836,#837,#843));
#835 = ORIENTED_EDGE('',*,*,#794,.T.);
#836 = ORIENTED_EDGE('',*,*,#372,.T.);
#837 = ORIENTED_EDGE('',*,*,#838,.F.);
#838 = EDGE_CURVE('',#719,#365,#839,.T.);
#839 = LINE('',#840,#841);
#840 = CARTESIAN_POINT('',(26.2,37.075,5.45));
#841 = VECTOR('',#842,1.);
#842 = DIRECTION('',(1.,-5.551115123126E-17,1.110223024625E-16));
#843 = ORIENTED_EDGE('',*,*,#727,.F.);
#844 = PLANE('',#845);
#845 = AXIS2_PLACEMENT_3D('',#846,#847,#848);
#846 = CARTESIAN_POINT('',(26.2,37.075,-5.45));
#847 = DIRECTION('',(5.551115123126E-17,-1.,-2.22044604925E-16));
#848 = DIRECTION('',(-2.22044604925E-16,-5.551115123126E-17,1.));
#849 = ADVANCED_FACE('',(#850),#868,.T.);
#850 = FACE_BOUND('',#851,.F.);
#851 = EDGE_LOOP('',(#852,#860,#861,#862));
#852 = ORIENTED_EDGE('',*,*,#853,.F.);
#853 = EDGE_CURVE('',#387,#854,#856,.T.);
#854 = VERTEX_POINT('',#855);
#855 = CARTESIAN_POINT('',(29.7,22.975,3.5));
#856 = LINE('',#857,#858);
#857 = CARTESIAN_POINT('',(29.2,22.975,4.));
#858 = VECTOR('',#859,1.);
#859 = DIRECTION('',(0.707106781187,2.82857162959E-16,-0.707106781187));
#860 = ORIENTED_EDGE('',*,*,#386,.T.);
#861 = ORIENTED_EDGE('',*,*,#811,.T.);
#862 = ORIENTED_EDGE('',*,*,#863,.F.);
#863 = EDGE_CURVE('',#854,#812,#864,.T.);
#864 = LINE('',#865,#866);
#865 = CARTESIAN_POINT('',(29.7,22.975,3.5));
#866 = VECTOR('',#867,1.);
#867 = DIRECTION('',(-5.551115123126E-17,1.,3.885780586188E-16));
#868 = PLANE('',#869);
#869 = AXIS2_PLACEMENT_3D('',#870,#871,#872);
#870 = CARTESIAN_POINT('',(29.45,22.975,3.75));
#871 = DIRECTION('',(0.707106781187,-1.474713262565E-16,0.707106781187)
  );
#872 = DIRECTION('',(9.001105448288E-17,-1.,-3.540781553672E-16));
#873 = ADVANCED_FACE('',(#874),#885,.T.);
#874 = FACE_BOUND('',#875,.T.);
#875 = EDGE_LOOP('',(#876,#882,#883,#884));
#876 = ORIENTED_EDGE('',*,*,#877,.T.);
#877 = EDGE_CURVE('',#711,#429,#878,.T.);
#878 = LINE('',#879,#880);
#879 = CARTESIAN_POINT('',(26.2,35.075,7.45));
#880 = VECTOR('',#881,1.);
#881 = DIRECTION('',(1.,-5.551115123126E-17,1.110223024625E-16));
#882 = ORIENTED_EDGE('',*,*,#436,.F.);
#883 = ORIENTED_EDGE('',*,*,#838,.F.);
#884 = ORIENTED_EDGE('',*,*,#718,.F.);
#885 = CYLINDRICAL_SURFACE('',#886,2.);
#886 = AXIS2_PLACEMENT_3D('',#887,#888,#889);
#887 = CARTESIAN_POINT('',(26.2,35.075,5.45));
#888 = DIRECTION('',(-1.,5.551115123126E-17,-1.665334536938E-16));
#889 = DIRECTION('',(5.551115123126E-17,-1.,-2.775557561563E-16));
#890 = ADVANCED_FACE('',(#891),#902,.F.);
#891 = FACE_BOUND('',#892,.F.);
#892 = EDGE_LOOP('',(#893,#894,#895,#901));
#893 = ORIENTED_EDGE('',*,*,#877,.T.);
#894 = ORIENTED_EDGE('',*,*,#486,.T.);
#895 = ORIENTED_EDGE('',*,*,#896,.F.);
#896 = EDGE_CURVE('',#702,#479,#897,.T.);
#897 = LINE('',#898,#899);
#898 = CARTESIAN_POINT('',(26.2,17.875,7.45));
#899 = VECTOR('',#900,1.);
#900 = DIRECTION('',(1.,-5.551115123126E-17,1.110223024625E-16));
#901 = ORIENTED_EDGE('',*,*,#710,.F.);
#902 = PLANE('',#903);
#903 = AXIS2_PLACEMENT_3D('',#904,#905,#906);
#904 = CARTESIAN_POINT('',(26.2,35.075,7.45));
#905 = DIRECTION('',(1.665334536938E-16,1.110223024625E-16,-1.));
#906 = DIRECTION('',(5.551115123126E-17,-1.,-2.775557561563E-16));
#907 = ADVANCED_FACE('',(#908),#919,.T.);
#908 = FACE_BOUND('',#909,.T.);
#909 = EDGE_LOOP('',(#910,#916,#917,#918));
#910 = ORIENTED_EDGE('',*,*,#911,.T.);
#911 = EDGE_CURVE('',#694,#503,#912,.T.);
#912 = LINE('',#913,#914);
#913 = CARTESIAN_POINT('',(26.2,15.875,5.45));
#914 = VECTOR('',#915,1.);
#915 = DIRECTION('',(1.,-5.551115123126E-17,1.110223024625E-16));
#916 = ORIENTED_EDGE('',*,*,#510,.F.);
#917 = ORIENTED_EDGE('',*,*,#896,.F.);
#918 = ORIENTED_EDGE('',*,*,#701,.F.);
#919 = CYLINDRICAL_SURFACE('',#920,2.);
#920 = AXIS2_PLACEMENT_3D('',#921,#922,#923);
#921 = CARTESIAN_POINT('',(26.2,17.875,5.45));
#922 = DIRECTION('',(-1.,5.551115123126E-17,-1.665334536938E-16));
#923 = DIRECTION('',(5.551115123126E-17,-1.,-2.775557561563E-16));
#924 = ADVANCED_FACE('',(#925),#937,.T.);
#925 = FACE_BOUND('',#926,.F.);
#926 = EDGE_LOOP('',(#927,#928,#929,#930));
#927 = ORIENTED_EDGE('',*,*,#772,.F.);
#928 = ORIENTED_EDGE('',*,*,#528,.T.);
#929 = ORIENTED_EDGE('',*,*,#853,.T.);
#930 = ORIENTED_EDGE('',*,*,#931,.F.);
#931 = EDGE_CURVE('',#773,#854,#932,.T.);
#932 = CIRCLE('',#933,3.5);
#933 = AXIS2_PLACEMENT_3D('',#934,#935,#936);
#934 = CARTESIAN_POINT('',(29.7,22.975,-3.952016243616E-16));
#935 = DIRECTION('',(-1.,-5.551115123126E-17,-3.330669073875E-16));
#936 = DIRECTION('',(3.330669073875E-16,3.330669073875E-16,-1.));
#937 = CONICAL_SURFACE('',#938,4.,0.785398163397);
#938 = AXIS2_PLACEMENT_3D('',#939,#940,#941);
#939 = CARTESIAN_POINT('',(29.2,22.975,-5.339795024398E-16));
#940 = DIRECTION('',(-1.,5.551115123126E-17,-2.775557561563E-16));
#941 = DIRECTION('',(3.330669073875E-16,3.330669073875E-16,-1.));
#942 = ADVANCED_FACE('',(#943),#954,.F.);
#943 = FACE_BOUND('',#944,.F.);
#944 = EDGE_LOOP('',(#945,#946,#947,#953));
#945 = ORIENTED_EDGE('',*,*,#911,.T.);
#946 = ORIENTED_EDGE('',*,*,#553,.T.);
#947 = ORIENTED_EDGE('',*,*,#948,.F.);
#948 = EDGE_CURVE('',#685,#546,#949,.T.);
#949 = LINE('',#950,#951);
#950 = CARTESIAN_POINT('',(26.2,15.875,-5.45));
#951 = VECTOR('',#952,1.);
#952 = DIRECTION('',(1.,-5.551115123126E-17,1.110223024625E-16));
#953 = ORIENTED_EDGE('',*,*,#693,.F.);
#954 = PLANE('',#955);
#955 = AXIS2_PLACEMENT_3D('',#956,#957,#958);
#956 = CARTESIAN_POINT('',(26.2,15.875,5.45));
#957 = DIRECTION('',(-5.551115123126E-17,1.,2.22044604925E-16));
#958 = DIRECTION('',(2.22044604925E-16,5.551115123126E-17,-1.));
#959 = ADVANCED_FACE('',(#960),#971,.T.);
#960 = FACE_BOUND('',#961,.T.);
#961 = EDGE_LOOP('',(#962,#968,#969,#970));
#962 = ORIENTED_EDGE('',*,*,#963,.T.);
#963 = EDGE_CURVE('',#677,#570,#964,.T.);
#964 = LINE('',#965,#966);
#965 = CARTESIAN_POINT('',(26.2,17.875,-7.45));
#966 = VECTOR('',#967,1.);
#967 = DIRECTION('',(1.,-5.551115123126E-17,1.110223024625E-16));
#968 = ORIENTED_EDGE('',*,*,#577,.F.);
#969 = ORIENTED_EDGE('',*,*,#948,.F.);
#970 = ORIENTED_EDGE('',*,*,#684,.F.);
#971 = CYLINDRICAL_SURFACE('',#972,2.);
#972 = AXIS2_PLACEMENT_3D('',#973,#974,#975);
#973 = CARTESIAN_POINT('',(26.2,17.875,-5.45));
#974 = DIRECTION('',(-1.,5.551115123126E-17,-1.665334536938E-16));
#975 = DIRECTION('',(5.551115123126E-17,-1.,-2.775557561563E-16));
#976 = ADVANCED_FACE('',(#977),#983,.F.);
#977 = FACE_BOUND('',#978,.F.);
#978 = EDGE_LOOP('',(#979,#980,#981,#982));
#979 = ORIENTED_EDGE('',*,*,#610,.F.);
#980 = ORIENTED_EDGE('',*,*,#676,.F.);
#981 = ORIENTED_EDGE('',*,*,#963,.T.);
#982 = ORIENTED_EDGE('',*,*,#635,.T.);
#983 = PLANE('',#984);
#984 = AXIS2_PLACEMENT_3D('',#985,#986,#987);
#985 = CARTESIAN_POINT('',(26.2,17.875,-7.45));
#986 = DIRECTION('',(-1.665334536938E-16,-1.110223024625E-16,1.));
#987 = DIRECTION('',(-5.551115123126E-17,1.,2.775557561563E-16));
#988 = ADVANCED_FACE('',(#989),#995,.T.);
#989 = FACE_BOUND('',#990,.T.);
#990 = EDGE_LOOP('',(#991,#992,#993,#994));
#991 = ORIENTED_EDGE('',*,*,#931,.F.);
#992 = ORIENTED_EDGE('',*,*,#780,.F.);
#993 = ORIENTED_EDGE('',*,*,#821,.F.);
#994 = ORIENTED_EDGE('',*,*,#863,.F.);
#995 = PLANE('',#996);
#996 = AXIS2_PLACEMENT_3D('',#997,#998,#999);
#997 = CARTESIAN_POINT('',(29.7,26.475,3.552713678801E-15));
#998 = DIRECTION('',(1.,-1.665334536938E-16,1.665334536938E-16));
#999 = DIRECTION('',(-3.330669073875E-16,4.930380657631E-32,1.));
#1000 = ( GEOMETRIC_REPRESENTATION_CONTEXT(3) 
GLOBAL_UNCERTAINTY_ASSIGNED_CONTEXT((#1004)) 
GLOBAL_UNIT_ASSIGNED_CONTEXT((#1001,#1002,#1003)) REPRESENTATION_CONTEXT
('Context #1','3D Context with UNIT and UNCERTAINTY') );
#1001 = ( LENGTH_UNIT() NAMED_UNIT(*) SI_UNIT(.MILLI.,.METRE.) );
#1002 = ( NAMED_UNIT(*) PLANE_ANGLE_UNIT() SI_UNIT($,.RADIAN.) );
#1003 = ( NAMED_UNIT(*) SI_UNIT($,.STERADIAN.) SOLID_ANGLE_UNIT() );
#1004 = UNCERTAINTY_MEASURE_WITH_UNIT(LENGTH_MEASURE(1.E-07),#1001,
  'distance_accuracy_value','confusion accuracy');
#1005 = PRODUCT_RELATED_PRODUCT_CATEGORY('part',$,(#7));
#1006 = MECHANICAL_DESIGN_GEOMETRIC_PRESENTATION_REPRESENTATION('',(
    #1007),#1000);
#1007 = STYLED_ITEM('color',(#1008),#15);
#1008 = PRESENTATION_STYLE_ASSIGNMENT((#1009,#1015));
#1009 = SURFACE_STYLE_USAGE(.BOTH.,#1010);
#1010 = SURFACE_SIDE_STYLE('',(#1011));
#1011 = SURFACE_STYLE_FILL_AREA(#1012);
#1012 = FILL_AREA_STYLE('',(#1013));
#1013 = FILL_AREA_STYLE_COLOUR('',#1014);
#1014 = COLOUR_RGB('',0.800000010877,0.800000010877,0.800000010877);
#1015 = CURVE_STYLE('',#1016,POSITIVE_LENGTH_MEASURE(0.1),#1017);
#1016 = DRAUGHTING_PRE_DEFINED_CURVE_FONT('continuous');
#1017 = COLOUR_RGB('',9.803921802644E-02,9.803921802644E-02,
  9.803921802644E-02);
ENDSEC;
END-ISO-10303-21;
