
CASCADE Topology V1, (c) Matra-Datavision
Locations 16
1
1.000000000000000 0.000000000000000 0.000000000000000 23.399999999999999 
0.000000000000000 1.000000000000000 0.000000000000000 -66.590000000000003 
0.000000000000000 0.000000000000000 1.000000000000000 0.000000000000000 
1
1.000000000000000 0.000000000000000 0.000000000000000 0.000000000000000 
0.000000000000000 1.000000000000000 0.000000000000000 0.000000000000000 
0.000000000000000 0.000000000000000 1.000000000000000 0.000000000000000 
2  2 -1 0
1
1.000000000000000 0.000000000000000 0.000000000000000 0.000000000000000 
0.000000000000000 1.000000000000000 0.000000000000000 0.000000000000000 
0.000000000000000 0.000000000000000 1.000000000000000 0.000000000000000 
1
1.000000000000000 0.000000000000000 0.000000000000000 0.000000000000000 
0.000000000000000 1.000000000000000 0.000000000000000 0.000000000000000 
0.000000000000000 0.000000000000000 1.000000000000000 0.000000000000000 
1
1.000000000000000 0.000000000000000 0.000000000000000 0.000000000000000 
0.000000000000000 1.000000000000000 0.000000000000000 0.000000000000000 
0.000000000000000 0.000000000000000 1.000000000000000 0.000000000000000 
2  4 1 5 1 6 -1 0
2  6 1 5 -1 4 -1 0
2  2 -1 6 1 5 -1 4 -1 0
1
1.000000000000000 0.000000000000000 0.000000000000000 0.000000000000000 
0.000000000000000 1.000000000000000 0.000000000000000 0.000000000000000 
0.000000000000000 0.000000000000000 1.000000000000000 0.580000000000000 
2  4 1 5 1 6 -1 10 1 0
2  10 -1 6 1 5 -1 4 -1 0
2  2 -1 10 -1 6 1 5 -1 4 -1 0
2  6 -1 0
2  4 1 5 1 0
2  6 -1 10 1 0
Curve2ds 12
1 0.00000074707575326 0.00000000000000000 0.00000000000000000 -1.00000000000000000 
1 1.57079707387065026 0.00000000000000000 0.00000000000000000 -1.00000000000000000 
1 0.00000000000000000 0.00000000000000000 1.00000000000000000 0.00000000000000000 
1 0.00000000000000000 -0.57999999999999996 1.00000000000000000 0.00000000000000000 
1 0.00000000000000000 0.00000000000000000 0.00000000000000000 -1.00000000000000000 
1 3.14159265358979312 0.00000000000000000 0.00000000000000000 -1.00000000000000000 
1 0.00000000000000000 0.00000000000000000 1.00000000000000000 0.00000000000000000 
1 0.00000000000000000 -0.57999999999999996 1.00000000000000000 0.00000000000000000 
1 0.00000074707574349 0.00000000000000000 0.00000000000000000 -1.00000000000000000 
1 1.57079707387064049 0.00000000000000000 0.00000000000000000 -1.00000000000000000 
1 0.00000000000000000 0.00000000000000000 1.00000000000000000 0.00000000000000000 
1 0.00000000000000000 -0.57999999999999996 1.00000000000000000 0.00000000000000000 
Curves 18
1 19.94999999999997797 21.95000000000001705 0.00000000000000000 0.00000000000000000 0.00000000000000000 1.00000000000000000 
1 21.94999999999999574 19.95000000000004192 0.00000000000000000 0.00000000000000000 0.00000000000000000 1.00000000000000000 
2 19.94999999999999218 19.95000000000002771 0.00000000000000000 0.00000000000000000 0.00000000000000000 -1.00000000000000000 -0.00000074707576070 0.99999999999972100 0.00000000000000000 0.99999999999972100 0.00000074707576070 0.00000000000000000 2.00000000000000311
2 19.94999999999999218 19.95000000000002771 0.00000000000000000 0.00000000000000000 0.00000000000000000 -1.00000000000000000 -0.00000074707576070 0.99999999999972100 0.00000000000000000 0.99999999999972100 0.00000074707576070 0.00000000000000000 2.00000000000000311
1 21.94999999999999929 -0.00000000000000312 0.00000000000000000 0.00000000000000000 0.00000000000000000 1.00000000000000000 
1 21.94999999999999574 19.95000000000004192 0.00000000000000000 0.00000000000000000 -1.00000000000000000 0.00000000000000000 
1 21.94999999999999574 19.95000000000004192 0.00000000000000000 0.00000000000000000 -1.00000000000000000 0.00000000000000000 
1 -21.94999999999999929 0.00000000000000000 0.00000000000000000 0.00000000000000000 0.00000000000000000 1.00000000000000000 
2 0.00000000000000000 0.00000000000000000 0.00000000000000000 0.00000000000000000 -0.00000000000000000 -1.00000000000000000 1.00000000000000000 -0.00000000000000012 0.00000000000000000 -0.00000000000000012 -1.00000000000000000 0.00000000000000000 21.94999999999999929
2 0.00000000000000000 0.00000000000000000 0.00000000000000000 0.00000000000000000 -0.00000000000000000 -1.00000000000000000 1.00000000000000000 -0.00000000000000012 0.00000000000000000 -0.00000000000000012 -1.00000000000000000 0.00000000000000000 21.94999999999999929
1 -21.94999999999999929 19.94999999999999929 0.00000000000000000 0.00000000000000000 0.00000000000000000 1.00000000000000000 
1 -21.94999999999999929 19.94999999999999929 0.00000000000000000 0.00000000000000000 -1.00000000000000000 0.00000000000000000 
1 -21.94999999999999929 19.94999999999999929 0.00000000000000000 0.00000000000000000 -1.00000000000000000 0.00000000000000000 
1 -19.94999999999999929 21.94999999999999929 0.00000000000000000 0.00000000000000000 0.00000000000000000 1.00000000000000000 
2 -19.94999999999999929 19.94999999999999929 0.00000000000000000 -0.00000000000000000 0.00000000000000000 -1.00000000000000000 -0.99999999999972100 -0.00000074707574380 0.00000000000000000 -0.00000074707574380 0.99999999999972100 0.00000000000000000 2.00000000000000000
2 -19.94999999999999929 19.94999999999999929 0.00000000000000000 -0.00000000000000000 0.00000000000000000 -1.00000000000000000 -0.99999999999972100 -0.00000074707574380 0.00000000000000000 -0.00000074707574380 0.99999999999972100 0.00000000000000000 2.00000000000000000
1 19.94999999999997797 21.94999999999999929 0.00000000000000000 -1.00000000000000000 0.00000000000000000 0.00000000000000000 
1 19.94999999999997797 21.94999999999999929 0.00000000000000000 -1.00000000000000000 0.00000000000000000 0.00000000000000000 
Polygon3D 0
PolygonOnTriangulations 0
Surfaces 8
2 19.94999999999999218 19.95000000000002771 0.00000000000000000 0.00000000000000000 0.00000000000000000 -1.00000000000000000 -0.00000074707576070 0.99999999999972100 0.00000000000000000 0.99999999999972100 0.00000074707576070 0.00000000000000000 2.00000000000000311
1 19.94999999999997797 21.94999999999999929 0.00000000000000000 0.00000000000000000 -1.00000000000000000 0.00000000000000000 -1.00000000000000000 0.00000000000000000 0.00000000000000000 -0.00000000000000000 -0.00000000000000000 -1.00000000000000000 
1 21.94999999999999574 19.95000000000004192 0.00000000000000000 1.00000000000000000 0.00000000000000000 0.00000000000000000 0.00000000000000000 -1.00000000000000000 0.00000000000000000 0.00000000000000000 0.00000000000000000 -1.00000000000000000 
2 0.00000000000000000 0.00000000000000000 0.00000000000000000 0.00000000000000000 0.00000000000000000 -1.00000000000000000 1.00000000000000000 -0.00000000000000012 0.00000000000000000 -0.00000000000000012 -1.00000000000000000 -0.00000000000000000 21.94999999999999929
1 -21.94999999999999929 19.94999999999999929 0.00000000000000000 1.00000000000000000 0.00000000000000000 0.00000000000000000 0.00000000000000000 -1.00000000000000000 0.00000000000000000 0.00000000000000000 0.00000000000000000 -1.00000000000000000 
2 -19.94999999999999929 19.94999999999999929 0.00000000000000000 0.00000000000000000 0.00000000000000000 -1.00000000000000000 -0.99999999999972100 -0.00000074707574380 -0.00000000000000000 -0.00000074707574380 0.99999999999972100 0.00000000000000000 2.00000000000000000
1 0.00000000000000374 3.75967882321783797 0.00000000000000000 0.00000000000000000 0.00000000000000000 1.00000000000000000 1.00000000000000000 0.00000000000000000 -0.00000000000000000 -0.00000000000000000 1.00000000000000000 0.00000000000000000 
1 0.00000000000000374 3.75967882321783797 0.00000000000000000 0.00000000000000000 0.00000000000000000 1.00000000000000000 1.00000000000000000 0.00000000000000000 -0.00000000000000000 -0.00000000000000000 1.00000000000000000 0.00000000000000000 
Triangulations 0

TShapes 48
Ve
0.000000100000016
19.949999999999978 21.950000000000017 0.000000000000000
0 0

0101101
*
Ve
0.000000100000016
19.949999999999978 21.950000000000017 0.580000000000000
0 0

0101101
*
Ed
 0.000000100000016 1 1 0
1  1 0 0.000000000000000 0.580000000000000
2  1 1 0 0.000000000000000 0.580000000000000
4 G1 1 0 2 0
0

0101000
+48 3 -47 3 *
Ve
0.000000100000000
21.949999999999996 19.950000000000042 0.000000000000000
0 0

0101101
*
Ve
0.000000100000000
21.949999999999996 19.950000000000042 0.580000000000000
0 0

0101101
*
Ed
 0.000000100000000 1 1 0
1  2 0 0.000000000000000 0.580000000000000
2  2 1 0 0.000000000000000 0.580000000000000
4 G1 1 0 3 0
0

0101000
+45 3 -44 3 *
Ed
 0.000000100000000 1 1 0
1  3 0 0.000000747075753 1.570797073870650
2  3 1 8 0.000000747075753 1.570797073870650
0

0101000
+48 9 -45 9 *
Ed
 0.000000100000000 1 1 0
1  4 0 0.000000747075753 1.570797073870650
2  4 1 12 0.000000747075753 1.570797073870650
0

0101000
+47 13 -44 13 *
Wi

0101100
+46 0 -43 0 -42 7 +41 11 *
Fa
0  0.000000100000000 1 0

0111000
+40 0 *
Ve
0.000000100000002
21.949999999999999 -0.000000000000003 0.000000000000000
0 0

0101101
*
Ve
0.000000100000002
21.949999999999999 -0.000000000000003 0.580000000000000
0 0

0101101
*
Ed
 0.000000100000002 1 1 0
1  5 0 0.000000000000000 0.580000000000000
2  5 4 0 0.000000000000000 0.580000000000000
4 G1 3 0 4 0
0

0101000
+38 3 -37 3 *
Ed
 0.000000100000000 1 1 0
1  6 0 0.000000000000000 19.950000000000045
0

0101000
+45 9 -38 9 *
Ed
 0.000000100000000 1 1 0
1  7 0 0.000000000000000 19.950000000000045
0

0101000
+44 13 -37 13 *
Wi

0101100
+43 0 -36 0 -35 7 +34 11 *
Fa
0  0.000000100000000 3 0

0111000
+33 0 *
Ve
0.000000100000000
-21.949999999999999 0.000000000000000 0.000000000000000
0 0

0101101
*
Ve
0.000000100000000
-21.949999999999999 0.000000000000000 0.580000000000000
0 0

0101101
*
Ed
 0.000000100000000 1 1 0
1  8 0 0.000000000000000 0.580000000000000
2  6 4 0 0.000000000000000 0.580000000000000
4 G1 4 0 5 0
0

0101000
+31 3 -30 3 *
Ed
 0.000000100000000 1 1 0
1  9 0 0.000000000000000 3.141592653589793
2  7 4 8 0.000000000000000 3.141592653589793
0

0101000
+38 9 -31 9 *
Ed
 0.000000100000000 1 1 0
1  10 0 0.000000000000000 3.141592653589793
2  8 4 12 0.000000000000000 3.141592653589793
0

0101000
+37 13 -30 13 *
Wi

0101100
+36 0 -29 0 -28 7 +27 11 *
Fa
0  0.000000100000000 4 0

0111000
+26 0 *
Ve
0.000000100000000
-21.949999999999999 19.949999999999999 0.000000000000000
0 0

0101101
*
Ve
0.000000100000000
-21.949999999999999 19.949999999999999 0.580000000000000
0 0

0101101
*
Ed
 0.000000100000000 1 1 0
1  11 0 0.000000000000000 0.580000000000000
2  9 6 0 0.000000000000000 0.580000000000000
4 G1 5 0 6 0
0

0101000
+24 3 -23 3 *
Ed
 0.000000100000000 1 1 0
1  12 0 0.000000000000000 19.949999999999999
0

0101000
+24 9 -31 9 *
Ed
 0.000000100000000 1 1 0
1  13 0 0.000000000000000 19.949999999999999
0

0101000
+23 13 -30 13 *
Wi

0101100
+22 0 -29 0 -21 7 +20 11 *
Fa
0  0.000000100000000 5 0

0111000
+19 0 *
Ve
0.000000100000000
-19.949999999999999 21.949999999999999 0.000000000000000
0 0

0101101
*
Ve
0.000000100000000
-19.949999999999999 21.949999999999999 0.580000000000000
0 0

0101101
*
Ed
 0.000000100000000 1 1 0
1  14 0 0.000000000000000 0.580000000000000
2  10 6 0 0.000000000000000 0.580000000000000
4 G1 6 0 2 0
0

0101000
+17 3 -16 3 *
Ed
 0.000000100000000 1 1 0
1  15 0 0.000000747075743 1.570797073870640
2  11 6 8 0.000000747075743 1.570797073870640
0

0101000
+24 9 -17 9 *
Ed
 0.000000100000000 1 1 0
1  16 0 0.000000747075743 1.570797073870640
2  12 6 12 0.000000747075743 1.570797073870640
0

0101000
+23 13 -16 13 *
Wi

0101100
+22 0 -15 0 -14 7 +13 11 *
Fa
0  0.000000100000000 6 0

0111000
+12 0 *
Ed
 0.000000100000000 1 1 0
1  17 0 0.000000000000000 39.899999999999977
0

0101000
+48 9 -17 9 *
Ed
 0.000000100000000 1 1 0
1  18 0 0.000000000000000 39.899999999999977
0

0101000
+47 13 -16 13 *
Wi

0101100
+46 0 -15 0 -10 7 +9 11 *
Fa
0  0.000000100000000 2 0

0111000
+8 0 *
Wi

0101100
+42 0 +35 0 +28 0 -21 0 +14 0 -10 0 *
Fa
0  0.000000100000000 7 0

0111000
-6 15 *
Wi

0101100
+41 0 +34 0 +27 0 -20 0 +13 0 -9 0 *
Fa
0  0.000000100000000 8 0

0111000
-4 15 *
Sh

0101100
-39 0 -32 0 -25 0 +18 0 -11 0 +7 0 +5 14 -3 16 *
So

0100000
-2 0 *

+1 1 