%TF.GenerationSoftware,KiCad,Pcbnew,8.0.9*%
%TF.CreationDate,2026-09-15T11:56:06-04:00*%
%TF.ProjectId,tangara-faceplate,74616e67-6172-4612-9d66-616365706c61,rev?*%
%TF.SameCoordinates,Original*%
%TF.FileFunction,Soldermask,Bot*%
%TF.FilePolarity,Negative*%
%FSLAX46Y46*%
G04 Gerber Fmt 4.6, Leading zero omitted, Abs format (unit mm)*
G04 Created by KiCad (PCBNEW 8.0.9) date 2026-09-15 11:56:06*
%MOMM*%
%LPD*%
G01*
G04 APERTURE LIST*
G04 Aperture macros list*
%AMRoundRect*
0 Rectangle with rounded corners*
0 $1 Rounding radius*
0 $2 $3 $4 $5 $6 $7 $8 $9 X,Y pos of 4 corners*
0 Add a 4 corners polygon primitive as box body*
4,1,4,$2,$3,$4,$5,$6,$7,$8,$9,$2,$3,0*
0 Add four circle primitives for the rounded corners*
1,1,$1+$1,$2,$3*
1,1,$1+$1,$4,$5*
1,1,$1+$1,$6,$7*
1,1,$1+$1,$8,$9*
0 Add four rect primitives between the rounded corners*
20,1,$1+$1,$2,$3,$4,$5,0*
20,1,$1+$1,$4,$5,$6,$7,0*
20,1,$1+$1,$6,$7,$8,$9,0*
20,1,$1+$1,$8,$9,$2,$3,0*%
%AMFreePoly0*
4,1,14,0.410355,0.110355,0.425000,0.075000,0.425000,0.045711,0.410355,0.010356,0.289644,-0.110355,0.254289,-0.125000,-0.375000,-0.125000,-0.410355,-0.110355,-0.425000,-0.075000,-0.425000,0.075000,-0.410355,0.110355,-0.375000,0.125000,0.375000,0.125000,0.410355,0.110355,0.410355,0.110355,$1*%
%AMFreePoly1*
4,1,14,0.289644,0.110355,0.410355,-0.010356,0.425000,-0.045711,0.425000,-0.075000,0.410355,-0.110355,0.375000,-0.125000,-0.375000,-0.125000,-0.410355,-0.110355,-0.425000,-0.075000,-0.425000,0.075000,-0.410355,0.110355,-0.375000,0.125000,0.254289,0.125000,0.289644,0.110355,0.289644,0.110355,$1*%
%AMFreePoly2*
4,1,14,0.110355,0.410355,0.125000,0.375000,0.125000,-0.375000,0.110355,-0.410355,0.075000,-0.425000,0.045711,-0.425000,0.010356,-0.410355,-0.110355,-0.289644,-0.125000,-0.254289,-0.125000,0.375000,-0.110355,0.410355,-0.075000,0.425000,0.075000,0.425000,0.110355,0.410355,0.110355,0.410355,$1*%
%AMFreePoly3*
4,1,14,0.110355,0.410355,0.125000,0.375000,0.125000,-0.254289,0.110355,-0.289644,-0.010356,-0.410355,-0.045711,-0.425000,-0.075000,-0.425000,-0.110355,-0.410355,-0.125000,-0.375000,-0.125000,0.375000,-0.110355,0.410355,-0.075000,0.425000,0.075000,0.425000,0.110355,0.410355,0.110355,0.410355,$1*%
%AMFreePoly4*
4,1,14,0.410355,0.110355,0.425000,0.075000,0.425000,-0.075000,0.410355,-0.110355,0.375000,-0.125000,-0.375000,-0.125000,-0.410355,-0.110355,-0.425000,-0.075000,-0.425000,-0.045711,-0.410355,-0.010356,-0.289644,0.110355,-0.254289,0.125000,0.375000,0.125000,0.410355,0.110355,0.410355,0.110355,$1*%
%AMFreePoly5*
4,1,14,0.410355,0.110355,0.425000,0.075000,0.425000,-0.075000,0.410355,-0.110355,0.375000,-0.125000,-0.254289,-0.125000,-0.289644,-0.110355,-0.410355,0.010356,-0.425000,0.045711,-0.425000,0.075000,-0.410355,0.110355,-0.375000,0.125000,0.375000,0.125000,0.410355,0.110355,0.410355,0.110355,$1*%
%AMFreePoly6*
4,1,14,-0.010356,0.410355,0.110355,0.289644,0.125000,0.254289,0.125000,-0.375000,0.110355,-0.410355,0.075000,-0.425000,-0.075000,-0.425000,-0.110355,-0.410355,-0.125000,-0.375000,-0.125000,0.375000,-0.110355,0.410355,-0.075000,0.425000,-0.045711,0.425000,-0.010356,0.410355,-0.010356,0.410355,$1*%
%AMFreePoly7*
4,1,14,0.110355,0.410355,0.125000,0.375000,0.125000,-0.375000,0.110355,-0.410355,0.075000,-0.425000,-0.075000,-0.425000,-0.110355,-0.410355,-0.125000,-0.375000,-0.125000,0.254289,-0.110355,0.289644,0.010356,0.410355,0.045711,0.425000,0.075000,0.425000,0.110355,0.410355,0.110355,0.410355,$1*%
G04 Aperture macros list end*
%ADD10C,0.700000*%
%ADD11C,4.400000*%
%ADD12RoundRect,0.200000X0.200000X0.275000X-0.200000X0.275000X-0.200000X-0.275000X0.200000X-0.275000X0*%
%ADD13RoundRect,0.200000X0.275000X-0.200000X0.275000X0.200000X-0.275000X0.200000X-0.275000X-0.200000X0*%
%ADD14C,1.000000*%
%ADD15RoundRect,0.250000X0.159099X-0.512652X0.512652X-0.159099X-0.159099X0.512652X-0.512652X0.159099X0*%
%ADD16FreePoly0,180.000000*%
%ADD17RoundRect,0.062500X0.362500X0.062500X-0.362500X0.062500X-0.362500X-0.062500X0.362500X-0.062500X0*%
%ADD18FreePoly1,180.000000*%
%ADD19FreePoly2,180.000000*%
%ADD20RoundRect,0.062500X0.062500X0.362500X-0.062500X0.362500X-0.062500X-0.362500X0.062500X-0.362500X0*%
%ADD21FreePoly3,180.000000*%
%ADD22FreePoly4,180.000000*%
%ADD23FreePoly5,180.000000*%
%ADD24FreePoly6,180.000000*%
%ADD25FreePoly7,180.000000*%
%ADD26R,1.550000X1.550000*%
%ADD27RoundRect,0.250000X-0.250000X-0.475000X0.250000X-0.475000X0.250000X0.475000X-0.250000X0.475000X0*%
%ADD28RoundRect,0.250000X-0.325000X-0.650000X0.325000X-0.650000X0.325000X0.650000X-0.325000X0.650000X0*%
%ADD29RoundRect,0.200000X0.053033X-0.335876X0.335876X-0.053033X-0.053033X0.335876X-0.335876X0.053033X0*%
%ADD30C,1.500000*%
%ADD31R,1.800000X1.100000*%
%ADD32R,0.650000X0.300000*%
%ADD33RoundRect,0.075000X-0.406586X-0.512652X0.512652X0.406586X0.406586X0.512652X-0.512652X-0.406586X0*%
%ADD34RoundRect,0.225000X0.225000X0.250000X-0.225000X0.250000X-0.225000X-0.250000X0.225000X-0.250000X0*%
%ADD35R,0.450000X0.700000*%
G04 APERTURE END LIST*
D10*
%TO.C,H3*%
X132650000Y-140200000D03*
X133133274Y-139033274D03*
X133133274Y-141366726D03*
X134300000Y-138550000D03*
D11*
X134300000Y-140200000D03*
D10*
X134300000Y-141850000D03*
X135466726Y-139033274D03*
X135466726Y-141366726D03*
X135950000Y-140200000D03*
%TD*%
%TO.C,H1*%
X132650000Y-51250000D03*
X133133274Y-50083274D03*
X133133274Y-52416726D03*
X134300000Y-49600000D03*
D11*
X134300000Y-51250000D03*
D10*
X134300000Y-52900000D03*
X135466726Y-50083274D03*
X135466726Y-52416726D03*
X135950000Y-51250000D03*
%TD*%
%TO.C,H2*%
X179450000Y-51250000D03*
X179933274Y-50083274D03*
X179933274Y-52416726D03*
X181100000Y-49600000D03*
D11*
X181100000Y-51250000D03*
D10*
X181100000Y-52900000D03*
X182266726Y-50083274D03*
X182266726Y-52416726D03*
X182750000Y-51250000D03*
%TD*%
%TO.C,H4*%
X179450000Y-140200000D03*
X179933274Y-139033274D03*
X179933274Y-141366726D03*
X181100000Y-138550000D03*
D11*
X181100000Y-140200000D03*
D10*
X181100000Y-141850000D03*
X182266726Y-139033274D03*
X182266726Y-141366726D03*
X182750000Y-140200000D03*
%TD*%
D12*
%TO.C,R6*%
X149636943Y-90492976D03*
X147986943Y-90492976D03*
%TD*%
D13*
%TO.C,R7*%
X136825416Y-90775281D03*
X136825416Y-89125281D03*
%TD*%
%TO.C,R3*%
X146428429Y-95757465D03*
X146428429Y-94107465D03*
%TD*%
D14*
%TO.C,TP6*%
X175211463Y-79058913D03*
%TD*%
D13*
%TO.C,R8*%
X176775000Y-60600000D03*
X176775000Y-58950000D03*
%TD*%
D14*
%TO.C,TP9*%
X180083484Y-77421033D03*
%TD*%
D15*
%TO.C,C3*%
X177273195Y-137721299D03*
X178616697Y-136377797D03*
%TD*%
D16*
%TO.C,U1*%
X141920005Y-89419571D03*
D17*
X141920005Y-89869571D03*
X141920005Y-90319571D03*
X141920005Y-90769571D03*
D18*
X141920005Y-91219571D03*
D19*
X141370005Y-91769571D03*
D20*
X140920005Y-91769571D03*
X140470005Y-91769571D03*
X140020005Y-91769571D03*
D21*
X139570005Y-91769571D03*
D22*
X139020005Y-91219571D03*
D17*
X139020005Y-90769571D03*
X139020005Y-90319571D03*
X139020005Y-89869571D03*
D23*
X139020005Y-89419571D03*
D24*
X139570005Y-88869571D03*
D20*
X140020005Y-88869571D03*
X140470005Y-88869571D03*
X140920005Y-88869571D03*
D25*
X141370005Y-88869571D03*
D26*
X140470005Y-90319571D03*
%TD*%
D27*
%TO.C,C5*%
X137815079Y-95421427D03*
X139715079Y-95421427D03*
%TD*%
D28*
%TO.C,C2*%
X176623916Y-73550000D03*
X179573916Y-73550000D03*
%TD*%
D29*
%TO.C,R4*%
X170010871Y-139343951D03*
X171177597Y-138177225D03*
%TD*%
D30*
%TO.C,J1*%
X180714429Y-127881326D03*
%TD*%
D14*
%TO.C,TP4*%
X170921907Y-80546231D03*
%TD*%
D31*
%TO.C,J4*%
X178200000Y-98520776D03*
X178200000Y-87520776D03*
D32*
X181000000Y-96520776D03*
X181000000Y-96020776D03*
X181000000Y-95520776D03*
X181000000Y-95020776D03*
X181000000Y-94520776D03*
X181000000Y-94020776D03*
X181000000Y-93520776D03*
X181000000Y-93020776D03*
X181000000Y-92520776D03*
X181000000Y-92020776D03*
X181000000Y-91520776D03*
X181000000Y-91020776D03*
X181000000Y-90520776D03*
X181000000Y-90020776D03*
X181000000Y-89520776D03*
%TD*%
D14*
%TO.C,TP2*%
X144557161Y-85785918D03*
%TD*%
D13*
%TO.C,R2*%
X144287542Y-95757465D03*
X144287542Y-94107465D03*
%TD*%
D33*
%TO.C,U2*%
X174118810Y-138139540D03*
X173765256Y-137785986D03*
X173411703Y-137432433D03*
X173058150Y-137078880D03*
X172704596Y-136725326D03*
X175815866Y-133614056D03*
X176169420Y-133967610D03*
X176522973Y-134321163D03*
X176876526Y-134674716D03*
X177230080Y-135028270D03*
%TD*%
D34*
%TO.C,C1*%
X139701509Y-93389199D03*
X138151509Y-93389199D03*
%TD*%
D13*
%TO.C,R1*%
X142146655Y-95757465D03*
X142146655Y-94107465D03*
%TD*%
D14*
%TO.C,TP7*%
X174101532Y-60687565D03*
%TD*%
D30*
%TO.C,J2*%
X181631670Y-125364791D03*
%TD*%
D15*
%TO.C,C4*%
X174160302Y-140870845D03*
X175503804Y-139527343D03*
%TD*%
D14*
%TO.C,TP5*%
X174890013Y-83195085D03*
%TD*%
%TO.C,TP8*%
X176805864Y-77028092D03*
%TD*%
D35*
%TO.C,Q1*%
X176750000Y-62050000D03*
X178050000Y-62050000D03*
X177400000Y-64050000D03*
%TD*%
D14*
%TO.C,TP1*%
X146489725Y-87388385D03*
%TD*%
%TO.C,TP3*%
X169079818Y-77634194D03*
%TD*%
D12*
%TO.C,R5*%
X149636943Y-92449431D03*
X147986943Y-92449431D03*
%TD*%
%TO.C,R9*%
X176746676Y-69934038D03*
X175096676Y-69934038D03*
%TD*%
M02*
