M48
; DRILL file {KiCad 8.0.9} date 2026-09-14T08:43:29-0400
; FORMAT={-:-/ absolute / metric / decimal}
; #@! TF.CreationDate,2026-09-14T08:43:29-04:00
; #@! TF.GenerationSoftware,Kicad,Pcbnew,8.0.9
; #@! TF.FileFunction,MixedPlating,1,4
FMAT,2
METRIC
; #@! TA.AperFunction,Plated,PTH,ViaDrill
T1C0.200
; #@! TA.AperFunction,Plated,PTH,ComponentDrill
T2C0.200
; #@! TA.AperFunction,Plated,PTH,ComponentDrill
T3C0.300
; #@! TA.AperFunction,Plated,PTH,ComponentDrill
T4C0.600
; #@! TA.AperFunction,Plated,PTH,ComponentDrill
T5C0.700
; #@! TA.AperFunction,Plated,PTH,ComponentDrill
T6C0.750
; #@! TA.AperFunction,Plated,PTH,ComponentDrill
T7C2.200
; #@! TA.AperFunction,NonPlated,NPTH,ComponentDrill
T8C0.900
; #@! TA.AperFunction,NonPlated,NPTH,ComponentDrill
T9C1.300
%
G90
G05
T1
X118.5Y-57.0
X118.5Y-59.656
X118.5Y-62.312
X118.5Y-64.969
X118.5Y-67.625
X118.5Y-70.281
X118.5Y-72.938
X118.5Y-75.594
X118.5Y-78.25
X118.5Y-120.5
X118.5Y-123.357
X118.5Y-126.214
X118.5Y-129.071
X118.5Y-131.929
X118.5Y-134.786
X118.5Y-137.643
X118.5Y-140.5
X119.385Y-134.738
X119.395Y-131.09
X120.039Y-127.306
X120.042Y-134.205
X120.261Y-120.49
X120.613Y-128.832
X120.652Y-132.055
X120.652Y-139.75
X122.0Y-105.5
X122.0Y-108.0
X122.0Y-110.5
X122.0Y-113.5
X122.0Y-115.5
X122.0Y-120.5
X122.155Y-77.873
X122.166Y-72.798
X122.17Y-137.942
X122.283Y-130.011
X122.411Y-134.759
X122.55Y-108.789
X122.55Y-119.3
X122.55Y-124.05
X122.553Y-124.702
X123.0Y-144.5
X123.222Y-107.895
X123.222Y-112.164
X123.235Y-122.711
X123.476Y-116.605
X123.533Y-75.947
X123.798Y-110.083
X123.964Y-133.08
X124.018Y-138.759
X124.098Y-137.708
X124.149Y-75.947
X124.232Y-136.416
X124.497Y-130.362
X124.55Y-104.3
X124.55Y-110.95
X124.651Y-119.783
X124.7Y-87.728
X124.763Y-135.222
X124.764Y-75.947
X124.786Y-71.15
X124.977Y-134.205
X125.05Y-103.75
X125.059Y-125.877
X125.142Y-133.079
X125.189Y-116.692
X125.195Y-105.74
X125.29Y-98.222
X125.367Y-80.356
X125.4Y-139.762
X125.517Y-84.432
X125.65Y-102.9
X125.739Y-104.981
X125.828Y-74.888
X126.25Y-144.5
X126.329Y-69.241
X126.4Y-103.1
X126.438Y-119.143
X126.45Y-104.95
X126.45Y-113.4
X126.452Y-132.027
X127.017Y-122.159
X127.1Y-119.1
X127.138Y-76.921
X127.404Y-137.708
X127.415Y-130.201
X127.65Y-95.3
X127.65Y-98.4
X127.75Y-119.1
X127.75Y-121.681
X127.77Y-107.293
X127.8Y-113.3
X127.8Y-115.335
X127.818Y-138.796
X127.905Y-131.3
X127.918Y-75.003
X128.029Y-84.6
X128.267Y-127.934
X128.321Y-96.122
X128.361Y-130.681
X128.382Y-103.464
X128.382Y-106.401
X128.406Y-131.858
X128.5Y-119.2
X128.599Y-113.5
X128.75Y-68.05
X128.75Y-74.7
X128.773Y-109.194
X129.5Y-144.5
X129.594Y-77.842
X129.612Y-87.014
X129.708Y-122.275
X129.889Y-75.323
X129.895Y-112.824
X129.905Y-118.663
X129.911Y-120.805
X130.759Y-106.665
X130.759Y-107.895
X130.781Y-135.307
X130.824Y-116.26
X130.838Y-136.353
X130.842Y-112.896
X130.961Y-72.798
X131.122Y-105.784
X131.146Y-102.399
X131.434Y-129.44
X131.48Y-77.014
X131.495Y-137.331
X131.777Y-75.334
X131.831Y-86.341
X131.97Y-139.968
X132.149Y-132.411
X132.463Y-138.576
X132.521Y-115.987
X132.532Y-111.806
X132.583Y-120.558
X132.588Y-84.557
X132.592Y-96.144
X132.662Y-137.305
X132.75Y-144.5
X132.942Y-75.334
X133.062Y-72.971
X133.128Y-107.391
X133.199Y-102.424
X133.223Y-85.094
X133.865Y-72.971
X134.0Y-85.05
X134.0Y-102.35
X134.0Y-104.3
X134.107Y-75.334
X134.156Y-127.244
X134.408Y-69.684
X134.422Y-70.401
X134.433Y-68.997
X134.5Y-96.05
X134.55Y-98.15
X134.621Y-129.543
X134.65Y-104.35
X134.734Y-72.971
X134.97Y-132.392
X135.016Y-77.018
X135.05Y-94.75
X135.2Y-94.05
X135.25Y-96.05
X135.25Y-98.15
X135.25Y-102.45
X135.25Y-104.95
X135.272Y-75.334
X135.75Y-85.25
X135.75Y-94.6
X135.808Y-113.266
X135.9Y-84.35
X135.9Y-117.352
X135.9Y-123.3
X136.0Y-144.5
X136.003Y-104.961
X136.015Y-102.458
X136.018Y-131.487
X136.089Y-68.109
X136.368Y-73.004
X136.434Y-128.349
X136.55Y-98.4
X136.55Y-115.95
X136.55Y-116.886
X136.55Y-125.8
X137.25Y-115.55
X137.25Y-121.703
X137.25Y-125.8
X137.284Y-123.312
X137.323Y-98.222
X137.408Y-92.075
X137.42Y-87.033
X137.45Y-78.05
X137.5Y-77.3
X137.785Y-68.983
X137.912Y-121.265
X138.0Y-52.5
X138.15Y-76.5
X138.5Y-88.25
X138.524Y-68.109
X138.599Y-126.785
X138.618Y-119.962
X139.21Y-113.074
X139.219Y-105.719
X139.247Y-62.451
X139.494Y-137.326
X139.496Y-132.339
X139.503Y-76.0
X139.513Y-138.196
X139.528Y-116.072
X139.538Y-117.818
X139.55Y-87.45
X139.648Y-64.555
X139.7Y-80.15
X140.144Y-119.361
X140.3Y-80.5
X140.3Y-87.45
X140.336Y-108.965
X140.4Y-79.35
X140.515Y-63.796
X140.516Y-67.561
X140.6Y-124.6
X140.622Y-75.99
X140.85Y-120.0
X140.9Y-76.65
X140.922Y-110.489
X140.95Y-85.8
X141.0Y-52.5
X141.0Y-79.8
X141.556Y-106.8
X141.557Y-120.26
X141.6Y-76.65
X141.6Y-98.4
X141.686Y-137.665
X141.689Y-132.785
X141.714Y-128.557
X141.837Y-135.657
X141.997Y-62.09
X142.15Y-91.35
X142.206Y-136.384
X142.3Y-98.25
X142.35Y-87.45
X142.367Y-137.66
X142.4Y-66.75
X142.479Y-132.971
X142.488Y-128.575
X142.585Y-126.277
X142.68Y-114.372
X142.748Y-135.649
X142.795Y-59.825
X142.893Y-80.264
X142.93Y-64.757
X143.063Y-137.34
X143.356Y-134.993
X143.386Y-102.407
X143.393Y-112.565
X143.42Y-93.282
X143.428Y-111.54
X143.433Y-130.342
X143.439Y-132.765
X143.668Y-110.03
X143.786Y-124.6
X143.805Y-137.222
X143.918Y-136.37
X144.0Y-52.5
X144.027Y-69.51
X144.03Y-70.158
X144.038Y-70.847
X144.144Y-104.363
X144.15Y-93.25
X144.15Y-102.4
X144.2Y-80.4
X144.274Y-137.691
X144.393Y-132.971
X144.449Y-112.542
X144.582Y-135.628
X144.648Y-121.324
X144.845Y-135.004
X144.891Y-89.393
X144.916Y-107.661
X145.05Y-80.4
X145.178Y-137.691
X145.539Y-127.41
X145.611Y-124.6
X145.64Y-119.8
X145.641Y-128.572
X145.665Y-89.371
X145.878Y-118.042
X145.952Y-116.143
X146.003Y-137.647
X146.012Y-132.254
X146.234Y-116.872
X146.519Y-113.074
X146.531Y-120.8
X146.9Y-85.8
X146.988Y-68.991
X147.0Y-52.5
X147.244Y-137.957
X147.35Y-103.6
X147.477Y-129.687
X147.481Y-124.6
X147.494Y-126.301
X147.681Y-72.497
X148.212Y-110.707
X148.234Y-118.042
X148.257Y-73.306
X148.428Y-124.6
X148.8Y-60.0
X148.8Y-65.45
X149.091Y-103.05
X149.1Y-69.621
X149.11Y-54.885
X149.129Y-93.258
X149.141Y-89.443
X149.161Y-111.527
X149.385Y-128.283
X149.385Y-129.214
X149.398Y-82.686
X149.678Y-134.392
X149.863Y-93.28
X149.891Y-89.647
X149.9Y-62.005
X150.0Y-52.5
X150.041Y-133.806
X150.058Y-124.6
X150.1Y-79.6
X150.188Y-104.367
X150.351Y-114.393
X150.352Y-110.01
X150.5Y-144.5
X150.55Y-119.1
X150.75Y-99.7
X150.83Y-72.537
X150.883Y-137.999
X150.989Y-133.827
X151.012Y-69.227
X151.347Y-99.303
X151.35Y-120.8
X151.351Y-134.489
X151.617Y-132.292
X151.654Y-131.473
X151.66Y-130.665
X151.7Y-70.95
X151.7Y-83.8
X151.937Y-56.391
X152.145Y-121.312
X152.165Y-85.642
X152.55Y-66.75
X152.55Y-74.45
X152.55Y-75.2
X152.797Y-92.98
X152.854Y-86.692
X152.9Y-97.8
X152.935Y-119.8
X152.95Y-98.55
X153.0Y-52.5
X153.0Y-144.5
X153.45Y-75.9
X153.5Y-66.8
X153.5Y-75.15
X153.5Y-120.35
X153.534Y-79.603
X153.55Y-88.25
X153.55Y-124.7
X153.598Y-115.407
X153.911Y-136.816
X153.94Y-109.992
X154.144Y-67.312
X154.15Y-114.772
X154.15Y-125.15
X154.3Y-57.0
X154.381Y-128.236
X154.39Y-130.624
X154.592Y-55.103
X154.687Y-72.559
X154.707Y-88.785
X154.75Y-83.8
X154.878Y-92.98
X155.174Y-142.642
X155.4Y-79.3
X155.463Y-92.075
X155.5Y-144.5
X155.985Y-78.7
X155.989Y-136.816
X155.989Y-128.216
X156.0Y-52.5
X156.75Y-78.15
X156.778Y-136.561
X156.778Y-141.092
X157.148Y-71.58
X157.585Y-76.685
X158.1Y-68.8
X158.111Y-63.868
X158.122Y-58.136
X158.385Y-77.3
X158.4Y-76.15
X158.692Y-140.691
X158.862Y-129.052
X158.867Y-128.278
X158.934Y-122.911
X158.95Y-130.65
X158.955Y-125.162
X159.0Y-52.5
X159.04Y-129.781
X159.045Y-71.549
X159.204Y-122.196
X159.331Y-55.067
X159.351Y-136.569
X159.412Y-58.147
X159.6Y-103.05
X159.6Y-130.65
X159.65Y-139.25
X160.05Y-60.4
X160.08Y-132.719
X160.1Y-74.45
X160.1Y-99.55
X160.1Y-100.3
X160.15Y-103.6
X160.15Y-122.19
X160.15Y-129.9
X160.278Y-102.899
X160.649Y-141.167
X160.7Y-61.1
X160.862Y-122.276
X160.886Y-117.493
X160.9Y-74.4
X160.95Y-70.95
X161.05Y-75.15
X161.05Y-98.55
X161.27Y-135.311
X161.348Y-58.129
X161.361Y-123.621
X161.466Y-61.065
X161.538Y-126.908
X161.55Y-139.2
X161.6Y-76.15
X161.674Y-137.112
X161.8Y-97.9
X161.844Y-143.981
X161.916Y-141.293
X161.995Y-116.844
X162.0Y-52.5
X162.2Y-77.3
X162.344Y-121.793
X162.558Y-141.913
X162.6Y-133.1
X162.639Y-131.481
X162.826Y-112.384
X162.826Y-121.08
X162.9Y-78.7
X162.9Y-79.4
X163.282Y-143.385
X163.44Y-132.273
X163.5Y-144.5
X163.636Y-142.769
X163.649Y-135.284
X163.65Y-78.15
X163.65Y-78.85
X163.652Y-134.56
X163.7Y-119.1
X163.945Y-115.482
X164.35Y-76.7
X164.35Y-77.45
X164.363Y-135.993
X164.365Y-140.739
X164.4Y-116.151
X164.75Y-84.75
X164.75Y-98.027
X164.933Y-140.324
X165.087Y-135.973
X165.087Y-113.403
X165.1Y-133.977
X165.1Y-114.227
X165.1Y-133.1
X165.437Y-60.306
X166.75Y-100.15
X166.905Y-69.772
X166.932Y-66.421
X166.94Y-77.604
X167.75Y-95.55
X167.75Y-96.5
X167.75Y-97.55
X168.5Y-56.5
X168.5Y-58.0
X168.5Y-67.0
X168.5Y-69.5
X168.5Y-78.0
X168.5Y-80.506
X168.5Y-83.012
X168.5Y-85.518
X168.5Y-88.025
X168.5Y-90.531
X168.5Y-93.037
X168.5Y-95.543
X168.5Y-98.049
X168.5Y-100.555
X168.5Y-103.061
X168.5Y-136.311
X168.5Y-138.156
X168.5Y-140.0
T2
X118.45Y-54.05
X118.45Y-143.0
X118.933Y-52.883
X118.933Y-55.217
X118.933Y-141.833
X118.933Y-144.167
X120.1Y-52.4
X120.1Y-55.7
X120.1Y-141.35
X120.1Y-144.65
X121.267Y-52.883
X121.267Y-55.217
X121.267Y-141.833
X121.267Y-144.167
X121.75Y-54.05
X121.75Y-143.0
X127.052Y-133.845
X127.052Y-135.545
X127.902Y-134.695
X128.752Y-133.845
X128.752Y-135.545
X138.865Y-70.863
X139.215Y-70.113
X139.215Y-71.613
X139.565Y-70.863
X142.137Y-116.65
X142.137Y-117.95
X143.438Y-116.65
X143.438Y-117.95
X143.856Y-60.916
X143.856Y-62.016
X143.856Y-63.116
X144.956Y-60.916
X144.956Y-62.016
X144.956Y-63.116
X146.056Y-60.916
X146.056Y-62.016
X146.056Y-63.116
X165.25Y-54.05
X165.25Y-143.0
X165.733Y-52.883
X165.733Y-55.217
X165.733Y-141.833
X165.733Y-144.167
X166.9Y-52.4
X166.9Y-55.7
X166.9Y-141.35
X166.9Y-144.65
X168.067Y-52.883
X168.067Y-55.217
X168.067Y-141.833
X168.067Y-144.167
X168.55Y-54.05
X168.55Y-143.0
T3
X130.01Y-89.0
X130.01Y-90.0
X130.01Y-91.0
X130.01Y-92.0
X130.01Y-93.0
X131.01Y-89.0
X131.01Y-90.0
X131.01Y-91.0
X131.01Y-92.0
X131.01Y-93.0
X132.01Y-89.0
X132.01Y-90.0
X132.01Y-91.0
X132.01Y-92.0
X132.01Y-93.0
X133.01Y-89.0
X133.01Y-90.0
X133.01Y-91.0
X133.01Y-92.0
X133.01Y-93.0
X134.01Y-89.0
X134.01Y-90.0
X134.01Y-91.0
X134.01Y-92.0
X134.01Y-93.0
T6
X125.385Y-141.799
X127.385Y-141.799
X129.385Y-141.799
T7
X120.1Y-54.05
X120.1Y-143.0
X166.9Y-54.05
X166.9Y-143.0
T8
X119.99Y-65.26
X119.99Y-72.06
T9
X136.494Y-107.8
X136.494Y-130.2
T4
X137.815Y-140.396G85X137.815Y-139.596
G05
X137.815Y-144.596G85X137.815Y-143.396
G05
X149.055Y-140.396G85X149.055Y-139.596
G05
X149.055Y-144.596G85X149.055Y-143.396
G05
T5
X124.273Y-53.043G85X124.273Y-53.543
G05
X124.273Y-57.073G85X124.273Y-57.573
G05
X124.273Y-60.893G85X124.273Y-61.393
G05
X124.273Y-62.693G85X124.273Y-63.193
G05
X136.073Y-53.043G85X136.073Y-53.543
G05
X136.073Y-57.073G85X136.073Y-57.573
G05
X136.073Y-60.193G85X136.073Y-60.693
G05
X136.073Y-62.693G85X136.073Y-63.193
G05
M30
