%TF.GenerationSoftware,KiCad,Pcbnew,8.0.9*%
%TF.CreationDate,2026-09-26T16:25:43-04:00*%
%TF.ProjectId,harmony-mark6-carrier,6861726d-6f6e-4792-9d6d-61726b362d63,rev?*%
%TF.SameCoordinates,Original*%
%TF.FileFunction,Copper,L1,Top*%
%TF.FilePolarity,Positive*%
%FSLAX46Y46*%
G04 Gerber Fmt 4.6, Leading zero omitted, Abs format (unit mm)*
G04 Created by KiCad (PCBNEW 8.0.9) date 2026-09-26 16:25:43*
%MOMM*%
%LPD*%
G01*
G04 APERTURE LIST*
G04 Aperture macros list*
%AMRoundRect*
0 Rectangle with rounded corners*
0 $1 Rounding radius*
0 $2 $3 $4 $5 $6 $7 $8 $9 X,Y pos of 4 corners*
0 Add a 4 corners polygon primitive as box body*
4,1,4,$2,$3,$4,$5,$6,$7,$8,$9,$2,$3,0*
0 Add four circle primitives for the rounded corners*
1,1,$1+$1,$2,$3*
1,1,$1+$1,$4,$5*
1,1,$1+$1,$6,$7*
1,1,$1+$1,$8,$9*
0 Add four rect primitives between the rounded corners*
20,1,$1+$1,$2,$3,$4,$5,0*
20,1,$1+$1,$4,$5,$6,$7,0*
20,1,$1+$1,$6,$7,$8,$9,0*
20,1,$1+$1,$8,$9,$2,$3,0*%
G04 Aperture macros list end*
%TA.AperFunction,SMDPad,CuDef*%
%ADD10C,2.000000*%
%TD*%
%TA.AperFunction,SMDPad,CuDef*%
%ADD11RoundRect,0.250000X0.625000X-0.375000X0.625000X0.375000X-0.625000X0.375000X-0.625000X-0.375000X0*%
%TD*%
%TA.AperFunction,SMDPad,CuDef*%
%ADD12RoundRect,0.200000X-0.200000X-0.275000X0.200000X-0.275000X0.200000X0.275000X-0.200000X0.275000X0*%
%TD*%
%TA.AperFunction,SMDPad,CuDef*%
%ADD13R,0.980000X3.400000*%
%TD*%
%TA.AperFunction,SMDPad,CuDef*%
%ADD14RoundRect,0.062500X-0.187500X-0.062500X0.187500X-0.062500X0.187500X0.062500X-0.187500X0.062500X0*%
%TD*%
%TA.AperFunction,ComponentPad*%
%ADD15C,0.600000*%
%TD*%
%TA.AperFunction,SMDPad,CuDef*%
%ADD16R,0.900000X1.600000*%
%TD*%
%TA.AperFunction,SMDPad,CuDef*%
%ADD17RoundRect,0.250000X-0.250000X-0.475000X0.250000X-0.475000X0.250000X0.475000X-0.250000X0.475000X0*%
%TD*%
%TA.AperFunction,SMDPad,CuDef*%
%ADD18RoundRect,0.200000X0.275000X-0.200000X0.275000X0.200000X-0.275000X0.200000X-0.275000X-0.200000X0*%
%TD*%
%TA.AperFunction,SMDPad,CuDef*%
%ADD19RoundRect,0.250000X0.475000X-0.250000X0.475000X0.250000X-0.475000X0.250000X-0.475000X-0.250000X0*%
%TD*%
%TA.AperFunction,SMDPad,CuDef*%
%ADD20R,1.200000X0.700000*%
%TD*%
%TA.AperFunction,SMDPad,CuDef*%
%ADD21R,0.800000X1.000000*%
%TD*%
%TA.AperFunction,SMDPad,CuDef*%
%ADD22R,1.200000X1.000000*%
%TD*%
%TA.AperFunction,SMDPad,CuDef*%
%ADD23R,2.800000X1.000000*%
%TD*%
%TA.AperFunction,SMDPad,CuDef*%
%ADD24R,1.900000X1.300000*%
%TD*%
%TA.AperFunction,SMDPad,CuDef*%
%ADD25C,1.000000*%
%TD*%
%TA.AperFunction,ComponentPad*%
%ADD26R,1.700000X1.700000*%
%TD*%
%TA.AperFunction,ComponentPad*%
%ADD27O,1.700000X1.700000*%
%TD*%
%TA.AperFunction,SMDPad,CuDef*%
%ADD28RoundRect,0.250000X-0.325000X-1.100000X0.325000X-1.100000X0.325000X1.100000X-0.325000X1.100000X0*%
%TD*%
%TA.AperFunction,SMDPad,CuDef*%
%ADD29RoundRect,0.250000X1.100000X-0.325000X1.100000X0.325000X-1.100000X0.325000X-1.100000X-0.325000X0*%
%TD*%
%TA.AperFunction,SMDPad,CuDef*%
%ADD30R,0.300000X1.300000*%
%TD*%
%TA.AperFunction,SMDPad,CuDef*%
%ADD31R,1.800000X2.200000*%
%TD*%
%TA.AperFunction,SMDPad,CuDef*%
%ADD32RoundRect,0.150000X0.150000X0.625000X-0.150000X0.625000X-0.150000X-0.625000X0.150000X-0.625000X0*%
%TD*%
%TA.AperFunction,SMDPad,CuDef*%
%ADD33RoundRect,0.250000X0.350000X0.650000X-0.350000X0.650000X-0.350000X-0.650000X0.350000X-0.650000X0*%
%TD*%
%TA.AperFunction,ViaPad*%
%ADD34C,0.600000*%
%TD*%
%TA.AperFunction,Conductor*%
%ADD35C,0.350000*%
%TD*%
%TA.AperFunction,Conductor*%
%ADD36C,0.200000*%
%TD*%
%TA.AperFunction,Conductor*%
%ADD37C,0.300000*%
%TD*%
%TA.AperFunction,Conductor*%
%ADD38C,0.500000*%
%TD*%
%TA.AperFunction,Conductor*%
%ADD39C,0.600000*%
%TD*%
%TA.AperFunction,Conductor*%
%ADD40C,0.250000*%
%TD*%
G04 APERTURE END LIST*
D10*
%TO.P,TP1,1*%
%TO.N,USB_5V*%
X44000000Y-105000000D03*
%TD*%
D11*
%TO.P,F1,1*%
%TO.N,USB_5V*%
X46000000Y-87400000D03*
%TO.P,F1,2*%
%TO.N,USB_PROTECTED*%
X46000000Y-84600000D03*
%TD*%
D10*
%TO.P,TP2,1*%
%TO.N,MCU_3V3*%
X44000000Y-110000000D03*
%TD*%
D12*
%TO.P,R13,1*%
%TO.N,PERIPH_3V3*%
X48175000Y-25000000D03*
%TO.P,R13,2*%
%TO.N,SD_CS*%
X49825000Y-25000000D03*
%TD*%
D13*
%TO.P,L1,1*%
%TO.N,BUCK_SW*%
X55815000Y-71750000D03*
%TO.P,L1,2*%
%TO.N,PERIPH_3V3*%
X58185000Y-71750000D03*
%TD*%
D14*
%TO.P,U1,1*%
%TO.N,GND*%
X51050000Y-71250000D03*
%TO.P,U1,2*%
%TO.N,USB_PROTECTED*%
X51050000Y-71750000D03*
%TO.P,U1,3*%
%TO.N,MCU_3V3*%
X51050000Y-72250000D03*
%TO.P,U1,4*%
%TO.N,GND*%
X51050000Y-72750000D03*
%TO.P,U1,5*%
X52950000Y-72750000D03*
%TO.P,U1,6*%
%TO.N,PERIPH_3V3*%
X52950000Y-72250000D03*
%TO.P,U1,7*%
%TO.N,BUCK_SW*%
X52950000Y-71750000D03*
%TO.P,U1,8*%
%TO.N,PERIPH_PG*%
X52950000Y-71250000D03*
D15*
%TO.P,U1,9*%
%TO.N,GND*%
X52000000Y-71500000D03*
D16*
X52000000Y-72000000D03*
D15*
X52000000Y-72500000D03*
%TD*%
D12*
%TO.P,R12,1*%
%TO.N,PERIPH_3V3*%
X48175000Y-22000000D03*
%TO.P,R12,2*%
%TO.N,SD_MISO*%
X49825000Y-22000000D03*
%TD*%
D17*
%TO.P,C7,1*%
%TO.N,PERIPH_3V3*%
X61050000Y-61000000D03*
%TO.P,C7,2*%
%TO.N,GND*%
X62950000Y-61000000D03*
%TD*%
D18*
%TO.P,R17,1*%
%TO.N,PERIPH_3V3*%
X44000000Y-59825000D03*
%TO.P,R17,2*%
%TO.N,TFT_CS*%
X44000000Y-58175000D03*
%TD*%
D12*
%TO.P,R7,1*%
%TO.N,TFT_CS_MCU*%
X25175000Y-146000000D03*
%TO.P,R7,2*%
%TO.N,TFT_CS*%
X26825000Y-146000000D03*
%TD*%
%TO.P,R4,1*%
%TO.N,SD_CS_MCU*%
X23175000Y-158000000D03*
%TO.P,R4,2*%
%TO.N,SD_CS*%
X24825000Y-158000000D03*
%TD*%
%TO.P,R15,1*%
%TO.N,PERIPH_3V3*%
X48175000Y-31000000D03*
%TO.P,R15,2*%
%TO.N,SD_DAT2*%
X49825000Y-31000000D03*
%TD*%
D10*
%TO.P,TP5,1*%
%TO.N,PERIPH_PG*%
X44000000Y-125000000D03*
%TD*%
D19*
%TO.P,C3,1*%
%TO.N,USB_PROTECTED*%
X48000000Y-75950000D03*
%TO.P,C3,2*%
%TO.N,GND*%
X48000000Y-74050000D03*
%TD*%
D12*
%TO.P,R16,1*%
%TO.N,MCU_3V3*%
X15175000Y-157000000D03*
%TO.P,R16,2*%
%TO.N,SD_SCK_MCU*%
X16825000Y-157000000D03*
%TD*%
%TO.P,R20,1*%
%TO.N,MCU_3V3*%
X15175000Y-164000000D03*
%TO.P,R20,2*%
%TO.N,PERIPH_PG*%
X16825000Y-164000000D03*
%TD*%
D20*
%TO.P,J4,1*%
%TO.N,SD_DAT2*%
X53275000Y-21225000D03*
%TO.P,J4,2*%
%TO.N,SD_CS*%
X53275000Y-22325000D03*
%TO.P,J4,3*%
%TO.N,SD_MOSI*%
X53275000Y-23425000D03*
%TO.P,J4,4*%
%TO.N,PERIPH_3V3*%
X53275000Y-24525000D03*
%TO.P,J4,5*%
%TO.N,SD_SCK*%
X53275000Y-25625000D03*
%TO.P,J4,6*%
%TO.N,GND*%
X53275000Y-26725000D03*
%TO.P,J4,7*%
%TO.N,SD_MISO*%
X53275000Y-27825000D03*
%TO.P,J4,8*%
%TO.N,SD_DAT1*%
X53275000Y-28925000D03*
%TO.P,J4,9*%
%TO.N,N/C*%
X53275000Y-29875000D03*
D21*
%TO.P,J4,10*%
X63775000Y-30825000D03*
D22*
%TO.P,J4,11*%
%TO.N,GND*%
X57575000Y-30825000D03*
D23*
X67925000Y-30825000D03*
D22*
X53275000Y-19675000D03*
D24*
X68375000Y-17325000D03*
%TD*%
D17*
%TO.P,C4,1*%
%TO.N,PERIPH_3V3*%
X57050000Y-36000000D03*
%TO.P,C4,2*%
%TO.N,GND*%
X58950000Y-36000000D03*
%TD*%
D12*
%TO.P,R14,1*%
%TO.N,PERIPH_3V3*%
X48175000Y-28000000D03*
%TO.P,R14,2*%
%TO.N,SD_DAT1*%
X49825000Y-28000000D03*
%TD*%
D17*
%TO.P,C6,1*%
%TO.N,PERIPH_3V3*%
X61050000Y-57000000D03*
%TO.P,C6,2*%
%TO.N,GND*%
X62950000Y-57000000D03*
%TD*%
D25*
%TO.P,FID2,*%
%TO.N,*%
X66000000Y-83000000D03*
%TD*%
D17*
%TO.P,C5,1*%
%TO.N,PERIPH_3V3*%
X61050000Y-36000000D03*
%TO.P,C5,2*%
%TO.N,GND*%
X62950000Y-36000000D03*
%TD*%
D12*
%TO.P,R3,1*%
%TO.N,SD_MISO_MCU*%
X48175000Y-34000000D03*
%TO.P,R3,2*%
%TO.N,SD_MISO*%
X49825000Y-34000000D03*
%TD*%
D25*
%TO.P,FID3,*%
%TO.N,*%
X8000000Y-138000000D03*
%TD*%
D26*
%TO.P,J2,1*%
%TO.N,N/C*%
X22010000Y-152000000D03*
D27*
%TO.P,J2,2*%
X24550000Y-152000000D03*
%TO.P,J2,3*%
%TO.N,USB_5V*%
X27090000Y-152000000D03*
%TO.P,J2,4*%
%TO.N,N/C*%
X29630000Y-152000000D03*
%TO.P,J2,5*%
X32170000Y-152000000D03*
%TO.P,J2,6*%
%TO.N,TFT_MOSI_MCU*%
X34710000Y-152000000D03*
%TO.P,J2,7*%
%TO.N,TFT_DC_MCU*%
X37250000Y-152000000D03*
%TO.P,J2,8*%
%TO.N,N/C*%
X39790000Y-152000000D03*
%TO.P,J2,9*%
%TO.N,TFT_RST_MCU*%
X42330000Y-152000000D03*
%TO.P,J2,10*%
%TO.N,TFT_SCK_MCU*%
X44870000Y-152000000D03*
%TO.P,J2,11*%
%TO.N,I2C_SCL*%
X47410000Y-152000000D03*
%TO.P,J2,12*%
%TO.N,I2C_SDA*%
X49950000Y-152000000D03*
%TD*%
D10*
%TO.P,TP4,1*%
%TO.N,GND*%
X44000000Y-120000000D03*
%TD*%
D26*
%TO.P,J1,1*%
%TO.N,N/C*%
X49950000Y-172320000D03*
D27*
%TO.P,J1,2*%
X47410000Y-172320000D03*
%TO.P,J1,3*%
X44870000Y-172320000D03*
%TO.P,J1,4*%
%TO.N,SD_MISO_MCU*%
X42330000Y-172320000D03*
%TO.P,J1,5*%
%TO.N,SD_MOSI_MCU*%
X39790000Y-172320000D03*
%TO.P,J1,6*%
%TO.N,SD_SCK_MCU*%
X37250000Y-172320000D03*
%TO.P,J1,7*%
%TO.N,TFT_LITE_MCU*%
X34710000Y-172320000D03*
%TO.P,J1,8*%
%TO.N,N/C*%
X32170000Y-172320000D03*
%TO.P,J1,9*%
X29630000Y-172320000D03*
%TO.P,J1,10*%
%TO.N,PERIPH_PG*%
X27090000Y-172320000D03*
%TO.P,J1,11*%
%TO.N,SD_CS_MCU*%
X24550000Y-172320000D03*
%TO.P,J1,12*%
%TO.N,TFT_CS_MCU*%
X22010000Y-172320000D03*
%TO.P,J1,13*%
%TO.N,GND*%
X19470000Y-172320000D03*
%TO.P,J1,14*%
%TO.N,N/C*%
X16930000Y-172320000D03*
%TO.P,J1,15*%
%TO.N,MCU_3V3*%
X14390000Y-172320000D03*
%TO.P,J1,16*%
%TO.N,N/C*%
X11850000Y-172320000D03*
%TD*%
D28*
%TO.P,C2,1*%
%TO.N,PERIPH_3V3*%
X59525000Y-76000000D03*
%TO.P,C2,2*%
%TO.N,GND*%
X62475000Y-76000000D03*
%TD*%
D12*
%TO.P,R5,1*%
%TO.N,TFT_SCK_MCU*%
X29175000Y-146000000D03*
%TO.P,R5,2*%
%TO.N,TFT_SCK*%
X30825000Y-146000000D03*
%TD*%
%TO.P,R21,1*%
%TO.N,MCU_3V3*%
X15175000Y-160000000D03*
%TO.P,R21,2*%
%TO.N,GND*%
X16825000Y-160000000D03*
%TD*%
%TO.P,R2,1*%
%TO.N,SD_MOSI_MCU*%
X23175000Y-161000000D03*
%TO.P,R2,2*%
%TO.N,SD_MOSI*%
X24825000Y-161000000D03*
%TD*%
D29*
%TO.P,C1,1*%
%TO.N,USB_PROTECTED*%
X48000000Y-71975000D03*
%TO.P,C1,2*%
%TO.N,GND*%
X48000000Y-69025000D03*
%TD*%
D12*
%TO.P,R1,1*%
%TO.N,SD_SCK_MCU*%
X23175000Y-164000000D03*
%TO.P,R1,2*%
%TO.N,SD_SCK*%
X24825000Y-164000000D03*
%TD*%
%TO.P,R11,1*%
%TO.N,PERIPH_3V3*%
X48175000Y-19000000D03*
%TO.P,R11,2*%
%TO.N,SD_MOSI*%
X49825000Y-19000000D03*
%TD*%
%TO.P,R9,1*%
%TO.N,TFT_RST_MCU*%
X21175000Y-146000000D03*
%TO.P,R9,2*%
%TO.N,TFT_RST*%
X22825000Y-146000000D03*
%TD*%
%TO.P,R10,1*%
%TO.N,TFT_LITE_MCU*%
X21175000Y-143000000D03*
%TO.P,R10,2*%
%TO.N,TFT_LITE*%
X22825000Y-143000000D03*
%TD*%
D18*
%TO.P,R19,1*%
%TO.N,PERIPH_3V3*%
X52000000Y-59825000D03*
%TO.P,R19,2*%
%TO.N,DISPLAY_SD_CS*%
X52000000Y-58175000D03*
%TD*%
D10*
%TO.P,TP3,1*%
%TO.N,PERIPH_3V3*%
X44000000Y-115000000D03*
%TD*%
D30*
%TO.P,J3,1*%
%TO.N,PERIPH_3V3*%
X58250000Y-53850000D03*
%TO.P,J3,2*%
%TO.N,TFT_LITE*%
X57750000Y-53850000D03*
%TO.P,J3,3*%
%TO.N,GND*%
X57250000Y-53850000D03*
%TO.P,J3,4*%
%TO.N,TFT_SCK*%
X56750000Y-53850000D03*
%TO.P,J3,5*%
%TO.N,TFT_MOSI*%
X56250000Y-53850000D03*
%TO.P,J3,6*%
%TO.N,N/C*%
X55750000Y-53850000D03*
%TO.P,J3,7*%
%TO.N,TFT_DC*%
X55250000Y-53850000D03*
%TO.P,J3,8*%
%TO.N,TFT_RST*%
X54750000Y-53850000D03*
%TO.P,J3,9*%
%TO.N,TFT_CS*%
X54250000Y-53850000D03*
%TO.P,J3,10*%
%TO.N,DISPLAY_SD_CS*%
X53750000Y-53850000D03*
%TO.P,J3,11*%
%TO.N,N/C*%
X53250000Y-53850000D03*
%TO.P,J3,12*%
X52750000Y-53850000D03*
%TO.P,J3,13*%
X52250000Y-53850000D03*
%TO.P,J3,14*%
X51750000Y-53850000D03*
%TO.P,J3,15*%
X51250000Y-53850000D03*
%TO.P,J3,16*%
X50750000Y-53850000D03*
%TO.P,J3,17*%
X50250000Y-53850000D03*
%TO.P,J3,18*%
X49750000Y-53850000D03*
D31*
%TO.P,J3,MP*%
%TO.N,GND*%
X60150000Y-50600000D03*
X47850000Y-50600000D03*
%TD*%
D18*
%TO.P,R18,1*%
%TO.N,PERIPH_3V3*%
X48000000Y-59825000D03*
%TO.P,R18,2*%
%TO.N,TFT_RST*%
X48000000Y-58175000D03*
%TD*%
D25*
%TO.P,FID1,*%
%TO.N,*%
X43000000Y-15000000D03*
%TD*%
D12*
%TO.P,R6,1*%
%TO.N,TFT_MOSI_MCU*%
X29175000Y-143000000D03*
%TO.P,R6,2*%
%TO.N,TFT_MOSI*%
X30825000Y-143000000D03*
%TD*%
D32*
%TO.P,J5,1*%
%TO.N,GND*%
X35500000Y-100000000D03*
%TO.P,J5,2*%
%TO.N,PERIPH_3V3*%
X34500000Y-100000000D03*
%TO.P,J5,3*%
%TO.N,I2C_SDA*%
X33500000Y-100000000D03*
%TO.P,J5,4*%
%TO.N,I2C_SCL*%
X32500000Y-100000000D03*
D33*
%TO.P,J5,MP*%
%TO.N,GND*%
X36800000Y-96125000D03*
X31200000Y-96125000D03*
%TD*%
D12*
%TO.P,R8,1*%
%TO.N,TFT_DC_MCU*%
X25175000Y-143000000D03*
%TO.P,R8,2*%
%TO.N,TFT_DC*%
X26825000Y-143000000D03*
%TD*%
D34*
%TO.N,GND*%
X40393600Y-112022900D03*
X58950000Y-36000000D03*
X50000000Y-69025000D03*
X62950000Y-57000000D03*
X57136700Y-57830800D03*
X62950000Y-61000000D03*
X35332500Y-105676800D03*
X60150000Y-53600800D03*
X62950000Y-36000000D03*
X62475000Y-76000000D03*
X49835400Y-50427100D03*
%TO.N,I2C_SCL*%
X31308200Y-136990200D03*
%TO.N,I2C_SDA*%
X33500000Y-134800600D03*
%TO.N,MCU_3V3*%
X22410300Y-129431100D03*
X44620300Y-112973000D03*
%TO.N,PERIPH_3V3*%
X59800000Y-57000000D03*
X59000000Y-54900000D03*
%TO.N,PERIPH_PG*%
X52950000Y-70622400D03*
X51382700Y-79951400D03*
%TO.N,SD_CS*%
X49825000Y-25000000D03*
X51704400Y-20729200D03*
X24825000Y-158000000D03*
X50604700Y-25725000D03*
%TO.N,SD_CS_MCU*%
X23896900Y-168684300D03*
%TO.N,SD_DAT2*%
X55255700Y-27190900D03*
X50776100Y-30919600D03*
%TO.N,SD_MISO*%
X47445800Y-29059600D03*
X54378700Y-28130000D03*
%TO.N,SD_MISO_MCU*%
X48175000Y-48497000D03*
%TO.N,SD_MOSI*%
X24825000Y-159993200D03*
X41989000Y-92430800D03*
%TO.N,SD_MOSI_MCU*%
X23175000Y-161978300D03*
%TO.N,SD_SCK*%
X52138800Y-25823900D03*
X25938500Y-108816100D03*
%TO.N,SD_SCK_MCU*%
X23175000Y-165077900D03*
%TO.N,TFT_CS*%
X27829000Y-100944300D03*
X42723300Y-91668000D03*
%TO.N,TFT_CS_MCU*%
X18851400Y-158819300D03*
%TO.N,TFT_DC*%
X55278500Y-55430400D03*
X26825000Y-106652600D03*
%TO.N,TFT_DC_MCU*%
X25175000Y-144228500D03*
%TO.N,TFT_LITE*%
X57750000Y-59517300D03*
X22825000Y-137038300D03*
%TO.N,TFT_LITE_MCU*%
X19511200Y-149857700D03*
%TO.N,TFT_MOSI*%
X30441200Y-139111100D03*
X56673400Y-63390300D03*
%TO.N,TFT_RST*%
X23701800Y-102562300D03*
X49214300Y-58932400D03*
%TO.N,TFT_RST_MCU*%
X21404400Y-147429600D03*
%TO.N,TFT_SCK*%
X56750000Y-52174100D03*
X30453300Y-144445400D03*
%TO.N,TFT_SCK_MCU*%
X29175000Y-147256300D03*
%TO.N,USB_5V*%
X46109900Y-114321400D03*
%TD*%
D35*
%TO.N,BUCK_SW*%
X52950000Y-71750000D02*
X55815000Y-71750000D01*
D36*
%TO.N,DISPLAY_SD_CS*%
X53750000Y-56425000D02*
X52000000Y-58175000D01*
X53750000Y-53850000D02*
X53750000Y-56425000D01*
%TO.N,GND*%
X16062000Y-159237000D02*
X16825000Y-160000000D01*
X62300500Y-50600000D02*
X61351700Y-50600000D01*
X60750900Y-50600000D02*
X60150000Y-50600000D01*
X62300500Y-50600000D02*
X62300500Y-36649500D01*
X52000000Y-72500000D02*
X52000000Y-72000000D01*
X54199700Y-26725000D02*
X54199700Y-26985700D01*
X24103500Y-146117900D02*
X16062000Y-154159400D01*
X35332500Y-100167500D02*
X35332500Y-105676800D01*
X35500000Y-100000000D02*
X35332500Y-100167500D01*
X40393600Y-112022900D02*
X40393600Y-116393600D01*
X57250000Y-53850000D02*
X57250000Y-57717500D01*
X19470000Y-172320000D02*
X19470000Y-162645000D01*
X62950000Y-75525000D02*
X62950000Y-61000000D01*
X69626700Y-17325000D02*
X69626700Y-30825000D01*
X60009800Y-34940200D02*
X58950000Y-36000000D01*
X61890200Y-34940200D02*
X60009800Y-34940200D01*
X54199700Y-20699900D02*
X54199700Y-26725000D01*
X57575000Y-30825000D02*
X57575000Y-30023300D01*
X68775900Y-30825000D02*
X68551600Y-30825000D01*
X57575000Y-34625000D02*
X57575000Y-30825000D01*
X51050000Y-72750000D02*
X51050000Y-73350000D01*
X60150000Y-50600000D02*
X60150000Y-53600800D01*
X68551600Y-30825000D02*
X63376600Y-36000000D01*
X62950000Y-57000000D02*
X62950000Y-51249500D01*
X63376600Y-36000000D02*
X62950000Y-36000000D01*
X53976500Y-20476700D02*
X54199700Y-20699900D01*
X31200000Y-97107500D02*
X30782900Y-97107500D01*
X51750000Y-71250000D02*
X52000000Y-71500000D01*
X46346600Y-70678400D02*
X48000000Y-69025000D01*
X62475000Y-76000000D02*
X62950000Y-75525000D01*
X57250000Y-57717500D02*
X57136700Y-57830800D01*
X68775900Y-30825000D02*
X69626700Y-30825000D01*
X51050000Y-73350000D02*
X52950000Y-73350000D01*
X52000000Y-73350000D02*
X52000000Y-72500000D01*
X53275000Y-20476700D02*
X53976500Y-20476700D01*
X62300500Y-36649500D02*
X62950000Y-36000000D01*
X52950000Y-73350000D02*
X52950000Y-72750000D01*
X54199700Y-26725000D02*
X53275000Y-26725000D01*
X19470000Y-162645000D02*
X16825000Y-160000000D01*
X43744900Y-78153000D02*
X47847900Y-74050000D01*
X36800000Y-96125000D02*
X39145700Y-96125000D01*
X46346600Y-72548700D02*
X46346600Y-70678400D01*
X60750900Y-50600000D02*
X61351700Y-50600000D01*
X16062000Y-154159400D02*
X16062000Y-159237000D01*
X43744900Y-91525800D02*
X43744900Y-78153000D01*
X62950000Y-51249500D02*
X62300500Y-50600000D01*
X49051700Y-50600000D02*
X49662500Y-50600000D01*
X31200000Y-97107500D02*
X31200000Y-96125000D01*
X39145700Y-96125000D02*
X43744900Y-91525800D01*
X53275000Y-19675000D02*
X53275000Y-20476700D01*
X62950000Y-36000000D02*
X61890200Y-34940200D01*
X48000000Y-74050000D02*
X47847900Y-74050000D01*
D37*
X50400000Y-69025000D02*
X48000000Y-69025000D01*
X50400000Y-71250000D02*
X50400000Y-69025000D01*
D36*
X30782900Y-97107500D02*
X24103500Y-103786900D01*
X35500000Y-97425000D02*
X36800000Y-96125000D01*
X51050000Y-71250000D02*
X51750000Y-71250000D01*
X40393600Y-116393600D02*
X44000000Y-120000000D01*
X67925000Y-30825000D02*
X68551600Y-30825000D01*
X57237300Y-30023300D02*
X57575000Y-30023300D01*
X52000000Y-72000000D02*
X52000000Y-71500000D01*
X47847900Y-74050000D02*
X46346600Y-72548700D01*
X35500000Y-97425000D02*
X35182500Y-97107500D01*
X47850000Y-50600000D02*
X49051700Y-50600000D01*
X58950000Y-36000000D02*
X57575000Y-34625000D01*
X68375000Y-17325000D02*
X69626700Y-17325000D01*
X24103500Y-103786900D02*
X24103500Y-146117900D01*
X35182500Y-97107500D02*
X31200000Y-97107500D01*
D37*
X51050000Y-71250000D02*
X50400000Y-71250000D01*
D36*
X54199700Y-26985700D02*
X57237300Y-30023300D01*
X49662500Y-50600000D02*
X49835400Y-50427100D01*
X35500000Y-97425000D02*
X35500000Y-100000000D01*
X62950000Y-61000000D02*
X62950000Y-57000000D01*
D37*
X48000000Y-69025000D02*
X50000000Y-69025000D01*
D36*
%TO.N,I2C_SCL*%
X31308200Y-136990200D02*
X31308200Y-101191800D01*
X31308200Y-101191800D02*
X32500000Y-100000000D01*
%TO.N,I2C_SDA*%
X33500000Y-100000000D02*
X33500000Y-134800600D01*
%TO.N,MCU_3V3*%
X15175000Y-160000000D02*
X15175000Y-157000000D01*
X44000000Y-112352700D02*
X44620300Y-112973000D01*
X45859200Y-114923100D02*
X44620300Y-113684200D01*
X44000000Y-110000000D02*
X44000000Y-112352700D01*
X14390000Y-164785000D02*
X15175000Y-164000000D01*
X50772900Y-72250000D02*
X49839200Y-73183700D01*
X46711600Y-114535000D02*
X46711600Y-114570600D01*
X49839200Y-111407400D02*
X46711600Y-114535000D01*
X14390000Y-172320000D02*
X14390000Y-164785000D01*
X46711600Y-114570600D02*
X46359100Y-114923100D01*
X44620300Y-113684200D02*
X44620300Y-112973000D01*
X49839200Y-73183700D02*
X49839200Y-111407400D01*
X15175000Y-136666400D02*
X22410300Y-129431100D01*
X46359100Y-114923100D02*
X45859200Y-114923100D01*
X15175000Y-164000000D02*
X15175000Y-160000000D01*
X51050000Y-72250000D02*
X50772900Y-72250000D01*
X15175000Y-157000000D02*
X15175000Y-136666400D01*
D38*
%TO.N,PERIPH_3V3*%
X61050000Y-61000000D02*
X58992500Y-61000000D01*
X44000000Y-114566200D02*
X35862300Y-106428500D01*
X34500000Y-105907300D02*
X34500000Y-100000000D01*
X53495800Y-32445800D02*
X57050000Y-36000000D01*
X48175000Y-28000000D02*
X48175000Y-25000000D01*
X50494400Y-24065100D02*
X48175000Y-24065100D01*
X58290400Y-37240400D02*
X58765700Y-37240400D01*
D36*
X54000000Y-72250000D02*
X54000000Y-76000000D01*
D38*
X59800000Y-57000000D02*
X61050000Y-57000000D01*
X35862300Y-106428500D02*
X35021200Y-106428500D01*
D39*
X59800000Y-71750000D02*
X59800000Y-76000000D01*
D36*
X58250000Y-53850000D02*
X59000000Y-54600000D01*
D38*
X48175000Y-24065100D02*
X48175000Y-25000000D01*
X50954300Y-24525000D02*
X50494400Y-24065100D01*
X58992500Y-71750000D02*
X58992500Y-61000000D01*
X44000000Y-115000000D02*
X44474800Y-115474800D01*
X44000000Y-59825000D02*
X48000000Y-59825000D01*
X35021200Y-106428500D02*
X34500000Y-105907300D01*
X58185000Y-66010000D02*
X58185000Y-71750000D01*
X49620800Y-32445800D02*
X53495800Y-32445800D01*
D39*
X59800000Y-76000000D02*
X59525000Y-76000000D01*
D38*
X50390900Y-79609100D02*
X54000000Y-76000000D01*
X48175000Y-31000000D02*
X48251500Y-30923500D01*
X61050000Y-61000000D02*
X61050000Y-57000000D01*
X50390900Y-111671500D02*
X50390900Y-79609100D01*
X48000000Y-59825000D02*
X52000000Y-59825000D01*
X52000000Y-59825000D02*
X58185000Y-66010000D01*
X48251500Y-28076500D02*
X48175000Y-28000000D01*
X48175000Y-31000000D02*
X49620800Y-32445800D01*
D39*
X58185000Y-71750000D02*
X59800000Y-71750000D01*
D36*
X52950000Y-72250000D02*
X54000000Y-72250000D01*
D38*
X53275000Y-24525000D02*
X50954300Y-24525000D01*
X58992500Y-61000000D02*
X58765700Y-60773200D01*
X59809600Y-37240400D02*
X61050000Y-36000000D01*
X48251500Y-30923500D02*
X48251500Y-28076500D01*
D36*
X54000000Y-76000000D02*
X59525000Y-76000000D01*
X59000000Y-54600000D02*
X59000000Y-54900000D01*
D38*
X57050000Y-36000000D02*
X58290400Y-37240400D01*
X58765700Y-37240400D02*
X59809600Y-37240400D01*
X46587600Y-115474800D02*
X50390900Y-111671500D01*
X58765700Y-60773200D02*
X58765700Y-37240400D01*
X44474800Y-115474800D02*
X46587600Y-115474800D01*
X44000000Y-115000000D02*
X44000000Y-114566200D01*
X48175000Y-19000000D02*
X48175000Y-22000000D01*
X48175000Y-22000000D02*
X48175000Y-24065100D01*
D36*
%TO.N,PERIPH_PG*%
X28242500Y-140457400D02*
X28242500Y-170591700D01*
X18965600Y-173505200D02*
X18200000Y-172739600D01*
X44000000Y-125000000D02*
X44000000Y-125164800D01*
X18200000Y-172739600D02*
X18200000Y-165375000D01*
X30655400Y-138509400D02*
X30190500Y-138509400D01*
X25938300Y-172320000D02*
X25938300Y-172607900D01*
X18200000Y-165375000D02*
X16825000Y-164000000D01*
X44000000Y-125164800D02*
X30655400Y-138509400D01*
X51382700Y-117617300D02*
X51382700Y-79951400D01*
X44000000Y-125000000D02*
X51382700Y-117617300D01*
X30190500Y-138509400D02*
X28242500Y-140457400D01*
X52950000Y-71250000D02*
X52950000Y-70622400D01*
X25041000Y-173505200D02*
X18965600Y-173505200D01*
X28242500Y-170591700D02*
X26514200Y-172320000D01*
X27090000Y-172320000D02*
X26514200Y-172320000D01*
X25938300Y-172607900D02*
X25041000Y-173505200D01*
X26514200Y-172320000D02*
X25938300Y-172320000D01*
%TO.N,SD_CS*%
X53275000Y-22325000D02*
X52373300Y-22325000D01*
X50550000Y-25725000D02*
X49825000Y-25000000D01*
X51704400Y-21656100D02*
X51704400Y-20729200D01*
X52373300Y-22325000D02*
X51704400Y-21656100D01*
X50604700Y-25725000D02*
X50550000Y-25725000D01*
%TO.N,SD_CS_MCU*%
X23896900Y-158721900D02*
X23175000Y-158000000D01*
X23896900Y-168684300D02*
X23896900Y-158721900D01*
%TO.N,SD_DAT1*%
X50750000Y-28925000D02*
X49825000Y-28000000D01*
X53275000Y-28925000D02*
X50750000Y-28925000D01*
%TO.N,SD_DAT2*%
X55255700Y-20090100D02*
X55255700Y-27190900D01*
X52373300Y-21225000D02*
X52373300Y-19033400D01*
X54031300Y-18865700D02*
X55255700Y-20090100D01*
X52373300Y-19033400D02*
X52541000Y-18865700D01*
X52541000Y-18865700D02*
X54031300Y-18865700D01*
X49905400Y-30919600D02*
X50776100Y-30919600D01*
X49825000Y-31000000D02*
X49905400Y-30919600D01*
X53275000Y-21225000D02*
X52373300Y-21225000D01*
%TO.N,SD_MISO*%
X54176700Y-27928000D02*
X54378700Y-28130000D01*
X49825000Y-22000000D02*
X49000000Y-21175000D01*
X48567100Y-18203400D02*
X47753900Y-18203400D01*
X47445800Y-31620800D02*
X49825000Y-34000000D01*
X47445800Y-29059600D02*
X47445800Y-31620800D01*
X47445800Y-18511500D02*
X47445800Y-29059600D01*
X49000000Y-18636300D02*
X48567100Y-18203400D01*
X53275000Y-27825000D02*
X54176700Y-27825000D01*
X54176700Y-27825000D02*
X54176700Y-27928000D01*
X47753900Y-18203400D02*
X47445800Y-18511500D01*
X49000000Y-21175000D02*
X49000000Y-18636300D01*
%TO.N,SD_MISO_MCU*%
X48175000Y-34000000D02*
X48175000Y-48497000D01*
%TO.N,SD_MOSI*%
X48740200Y-17753500D02*
X47625700Y-17753500D01*
X52373300Y-23425000D02*
X52373300Y-22953300D01*
X49825000Y-18838300D02*
X48740200Y-17753500D01*
X47625700Y-17753500D02*
X41989000Y-23390200D01*
X24825000Y-161000000D02*
X24825000Y-159993200D01*
X52373300Y-22953300D02*
X49825000Y-20405000D01*
X49825000Y-19000000D02*
X49825000Y-18838300D01*
X41989000Y-23390200D02*
X41989000Y-92430800D01*
X53275000Y-23425000D02*
X52373300Y-23425000D01*
X49825000Y-20405000D02*
X49825000Y-19000000D01*
%TO.N,SD_MOSI_MCU*%
X23175000Y-161000000D02*
X23175000Y-161978300D01*
%TO.N,SD_SCK*%
X25938500Y-150399800D02*
X25938500Y-108816100D01*
X53275000Y-25625000D02*
X52373300Y-25625000D01*
X52174400Y-25823900D02*
X52373300Y-25625000D01*
X25877000Y-150461300D02*
X25938500Y-150399800D01*
X24825000Y-164000000D02*
X25877000Y-162948000D01*
X25877000Y-162948000D02*
X25877000Y-150461300D01*
X52138800Y-25823900D02*
X52174400Y-25823900D01*
%TO.N,SD_SCK_MCU*%
X23175000Y-164000000D02*
X16825000Y-157650000D01*
X23175000Y-165077900D02*
X23175000Y-164000000D01*
X16825000Y-157650000D02*
X16825000Y-157000000D01*
%TO.N,TFT_CS*%
X26825000Y-146000000D02*
X27829000Y-144996000D01*
X44000000Y-58175000D02*
X42723300Y-59451700D01*
X44000000Y-51951500D02*
X46840800Y-49110700D01*
X54250000Y-53850000D02*
X54250000Y-52898300D01*
X46840800Y-49110700D02*
X50462400Y-49110700D01*
X50462400Y-49110700D02*
X54250000Y-52898300D01*
X27829000Y-144996000D02*
X27829000Y-100944300D01*
X42723300Y-59451700D02*
X42723300Y-91668000D01*
X44000000Y-58175000D02*
X44000000Y-51951500D01*
%TO.N,TFT_CS_MCU*%
X18851400Y-152323600D02*
X18851400Y-158819300D01*
X25175000Y-146000000D02*
X18851400Y-152323600D01*
%TO.N,TFT_DC*%
X55250000Y-55401900D02*
X55278500Y-55430400D01*
X26825000Y-143000000D02*
X26825000Y-106652600D01*
X55250000Y-53850000D02*
X55250000Y-55401900D01*
%TO.N,TFT_DC_MCU*%
X25175000Y-143000000D02*
X25175000Y-144228500D01*
%TO.N,TFT_LITE*%
X57750000Y-53850000D02*
X57750000Y-59517300D01*
X22825000Y-143000000D02*
X22825000Y-137038300D01*
%TO.N,TFT_LITE_MCU*%
X19511200Y-144663800D02*
X19511200Y-149857700D01*
X21175000Y-143000000D02*
X19511200Y-144663800D01*
%TO.N,TFT_MOSI*%
X56250000Y-53850000D02*
X56250000Y-62966900D01*
X30825000Y-143000000D02*
X30825000Y-139494900D01*
X30825000Y-139494900D02*
X30441200Y-139111100D01*
X56250000Y-62966900D02*
X56673400Y-63390300D01*
%TO.N,TFT_MOSI_MCU*%
X34350100Y-150848300D02*
X34710000Y-150848300D01*
X29175000Y-144017900D02*
X30000000Y-144842900D01*
X34710000Y-152000000D02*
X34710000Y-150848300D01*
X29175000Y-143000000D02*
X29175000Y-144017900D01*
X30000000Y-144842900D02*
X30000000Y-146498200D01*
X30000000Y-146498200D02*
X34350100Y-150848300D01*
%TO.N,TFT_RST*%
X54750000Y-53850000D02*
X54750000Y-55106500D01*
X54469500Y-55387000D02*
X54469500Y-56893200D01*
X23701800Y-145123200D02*
X23701800Y-102562300D01*
X54469500Y-56893200D02*
X52430300Y-58932400D01*
X52430300Y-58932400D02*
X49214300Y-58932400D01*
X22825000Y-146000000D02*
X23701800Y-145123200D01*
X48757400Y-58932400D02*
X48000000Y-58175000D01*
X49214300Y-58932400D02*
X48757400Y-58932400D01*
X54750000Y-55106500D02*
X54469500Y-55387000D01*
%TO.N,TFT_RST_MCU*%
X21175000Y-147200200D02*
X21404400Y-147429600D01*
X21175000Y-146000000D02*
X21175000Y-147200200D01*
%TO.N,TFT_SCK*%
X56750000Y-53850000D02*
X56750000Y-52174100D01*
X30453300Y-144445400D02*
X30825000Y-144817100D01*
X30825000Y-144817100D02*
X30825000Y-146000000D01*
%TO.N,TFT_SCK_MCU*%
X29175000Y-146000000D02*
X29175000Y-147256300D01*
D38*
%TO.N,USB_5V*%
X46109900Y-107109900D02*
X46109900Y-114321400D01*
X44000000Y-105000000D02*
X46109900Y-107109900D01*
X44000000Y-105000000D02*
X46000000Y-103000000D01*
X46000000Y-103000000D02*
X46000000Y-87400000D01*
%TO.N,USB_PROTECTED*%
X49214000Y-71967400D02*
X49214000Y-74736000D01*
X48000000Y-75950000D02*
X48000000Y-82600000D01*
D40*
X48000000Y-71975000D02*
X48000000Y-71750000D01*
D38*
X48996600Y-71750000D02*
X49214000Y-71967400D01*
D40*
X48000000Y-71750000D02*
X51050000Y-71750000D01*
D38*
X49214000Y-74736000D02*
X48000000Y-75950000D01*
X48000000Y-82600000D02*
X46000000Y-84600000D01*
%TD*%
M02*
