%TF.GenerationSoftware,KiCad,Pcbnew,8.0.9*%
%TF.CreationDate,2026-09-26T16:25:43-04:00*%
%TF.ProjectId,harmony-mark6-carrier,6861726d-6f6e-4792-9d6d-61726b362d63,rev?*%
%TF.SameCoordinates,Original*%
%TF.FileFunction,Paste,Top*%
%TF.FilePolarity,Positive*%
%FSLAX46Y46*%
G04 Gerber Fmt 4.6, Leading zero omitted, Abs format (unit mm)*
G04 Created by KiCad (PCBNEW 8.0.9) date 2026-09-26 16:25:43*
%MOMM*%
%LPD*%
G01*
G04 APERTURE LIST*
G04 Aperture macros list*
%AMRoundRect*
0 Rectangle with rounded corners*
0 $1 Rounding radius*
0 $2 $3 $4 $5 $6 $7 $8 $9 X,Y pos of 4 corners*
0 Add a 4 corners polygon primitive as box body*
4,1,4,$2,$3,$4,$5,$6,$7,$8,$9,$2,$3,0*
0 Add four circle primitives for the rounded corners*
1,1,$1+$1,$2,$3*
1,1,$1+$1,$4,$5*
1,1,$1+$1,$6,$7*
1,1,$1+$1,$8,$9*
0 Add four rect primitives between the rounded corners*
20,1,$1+$1,$2,$3,$4,$5,0*
20,1,$1+$1,$4,$5,$6,$7,0*
20,1,$1+$1,$6,$7,$8,$9,0*
20,1,$1+$1,$8,$9,$2,$3,0*%
G04 Aperture macros list end*
%ADD10RoundRect,0.250000X0.625000X-0.375000X0.625000X0.375000X-0.625000X0.375000X-0.625000X-0.375000X0*%
%ADD11RoundRect,0.200000X-0.200000X-0.275000X0.200000X-0.275000X0.200000X0.275000X-0.200000X0.275000X0*%
%ADD12R,0.980000X3.400000*%
%ADD13R,0.750000X0.650000*%
%ADD14RoundRect,0.062500X-0.187500X-0.062500X0.187500X-0.062500X0.187500X0.062500X-0.187500X0.062500X0*%
%ADD15RoundRect,0.250000X-0.250000X-0.475000X0.250000X-0.475000X0.250000X0.475000X-0.250000X0.475000X0*%
%ADD16RoundRect,0.200000X0.275000X-0.200000X0.275000X0.200000X-0.275000X0.200000X-0.275000X-0.200000X0*%
%ADD17RoundRect,0.250000X0.475000X-0.250000X0.475000X0.250000X-0.475000X0.250000X-0.475000X-0.250000X0*%
%ADD18R,1.200000X0.700000*%
%ADD19R,0.800000X1.000000*%
%ADD20R,1.200000X1.000000*%
%ADD21R,2.800000X1.000000*%
%ADD22R,1.900000X1.300000*%
%ADD23RoundRect,0.250000X-0.325000X-1.100000X0.325000X-1.100000X0.325000X1.100000X-0.325000X1.100000X0*%
%ADD24RoundRect,0.250000X1.100000X-0.325000X1.100000X0.325000X-1.100000X0.325000X-1.100000X-0.325000X0*%
%ADD25R,0.300000X1.300000*%
%ADD26R,1.800000X2.200000*%
%ADD27RoundRect,0.150000X0.150000X0.625000X-0.150000X0.625000X-0.150000X-0.625000X0.150000X-0.625000X0*%
%ADD28RoundRect,0.250000X0.350000X0.650000X-0.350000X0.650000X-0.350000X-0.650000X0.350000X-0.650000X0*%
G04 APERTURE END LIST*
D10*
%TO.C,F1*%
X46000000Y-87400000D03*
X46000000Y-84600000D03*
%TD*%
D11*
%TO.C,R13*%
X48175000Y-25000000D03*
X49825000Y-25000000D03*
%TD*%
D12*
%TO.C,L1*%
X55815000Y-71750000D03*
X58185000Y-71750000D03*
%TD*%
D13*
%TO.C,U1*%
X52000000Y-71600000D03*
X52000000Y-72400000D03*
D14*
X51050000Y-71250000D03*
X51050000Y-71750000D03*
X51050000Y-72250000D03*
X51050000Y-72750000D03*
X52950000Y-72750000D03*
X52950000Y-72250000D03*
X52950000Y-71750000D03*
X52950000Y-71250000D03*
%TD*%
D11*
%TO.C,R12*%
X48175000Y-22000000D03*
X49825000Y-22000000D03*
%TD*%
D15*
%TO.C,C7*%
X61050000Y-61000000D03*
X62950000Y-61000000D03*
%TD*%
D16*
%TO.C,R17*%
X44000000Y-59825000D03*
X44000000Y-58175000D03*
%TD*%
D11*
%TO.C,R7*%
X25175000Y-146000000D03*
X26825000Y-146000000D03*
%TD*%
%TO.C,R4*%
X23175000Y-158000000D03*
X24825000Y-158000000D03*
%TD*%
%TO.C,R15*%
X48175000Y-31000000D03*
X49825000Y-31000000D03*
%TD*%
D17*
%TO.C,C3*%
X48000000Y-75950000D03*
X48000000Y-74050000D03*
%TD*%
D11*
%TO.C,R16*%
X15175000Y-157000000D03*
X16825000Y-157000000D03*
%TD*%
%TO.C,R20*%
X15175000Y-164000000D03*
X16825000Y-164000000D03*
%TD*%
D18*
%TO.C,J4*%
X53275000Y-21225000D03*
X53275000Y-22325000D03*
X53275000Y-23425000D03*
X53275000Y-24525000D03*
X53275000Y-25625000D03*
X53275000Y-26725000D03*
X53275000Y-27825000D03*
X53275000Y-28925000D03*
X53275000Y-29875000D03*
D19*
X63775000Y-30825000D03*
D20*
X57575000Y-30825000D03*
D21*
X67925000Y-30825000D03*
D20*
X53275000Y-19675000D03*
D22*
X68375000Y-17325000D03*
%TD*%
D15*
%TO.C,C4*%
X57050000Y-36000000D03*
X58950000Y-36000000D03*
%TD*%
D11*
%TO.C,R14*%
X48175000Y-28000000D03*
X49825000Y-28000000D03*
%TD*%
D15*
%TO.C,C6*%
X61050000Y-57000000D03*
X62950000Y-57000000D03*
%TD*%
%TO.C,C5*%
X61050000Y-36000000D03*
X62950000Y-36000000D03*
%TD*%
D11*
%TO.C,R3*%
X48175000Y-34000000D03*
X49825000Y-34000000D03*
%TD*%
D23*
%TO.C,C2*%
X59525000Y-76000000D03*
X62475000Y-76000000D03*
%TD*%
D11*
%TO.C,R5*%
X29175000Y-146000000D03*
X30825000Y-146000000D03*
%TD*%
%TO.C,R21*%
X15175000Y-160000000D03*
X16825000Y-160000000D03*
%TD*%
%TO.C,R2*%
X23175000Y-161000000D03*
X24825000Y-161000000D03*
%TD*%
D24*
%TO.C,C1*%
X48000000Y-71975000D03*
X48000000Y-69025000D03*
%TD*%
D11*
%TO.C,R1*%
X23175000Y-164000000D03*
X24825000Y-164000000D03*
%TD*%
%TO.C,R11*%
X48175000Y-19000000D03*
X49825000Y-19000000D03*
%TD*%
%TO.C,R9*%
X21175000Y-146000000D03*
X22825000Y-146000000D03*
%TD*%
%TO.C,R10*%
X21175000Y-143000000D03*
X22825000Y-143000000D03*
%TD*%
D16*
%TO.C,R19*%
X52000000Y-59825000D03*
X52000000Y-58175000D03*
%TD*%
D25*
%TO.C,J3*%
X58250000Y-53850000D03*
X57750000Y-53850000D03*
X57250000Y-53850000D03*
X56750000Y-53850000D03*
X56250000Y-53850000D03*
X55750000Y-53850000D03*
X55250000Y-53850000D03*
X54750000Y-53850000D03*
X54250000Y-53850000D03*
X53750000Y-53850000D03*
X53250000Y-53850000D03*
X52750000Y-53850000D03*
X52250000Y-53850000D03*
X51750000Y-53850000D03*
X51250000Y-53850000D03*
X50750000Y-53850000D03*
X50250000Y-53850000D03*
X49750000Y-53850000D03*
D26*
X60150000Y-50600000D03*
X47850000Y-50600000D03*
%TD*%
D16*
%TO.C,R18*%
X48000000Y-59825000D03*
X48000000Y-58175000D03*
%TD*%
D11*
%TO.C,R6*%
X29175000Y-143000000D03*
X30825000Y-143000000D03*
%TD*%
D27*
%TO.C,J5*%
X35500000Y-100000000D03*
X34500000Y-100000000D03*
X33500000Y-100000000D03*
X32500000Y-100000000D03*
D28*
X36800000Y-96125000D03*
X31200000Y-96125000D03*
%TD*%
D11*
%TO.C,R8*%
X25175000Y-143000000D03*
X26825000Y-143000000D03*
%TD*%
M02*
