%TF.GenerationSoftware,KiCad,Pcbnew,8.0.9*%
%TF.CreationDate,2026-09-15T11:56:04-04:00*%
%TF.ProjectId,tangara-mainboard,74616e67-6172-4612-9d6d-61696e626f61,rev?*%
%TF.SameCoordinates,Original*%
%TF.FileFunction,Paste,Top*%
%TF.FilePolarity,Positive*%
%FSLAX46Y46*%
G04 Gerber Fmt 4.6, Leading zero omitted, Abs format (unit mm)*
G04 Created by KiCad (PCBNEW 8.0.9) date 2026-09-15 11:56:04*
%MOMM*%
%LPD*%
G01*
G04 APERTURE LIST*
G04 Aperture macros list*
%AMRoundRect*
0 Rectangle with rounded corners*
0 $1 Rounding radius*
0 $2 $3 $4 $5 $6 $7 $8 $9 X,Y pos of 4 corners*
0 Add a 4 corners polygon primitive as box body*
4,1,4,$2,$3,$4,$5,$6,$7,$8,$9,$2,$3,0*
0 Add four circle primitives for the rounded corners*
1,1,$1+$1,$2,$3*
1,1,$1+$1,$4,$5*
1,1,$1+$1,$6,$7*
1,1,$1+$1,$8,$9*
0 Add four rect primitives between the rounded corners*
20,1,$1+$1,$2,$3,$4,$5,0*
20,1,$1+$1,$4,$5,$6,$7,0*
20,1,$1+$1,$6,$7,$8,$9,0*
20,1,$1+$1,$8,$9,$2,$3,0*%
G04 Aperture macros list end*
%ADD10C,0.010000*%
%ADD11RoundRect,0.162500X0.162500X-0.447500X0.162500X0.447500X-0.162500X0.447500X-0.162500X-0.447500X0*%
%ADD12RoundRect,0.150000X0.512500X0.150000X-0.512500X0.150000X-0.512500X-0.150000X0.512500X-0.150000X0*%
%ADD13RoundRect,0.250000X0.850000X-0.375000X0.850000X0.375000X-0.850000X0.375000X-0.850000X-0.375000X0*%
%ADD14RoundRect,0.250000X0.450000X-0.262500X0.450000X0.262500X-0.450000X0.262500X-0.450000X-0.262500X0*%
%ADD15RoundRect,0.250000X-0.250000X-0.475000X0.250000X-0.475000X0.250000X0.475000X-0.250000X0.475000X0*%
%ADD16RoundRect,0.200000X0.200000X0.275000X-0.200000X0.275000X-0.200000X-0.275000X0.200000X-0.275000X0*%
%ADD17RoundRect,0.200000X-0.275000X0.200000X-0.275000X-0.200000X0.275000X-0.200000X0.275000X0.200000X0*%
%ADD18RoundRect,0.249999X-0.290001X0.290001X-0.290001X-0.290001X0.290001X-0.290001X0.290001X0.290001X0*%
%ADD19RoundRect,0.062500X-0.062500X0.350000X-0.062500X-0.350000X0.062500X-0.350000X0.062500X0.350000X0*%
%ADD20RoundRect,0.062500X-0.350000X0.062500X-0.350000X-0.062500X0.350000X-0.062500X0.350000X0.062500X0*%
%ADD21RoundRect,0.225000X-0.250000X0.225000X-0.250000X-0.225000X0.250000X-0.225000X0.250000X0.225000X0*%
%ADD22RoundRect,0.140000X0.140000X0.140000X-0.140000X0.140000X-0.140000X-0.140000X0.140000X-0.140000X0*%
%ADD23RoundRect,0.062500X0.375000X0.062500X-0.375000X0.062500X-0.375000X-0.062500X0.375000X-0.062500X0*%
%ADD24RoundRect,0.062500X0.062500X0.375000X-0.062500X0.375000X-0.062500X-0.375000X0.062500X-0.375000X0*%
%ADD25RoundRect,0.150000X-0.150000X0.587500X-0.150000X-0.587500X0.150000X-0.587500X0.150000X0.587500X0*%
%ADD26RoundRect,0.250000X-0.450000X0.262500X-0.450000X-0.262500X0.450000X-0.262500X0.450000X0.262500X0*%
%ADD27RoundRect,0.200000X0.275000X-0.200000X0.275000X0.200000X-0.275000X0.200000X-0.275000X-0.200000X0*%
%ADD28RoundRect,0.112500X0.112500X0.237500X-0.112500X0.237500X-0.112500X-0.237500X0.112500X-0.237500X0*%
%ADD29RoundRect,0.225000X-0.225000X-0.250000X0.225000X-0.250000X0.225000X0.250000X-0.225000X0.250000X0*%
%ADD30RoundRect,0.225000X0.250000X-0.225000X0.250000X0.225000X-0.250000X0.225000X-0.250000X-0.225000X0*%
%ADD31RoundRect,0.250000X0.475000X-0.250000X0.475000X0.250000X-0.475000X0.250000X-0.475000X-0.250000X0*%
%ADD32R,0.812800X0.254000*%
%ADD33R,0.736600X2.489200*%
%ADD34RoundRect,0.250000X0.250000X0.475000X-0.250000X0.475000X-0.250000X-0.475000X0.250000X-0.475000X0*%
%ADD35RoundRect,0.200000X-0.200000X-0.275000X0.200000X-0.275000X0.200000X0.275000X-0.200000X0.275000X0*%
%ADD36RoundRect,0.250000X0.262500X0.450000X-0.262500X0.450000X-0.262500X-0.450000X0.262500X-0.450000X0*%
%ADD37RoundRect,0.225000X0.225000X0.250000X-0.225000X0.250000X-0.225000X-0.250000X0.225000X-0.250000X0*%
%ADD38RoundRect,0.250000X-0.475000X0.250000X-0.475000X-0.250000X0.475000X-0.250000X0.475000X0.250000X0*%
%ADD39RoundRect,0.150000X0.150000X-0.512500X0.150000X0.512500X-0.150000X0.512500X-0.150000X-0.512500X0*%
%ADD40RoundRect,0.250000X-0.850000X0.375000X-0.850000X-0.375000X0.850000X-0.375000X0.850000X0.375000X0*%
%ADD41RoundRect,0.100000X-0.155000X-0.100000X0.155000X-0.100000X0.155000X0.100000X-0.155000X0.100000X0*%
%ADD42RoundRect,0.250000X-0.325000X-0.650000X0.325000X-0.650000X0.325000X0.650000X-0.325000X0.650000X0*%
%ADD43R,0.400000X1.000000*%
%ADD44R,0.740000X2.400000*%
%ADD45R,1.600000X0.550000*%
%ADD46R,0.550000X1.600000*%
%ADD47RoundRect,0.250000X0.335000X0.335000X-0.335000X0.335000X-0.335000X-0.335000X0.335000X-0.335000X0*%
%ADD48RoundRect,0.062500X0.350000X0.062500X-0.350000X0.062500X-0.350000X-0.062500X0.350000X-0.062500X0*%
%ADD49RoundRect,0.062500X0.062500X0.350000X-0.062500X0.350000X-0.062500X-0.350000X0.062500X-0.350000X0*%
%ADD50RoundRect,0.006600X0.423400X0.103400X-0.423400X0.103400X-0.423400X-0.103400X0.423400X-0.103400X0*%
%ADD51RoundRect,0.112500X0.237500X-0.112500X0.237500X0.112500X-0.237500X0.112500X-0.237500X-0.112500X0*%
%ADD52O,1.000000X2.200000*%
%ADD53O,1.000000X1.800000*%
G04 APERTURE END LIST*
D10*
%TO.C,U7*%
X139598244Y-71501935D02*
X138832379Y-71501935D01*
X138832379Y-70223424D01*
X139598244Y-70223424D01*
X139598244Y-71501935D01*
G36*
X139598244Y-71501935D02*
G01*
X138832379Y-71501935D01*
X138832379Y-70223424D01*
X139598244Y-70223424D01*
X139598244Y-71501935D01*
G37*
%TD*%
D11*
%TO.C,Q1*%
X134022625Y-136223826D03*
X135922625Y-136223826D03*
X134972625Y-133603826D03*
%TD*%
D12*
%TO.C,U4*%
X129552997Y-128904481D03*
X129552997Y-127954481D03*
X129552997Y-127004481D03*
X127277997Y-127004481D03*
X127277997Y-128904481D03*
%TD*%
D13*
%TO.C,L1*%
X133891932Y-74048879D03*
X133891932Y-71898879D03*
%TD*%
D14*
%TO.C,R3*%
X149100000Y-68412500D03*
X149100000Y-66587500D03*
%TD*%
D15*
%TO.C,C24*%
X129523198Y-130774567D03*
X131423198Y-130774567D03*
%TD*%
D16*
%TO.C,R35*%
X123259189Y-137149989D03*
X121609189Y-137149989D03*
%TD*%
D17*
%TO.C,R5*%
X149800000Y-71675000D03*
X149800000Y-73325000D03*
%TD*%
D18*
%TO.C,U10*%
X128527083Y-134070156D03*
X127277083Y-134070156D03*
X128527083Y-135320156D03*
X127277083Y-135320156D03*
D19*
X128902083Y-132757656D03*
X128402083Y-132757656D03*
X127902083Y-132757656D03*
X127402083Y-132757656D03*
X126902083Y-132757656D03*
D20*
X125964583Y-133695156D03*
X125964583Y-134195156D03*
X125964583Y-134695156D03*
X125964583Y-135195156D03*
X125964583Y-135695156D03*
D19*
X126902083Y-136632656D03*
X127402083Y-136632656D03*
X127902083Y-136632656D03*
X128402083Y-136632656D03*
X128902083Y-136632656D03*
D20*
X129839583Y-135695156D03*
X129839583Y-135195156D03*
X129839583Y-134695156D03*
X129839583Y-134195156D03*
X129839583Y-133695156D03*
%TD*%
D15*
%TO.C,C25*%
X129579632Y-138571066D03*
X131479632Y-138571066D03*
%TD*%
D21*
%TO.C,C6*%
X150950000Y-56400000D03*
X150950000Y-57950000D03*
%TD*%
D22*
%TO.C,U9*%
X143487500Y-118000000D03*
X143487500Y-117300000D03*
X143487500Y-116600000D03*
X142787500Y-118000000D03*
X142787500Y-117300000D03*
X142787500Y-116600000D03*
X142087500Y-118000000D03*
X142087500Y-117300000D03*
X142087500Y-116600000D03*
D23*
X144725000Y-118550000D03*
X144725000Y-118050000D03*
X144725000Y-117550000D03*
X144725000Y-117050000D03*
X144725000Y-116550000D03*
X144725000Y-116050000D03*
D24*
X144037500Y-115362500D03*
X143537500Y-115362500D03*
X143037500Y-115362500D03*
X142537500Y-115362500D03*
X142037500Y-115362500D03*
X141537500Y-115362500D03*
D23*
X140850000Y-116050000D03*
X140850000Y-116550000D03*
X140850000Y-117050000D03*
X140850000Y-117550000D03*
X140850000Y-118050000D03*
X140850000Y-118550000D03*
D24*
X141537500Y-119237500D03*
X142037500Y-119237500D03*
X142537500Y-119237500D03*
X143037500Y-119237500D03*
X143537500Y-119237500D03*
X144037500Y-119237500D03*
%TD*%
D25*
%TO.C,D4*%
X130550000Y-122650000D03*
X128650000Y-122650000D03*
X129600000Y-124525000D03*
%TD*%
D26*
%TO.C,R8*%
X149100000Y-56087500D03*
X149100000Y-57912500D03*
%TD*%
D21*
%TO.C,C9*%
X136325858Y-73949126D03*
X136325858Y-75499126D03*
%TD*%
D27*
%TO.C,R37*%
X152140258Y-139729528D03*
X152140258Y-138079528D03*
%TD*%
%TO.C,R30*%
X143747950Y-122980803D03*
X143747950Y-121330803D03*
%TD*%
D28*
%TO.C,Q3*%
X139150000Y-116850000D03*
X137850000Y-116850000D03*
X138500000Y-118850000D03*
%TD*%
D29*
%TO.C,C13*%
X148800000Y-61000000D03*
X150350000Y-61000000D03*
%TD*%
D27*
%TO.C,R38*%
X153888406Y-139735188D03*
X153888406Y-138085188D03*
%TD*%
D30*
%TO.C,C15*%
X151000000Y-68075000D03*
X151000000Y-66525000D03*
%TD*%
D31*
%TO.C,C1*%
X125050000Y-128900000D03*
X125050000Y-127000000D03*
%TD*%
D32*
%TO.C,U12*%
X146522961Y-127006438D03*
X146522961Y-127506564D03*
X146522961Y-128006690D03*
X146522961Y-128506816D03*
X146522961Y-129006942D03*
X148427961Y-129006942D03*
X148427961Y-128506816D03*
X148427961Y-128006690D03*
X148427961Y-127506564D03*
X148427961Y-127006438D03*
D33*
X147475461Y-128006690D03*
%TD*%
D34*
%TO.C,C3*%
X160932062Y-69634671D03*
X159032062Y-69634671D03*
%TD*%
D16*
%TO.C,R39*%
X123259189Y-138766966D03*
X121609189Y-138766966D03*
%TD*%
D31*
%TO.C,C33*%
X156782387Y-140103476D03*
X156782387Y-138203476D03*
%TD*%
D35*
%TO.C,R41*%
X121614439Y-133203528D03*
X123264439Y-133203528D03*
%TD*%
D36*
%TO.C,R6*%
X154462500Y-59500000D03*
X152637500Y-59500000D03*
%TD*%
D27*
%TO.C,R10*%
X149095421Y-107282147D03*
X149095421Y-105632147D03*
%TD*%
D37*
%TO.C,C17*%
X143700000Y-65600000D03*
X142150000Y-65600000D03*
%TD*%
D38*
%TO.C,C27*%
X132103885Y-134451996D03*
X132103885Y-136351996D03*
%TD*%
D37*
%TO.C,C37*%
X145106648Y-126305515D03*
X143556648Y-126305515D03*
%TD*%
D27*
%TO.C,R22*%
X142360517Y-113176528D03*
X142360517Y-111526528D03*
%TD*%
D15*
%TO.C,C18*%
X138161897Y-74874786D03*
X140061897Y-74874786D03*
%TD*%
D35*
%TO.C,R34*%
X121614406Y-135533013D03*
X123264406Y-135533013D03*
%TD*%
%TO.C,R51*%
X131961440Y-140877326D03*
X133611440Y-140877326D03*
%TD*%
D39*
%TO.C,U5*%
X142484252Y-133935845D03*
X143434252Y-133935845D03*
X144384252Y-133935845D03*
X144384252Y-131660845D03*
X143434252Y-131660845D03*
X142484252Y-131660845D03*
%TD*%
D40*
%TO.C,L2*%
X143044904Y-72785260D03*
X143044904Y-74935260D03*
%TD*%
D34*
%TO.C,C12*%
X157157041Y-69648592D03*
X155257041Y-69648592D03*
%TD*%
%TO.C,C4*%
X159023570Y-67582319D03*
X157123570Y-67582319D03*
%TD*%
D17*
%TO.C,R42*%
X162554135Y-138113126D03*
X162554135Y-139763126D03*
%TD*%
D31*
%TO.C,C7*%
X157972253Y-57000000D03*
X157972253Y-55100000D03*
%TD*%
D27*
%TO.C,R59*%
X147350884Y-107298921D03*
X147350884Y-105648921D03*
%TD*%
%TO.C,R26*%
X147443207Y-122960929D03*
X147443207Y-121310929D03*
%TD*%
%TO.C,R21*%
X145615125Y-122978257D03*
X145615125Y-121328257D03*
%TD*%
D16*
%TO.C,R50*%
X133586440Y-142677326D03*
X131936440Y-142677326D03*
%TD*%
D41*
%TO.C,U3*%
X141144979Y-62621809D03*
X141144979Y-61621809D03*
X139854979Y-62121809D03*
%TD*%
D42*
%TO.C,C10*%
X133139407Y-69697232D03*
X136089407Y-69697232D03*
%TD*%
D16*
%TO.C,R31*%
X149161413Y-117850000D03*
X147511413Y-117850000D03*
%TD*%
D43*
%TO.C,U17*%
X156152489Y-65115954D03*
X156802489Y-65115954D03*
X157452489Y-65115954D03*
X158102489Y-65115954D03*
X158752489Y-65115954D03*
X159402489Y-65115954D03*
X160052489Y-65115954D03*
X160702489Y-65115954D03*
X161352489Y-65115954D03*
X162002489Y-65115954D03*
X162002489Y-59315954D03*
X161352489Y-59315954D03*
X160702489Y-59315954D03*
X160052489Y-59315954D03*
X159402489Y-59315954D03*
X158752489Y-59315954D03*
X158102489Y-59315954D03*
X157452489Y-59315954D03*
X156802489Y-59315954D03*
X156152489Y-59315954D03*
%TD*%
D37*
%TO.C,C19*%
X143737124Y-58425496D03*
X142187124Y-58425496D03*
%TD*%
D29*
%TO.C,C14*%
X148800000Y-63050000D03*
X150350000Y-63050000D03*
%TD*%
D17*
%TO.C,R7*%
X126933060Y-123184860D03*
X126933060Y-124834860D03*
%TD*%
D42*
%TO.C,C16*%
X142410110Y-70193107D03*
X145360110Y-70193107D03*
%TD*%
D44*
%TO.C,J3*%
X143120000Y-91350000D03*
X143120000Y-87450000D03*
X144390000Y-91350000D03*
X144390000Y-87450000D03*
X145660000Y-91350000D03*
X145660000Y-87450000D03*
X146930000Y-91350000D03*
X146930000Y-87450000D03*
X148200000Y-91350000D03*
X148200000Y-87450000D03*
%TD*%
D45*
%TO.C,U13*%
X161435125Y-133881507D03*
X161435125Y-133081507D03*
X161435125Y-132281507D03*
X161435125Y-131481507D03*
X161435125Y-130681507D03*
X161435125Y-129881507D03*
X161435125Y-129081507D03*
X161435125Y-128281507D03*
D46*
X159985125Y-126831507D03*
X159185125Y-126831507D03*
X158385125Y-126831507D03*
X157585125Y-126831507D03*
X156785125Y-126831507D03*
X155985125Y-126831507D03*
X155185125Y-126831507D03*
X154385125Y-126831507D03*
D45*
X152935125Y-128281507D03*
X152935125Y-129081507D03*
X152935125Y-129881507D03*
X152935125Y-130681507D03*
X152935125Y-131481507D03*
X152935125Y-132281507D03*
X152935125Y-133081507D03*
X152935125Y-133881507D03*
D46*
X154385125Y-135331507D03*
X155185125Y-135331507D03*
X155985125Y-135331507D03*
X156785125Y-135331507D03*
X157585125Y-135331507D03*
X158385125Y-135331507D03*
X159185125Y-135331507D03*
X159985125Y-135331507D03*
%TD*%
D21*
%TO.C,C30*%
X158706303Y-138228159D03*
X158706303Y-139778159D03*
%TD*%
D38*
%TO.C,C32*%
X162350000Y-122825000D03*
X162350000Y-124725000D03*
%TD*%
D47*
%TO.C,U1*%
X145631329Y-62691102D03*
X145631329Y-61341102D03*
X144281329Y-62691102D03*
X144281329Y-61341102D03*
D48*
X146918829Y-63266102D03*
X146918829Y-62766102D03*
X146918829Y-62266102D03*
X146918829Y-61766102D03*
X146918829Y-61266102D03*
X146918829Y-60766102D03*
D49*
X146206329Y-60053602D03*
X145706329Y-60053602D03*
X145206329Y-60053602D03*
X144706329Y-60053602D03*
X144206329Y-60053602D03*
X143706329Y-60053602D03*
D48*
X142993829Y-60766102D03*
X142993829Y-61266102D03*
X142993829Y-61766102D03*
X142993829Y-62266102D03*
X142993829Y-62766102D03*
X142993829Y-63266102D03*
D49*
X143706329Y-63978602D03*
X144206329Y-63978602D03*
X144706329Y-63978602D03*
X145206329Y-63978602D03*
X145706329Y-63978602D03*
X146206329Y-63978602D03*
%TD*%
D38*
%TO.C,C23*%
X141935224Y-121429451D03*
X141935224Y-123329451D03*
%TD*%
%TO.C,C2*%
X155850000Y-55100297D03*
X155850000Y-57000297D03*
%TD*%
D30*
%TO.C,C34*%
X160450000Y-124750000D03*
X160450000Y-123200000D03*
%TD*%
D50*
%TO.C,U7*%
X140649979Y-71988235D03*
X140649979Y-71538235D03*
X140649979Y-71088235D03*
X140649979Y-70638235D03*
X140649979Y-70188235D03*
X140649979Y-69738235D03*
X137779979Y-69738235D03*
X137779979Y-70188235D03*
X137779979Y-70638235D03*
X137779979Y-71088235D03*
X137779979Y-71538235D03*
X137779979Y-71988235D03*
%TD*%
D31*
%TO.C,C35*%
X160630219Y-140113755D03*
X160630219Y-138213755D03*
%TD*%
D16*
%TO.C,R32*%
X149175000Y-119500000D03*
X147525000Y-119500000D03*
%TD*%
D51*
%TO.C,Q2*%
X135751566Y-139296014D03*
X135751566Y-137996014D03*
X133751566Y-138646014D03*
%TD*%
D36*
%TO.C,R15*%
X154512500Y-64900000D03*
X152687500Y-64900000D03*
%TD*%
D27*
%TO.C,R2*%
X140712424Y-113160939D03*
X140712424Y-111510939D03*
%TD*%
D52*
%TO.C,J6*%
X149054987Y-143996371D03*
D53*
X137814987Y-139996371D03*
X149054987Y-139996371D03*
D52*
X137814987Y-143996371D03*
%TD*%
M02*
