%TF.GenerationSoftware,KiCad,Pcbnew,8.0.9*%
%TF.CreationDate,2026-09-15T11:56:04-04:00*%
%TF.ProjectId,tangara-mainboard,74616e67-6172-4612-9d6d-61696e626f61,rev?*%
%TF.SameCoordinates,Original*%
%TF.FileFunction,Soldermask,Bot*%
%TF.FilePolarity,Negative*%
%FSLAX46Y46*%
G04 Gerber Fmt 4.6, Leading zero omitted, Abs format (unit mm)*
G04 Created by KiCad (PCBNEW 8.0.9) date 2026-09-15 11:56:04*
%MOMM*%
%LPD*%
G01*
G04 APERTURE LIST*
G04 Aperture macros list*
%AMRoundRect*
0 Rectangle with rounded corners*
0 $1 Rounding radius*
0 $2 $3 $4 $5 $6 $7 $8 $9 X,Y pos of 4 corners*
0 Add a 4 corners polygon primitive as box body*
4,1,4,$2,$3,$4,$5,$6,$7,$8,$9,$2,$3,0*
0 Add four circle primitives for the rounded corners*
1,1,$1+$1,$2,$3*
1,1,$1+$1,$4,$5*
1,1,$1+$1,$6,$7*
1,1,$1+$1,$8,$9*
0 Add four rect primitives between the rounded corners*
20,1,$1+$1,$2,$3,$4,$5,0*
20,1,$1+$1,$4,$5,$6,$7,0*
20,1,$1+$1,$6,$7,$8,$9,0*
20,1,$1+$1,$8,$9,$2,$3,0*%
G04 Aperture macros list end*
%ADD10C,0.600000*%
%ADD11C,4.400000*%
%ADD12RoundRect,0.250000X0.475000X-0.250000X0.475000X0.250000X-0.475000X0.250000X-0.475000X-0.250000X0*%
%ADD13R,0.600000X1.100000*%
%ADD14R,0.300000X1.100000*%
%ADD15O,1.000000X2.200000*%
%ADD16O,1.000000X1.800000*%
%ADD17RoundRect,0.200000X-0.275000X0.200000X-0.275000X-0.200000X0.275000X-0.200000X0.275000X0.200000X0*%
%ADD18RoundRect,0.225000X-0.250000X0.225000X-0.250000X-0.225000X0.250000X-0.225000X0.250000X0.225000X0*%
%ADD19RoundRect,0.200000X-0.200000X-0.275000X0.200000X-0.275000X0.200000X0.275000X-0.200000X0.275000X0*%
%ADD20C,1.000000*%
%ADD21RoundRect,0.250000X-0.350000X-0.625000X0.350000X-0.625000X0.350000X0.625000X-0.350000X0.625000X0*%
%ADD22O,1.200000X1.750000*%
%ADD23R,1.800000X1.100000*%
%ADD24R,0.650000X0.300000*%
%ADD25RoundRect,0.200000X0.275000X-0.200000X0.275000X0.200000X-0.275000X0.200000X-0.275000X-0.200000X0*%
%ADD26RoundRect,0.100000X-0.100000X0.637500X-0.100000X-0.637500X0.100000X-0.637500X0.100000X0.637500X0*%
%ADD27C,1.300000*%
%ADD28R,2.000000X1.100000*%
%ADD29R,1.000000X2.000000*%
%ADD30R,2.000000X2.000000*%
%ADD31RoundRect,0.102000X-0.525000X0.725000X-0.525000X-0.725000X0.525000X-0.725000X0.525000X0.725000X0*%
%ADD32RoundRect,0.102000X-0.400000X0.300000X-0.400000X-0.300000X0.400000X-0.300000X0.400000X0.300000X0*%
%ADD33RoundRect,0.225000X0.250000X-0.225000X0.250000X0.225000X-0.250000X0.225000X-0.250000X-0.225000X0*%
%ADD34RoundRect,0.250000X0.650000X-0.325000X0.650000X0.325000X-0.650000X0.325000X-0.650000X-0.325000X0*%
%ADD35RoundRect,0.400000X0.000010X0.400000X-0.000010X0.400000X-0.000010X-0.400000X0.000010X-0.400000X0*%
%ADD36O,0.900000X3.000000*%
%ADD37C,0.800000*%
%ADD38R,5.000000X5.000000*%
%ADD39C,0.900000*%
%ADD40R,2.500000X1.250000*%
%ADD41RoundRect,0.250000X-1.100000X0.325000X-1.100000X-0.325000X1.100000X-0.325000X1.100000X0.325000X0*%
%ADD42RoundRect,0.250000X-0.475000X0.250000X-0.475000X-0.250000X0.475000X-0.250000X0.475000X0.250000X0*%
%ADD43O,1.404000X1.904000*%
%ADD44O,1.404000X2.004000*%
%ADD45RoundRect,0.020000X0.180000X-0.575000X0.180000X0.575000X-0.180000X0.575000X-0.180000X-0.575000X0*%
G04 APERTURE END LIST*
D10*
%TO.C,H4*%
X165250000Y-143000000D03*
X165733274Y-141833274D03*
X165733274Y-144166726D03*
X166900000Y-141350000D03*
D11*
X166900000Y-143000000D03*
D10*
X166900000Y-144650000D03*
X168066726Y-141833274D03*
X168066726Y-144166726D03*
X168550000Y-143000000D03*
%TD*%
%TO.C,H2*%
X165250000Y-54050000D03*
X165733274Y-52883274D03*
X165733274Y-55216726D03*
X166900000Y-52400000D03*
D11*
X166900000Y-54050000D03*
D10*
X166900000Y-55700000D03*
X168066726Y-52883274D03*
X168066726Y-55216726D03*
X168550000Y-54050000D03*
%TD*%
%TO.C,H3*%
X118450000Y-143000000D03*
X118933274Y-141833274D03*
X118933274Y-144166726D03*
X120100000Y-141350000D03*
D11*
X120100000Y-143000000D03*
D10*
X120100000Y-144650000D03*
X121266726Y-141833274D03*
X121266726Y-144166726D03*
X121750000Y-143000000D03*
%TD*%
%TO.C,H1*%
X118450000Y-54050000D03*
X118933274Y-52883274D03*
X118933274Y-55216726D03*
X120100000Y-52400000D03*
D11*
X120100000Y-54050000D03*
D10*
X120100000Y-55700000D03*
X121266726Y-52883274D03*
X121266726Y-55216726D03*
X121750000Y-54050000D03*
%TD*%
D12*
%TO.C,C41*%
X128357347Y-77841611D03*
X128357347Y-75941611D03*
%TD*%
D13*
%TO.C,J6*%
X146634987Y-138846371D03*
X145834987Y-138846371D03*
D14*
X144684987Y-138846371D03*
X143684987Y-138846371D03*
X143184987Y-138846371D03*
X142184987Y-138846371D03*
D13*
X140234987Y-138846371D03*
X141034987Y-138846371D03*
D14*
X141684987Y-138846371D03*
X142684987Y-138846371D03*
X144184987Y-138846371D03*
X145184987Y-138846371D03*
D15*
X149054987Y-143996371D03*
D16*
X137814987Y-139996371D03*
X149054987Y-139996371D03*
D15*
X137814987Y-143996371D03*
%TD*%
D17*
%TO.C,R49*%
X134180064Y-76236060D03*
X134180064Y-77886060D03*
%TD*%
%TO.C,R56*%
X130540607Y-76266611D03*
X130540607Y-77916611D03*
%TD*%
D18*
%TO.C,C40*%
X132464132Y-76291611D03*
X132464132Y-77841611D03*
%TD*%
D19*
%TO.C,R57*%
X129862103Y-109171683D03*
X131512103Y-109171683D03*
%TD*%
D20*
%TO.C,TP3*%
X145718473Y-57211564D03*
%TD*%
%TO.C,TP4*%
X143216731Y-57190541D03*
%TD*%
%TO.C,TP5*%
X159377204Y-82646524D03*
%TD*%
D21*
%TO.C,J7*%
X125384805Y-141798597D03*
D22*
X127384805Y-141798597D03*
X129384805Y-141798597D03*
%TD*%
D23*
%TO.C,J2*%
X163950000Y-101550000D03*
X163950000Y-90550000D03*
D24*
X166750000Y-99550000D03*
X166750000Y-99050000D03*
X166750000Y-98550000D03*
X166750000Y-98050000D03*
X166750000Y-97550000D03*
X166750000Y-97050000D03*
X166750000Y-96550000D03*
X166750000Y-96050000D03*
X166750000Y-95550000D03*
X166750000Y-95050000D03*
X166750000Y-94550000D03*
X166750000Y-94050000D03*
X166750000Y-93550000D03*
X166750000Y-93050000D03*
X166750000Y-92550000D03*
%TD*%
D19*
%TO.C,R12*%
X129433592Y-125684409D03*
X131083592Y-125684409D03*
%TD*%
D25*
%TO.C,R1*%
X133083246Y-142680538D03*
X133083246Y-141030538D03*
%TD*%
D26*
%TO.C,U14*%
X123875000Y-112162500D03*
X124525000Y-112162500D03*
X125175000Y-112162500D03*
X125825000Y-112162500D03*
X126475000Y-112162500D03*
X127125000Y-112162500D03*
X127775000Y-112162500D03*
X128425000Y-112162500D03*
X128425000Y-117887500D03*
X127775000Y-117887500D03*
X127125000Y-117887500D03*
X126475000Y-117887500D03*
X125825000Y-117887500D03*
X125175000Y-117887500D03*
X124525000Y-117887500D03*
X123875000Y-117887500D03*
%TD*%
D27*
%TO.C,J4*%
X136493505Y-107800000D03*
X136493505Y-130200000D03*
D28*
X134293505Y-125775000D03*
X134293505Y-123275000D03*
X134293505Y-120775000D03*
X134293505Y-118275000D03*
X134293505Y-115775000D03*
X134293505Y-113275000D03*
X134293505Y-110850000D03*
X134293505Y-109150000D03*
X134293505Y-128275000D03*
D29*
X145693505Y-106100000D03*
D30*
X159693505Y-105200000D03*
X141043505Y-105200000D03*
X159693505Y-134200000D03*
X141043505Y-134200000D03*
D29*
X157243505Y-106100000D03*
X154643505Y-106100000D03*
%TD*%
D31*
%TO.C,SW2*%
X166930031Y-60305976D03*
X166930031Y-64855976D03*
D32*
X168655031Y-59380976D03*
X168655031Y-65780976D03*
%TD*%
D31*
%TO.C,SW3*%
X166930031Y-71516660D03*
X166930031Y-76066660D03*
D32*
X168655031Y-70591660D03*
X168655031Y-76991660D03*
%TD*%
D33*
%TO.C,C39*%
X126319733Y-77922010D03*
X126319733Y-76372010D03*
%TD*%
D34*
%TO.C,C38*%
X124169999Y-77829839D03*
X124169999Y-74879839D03*
%TD*%
D25*
%TO.C,R58*%
X126611948Y-108764576D03*
X126611948Y-107114576D03*
%TD*%
D35*
%TO.C,J5*%
X161811989Y-144028955D03*
X160541989Y-144028955D03*
X159271989Y-144028955D03*
X158001989Y-144028955D03*
X156731989Y-144028955D03*
%TD*%
D17*
%TO.C,R4*%
X125474130Y-66402334D03*
X125474130Y-68052334D03*
%TD*%
D36*
%TO.C,U15*%
X125100000Y-82400000D03*
X126370000Y-82400000D03*
X127640000Y-82400000D03*
X128910000Y-82400000D03*
X130180000Y-82400000D03*
X131450000Y-82400000D03*
X132720000Y-82400000D03*
X133990000Y-82400000D03*
X135260000Y-82400000D03*
X136530000Y-82400000D03*
X137800000Y-82400000D03*
X139070000Y-82400000D03*
X140340000Y-82400000D03*
X141610000Y-82400000D03*
X142910000Y-82400000D03*
X144180000Y-82400000D03*
X145450000Y-82400000D03*
X146720000Y-82400000D03*
X147990000Y-82400000D03*
X147990000Y-100400000D03*
X146720000Y-100400000D03*
X145450000Y-100400000D03*
X144180000Y-100400000D03*
X142910000Y-100400000D03*
X141610000Y-100430000D03*
X140340000Y-100430000D03*
X139070000Y-100430000D03*
X137800000Y-100430000D03*
X136530000Y-100430000D03*
X135260000Y-100430000D03*
X133990000Y-100430000D03*
X132720000Y-100430000D03*
X131450000Y-100430000D03*
X130180000Y-100430000D03*
X128910000Y-100430000D03*
X127640000Y-100430000D03*
X126370000Y-100430000D03*
X125100000Y-100430000D03*
D37*
X134010000Y-89000000D03*
X133010000Y-89000000D03*
X132010000Y-89000000D03*
X131010000Y-89000000D03*
X130010000Y-89000000D03*
X134010000Y-90000000D03*
X133010000Y-90000000D03*
X132010000Y-90000000D03*
X131010000Y-90000000D03*
X130010000Y-90000000D03*
X134010000Y-91000000D03*
X133010000Y-91000000D03*
D38*
X132020000Y-91000000D03*
D37*
X132010000Y-91000000D03*
X131010000Y-91000000D03*
X130010000Y-91000000D03*
X134010000Y-92000000D03*
X133010000Y-92000000D03*
X132010000Y-92000000D03*
X131010000Y-92000000D03*
X130010000Y-92000000D03*
X134010000Y-93000000D03*
X133010000Y-93000000D03*
X132010000Y-93000000D03*
X131010000Y-93000000D03*
X130010000Y-93000000D03*
%TD*%
D20*
%TO.C,TP7*%
X134452866Y-138467202D03*
%TD*%
D33*
%TO.C,C31*%
X122550000Y-118150000D03*
X122550000Y-116600000D03*
%TD*%
D39*
%TO.C,SW1*%
X119989830Y-72059556D03*
X119989830Y-65259556D03*
D40*
X122739830Y-71159556D03*
X122739830Y-68659556D03*
X122739830Y-66159556D03*
%TD*%
D19*
%TO.C,R11*%
X129433592Y-123260288D03*
X131083592Y-123260288D03*
%TD*%
D41*
%TO.C,C29*%
X122300000Y-125900000D03*
X122300000Y-128850000D03*
%TD*%
D20*
%TO.C,TP6*%
X153533729Y-79603407D03*
%TD*%
D42*
%TO.C,C42*%
X131300000Y-118650000D03*
X131300000Y-120550000D03*
%TD*%
D43*
%TO.C,J1*%
X124173310Y-53292584D03*
D44*
X124173310Y-60992584D03*
D43*
X136173310Y-62942584D03*
X136173310Y-60442584D03*
X136173310Y-53292584D03*
D44*
X124173310Y-63092584D03*
D43*
X124173310Y-57322584D03*
X136173310Y-57322584D03*
%TD*%
D17*
%TO.C,R55*%
X135915272Y-76214769D03*
X135915272Y-77864769D03*
%TD*%
D19*
%TO.C,R61*%
X129433592Y-128108531D03*
X131083592Y-128108531D03*
%TD*%
D45*
%TO.C,U16*%
X125300000Y-122720000D03*
X124650000Y-122720000D03*
X124000000Y-122720000D03*
X124000000Y-120800000D03*
X124650000Y-120800000D03*
X125300000Y-120800000D03*
%TD*%
D19*
%TO.C,R9*%
X129831118Y-111768645D03*
X131481118Y-111768645D03*
%TD*%
M02*
