M48
; DRILL file {KiCad 8.0.9} date 2026-09-21T22:10:10-0400
; FORMAT={-:-/ absolute / metric / decimal}
; #@! TF.CreationDate,2026-09-21T22:10:10-04:00
; #@! TF.GenerationSoftware,Kicad,Pcbnew,8.0.9
; #@! TF.FileFunction,Plated,1,4,PTH
FMAT,2
METRIC
; #@! TA.AperFunction,Plated,PTH,ComponentDrill
T1C0.250
; #@! TA.AperFunction,Plated,PTH,ViaDrill
T2C0.300
; #@! TA.AperFunction,Plated,PTH,ComponentDrill
T3C1.000
%
G90
G05
T1
X52.0Y-71.5
X52.0Y-72.5
T2
X18.851Y-158.819
X19.511Y-149.858
X21.404Y-147.43
X22.41Y-129.431
X22.825Y-137.038
X23.175Y-161.978
X23.175Y-165.078
X23.702Y-102.562
X23.897Y-168.684
X24.825Y-158.0
X24.825Y-159.993
X25.175Y-144.228
X25.938Y-108.816
X26.825Y-106.653
X27.829Y-100.944
X29.175Y-147.256
X30.441Y-139.111
X30.453Y-144.445
X31.308Y-136.99
X33.5Y-134.801
X35.332Y-105.677
X40.394Y-112.023
X41.989Y-92.431
X42.723Y-91.668
X44.62Y-112.973
X46.11Y-114.321
X47.446Y-29.06
X48.175Y-48.497
X49.214Y-58.932
X49.825Y-25.0
X49.835Y-50.427
X50.0Y-69.025
X50.605Y-25.725
X50.776Y-30.92
X51.383Y-79.951
X51.704Y-20.729
X52.139Y-25.824
X52.95Y-70.622
X54.379Y-28.13
X55.256Y-27.191
X55.278Y-55.43
X56.673Y-63.39
X56.75Y-52.174
X57.137Y-57.831
X57.75Y-59.517
X58.95Y-36.0
X59.0Y-54.9
X59.8Y-57.0
X60.15Y-53.601
X62.475Y-76.0
X62.95Y-36.0
X62.95Y-57.0
X62.95Y-61.0
T3
X11.85Y-172.32
X14.39Y-172.32
X16.93Y-172.32
X19.47Y-172.32
X22.01Y-152.0
X22.01Y-172.32
X24.55Y-152.0
X24.55Y-172.32
X27.09Y-152.0
X27.09Y-172.32
X29.63Y-152.0
X29.63Y-172.32
X32.17Y-152.0
X32.17Y-172.32
X34.71Y-152.0
X34.71Y-172.32
X37.25Y-152.0
X37.25Y-172.32
X39.79Y-152.0
X39.79Y-172.32
X42.33Y-152.0
X42.33Y-172.32
X44.87Y-152.0
X44.87Y-172.32
X47.41Y-152.0
X47.41Y-172.32
X49.95Y-152.0
X49.95Y-172.32
M30
