%TF.GenerationSoftware,KiCad,Pcbnew,8.0.9*%
%TF.CreationDate,2026-09-14T08:43:30-04:00*%
%TF.ProjectId,tangara-faceplate,74616e67-6172-4612-9d66-616365706c61,rev?*%
%TF.SameCoordinates,Original*%
%TF.FileFunction,Copper,L1,Top*%
%TF.FilePolarity,Positive*%
%FSLAX46Y46*%
G04 Gerber Fmt 4.6, Leading zero omitted, Abs format (unit mm)*
G04 Created by KiCad (PCBNEW 8.0.9) date 2026-09-14 08:43:30*
%MOMM*%
%LPD*%
G01*
G04 APERTURE LIST*
G04 Aperture macros list*
%AMRoundRect*
0 Rectangle with rounded corners*
0 $1 Rounding radius*
0 $2 $3 $4 $5 $6 $7 $8 $9 X,Y pos of 4 corners*
0 Add a 4 corners polygon primitive as box body*
4,1,4,$2,$3,$4,$5,$6,$7,$8,$9,$2,$3,0*
0 Add four circle primitives for the rounded corners*
1,1,$1+$1,$2,$3*
1,1,$1+$1,$4,$5*
1,1,$1+$1,$6,$7*
1,1,$1+$1,$8,$9*
0 Add four rect primitives between the rounded corners*
20,1,$1+$1,$2,$3,$4,$5,0*
20,1,$1+$1,$4,$5,$6,$7,0*
20,1,$1+$1,$6,$7,$8,$9,0*
20,1,$1+$1,$8,$9,$2,$3,0*%
G04 Aperture macros list end*
%TA.AperFunction,EtchedComponent*%
%ADD10C,0.000000*%
%TD*%
%TA.AperFunction,EtchedComponent*%
%ADD11C,1.000000*%
%TD*%
%TA.AperFunction,EtchedComponent*%
%ADD12C,2.500000*%
%TD*%
%TA.AperFunction,ComponentPad*%
%ADD13C,1.000000*%
%TD*%
%TA.AperFunction,SMDPad,CuDef*%
%ADD14RoundRect,0.063500X-0.138333X-0.418842X-0.013262X-0.440895X0.138333X0.418842X0.013262X0.440895X0*%
%TD*%
%TA.AperFunction,ComponentPad*%
%ADD15C,0.700000*%
%TD*%
%TA.AperFunction,ComponentPad*%
%ADD16C,4.400000*%
%TD*%
%TA.AperFunction,SMDPad,CuDef*%
%ADD17R,1.998980X0.497840*%
%TD*%
%TA.AperFunction,ViaPad*%
%ADD18C,0.500000*%
%TD*%
%TA.AperFunction,Conductor*%
%ADD19C,0.254000*%
%TD*%
%TA.AperFunction,Conductor*%
%ADD20C,0.500000*%
%TD*%
%TA.AperFunction,Conductor*%
%ADD21C,0.800000*%
%TD*%
%TA.AperFunction,Conductor*%
%ADD22C,0.250000*%
%TD*%
G04 APERTURE END LIST*
D10*
%TA.AperFunction,EtchedComponent*%
%TO.C,SW2*%
G36*
X156040028Y-99918866D02*
G01*
X156040310Y-99929051D01*
X156040736Y-99938522D01*
X156041014Y-99948704D01*
X156041294Y-99958888D01*
X156042001Y-99968805D01*
X156042281Y-99978990D01*
X156042013Y-99988298D01*
X156042719Y-99998216D01*
X156043545Y-100009273D01*
X156043826Y-100019458D01*
X156043984Y-100028499D01*
X156044264Y-100038683D01*
X156044545Y-100048868D01*
X156044970Y-100058336D01*
X156045516Y-100068947D01*
X156045515Y-100078682D01*
X156045794Y-100088863D01*
X156046501Y-100098781D01*
X156046779Y-100108966D01*
X156047060Y-100119150D01*
X156047448Y-100125614D01*
X155488720Y-100211506D01*
X154800108Y-100345043D01*
X154118448Y-100505310D01*
X153444728Y-100692912D01*
X152780154Y-100905877D01*
X152125273Y-101145082D01*
X151481567Y-101408989D01*
X150850015Y-101698212D01*
X150231670Y-102011479D01*
X149626488Y-102348789D01*
X149036731Y-102708795D01*
X148462085Y-103091026D01*
X147903979Y-103495826D01*
X147363621Y-103921231D01*
X146840734Y-104366791D01*
X146337345Y-104831854D01*
X145853179Y-105315983D01*
X145389554Y-105818354D01*
X144946800Y-106337542D01*
X144525514Y-106872564D01*
X144126413Y-107423582D01*
X143750263Y-107988899D01*
X143396953Y-108567364D01*
X143067633Y-109158867D01*
X142762357Y-109761548D01*
X142482009Y-110374860D01*
X142226034Y-110997924D01*
X141995910Y-111629205D01*
X141790931Y-112268544D01*
X141611860Y-112914237D01*
X141458148Y-113565406D01*
X141331553Y-114220966D01*
X141230372Y-114880140D01*
X141155649Y-115541675D01*
X141107271Y-116204419D01*
X141085574Y-116866942D01*
X141089401Y-117529358D01*
X141119958Y-118189699D01*
X141176265Y-118847356D01*
X141258640Y-119500906D01*
X141366817Y-120149913D01*
X141499975Y-120793061D01*
X141658003Y-121429201D01*
X141841500Y-122057343D01*
X142048771Y-122676726D01*
X142279982Y-123286635D01*
X142534749Y-123885479D01*
X142813070Y-124473260D01*
X143113140Y-125048062D01*
X143511906Y-125742781D01*
X143945976Y-125471545D01*
X143950070Y-125468358D01*
X143975465Y-125452490D01*
X143979701Y-125450471D01*
X144180788Y-125324818D01*
X143870706Y-124647199D01*
X143639270Y-124083742D01*
X143430293Y-123512344D01*
X143244431Y-122935034D01*
X143081853Y-122351097D01*
X142942066Y-121762671D01*
X142826047Y-121170359D01*
X142733646Y-120574868D01*
X142664516Y-119977629D01*
X142619654Y-119379241D01*
X142597746Y-118780527D01*
X142599340Y-118182364D01*
X142624535Y-117585902D01*
X142673179Y-116991850D01*
X142744937Y-116401633D01*
X142839809Y-115815259D01*
X142956487Y-115233538D01*
X143096331Y-114658668D01*
X143258469Y-114091194D01*
X143442459Y-113531394D01*
X143647706Y-112980247D01*
X143874315Y-112438908D01*
X144121134Y-111907483D01*
X144388551Y-111387566D01*
X144675410Y-110879262D01*
X144981550Y-110383289D01*
X145306201Y-109901338D01*
X145649092Y-109432972D01*
X146009183Y-108979452D01*
X146386038Y-108541053D01*
X146779484Y-108118485D01*
X147187775Y-107712846D01*
X147611620Y-107324297D01*
X148048996Y-106953500D01*
X148500172Y-106600889D01*
X148963999Y-106266575D01*
X149439163Y-105951379D01*
X149925930Y-105655724D01*
X150422727Y-105380026D01*
X150928671Y-105124810D01*
X151443486Y-104889645D01*
X151966134Y-104675792D01*
X152496335Y-104482810D01*
X153031797Y-104310913D01*
X153573064Y-104160987D01*
X154118433Y-104032257D01*
X154667308Y-103925712D01*
X155219139Y-103840476D01*
X155772611Y-103777373D01*
X156173965Y-103747775D01*
X156174356Y-103752397D01*
X156174355Y-103762132D01*
X156174635Y-103772315D01*
X156175339Y-103782231D01*
X156175620Y-103792415D01*
X156175899Y-103802599D01*
X156176606Y-103812517D01*
X156176886Y-103822702D01*
X156177166Y-103832886D01*
X156177872Y-103842804D01*
X156178153Y-103852987D01*
X156178151Y-103862723D01*
X156178858Y-103872641D01*
X156179138Y-103882826D01*
X156179418Y-103893010D01*
X156179697Y-103903191D01*
X156180403Y-103913109D01*
X156180682Y-103923293D01*
X156180962Y-103933477D01*
X156181388Y-103942945D01*
X156181669Y-103953130D01*
X156181948Y-103963315D01*
X156182229Y-103963764D01*
X155780597Y-104036796D01*
X155252918Y-104153860D01*
X154731103Y-104291029D01*
X154216128Y-104448902D01*
X153709184Y-104625529D01*
X153210147Y-104821583D01*
X152719875Y-105036535D01*
X152239677Y-105269565D01*
X151769831Y-105521112D01*
X151310664Y-105789746D01*
X150863604Y-106075807D01*
X150429250Y-106378298D01*
X150007328Y-106696787D01*
X149599154Y-107030449D01*
X149205002Y-107379725D01*
X148825636Y-107742914D01*
X148461500Y-108119745D01*
X148113466Y-108509669D01*
X147780550Y-108912085D01*
X147465213Y-109326059D01*
X147166310Y-109751703D01*
X146885046Y-110187044D01*
X146620979Y-110632355D01*
X146375426Y-111086815D01*
X146148279Y-111549276D01*
X145939699Y-112019022D01*
X145749685Y-112496058D01*
X145579011Y-112978680D01*
X145427671Y-113466897D01*
X145295286Y-113959107D01*
X145183000Y-114455209D01*
X145090270Y-114954331D01*
X145016551Y-115455585D01*
X144963151Y-115958159D01*
X144929086Y-116461446D01*
X144914959Y-116964460D01*
X144920224Y-117466328D01*
X144944883Y-117967047D01*
X144989262Y-118465191D01*
X145052371Y-118960162D01*
X145134820Y-119450970D01*
X145236333Y-119937179D01*
X145355920Y-120418187D01*
X145494187Y-120893006D01*
X145650147Y-121361035D01*
X145823963Y-121821559D01*
X146015367Y-122274147D01*
X146223804Y-122717912D01*
X146448733Y-123151985D01*
X146765786Y-123710082D01*
X146903111Y-123623647D01*
X147317873Y-123364475D01*
X147430344Y-123294821D01*
X147208273Y-122759028D01*
X147052637Y-122338324D01*
X146913488Y-121912802D01*
X146790936Y-121483616D01*
X146685695Y-121050923D01*
X146597162Y-120615712D01*
X146525612Y-120178421D01*
X146470874Y-119739762D01*
X146433231Y-119300175D01*
X146412347Y-118861081D01*
X146408665Y-118422208D01*
X146421574Y-117984541D01*
X146451633Y-117548959D01*
X146497961Y-117116005D01*
X146560831Y-116686122D01*
X146639803Y-116259582D01*
X146735265Y-115837975D01*
X146846063Y-115421408D01*
X146972908Y-115010043D01*
X147114765Y-114605146D01*
X147271903Y-114207150D01*
X147443883Y-113816334D01*
X147629832Y-113433242D01*
X147830297Y-113058751D01*
X148044838Y-112693139D01*
X148271868Y-112336782D01*
X148512371Y-111990282D01*
X148765035Y-111654472D01*
X149029856Y-111329341D01*
X149306400Y-111015167D01*
X149594064Y-110712933D01*
X149892131Y-110422478D01*
X150200716Y-110144955D01*
X150518115Y-109879589D01*
X150845595Y-109627427D01*
X151181127Y-109389123D01*
X151524872Y-109163970D01*
X151876228Y-108952934D01*
X152234041Y-108756148D01*
X152598327Y-108573609D01*
X152968635Y-108405589D01*
X153344088Y-108252635D01*
X153723979Y-108114577D01*
X154107597Y-107991252D01*
X154495207Y-107883107D01*
X154885229Y-107790518D01*
X155277821Y-107712771D01*
X155671672Y-107650690D01*
X156066782Y-107604277D01*
X156308240Y-107585017D01*
X156308464Y-107587373D01*
X156308742Y-107597556D01*
X156309023Y-107607740D01*
X156309302Y-107617923D01*
X156309728Y-107627391D01*
X156310007Y-107637574D01*
X156310287Y-107647758D01*
X156310566Y-107657941D01*
X156311271Y-107667858D01*
X156311549Y-107678040D01*
X156311551Y-107687776D01*
X156312257Y-107697695D01*
X156312535Y-107707875D01*
X156312814Y-107718058D01*
X156313094Y-107728243D01*
X156313800Y-107738161D01*
X156313813Y-107747917D01*
X156314093Y-107758101D01*
X156314799Y-107768016D01*
X156315077Y-107778200D01*
X156315356Y-107788383D01*
X156316063Y-107798300D01*
X156315723Y-107804597D01*
X156068839Y-107861980D01*
X155702810Y-107962735D01*
X155341707Y-108076255D01*
X154985813Y-108202974D01*
X154636703Y-108342513D01*
X154293512Y-108495419D01*
X153957714Y-108660157D01*
X153628872Y-108836997D01*
X153307857Y-109025391D01*
X152995384Y-109225510D01*
X152691633Y-109436657D01*
X152396311Y-109658366D01*
X152111012Y-109890263D01*
X151835023Y-110132188D01*
X151569495Y-110384027D01*
X151314320Y-110644632D01*
X151069934Y-110913729D01*
X150836339Y-111191316D01*
X150613701Y-111476682D01*
X150403329Y-111769009D01*
X150204349Y-112068837D01*
X150017532Y-112374476D01*
X149842712Y-112686632D01*
X149680649Y-113003612D01*
X149530915Y-113325686D01*
X149393942Y-113652582D01*
X149269621Y-113983149D01*
X149157954Y-114317386D01*
X149059544Y-114654310D01*
X148974389Y-114993917D01*
X148902382Y-115335061D01*
X148843080Y-115678015D01*
X148797363Y-116022228D01*
X148764410Y-116366389D01*
X148744930Y-116710658D01*
X148738381Y-117054163D01*
X148744483Y-117396467D01*
X148763952Y-117737727D01*
X148795524Y-118076908D01*
X148840081Y-118413462D01*
X148897351Y-118746950D01*
X148967050Y-119076932D01*
X149048473Y-119403247D01*
X149142058Y-119725616D01*
X149247416Y-120042454D01*
X149364392Y-120354476D01*
X149492870Y-120660527D01*
X149631972Y-120961152D01*
X149782472Y-121254664D01*
X150019068Y-121677184D01*
X150156833Y-121590472D01*
X150364026Y-121461003D01*
X150538114Y-121352543D01*
X150547255Y-121373931D01*
X150616971Y-121513403D01*
X150689406Y-121651467D01*
X150764537Y-121788083D01*
X150842342Y-121923208D01*
X150922845Y-122056819D01*
X151005952Y-122188813D01*
X151091637Y-122319150D01*
X151179873Y-122447790D01*
X151270480Y-122574597D01*
X151363549Y-122699590D01*
X151459054Y-122822735D01*
X151556967Y-122943996D01*
X151657387Y-123063270D01*
X151760121Y-123180539D01*
X151865137Y-123295768D01*
X151972403Y-123408923D01*
X152081845Y-123520078D01*
X152193443Y-123629054D01*
X152307161Y-123735819D01*
X152422962Y-123840338D01*
X152540623Y-123942496D01*
X152660255Y-124042316D01*
X152781825Y-124139771D01*
X152905299Y-124234834D01*
X152967844Y-124281449D01*
X153030841Y-124327444D01*
X153094285Y-124372816D01*
X153158171Y-124417563D01*
X153222492Y-124461679D01*
X153287246Y-124505163D01*
X153352426Y-124548010D01*
X153418027Y-124590217D01*
X153483916Y-124631762D01*
X153550205Y-124672657D01*
X153616890Y-124712898D01*
X153683967Y-124752482D01*
X153751427Y-124791407D01*
X153819266Y-124829669D01*
X153887480Y-124867264D01*
X153956064Y-124904191D01*
X154154358Y-125006066D01*
X154355314Y-125102280D01*
X154558808Y-125192782D01*
X154764721Y-125277526D01*
X154972929Y-125356463D01*
X155183310Y-125429544D01*
X155395742Y-125496722D01*
X155610102Y-125557948D01*
X155826021Y-125613119D01*
X156043273Y-125662182D01*
X156261730Y-125705117D01*
X156481262Y-125741904D01*
X156701738Y-125772523D01*
X156923030Y-125796954D01*
X157145008Y-125815178D01*
X157367540Y-125827174D01*
X157590341Y-125832951D01*
X157813085Y-125832475D01*
X158035641Y-125825756D01*
X158257878Y-125812802D01*
X158479664Y-125793623D01*
X158700868Y-125768229D01*
X158921359Y-125736630D01*
X159141007Y-125698834D01*
X159359481Y-125654915D01*
X159576510Y-125604913D01*
X159791968Y-125548868D01*
X160005727Y-125486816D01*
X160217664Y-125418798D01*
X160427651Y-125344851D01*
X160635565Y-125265014D01*
X160841277Y-125179325D01*
X161044531Y-125087797D01*
X161245016Y-124990657D01*
X161442621Y-124887974D01*
X161637230Y-124779811D01*
X161828731Y-124666234D01*
X162017008Y-124547308D01*
X162201947Y-124423101D01*
X162383438Y-124293674D01*
X162561225Y-124159244D01*
X162735066Y-124019961D01*
X162904868Y-123875913D01*
X163070532Y-123727190D01*
X163231961Y-123573881D01*
X163389061Y-123416074D01*
X163541731Y-123253859D01*
X163689880Y-123087325D01*
X163780001Y-122963741D01*
X163867717Y-122838457D01*
X163953004Y-122711507D01*
X164035838Y-122582926D01*
X164294042Y-122720167D01*
X164296791Y-122721568D01*
X164303145Y-122724898D01*
X164303426Y-122725347D01*
X164319821Y-122734008D01*
X164320550Y-122734179D01*
X164325260Y-122736725D01*
X164342615Y-122745974D01*
X164347326Y-122748519D01*
X164351757Y-122750619D01*
X164352037Y-122751067D01*
X164352487Y-122750786D01*
X164360810Y-122755319D01*
X164364793Y-122757698D01*
X164369504Y-122760246D01*
X164372251Y-122761648D01*
X164288980Y-122901429D01*
X164115912Y-123168615D01*
X163931837Y-123429884D01*
X163737467Y-123685399D01*
X163533123Y-123933740D01*
X163318376Y-124175175D01*
X163094536Y-124408888D01*
X162860890Y-124634711D01*
X162618153Y-124852810D01*
X162366654Y-125061761D01*
X162106390Y-125261563D01*
X161838072Y-125452375D01*
X161561598Y-125633061D01*
X161277951Y-125804219D01*
X160987012Y-125964678D01*
X160689065Y-126114902D01*
X160384709Y-126253899D01*
X160074387Y-126381390D01*
X159758808Y-126497544D01*
X159437968Y-126602354D01*
X159112037Y-126695118D01*
X158782162Y-126775719D01*
X158448345Y-126844156D01*
X158111024Y-126900163D01*
X157770638Y-126943458D01*
X157428059Y-126973500D01*
X157083402Y-126991431D01*
X156737430Y-126995565D01*
X156390256Y-126987039D01*
X156042752Y-126965318D01*
X155695361Y-126930117D01*
X155348626Y-126882321D01*
X155002442Y-126820772D01*
X154658235Y-126745806D01*
X154315829Y-126658131D01*
X153975838Y-126556762D01*
X153639519Y-126442740D01*
X153305886Y-126315462D01*
X152977073Y-126175420D01*
X152652372Y-126022452D01*
X152333200Y-125856889D01*
X152019126Y-125678998D01*
X151711298Y-125488674D01*
X151409988Y-125286354D01*
X151115474Y-125072478D01*
X150828629Y-124846495D01*
X150549562Y-124609559D01*
X150279153Y-124361120D01*
X150017508Y-124102329D01*
X149678035Y-123740440D01*
X149564824Y-123811805D01*
X149513978Y-123843577D01*
X149505935Y-123849227D01*
X149209630Y-124034379D01*
X149201024Y-124039133D01*
X149158502Y-124065703D01*
X149016233Y-124153980D01*
X149335197Y-124617649D01*
X149580458Y-124945787D01*
X149838316Y-125264832D01*
X150109653Y-125574238D01*
X150393316Y-125874114D01*
X150688756Y-126163583D01*
X150995974Y-126442647D01*
X151314147Y-126709986D01*
X151643715Y-126965331D01*
X151983529Y-127208793D01*
X152333476Y-127439216D01*
X152692683Y-127657152D01*
X153061478Y-127861177D01*
X153438269Y-128051671D01*
X153823224Y-128227925D01*
X154216070Y-128389500D01*
X154615379Y-128536065D01*
X155021154Y-128667622D01*
X155432682Y-128784008D01*
X155849689Y-128884781D01*
X156271191Y-128969342D01*
X156696307Y-129038236D01*
X157125369Y-129090038D01*
X157556899Y-129126289D01*
X157990512Y-129145392D01*
X158426042Y-129148063D01*
X158862067Y-129133968D01*
X159298587Y-129103115D01*
X159734177Y-129055172D01*
X160169115Y-128990576D01*
X160601969Y-128908999D01*
X161032743Y-128810443D01*
X161460286Y-128695012D01*
X161884000Y-128563696D01*
X162303495Y-128414906D01*
X162718008Y-128250343D01*
X163126990Y-128069124D01*
X163529562Y-127871799D01*
X163925126Y-127659358D01*
X164313129Y-127430915D01*
X164693137Y-127186751D01*
X165064554Y-126927865D01*
X165426217Y-126654344D01*
X165778130Y-126366196D01*
X166118982Y-126064239D01*
X166449481Y-125748649D01*
X166768040Y-125419797D01*
X167074658Y-125077691D01*
X167368295Y-124723584D01*
X167569460Y-124461386D01*
X167572208Y-124462789D01*
X167576920Y-124465336D01*
X167581630Y-124467883D01*
X167586063Y-124469981D01*
X167590494Y-124472079D01*
X167595205Y-124474626D01*
X167599636Y-124476725D01*
X167604068Y-124478823D01*
X167608780Y-124481369D01*
X167612761Y-124483749D01*
X167617473Y-124486295D01*
X167621904Y-124488394D01*
X167626336Y-124490492D01*
X167631047Y-124493038D01*
X167635478Y-124495136D01*
X167639908Y-124497235D01*
X167644172Y-124500063D01*
X167648602Y-124502161D01*
X167653033Y-124504258D01*
X167657745Y-124506805D01*
X167662176Y-124508905D01*
X167666887Y-124511451D01*
X167671318Y-124513549D01*
X167675301Y-124515928D01*
X167679732Y-124518026D01*
X167683448Y-124519978D01*
X167688158Y-124522524D01*
X167692870Y-124525072D01*
X167697301Y-124527170D01*
X167701734Y-124529268D01*
X167706444Y-124531815D01*
X167710426Y-124534194D01*
X167715138Y-124536740D01*
X167719569Y-124538840D01*
X167724280Y-124541384D01*
X167729093Y-124543246D01*
X167733075Y-124545624D01*
X167737786Y-124548171D01*
X167742879Y-124550478D01*
X167746862Y-124552859D01*
X167751292Y-124554957D01*
X167755724Y-124557055D01*
X167760434Y-124559601D01*
X167763871Y-124561105D01*
X167600939Y-124839629D01*
X167343451Y-125241834D01*
X167070186Y-125634392D01*
X166780874Y-126016873D01*
X166476388Y-126388725D01*
X166156893Y-126749236D01*
X165822832Y-127098133D01*
X165474804Y-127434430D01*
X165113410Y-127757143D01*
X164738212Y-128066542D01*
X164350531Y-128361809D01*
X163951233Y-128642392D01*
X163539780Y-128907422D01*
X163117596Y-129157223D01*
X162684835Y-129391079D01*
X162242819Y-129608171D01*
X161791275Y-129808066D01*
X161331626Y-129991087D01*
X160863760Y-130156087D01*
X160389102Y-130303393D01*
X159907821Y-130432292D01*
X159420788Y-130542238D01*
X158928993Y-130633835D01*
X158433037Y-130706093D01*
X157932916Y-130759016D01*
X157430500Y-130792656D01*
X156926223Y-130806740D01*
X156420085Y-130801268D01*
X155913677Y-130775860D01*
X155407981Y-130731114D01*
X154902885Y-130665885D01*
X154399662Y-130581204D01*
X153899444Y-130476974D01*
X153401974Y-130352746D01*
X152908941Y-130209296D01*
X152421224Y-130046069D01*
X151938656Y-129863781D01*
X151462828Y-129662048D01*
X150993848Y-129442021D01*
X150533306Y-129203314D01*
X150081205Y-128945928D01*
X149638796Y-128670908D01*
X149206086Y-128378247D01*
X148784495Y-128068281D01*
X148374304Y-127741441D01*
X147976218Y-127397901D01*
X147591061Y-127038966D01*
X147219708Y-126664092D01*
X146862268Y-126274432D01*
X146433414Y-125768527D01*
X146314508Y-125843458D01*
X146229465Y-125896598D01*
X146220973Y-125902529D01*
X146059236Y-126003593D01*
X146050740Y-126009525D01*
X145906973Y-126099360D01*
X145764864Y-126186914D01*
X146171254Y-126783635D01*
X146509348Y-127240835D01*
X146866175Y-127685110D01*
X147241024Y-128116295D01*
X147633084Y-128533073D01*
X148042505Y-128934735D01*
X148467589Y-129320516D01*
X148908349Y-129690408D01*
X149364660Y-130043270D01*
X149835109Y-130378766D01*
X150319138Y-130696025D01*
X150816489Y-130994606D01*
X151325885Y-131273469D01*
X151847173Y-131533323D01*
X152379256Y-131772421D01*
X152920978Y-131990867D01*
X153472343Y-132188663D01*
X154031818Y-132364332D01*
X154599237Y-132518583D01*
X155172903Y-132650648D01*
X155752541Y-132760092D01*
X156337003Y-132847024D01*
X156926013Y-132911002D01*
X157517708Y-132951977D01*
X158111817Y-132969506D01*
X158707189Y-132963701D01*
X159303108Y-132934397D01*
X159898430Y-132881703D01*
X160492436Y-132805455D01*
X161083985Y-132705761D01*
X161672189Y-132583170D01*
X162256234Y-132436370D01*
X162835351Y-132267055D01*
X163408885Y-132073196D01*
X163974586Y-131858030D01*
X164532347Y-131620406D01*
X165081728Y-131360596D01*
X165621581Y-131078709D01*
X166150594Y-130775568D01*
X166668469Y-130450717D01*
X167173772Y-130105734D01*
X167666198Y-129740145D01*
X168144710Y-129355219D01*
X168608598Y-128950789D01*
X169056985Y-128527405D01*
X169489546Y-128086492D01*
X169904413Y-127627995D01*
X170302303Y-127152075D01*
X170681571Y-126660981D01*
X170963872Y-126263381D01*
X170967588Y-126265334D01*
X170971571Y-126267713D01*
X170976282Y-126270259D01*
X170980713Y-126272358D01*
X170985425Y-126274904D01*
X170989855Y-126277003D01*
X170994287Y-126279100D01*
X170998998Y-126281648D01*
X171003430Y-126283745D01*
X171008140Y-126286293D01*
X171012571Y-126288391D01*
X171016554Y-126290769D01*
X171020984Y-126292868D01*
X171025697Y-126295414D01*
X171030407Y-126297962D01*
X171034838Y-126300059D01*
X171039269Y-126302158D01*
X171043252Y-126304537D01*
X171047962Y-126307084D01*
X171052674Y-126309631D01*
X171057105Y-126311729D01*
X171061536Y-126313827D01*
X171066248Y-126316374D01*
X171070679Y-126318472D01*
X171074661Y-126320850D01*
X171079372Y-126323398D01*
X171083803Y-126325496D01*
X171088514Y-126328042D01*
X171092945Y-126330141D01*
X171096929Y-126332520D01*
X171101639Y-126335066D01*
X171106071Y-126337164D01*
X171110782Y-126339711D01*
X171115213Y-126341810D01*
X171119924Y-126344356D01*
X171124355Y-126346455D01*
X171129168Y-126348315D01*
X171133880Y-126350861D01*
X171137862Y-126353240D01*
X171142573Y-126355788D01*
X171147005Y-126357886D01*
X171151715Y-126360433D01*
X171155431Y-126362385D01*
X170913552Y-126779817D01*
X170571914Y-127317475D01*
X170208858Y-127842314D01*
X169824715Y-128352908D01*
X169419484Y-128849259D01*
X168993933Y-129329667D01*
X168549646Y-129793749D01*
X168086795Y-130240794D01*
X167605266Y-130669652D01*
X167106645Y-131079939D01*
X166591104Y-131470944D01*
X166059240Y-131841677D01*
X165512638Y-132191750D01*
X164951475Y-132520471D01*
X164376889Y-132827717D01*
X163789655Y-133111789D01*
X163190041Y-133373128D01*
X162580078Y-133611077D01*
X161959930Y-133824922D01*
X161331182Y-134014280D01*
X160693563Y-134178715D01*
X160049649Y-134318447D01*
X159398889Y-134432596D01*
X158743146Y-134521217D01*
X158083736Y-134583492D01*
X157420930Y-134619858D01*
X156755884Y-134630201D01*
X156090180Y-134614143D01*
X155424262Y-134571410D01*
X154759824Y-134502768D01*
X154097472Y-134407230D01*
X153438188Y-134285398D01*
X152782687Y-134137438D01*
X152133269Y-133963132D01*
X151489769Y-133763191D01*
X150853608Y-133537943D01*
X150226108Y-133286567D01*
X149607651Y-133010653D01*
X148999545Y-132709378D01*
X148403326Y-132384224D01*
X147818999Y-132035182D01*
X147248423Y-131662321D01*
X146691707Y-131266777D01*
X146150715Y-130848614D01*
X145625559Y-130408980D01*
X145117383Y-129947762D01*
X144627008Y-129466285D01*
X144155424Y-128965143D01*
X143702905Y-128444776D01*
X143185559Y-127799177D01*
X143064012Y-127875755D01*
X142961891Y-127939567D01*
X142952971Y-127945764D01*
X142748690Y-128073412D01*
X142740644Y-128079065D01*
X142514929Y-128220108D01*
X143007741Y-128949289D01*
X143439928Y-129536597D01*
X143895562Y-130106811D01*
X144374377Y-130659497D01*
X144875092Y-131193624D01*
X145398058Y-131707752D01*
X145941832Y-132201562D01*
X146505444Y-132674448D01*
X147088502Y-133124824D01*
X147689586Y-133552360D01*
X148308581Y-133955904D01*
X148943904Y-134335842D01*
X149594894Y-134690145D01*
X150260401Y-135018923D01*
X150939882Y-135321302D01*
X151631193Y-135596785D01*
X152334779Y-135845100D01*
X153048231Y-136065314D01*
X153771102Y-136257704D01*
X154502579Y-136420950D01*
X155240357Y-136555280D01*
X155984162Y-136660248D01*
X156733283Y-136735690D01*
X157485147Y-136781391D01*
X158240191Y-136797073D01*
X158995402Y-136782794D01*
X159751217Y-136738275D01*
X160505774Y-136663466D01*
X161257490Y-136558750D01*
X162006083Y-136423684D01*
X162749532Y-136258930D01*
X163486681Y-136064596D01*
X164216823Y-135840520D01*
X164938644Y-135587517D01*
X165650715Y-135305265D01*
X166352163Y-134994306D01*
X167041396Y-134655029D01*
X167719022Y-134286443D01*
X168381042Y-133892890D01*
X169027950Y-133472216D01*
X169658691Y-133025680D01*
X170271690Y-132553668D01*
X170866777Y-132056898D01*
X171441929Y-131536023D01*
X171996980Y-130991759D01*
X172530892Y-130425361D01*
X173042069Y-129837215D01*
X173530354Y-129228031D01*
X173994699Y-128599072D01*
X174357154Y-128065470D01*
X174357883Y-128065639D01*
X174362596Y-128068185D01*
X174367025Y-128070284D01*
X174371007Y-128072662D01*
X174376102Y-128074970D01*
X174380364Y-128077798D01*
X174384795Y-128079896D01*
X174389506Y-128082443D01*
X174393937Y-128084543D01*
X174398368Y-128086639D01*
X174402350Y-128089017D01*
X174407062Y-128091564D01*
X174411492Y-128093662D01*
X174416204Y-128096210D01*
X174420916Y-128098757D01*
X174425347Y-128100854D01*
X174429778Y-128102952D01*
X174434488Y-128105500D01*
X174438920Y-128107598D01*
X174442902Y-128109976D01*
X174447614Y-128112523D01*
X174452325Y-128115070D01*
X174456756Y-128117168D01*
X174461186Y-128119266D01*
X174465898Y-128121813D01*
X174470329Y-128123911D01*
X174474312Y-128126289D01*
X174479024Y-128128836D01*
X174483453Y-128130935D01*
X174488166Y-128133481D01*
X174492597Y-128135579D01*
X174497027Y-128137677D01*
X174501739Y-128140224D01*
X174505721Y-128142602D01*
X174510433Y-128145150D01*
X174514864Y-128147247D01*
X174519575Y-128149795D01*
X174524387Y-128151654D01*
X174528819Y-128153752D01*
X174533530Y-128156299D01*
X174537512Y-128158677D01*
X174542224Y-128161224D01*
X174546654Y-128163323D01*
X174551086Y-128165420D01*
X174555797Y-128167967D01*
X174560228Y-128170065D01*
X174564939Y-128172613D01*
X174569371Y-128174710D01*
X174573633Y-128177538D01*
X174578064Y-128179636D01*
X174582495Y-128181733D01*
X174587207Y-128184280D01*
X174591638Y-128186378D01*
X174596350Y-128188925D01*
X174601061Y-128191473D01*
X174605492Y-128193570D01*
X174609474Y-128195949D01*
X174611208Y-128196734D01*
X174304905Y-128687650D01*
X173984911Y-129168718D01*
X173651484Y-129639678D01*
X173304879Y-130100270D01*
X172945353Y-130550233D01*
X172573157Y-130989306D01*
X172188551Y-131417230D01*
X171791788Y-131833744D01*
X171383122Y-132238587D01*
X170962812Y-132631499D01*
X170531111Y-133012221D01*
X170088274Y-133380490D01*
X169634558Y-133736047D01*
X169170217Y-134078632D01*
X168695507Y-134407983D01*
X168210684Y-134723842D01*
X168204744Y-134727569D01*
X167357030Y-135228525D01*
X166489363Y-135684942D01*
X165603479Y-136096529D01*
X164701116Y-136462995D01*
X163784010Y-136784050D01*
X162853898Y-137059402D01*
X161912519Y-137288762D01*
X160961608Y-137471839D01*
X160002902Y-137608341D01*
X159038139Y-137697978D01*
X158069057Y-137740460D01*
X157097391Y-137735495D01*
X156124879Y-137682794D01*
X155153257Y-137582065D01*
X154184264Y-137433017D01*
X153219637Y-137235360D01*
X152265984Y-136990161D01*
X151329716Y-136699356D01*
X150412267Y-136363970D01*
X149515070Y-135985025D01*
X148639557Y-135563543D01*
X147787162Y-135100546D01*
X146959321Y-134597056D01*
X146157466Y-134054096D01*
X145383029Y-133472687D01*
X144637446Y-132853852D01*
X143922149Y-132198614D01*
X143238570Y-131507995D01*
X142588146Y-130783015D01*
X141972308Y-130024699D01*
X141392491Y-129234067D01*
X140850127Y-128412144D01*
X140746973Y-128224812D01*
X140645847Y-128036386D01*
X140546758Y-127846883D01*
X140449714Y-127656316D01*
X140585470Y-127571487D01*
X140590128Y-127569201D01*
X140615957Y-127553062D01*
X140619623Y-127550146D01*
X140797854Y-127438774D01*
X140802509Y-127436491D01*
X140929598Y-127357077D01*
X140533035Y-126539109D01*
X140225639Y-125833611D01*
X139946675Y-125117045D01*
X139696794Y-124391450D01*
X139476551Y-123657691D01*
X139285779Y-122916484D01*
X139124859Y-122169424D01*
X138994342Y-121417379D01*
X138893459Y-120662051D01*
X138823030Y-119904754D01*
X138782897Y-119146198D01*
X138773163Y-118387539D01*
X138792405Y-117628441D01*
X138842763Y-116874277D01*
X138923137Y-116123292D01*
X139032759Y-115377185D01*
X139172019Y-114637546D01*
X139340471Y-113904650D01*
X139537628Y-113180627D01*
X139763046Y-112465750D01*
X140016396Y-111761454D01*
X140297085Y-111068717D01*
X140604775Y-110388962D01*
X140938866Y-109723181D01*
X141298485Y-109071920D01*
X141683024Y-108436159D01*
X142091991Y-107818039D01*
X142524840Y-107216686D01*
X142980639Y-106634508D01*
X143458240Y-106071612D01*
X143957035Y-105528986D01*
X144476148Y-105007170D01*
X145015257Y-104507606D01*
X145572765Y-104030658D01*
X146147802Y-103576887D01*
X146739488Y-103146835D01*
X147347222Y-102741495D01*
X147969408Y-102361229D01*
X148605619Y-102006332D01*
X149253829Y-101677458D01*
X149914138Y-101375755D01*
X150584851Y-101100451D01*
X151264216Y-100852648D01*
X151952946Y-100632510D01*
X152648030Y-100440087D01*
X153349299Y-100276096D01*
X154055331Y-100140208D01*
X154765414Y-100032255D01*
X155477796Y-99953334D01*
X156039921Y-99912852D01*
X156040028Y-99918866D01*
G37*
%TD.AperFunction*%
%TA.AperFunction,EtchedComponent*%
G36*
X157867201Y-98037495D02*
G01*
X157867427Y-98042851D01*
X157867368Y-98047750D01*
X157867312Y-98052653D01*
X157867536Y-98058005D01*
X157867481Y-98062906D01*
X157867705Y-98068259D01*
X157868096Y-98072881D01*
X157868321Y-98078233D01*
X157868264Y-98083136D01*
X157868208Y-98088038D01*
X157868433Y-98093390D01*
X157868376Y-98098292D01*
X157868769Y-98102918D01*
X157868992Y-98108267D01*
X157868938Y-98113172D01*
X157869161Y-98118521D01*
X157869106Y-98123426D01*
X157869049Y-98128330D01*
X157869721Y-98133401D01*
X157869562Y-98138988D01*
X157869957Y-98143614D01*
X157869899Y-98148512D01*
X157870124Y-98153868D01*
X157870066Y-98158768D01*
X157870009Y-98163670D01*
X157870235Y-98169021D01*
X157870460Y-98174377D01*
X157870850Y-98178996D01*
X157870794Y-98183899D01*
X157870737Y-98188801D01*
X157870962Y-98194153D01*
X157870905Y-98199055D01*
X157871130Y-98204407D01*
X157871522Y-98209030D01*
X157871745Y-98214382D01*
X157871308Y-98219522D01*
X157871255Y-98224427D01*
X157871476Y-98229776D01*
X157871421Y-98234682D01*
X157871644Y-98240030D01*
X157872037Y-98244657D01*
X157871980Y-98249555D01*
X157872205Y-98254911D01*
X157872428Y-98260260D01*
X157872373Y-98265166D01*
X157872596Y-98270514D01*
X157872541Y-98275420D01*
X157872763Y-98280769D01*
X157872709Y-98285675D01*
X157873099Y-98290293D01*
X157873326Y-98295648D01*
X157873267Y-98300548D01*
X157873490Y-98305900D01*
X157873435Y-98310802D01*
X157873378Y-98315704D01*
X157874051Y-98320776D01*
X157873995Y-98325679D01*
X157874218Y-98331031D01*
X157874162Y-98335934D01*
X157874386Y-98341286D01*
X157874327Y-98346185D01*
X157874554Y-98351541D01*
X157874944Y-98356158D01*
X157875170Y-98361515D01*
X157875112Y-98366414D01*
X157875057Y-98371319D01*
X157875280Y-98376668D01*
X157875225Y-98381574D01*
X157875619Y-98386200D01*
X157875842Y-98391548D01*
X157875787Y-98396454D01*
X157876010Y-98401802D01*
X157875952Y-98406705D01*
X157875896Y-98411607D01*
X157876569Y-98416679D01*
X157876513Y-98421582D01*
X157876738Y-98426933D01*
X157876680Y-98431836D01*
X157876624Y-98436739D01*
X157876848Y-98442090D01*
X157876793Y-98446992D01*
X157877016Y-98452345D01*
X157877406Y-98456964D01*
X157877352Y-98461870D01*
X157877575Y-98467218D01*
X157877520Y-98472124D01*
X157877465Y-98477029D01*
X157877687Y-98482378D01*
X157877910Y-98487727D01*
X157878303Y-98492353D01*
X157878250Y-98497258D01*
X157878472Y-98502607D01*
X157883389Y-98642123D01*
X158789500Y-98708434D01*
X159554511Y-98794675D01*
X160314035Y-98911145D01*
X161067367Y-99057687D01*
X161813522Y-99233700D01*
X162550635Y-99439128D01*
X163277996Y-99673806D01*
X163994508Y-99935983D01*
X164698856Y-100226476D01*
X165390056Y-100544683D01*
X166067012Y-100888857D01*
X166729119Y-101259978D01*
X167376875Y-101655911D01*
X168004689Y-102076492D01*
X168614860Y-102521502D01*
X169206132Y-102989899D01*
X169776972Y-103480205D01*
X170327378Y-103992422D01*
X170856088Y-104525506D01*
X171362722Y-105077869D01*
X171846132Y-105649622D01*
X172305217Y-106239008D01*
X172740142Y-106845323D01*
X173150096Y-107467234D01*
X173534084Y-108104162D01*
X173892264Y-108755383D01*
X174223273Y-109418708D01*
X174527550Y-110093860D01*
X174803836Y-110779802D01*
X175052457Y-111475106D01*
X175273033Y-112178190D01*
X175464848Y-112888885D01*
X175628675Y-113605490D01*
X175762972Y-114326530D01*
X175868187Y-115051732D01*
X175945080Y-115779398D01*
X175992120Y-116508043D01*
X176010180Y-117237126D01*
X175999596Y-117965218D01*
X175959815Y-118691447D01*
X175891603Y-119414111D01*
X175794417Y-120132339D01*
X175668855Y-120845139D01*
X175515686Y-121550816D01*
X175334476Y-122249640D01*
X175125875Y-122938771D01*
X174890597Y-123618366D01*
X174628976Y-124287002D01*
X174341608Y-124943694D01*
X174094955Y-125450030D01*
X174090243Y-125447482D01*
X174081213Y-125442767D01*
X174072183Y-125438052D01*
X174063432Y-125433786D01*
X174054402Y-125429070D01*
X174045798Y-125424089D01*
X174036769Y-125419373D01*
X174028019Y-125415107D01*
X174018988Y-125410392D01*
X174010104Y-125404961D01*
X174001354Y-125400694D01*
X173992325Y-125395979D01*
X173983294Y-125391264D01*
X173974969Y-125386731D01*
X173965940Y-125382016D01*
X173956911Y-125377301D01*
X173947879Y-125372585D01*
X173939276Y-125367604D01*
X173930247Y-125362889D01*
X173921215Y-125358173D01*
X173912465Y-125353907D01*
X173906377Y-125351003D01*
X174111786Y-124823519D01*
X174340269Y-124160359D01*
X174542295Y-123489964D01*
X174716985Y-122812882D01*
X174864729Y-122130705D01*
X174984918Y-121444415D01*
X175078105Y-120754892D01*
X175143245Y-120063396D01*
X175181599Y-119370963D01*
X175191853Y-118678421D01*
X175175101Y-117987516D01*
X175130906Y-117298530D01*
X175059925Y-116613483D01*
X174961720Y-115932651D01*
X174836836Y-115256913D01*
X174685935Y-114588292D01*
X174508574Y-113927063D01*
X174305578Y-113274541D01*
X174077218Y-112631165D01*
X173824592Y-111998689D01*
X173546823Y-111377654D01*
X173245879Y-110769275D01*
X172920890Y-110174096D01*
X172573828Y-109593315D01*
X172204515Y-109027655D01*
X171813514Y-108477987D01*
X171401808Y-107944914D01*
X170969941Y-107429312D01*
X170518736Y-106932501D01*
X170049342Y-106454361D01*
X169562143Y-105996490D01*
X169058020Y-105558339D01*
X168537347Y-105141491D01*
X168001997Y-104746008D01*
X167452508Y-104372759D01*
X166889162Y-104022190D01*
X166313651Y-103695064D01*
X165726418Y-103391106D01*
X165128718Y-103111359D01*
X164521430Y-102855276D01*
X163905647Y-102624605D01*
X163281981Y-102418368D01*
X162652118Y-102237325D01*
X162016334Y-102081918D01*
X161376226Y-101951764D01*
X160732222Y-101846584D01*
X160085863Y-101767866D01*
X159438023Y-101715056D01*
X158789574Y-101687604D01*
X157988956Y-101685778D01*
X157994969Y-101846548D01*
X157995192Y-101851900D01*
X157995135Y-101856802D01*
X157995079Y-101861705D01*
X157995025Y-101866610D01*
X157995247Y-101871959D01*
X157995471Y-101877312D01*
X157995863Y-101881933D01*
X157995807Y-101886836D01*
X157996031Y-101892189D01*
X157995974Y-101897091D01*
X157996199Y-101902443D01*
X157996591Y-101907064D01*
X157996535Y-101911967D01*
X157996759Y-101917320D01*
X157996702Y-101922222D01*
X157996927Y-101927574D01*
X157996870Y-101932476D01*
X157997544Y-101937548D01*
X157997487Y-101942451D01*
X157997429Y-101947353D01*
X157997655Y-101952705D01*
X157997598Y-101957607D01*
X157997990Y-101962230D01*
X157998215Y-101967581D01*
X157998157Y-101972484D01*
X157998102Y-101977386D01*
X157998325Y-101982738D01*
X157998269Y-101987641D01*
X157998493Y-101992994D01*
X157998885Y-101997615D01*
X157998831Y-102002520D01*
X157999053Y-102007869D01*
X157998997Y-102012772D01*
X157998942Y-102017678D01*
X157999166Y-102023027D01*
X157999559Y-102027651D01*
X157999399Y-102033239D01*
X157999343Y-102038142D01*
X157999289Y-102043047D01*
X157999511Y-102048396D01*
X157999735Y-102053748D01*
X157999678Y-102058650D01*
X157999904Y-102064002D01*
X157999847Y-102068905D01*
X158000239Y-102073527D01*
X158000184Y-102078432D01*
X158000406Y-102083781D01*
X158000350Y-102088684D01*
X158000575Y-102094036D01*
X158000798Y-102099388D01*
X158000743Y-102104290D01*
X158000966Y-102109643D01*
X158000910Y-102114545D01*
X158001583Y-102119617D01*
X158001526Y-102124519D01*
X158001471Y-102129421D01*
X158001694Y-102134774D01*
X158001638Y-102139676D01*
X158001862Y-102145028D01*
X158002254Y-102149650D01*
X158002479Y-102155002D01*
X158002422Y-102159905D01*
X158002366Y-102164806D01*
X158002309Y-102169710D01*
X158002534Y-102175061D01*
X158003206Y-102180133D01*
X158003150Y-102185036D01*
X158003093Y-102189938D01*
X158003318Y-102195290D01*
X158003261Y-102200192D01*
X158003653Y-102204815D01*
X158003878Y-102210167D01*
X158003820Y-102215068D01*
X158004046Y-102220421D01*
X158003988Y-102225324D01*
X158003932Y-102230226D01*
X158004606Y-102235297D01*
X158004548Y-102240200D01*
X158004493Y-102245103D01*
X158004716Y-102250455D01*
X158004660Y-102255357D01*
X158004884Y-102260710D01*
X158004828Y-102265612D01*
X158005221Y-102270234D01*
X158005444Y-102275586D01*
X158005388Y-102280488D01*
X158005331Y-102285391D01*
X158005556Y-102290742D01*
X158005780Y-102296095D01*
X158005724Y-102300996D01*
X158006115Y-102305619D01*
X158006058Y-102310522D01*
X158006284Y-102315873D01*
X158006508Y-102321226D01*
X158006451Y-102326128D01*
X158006395Y-102331031D01*
X158007068Y-102336103D01*
X158007011Y-102341005D01*
X158011707Y-102478221D01*
X158753381Y-102548570D01*
X159357234Y-102629477D01*
X159956372Y-102734047D01*
X160549814Y-102861678D01*
X161136406Y-103012480D01*
X161715874Y-103186010D01*
X162287233Y-103381673D01*
X162849061Y-103599135D01*
X163400643Y-103838235D01*
X163941703Y-104098530D01*
X164470984Y-104378982D01*
X164988214Y-104679156D01*
X165491805Y-104999427D01*
X165982081Y-105338377D01*
X166457619Y-105695677D01*
X166917712Y-106071161D01*
X167363560Y-106462860D01*
X167791272Y-106871370D01*
X168201894Y-107295436D01*
X168594715Y-107734894D01*
X168969347Y-108188152D01*
X169325078Y-108655050D01*
X169661363Y-109134707D01*
X169978082Y-109625986D01*
X170274975Y-110128427D01*
X170551057Y-110641439D01*
X170806490Y-111164308D01*
X171040610Y-111695009D01*
X171253422Y-112233541D01*
X171444651Y-112779468D01*
X171613202Y-113331029D01*
X171760664Y-113887850D01*
X171885339Y-114449162D01*
X171987555Y-115013537D01*
X172067749Y-115580705D01*
X172125541Y-116149075D01*
X172160654Y-116718212D01*
X172173255Y-117287398D01*
X172163671Y-117855215D01*
X172131901Y-118421660D01*
X172077563Y-118985146D01*
X172001699Y-119544410D01*
X171903871Y-120099728D01*
X171784844Y-120649403D01*
X171644346Y-121192996D01*
X171482813Y-121730233D01*
X171300740Y-122258979D01*
X171098563Y-122778954D01*
X170876723Y-123289893D01*
X170701841Y-123652664D01*
X170697410Y-123650565D01*
X170688379Y-123645852D01*
X170679775Y-123640870D01*
X170670745Y-123636154D01*
X170661716Y-123631439D01*
X170652965Y-123627172D01*
X170643936Y-123622457D01*
X170635331Y-123617475D01*
X170626301Y-123612760D01*
X170617270Y-123608046D01*
X170608241Y-123603329D01*
X170599917Y-123598796D01*
X170590887Y-123594081D01*
X170581856Y-123589367D01*
X170572827Y-123584650D01*
X170563797Y-123579935D01*
X170555193Y-123574954D01*
X170546443Y-123570688D01*
X170537414Y-123565972D01*
X170528381Y-123561257D01*
X170519778Y-123556275D01*
X170510748Y-123551561D01*
X170510467Y-123551112D01*
X170648269Y-123167030D01*
X170810456Y-122651321D01*
X170952268Y-122131281D01*
X171073429Y-121606473D01*
X171173887Y-121078763D01*
X171253910Y-120548585D01*
X171312899Y-120016928D01*
X171350690Y-119484499D01*
X171367995Y-118951465D01*
X171364758Y-118419692D01*
X171340815Y-117889887D01*
X171296166Y-117362053D01*
X171231197Y-116837778D01*
X171145903Y-116317060D01*
X171040669Y-115801489D01*
X170915774Y-115291506D01*
X170771482Y-114787545D01*
X170607911Y-114290756D01*
X170426043Y-113801748D01*
X170225002Y-113321061D01*
X170006048Y-112849739D01*
X169769453Y-112388222D01*
X169515761Y-111937392D01*
X169244990Y-111497228D01*
X168958218Y-111069503D01*
X168655616Y-110653500D01*
X168337563Y-110250804D01*
X168004775Y-109861582D01*
X167657802Y-109486712D01*
X167297512Y-109125642D01*
X166923856Y-108780238D01*
X166538420Y-108450116D01*
X166141046Y-108135990D01*
X165732711Y-107838456D01*
X165313420Y-107557521D01*
X164885036Y-107293238D01*
X164447665Y-107046758D01*
X164002022Y-106818241D01*
X163548543Y-106607417D01*
X163088218Y-106414888D01*
X162621751Y-106240817D01*
X162149863Y-106085370D01*
X161673700Y-105948435D01*
X161193372Y-105831168D01*
X160709923Y-105732307D01*
X160223893Y-105652726D01*
X159736878Y-105592041D01*
X159248435Y-105550530D01*
X158759719Y-105528080D01*
X158117897Y-105523912D01*
X158123743Y-105685397D01*
X158123966Y-105690746D01*
X158123911Y-105695649D01*
X158124134Y-105701000D01*
X158124077Y-105705902D01*
X158124469Y-105710524D01*
X158124412Y-105715426D01*
X158124636Y-105720777D01*
X158124862Y-105726128D01*
X158124804Y-105731031D01*
X158125195Y-105735652D01*
X158125139Y-105740555D01*
X158125363Y-105745906D01*
X158125587Y-105751256D01*
X158125530Y-105756159D01*
X158125474Y-105761061D01*
X158126145Y-105766132D01*
X158126090Y-105771035D01*
X158126033Y-105775936D01*
X158126256Y-105781287D01*
X158126200Y-105786191D01*
X158126423Y-105791540D01*
X158126816Y-105796162D01*
X158126760Y-105801065D01*
X158126982Y-105806414D01*
X158126926Y-105811318D01*
X158126871Y-105816221D01*
X158127541Y-105821289D01*
X158127486Y-105826193D01*
X158127429Y-105831096D01*
X158127653Y-105836447D01*
X158127596Y-105841348D01*
X158127539Y-105846251D01*
X158127763Y-105851601D01*
X158127986Y-105856954D01*
X158127548Y-105862093D01*
X158127941Y-105866714D01*
X158127884Y-105871617D01*
X158128109Y-105876969D01*
X158128331Y-105882319D01*
X158128275Y-105887222D01*
X158128218Y-105892124D01*
X158128610Y-105896744D01*
X158128836Y-105902099D01*
X158128778Y-105906999D01*
X158129001Y-105912350D01*
X158128945Y-105917253D01*
X158128888Y-105922154D01*
X158129560Y-105927224D01*
X158129403Y-105932815D01*
X158129627Y-105938167D01*
X158129571Y-105943070D01*
X158130242Y-105948138D01*
X158130187Y-105953042D01*
X158130130Y-105957944D01*
X158130353Y-105963295D01*
X158130297Y-105968197D01*
X158130240Y-105973100D01*
X158130912Y-105978169D01*
X158130856Y-105983072D01*
X158131079Y-105988423D01*
X158131023Y-105993324D01*
X158130966Y-105998228D01*
X158131639Y-106003298D01*
X158131583Y-106008199D01*
X158131525Y-106013102D01*
X158131750Y-106018453D01*
X158131692Y-106023355D01*
X158132367Y-106028428D01*
X158132310Y-106033328D01*
X158132251Y-106038230D01*
X158132477Y-106043583D01*
X158132419Y-106048484D01*
X158132811Y-106053105D01*
X158132754Y-106058007D01*
X158132978Y-106063359D01*
X158133370Y-106067979D01*
X158133313Y-106072882D01*
X158133257Y-106077785D01*
X158133480Y-106083134D01*
X158133424Y-106088039D01*
X158133367Y-106092941D01*
X158133590Y-106098289D01*
X158133984Y-106102914D01*
X158134206Y-106108264D01*
X158134149Y-106113165D01*
X158134093Y-106118069D01*
X158134317Y-106123419D01*
X158134260Y-106128322D01*
X158134205Y-106133223D01*
X158134877Y-106138293D01*
X158134819Y-106143197D01*
X158135044Y-106148548D01*
X158134987Y-106153451D01*
X158134931Y-106158351D01*
X158135154Y-106163704D01*
X158135099Y-106168606D01*
X158135489Y-106173226D01*
X158135714Y-106178581D01*
X158139699Y-106310757D01*
X158714741Y-106386512D01*
X159156727Y-106461926D01*
X159594770Y-106554433D01*
X160028045Y-106662711D01*
X160455239Y-106787587D01*
X160876515Y-106928349D01*
X161291437Y-107085269D01*
X161698466Y-107256870D01*
X162098156Y-107444025D01*
X162488806Y-107645969D01*
X162870582Y-107861990D01*
X163243481Y-108092089D01*
X163605807Y-108335495D01*
X163957560Y-108592213D01*
X164298469Y-108861802D01*
X164627978Y-109143387D01*
X164945382Y-109436801D01*
X165250844Y-109741335D01*
X165543653Y-110056823D01*
X165822984Y-110381950D01*
X166089552Y-110716881D01*
X166341933Y-111061289D01*
X166580726Y-111414181D01*
X166804929Y-111774975D01*
X167014309Y-112143205D01*
X167209277Y-112518610D01*
X167389019Y-112899874D01*
X167553697Y-113286287D01*
X167703147Y-113678558D01*
X167836272Y-114074936D01*
X167954663Y-114475037D01*
X168056894Y-114878534D01*
X168143566Y-115284439D01*
X168213970Y-115692590D01*
X168268710Y-116101997D01*
X168307673Y-116511514D01*
X168330695Y-116921848D01*
X168337833Y-117331142D01*
X168329358Y-117739832D01*
X168305163Y-118146766D01*
X168265412Y-118551236D01*
X168210543Y-118952966D01*
X168140007Y-119351077D01*
X168054683Y-119745025D01*
X167954568Y-120134806D01*
X167839993Y-120519001D01*
X167710958Y-120897609D01*
X167567628Y-121269912D01*
X167410877Y-121635370D01*
X167306780Y-121853972D01*
X167304031Y-121852569D01*
X167295001Y-121847855D01*
X167285970Y-121843139D01*
X167277648Y-121838606D01*
X167268616Y-121833891D01*
X167259586Y-121829175D01*
X167250982Y-121824194D01*
X167241952Y-121819479D01*
X167232922Y-121814762D01*
X167224598Y-121810230D01*
X167215568Y-121805516D01*
X167206537Y-121800799D01*
X167197506Y-121796084D01*
X167188904Y-121791101D01*
X167179873Y-121786387D01*
X167171123Y-121782121D01*
X167162518Y-121777139D01*
X167153489Y-121772423D01*
X167144459Y-121767708D01*
X167135429Y-121762992D01*
X167127105Y-121758460D01*
X167118074Y-121753744D01*
X167112434Y-121750561D01*
X167186133Y-121507686D01*
X167282138Y-121140581D01*
X167364446Y-120771065D01*
X167432186Y-120399682D01*
X167485902Y-120027313D01*
X167525596Y-119653959D01*
X167550663Y-119280602D01*
X167561819Y-118907410D01*
X167558897Y-118535089D01*
X167542005Y-118164794D01*
X167511309Y-117795815D01*
X167466480Y-117429573D01*
X167408233Y-117066231D01*
X167336839Y-116706233D01*
X167251694Y-116350558D01*
X167153949Y-115999098D01*
X167043006Y-115652845D01*
X166919297Y-115311519D01*
X166783207Y-114976711D01*
X166634902Y-114647708D01*
X166475203Y-114325819D01*
X166303675Y-114011328D01*
X166120751Y-113703957D01*
X165927698Y-113404744D01*
X165723345Y-113113809D01*
X165508701Y-112831745D01*
X165284744Y-112559152D01*
X165051198Y-112295598D01*
X164808342Y-112041520D01*
X164556994Y-111798234D01*
X164297319Y-111565023D01*
X164030029Y-111342057D01*
X163755231Y-111130480D01*
X163473370Y-110930026D01*
X163185150Y-110740856D01*
X162890851Y-110563404D01*
X162590908Y-110397401D01*
X162285872Y-110243724D01*
X161976613Y-110101826D01*
X161662697Y-109971970D01*
X161345114Y-109854777D01*
X161024292Y-109749957D01*
X160701392Y-109657406D01*
X160375534Y-109577679D01*
X160048301Y-109510378D01*
X159719701Y-109455519D01*
X159390002Y-109413530D01*
X159060355Y-109384302D01*
X158730932Y-109367126D01*
X158246485Y-109360286D01*
X158252730Y-109523364D01*
X158252954Y-109528714D01*
X158252896Y-109533617D01*
X158253289Y-109538239D01*
X158253513Y-109543589D01*
X158253456Y-109548491D01*
X158253680Y-109553841D01*
X158253623Y-109558745D01*
X158254015Y-109563366D01*
X158254239Y-109568718D01*
X158254182Y-109573620D01*
X158254124Y-109578522D01*
X158254349Y-109583874D01*
X158254741Y-109588494D01*
X158254966Y-109593848D01*
X158254909Y-109598749D01*
X158254850Y-109603650D01*
X158255076Y-109609003D01*
X158255468Y-109613623D01*
X158255690Y-109618974D01*
X158255636Y-109623878D01*
X158255577Y-109628779D01*
X158255969Y-109633399D01*
X158255913Y-109638301D01*
X158255857Y-109643206D01*
X158256080Y-109648555D01*
X158256023Y-109653459D01*
X158256416Y-109658081D01*
X158256638Y-109663430D01*
X158256582Y-109668334D01*
X158256807Y-109673684D01*
X158256748Y-109678585D01*
X158256692Y-109683489D01*
X158256916Y-109688840D01*
X158257342Y-109698310D01*
X158257257Y-109698673D01*
X158257174Y-109699038D01*
X158257565Y-109703658D01*
X158257507Y-109708561D01*
X158257200Y-109709066D01*
X158256891Y-109709569D01*
X158257115Y-109711926D01*
X158257059Y-109713834D01*
X158257283Y-109719184D01*
X158257676Y-109723806D01*
X158257955Y-109733989D01*
X158258079Y-109738184D01*
X158258038Y-109738368D01*
X158257996Y-109738550D01*
X158257912Y-109738914D01*
X158258136Y-109744264D01*
X158258080Y-109746173D01*
X158258023Y-109748080D01*
X158258135Y-109749257D01*
X158258079Y-109754160D01*
X158258303Y-109759512D01*
X158258695Y-109764132D01*
X158258470Y-109766769D01*
X158258695Y-109769126D01*
X158266395Y-109994037D01*
X158201857Y-109983372D01*
X158137230Y-109973240D01*
X158072523Y-109963641D01*
X158007738Y-109954576D01*
X157784938Y-109948798D01*
X157562195Y-109949274D01*
X157339638Y-109955992D01*
X157117402Y-109968948D01*
X156895616Y-109988126D01*
X156674412Y-110013520D01*
X156453920Y-110045119D01*
X156234274Y-110082914D01*
X156015798Y-110126834D01*
X155798769Y-110176836D01*
X155583312Y-110232882D01*
X155369552Y-110294934D01*
X155157615Y-110362952D01*
X154947627Y-110436899D01*
X154739714Y-110516737D01*
X154534000Y-110602426D01*
X154330747Y-110693954D01*
X154130261Y-110791093D01*
X153932657Y-110893777D01*
X153738047Y-111001940D01*
X153546547Y-111115517D01*
X153358270Y-111234442D01*
X153173330Y-111358651D01*
X152991843Y-111488076D01*
X152814028Y-111622448D01*
X152640156Y-111761675D01*
X152470324Y-111905668D01*
X152304627Y-112054335D01*
X152143162Y-112207590D01*
X151986027Y-112365340D01*
X151833318Y-112527500D01*
X151685131Y-112693978D01*
X151541759Y-112864562D01*
X151403311Y-113038997D01*
X151269860Y-113217175D01*
X151141481Y-113398989D01*
X151018247Y-113584330D01*
X150900234Y-113773089D01*
X150787515Y-113965159D01*
X150680165Y-114160432D01*
X150643873Y-114229478D01*
X150608264Y-114298870D01*
X150573340Y-114368605D01*
X150539104Y-114438677D01*
X150505557Y-114509083D01*
X150472701Y-114579819D01*
X150440541Y-114650878D01*
X150409076Y-114722255D01*
X150378330Y-114793914D01*
X150348289Y-114865869D01*
X150318958Y-114938113D01*
X150290338Y-115010639D01*
X150262432Y-115083445D01*
X150235240Y-115156521D01*
X150208768Y-115229865D01*
X150183016Y-115303468D01*
X150158017Y-115377329D01*
X150133746Y-115451427D01*
X150110206Y-115525756D01*
X150087398Y-115600310D01*
X150065322Y-115675085D01*
X150043982Y-115750075D01*
X150023377Y-115825276D01*
X150003512Y-115900681D01*
X149984348Y-115976246D01*
X149965930Y-116051989D01*
X149948257Y-116127905D01*
X149931330Y-116203990D01*
X149915151Y-116280238D01*
X149899720Y-116356645D01*
X149885039Y-116433205D01*
X149871109Y-116509912D01*
X149857959Y-116586703D01*
X149845563Y-116663614D01*
X149833922Y-116740639D01*
X149823038Y-116817772D01*
X149812912Y-116895008D01*
X149803542Y-116972344D01*
X149794933Y-117049770D01*
X149787082Y-117127284D01*
X149780031Y-117204951D01*
X149773744Y-117282678D01*
X149768220Y-117360459D01*
X149763460Y-117438289D01*
X149759467Y-117516161D01*
X149756237Y-117594071D01*
X149753773Y-117672015D01*
X149752074Y-117749987D01*
X149751092Y-117827952D01*
X149750878Y-117905917D01*
X149751427Y-117983877D01*
X149752744Y-118061825D01*
X149754825Y-118139755D01*
X149757671Y-118217665D01*
X149761283Y-118295546D01*
X149765658Y-118373396D01*
X149770776Y-118451193D01*
X149776657Y-118528933D01*
X149783299Y-118606607D01*
X149790705Y-118684211D01*
X149798871Y-118761738D01*
X149807799Y-118839183D01*
X149817487Y-118916537D01*
X149827935Y-118993796D01*
X149851119Y-119147902D01*
X149877321Y-119301508D01*
X149906533Y-119454569D01*
X149938746Y-119607042D01*
X149974006Y-119759020D01*
X150012244Y-119910267D01*
X150053445Y-120060730D01*
X150097597Y-120210366D01*
X150144628Y-120358909D01*
X150194560Y-120506491D01*
X150247379Y-120653067D01*
X150303067Y-120798590D01*
X150332018Y-120866853D01*
X150361601Y-120934833D01*
X150391819Y-121002534D01*
X150422671Y-121069959D01*
X150133812Y-121250458D01*
X150054124Y-121108302D01*
X149909213Y-120824713D01*
X149774818Y-120534547D01*
X149651049Y-120238956D01*
X149538074Y-119937238D01*
X149436272Y-119630967D01*
X149345643Y-119320154D01*
X149266905Y-119004959D01*
X149199615Y-118685661D01*
X149144595Y-118363568D01*
X149101297Y-118037804D01*
X149070379Y-117710401D01*
X149052005Y-117380644D01*
X149045572Y-117049516D01*
X149052230Y-116716912D01*
X149070943Y-116384090D01*
X149103127Y-116051378D01*
X149147364Y-115718447D01*
X149204745Y-115387052D01*
X149274289Y-115056589D01*
X149356813Y-114728375D01*
X149452045Y-114401968D01*
X149559657Y-114078795D01*
X149680087Y-113758580D01*
X149812733Y-113442311D01*
X149957866Y-113130424D01*
X150114612Y-112823470D01*
X150284120Y-112521335D01*
X150464912Y-112225557D01*
X150657590Y-111935148D01*
X150861388Y-111651806D01*
X151076742Y-111375256D01*
X151303049Y-111106488D01*
X151539876Y-110845773D01*
X151787215Y-110593109D01*
X152044473Y-110349487D01*
X152312078Y-110114630D01*
X152588559Y-109890067D01*
X152874516Y-109674822D01*
X153169169Y-109470577D01*
X153472002Y-109276482D01*
X153783533Y-109093390D01*
X154102015Y-108922397D01*
X154428065Y-108762536D01*
X154760356Y-108614610D01*
X155099600Y-108478797D01*
X155444488Y-108355912D01*
X155794743Y-108245516D01*
X156149760Y-108148594D01*
X156633015Y-108035525D01*
X156627492Y-107901864D01*
X156627214Y-107891683D01*
X156626936Y-107881500D01*
X156626508Y-107872031D01*
X156626228Y-107861845D01*
X156625524Y-107851931D01*
X156625246Y-107841748D01*
X156625245Y-107832012D01*
X156624538Y-107822094D01*
X156624259Y-107811911D01*
X156623835Y-107802445D01*
X156623555Y-107792262D01*
X156623275Y-107782075D01*
X156622570Y-107772159D01*
X156622292Y-107761979D01*
X156621865Y-107752508D01*
X156621584Y-107742325D01*
X156621305Y-107732141D01*
X156620602Y-107722226D01*
X156620601Y-107712491D01*
X156620321Y-107702307D01*
X156619615Y-107692390D01*
X156619617Y-107682657D01*
X156618911Y-107672739D01*
X156618631Y-107662555D01*
X156618352Y-107652371D01*
X156618354Y-107642638D01*
X156617647Y-107632721D01*
X156617366Y-107622537D01*
X156616661Y-107612620D01*
X156616664Y-107602886D01*
X156616384Y-107592702D01*
X156616104Y-107582518D01*
X156615678Y-107573050D01*
X156615400Y-107562868D01*
X156615119Y-107552685D01*
X156614694Y-107543214D01*
X156614414Y-107533032D01*
X156614136Y-107522849D01*
X156613430Y-107512933D01*
X156613429Y-107503196D01*
X156613150Y-107493014D01*
X156612446Y-107483097D01*
X156612431Y-107473341D01*
X156612153Y-107463158D01*
X156611872Y-107452973D01*
X156611447Y-107443504D01*
X156611168Y-107433322D01*
X156610890Y-107423139D01*
X156605645Y-107255797D01*
X156044396Y-107300606D01*
X155638059Y-107348552D01*
X155232538Y-107412439D01*
X154828549Y-107492430D01*
X154427411Y-107587705D01*
X154028953Y-107698974D01*
X153634055Y-107825692D01*
X153243154Y-107967580D01*
X152857232Y-108125248D01*
X152476465Y-108297979D01*
X152101720Y-108485224D01*
X151733543Y-108687863D01*
X151372549Y-108904923D01*
X151019162Y-109136100D01*
X150674098Y-109381579D01*
X150337527Y-109640642D01*
X150011029Y-109912907D01*
X149694173Y-110198650D01*
X149387557Y-110496882D01*
X149091897Y-110807764D01*
X148807794Y-111130320D01*
X148535959Y-111464709D01*
X148276284Y-111809779D01*
X148029042Y-112165970D01*
X147795715Y-112531747D01*
X147575857Y-112907388D01*
X147369642Y-113292178D01*
X147178378Y-113685292D01*
X147002069Y-114086735D01*
X146840876Y-114495795D01*
X146694967Y-114911757D01*
X146564943Y-115333639D01*
X146450804Y-115761437D01*
X146352709Y-116194435D01*
X146271545Y-116632097D01*
X146207196Y-117073261D01*
X146159663Y-117517936D01*
X146129112Y-117965407D01*
X146115430Y-118414522D01*
X146119493Y-118864733D01*
X146140596Y-119315876D01*
X146179061Y-119766530D01*
X146235330Y-120216417D01*
X146308689Y-120665378D01*
X146399905Y-121111711D01*
X146508104Y-121555961D01*
X146633775Y-121995993D01*
X146776046Y-122432363D01*
X146935953Y-122863799D01*
X147063007Y-123169521D01*
X146878648Y-123284721D01*
X146719169Y-123004137D01*
X146500101Y-122580414D01*
X146296372Y-122147113D01*
X146109516Y-121705702D01*
X145939967Y-121255914D01*
X145787403Y-120799169D01*
X145652532Y-120335633D01*
X145535624Y-119865747D01*
X145436634Y-119391369D01*
X145356159Y-118911516D01*
X145294416Y-118428486D01*
X145251132Y-117941844D01*
X145226693Y-117453179D01*
X145221809Y-116962651D01*
X145235877Y-116471248D01*
X145268736Y-115979683D01*
X145321367Y-115488559D01*
X145392732Y-114999135D01*
X145483543Y-114511574D01*
X145593909Y-114027025D01*
X145722681Y-113545604D01*
X145870952Y-113069060D01*
X146037575Y-112597501D01*
X146222817Y-112131370D01*
X146427070Y-111672248D01*
X146648906Y-111219810D01*
X146888978Y-110776087D01*
X147147020Y-110340637D01*
X147421983Y-109914714D01*
X147713983Y-109499479D01*
X148022745Y-109094488D01*
X148347661Y-108700725D01*
X148688412Y-108319622D01*
X149044550Y-107951443D01*
X149415370Y-107596034D01*
X149800538Y-107254810D01*
X150199891Y-106928487D01*
X150612009Y-106616736D01*
X151037269Y-106321145D01*
X151474249Y-106041383D01*
X151923054Y-105778594D01*
X152382546Y-105532909D01*
X152852280Y-105304588D01*
X153331653Y-105094616D01*
X153819952Y-104902834D01*
X154316303Y-104729788D01*
X154819824Y-104576019D01*
X155330251Y-104441100D01*
X155846370Y-104326990D01*
X156498991Y-104208022D01*
X156493528Y-104067627D01*
X156492821Y-104057710D01*
X156492824Y-104047978D01*
X156492544Y-104037794D01*
X156491839Y-104027875D01*
X156491558Y-104017691D01*
X156491277Y-104007508D01*
X156490853Y-103998039D01*
X156490573Y-103987855D01*
X156489866Y-103977936D01*
X156489585Y-103967752D01*
X156489306Y-103957568D01*
X156489025Y-103947384D01*
X156488322Y-103937468D01*
X156488322Y-103927734D01*
X156487616Y-103917816D01*
X156487055Y-103897447D01*
X156486349Y-103887529D01*
X156486070Y-103877344D01*
X156485789Y-103867161D01*
X156485364Y-103857693D01*
X156485084Y-103847507D01*
X156484806Y-103837327D01*
X156484099Y-103827409D01*
X156483819Y-103817224D01*
X156483539Y-103807039D01*
X156482833Y-103797122D01*
X156482834Y-103787387D01*
X156482553Y-103777204D01*
X156481847Y-103767286D01*
X156481567Y-103757100D01*
X156481288Y-103746916D01*
X156480864Y-103737451D01*
X156480584Y-103727267D01*
X156480303Y-103717082D01*
X156479597Y-103707165D01*
X156479317Y-103696980D01*
X156479038Y-103686796D01*
X156478756Y-103676611D01*
X156478050Y-103666693D01*
X156478051Y-103656959D01*
X156477772Y-103646774D01*
X156477066Y-103636856D01*
X156476785Y-103626672D01*
X156476362Y-103617207D01*
X156476362Y-103607472D01*
X156476082Y-103597288D01*
X156475375Y-103587371D01*
X156470680Y-103420901D01*
X155751018Y-103474516D01*
X155185604Y-103538991D01*
X154622270Y-103625319D01*
X154061837Y-103734822D01*
X153505073Y-103865796D01*
X152952520Y-104019117D01*
X152405339Y-104194681D01*
X151864562Y-104391222D01*
X151331015Y-104610063D01*
X150805465Y-104849498D01*
X150288453Y-105110406D01*
X149781337Y-105391982D01*
X149284925Y-105693655D01*
X148799682Y-106015152D01*
X148326758Y-106356366D01*
X147866050Y-106716152D01*
X147419691Y-107095000D01*
X146987302Y-107491326D01*
X146570298Y-107905454D01*
X146168856Y-108336677D01*
X145784006Y-108783729D01*
X145416902Y-109246506D01*
X145066995Y-109724127D01*
X144735440Y-110216484D01*
X144423273Y-110722319D01*
X144130666Y-111240921D01*
X143858207Y-111771299D01*
X143605908Y-112313459D01*
X143374973Y-112865424D01*
X143165235Y-113427907D01*
X142977899Y-113998940D01*
X142812416Y-114577642D01*
X142669941Y-115163903D01*
X142550909Y-115757457D01*
X142454118Y-116355392D01*
X142381154Y-116957329D01*
X142331741Y-117562828D01*
X142306048Y-118171179D01*
X142303962Y-118781231D01*
X142326090Y-119391993D01*
X142372318Y-120002323D01*
X142442538Y-120611066D01*
X142536754Y-121218222D01*
X142655290Y-121822368D01*
X142797322Y-122422188D01*
X142963457Y-123016700D01*
X143152988Y-123605733D01*
X143365794Y-124188140D01*
X143602215Y-124762497D01*
X143804517Y-125205225D01*
X143746262Y-125241626D01*
X143742170Y-125244808D01*
X143662018Y-125294893D01*
X143657787Y-125296912D01*
X143623638Y-125318250D01*
X143383489Y-124899781D01*
X143088567Y-124335169D01*
X142815667Y-123758013D01*
X142565449Y-123170343D01*
X142338069Y-122571446D01*
X142134633Y-121963074D01*
X141954803Y-121346654D01*
X141799459Y-120721634D01*
X141668820Y-120090319D01*
X141562723Y-119453415D01*
X141481877Y-118811095D01*
X141426505Y-118165652D01*
X141396602Y-117517093D01*
X141392554Y-116866998D01*
X141413924Y-116215650D01*
X141461805Y-115564795D01*
X141534884Y-114915257D01*
X141633708Y-114267913D01*
X141759098Y-113624077D01*
X141909465Y-112984131D01*
X142085466Y-112350107D01*
X142286669Y-111722275D01*
X142513175Y-111101782D01*
X142764219Y-110490332D01*
X143039968Y-109887209D01*
X143339762Y-109295263D01*
X143663604Y-108714492D01*
X144010176Y-108145721D01*
X144379863Y-107590537D01*
X144771788Y-107049487D01*
X145185785Y-106523285D01*
X145620818Y-106013190D01*
X146076715Y-105519911D01*
X146552172Y-105044275D01*
X147047011Y-104586988D01*
X147560643Y-104149041D01*
X148092184Y-103730978D01*
X148640318Y-103333623D01*
X149204888Y-102957692D01*
X149785001Y-102603713D01*
X150379360Y-102272530D01*
X150987522Y-101964412D01*
X151608172Y-101680181D01*
X152240706Y-101420816D01*
X152884137Y-101185719D01*
X153537425Y-100976150D01*
X154199861Y-100791943D01*
X154869685Y-100634192D01*
X155546467Y-100503175D01*
X156364462Y-100377757D01*
X156359109Y-100233637D01*
X156358403Y-100223719D01*
X156358404Y-100213985D01*
X156357845Y-100203353D01*
X156357564Y-100193170D01*
X156357139Y-100183701D01*
X156356860Y-100173520D01*
X156356155Y-100163601D01*
X156355875Y-100153417D01*
X156355873Y-100143680D01*
X156355167Y-100133762D01*
X156354887Y-100123577D01*
X156354608Y-100113397D01*
X156353903Y-100103478D01*
X156353623Y-100093293D01*
X156353342Y-100083109D01*
X156352915Y-100073637D01*
X156352636Y-100063457D01*
X156352357Y-100053273D01*
X156351650Y-100043354D01*
X156351370Y-100033170D01*
X156351090Y-100022986D01*
X156350667Y-100013521D01*
X156350105Y-100002887D01*
X156350107Y-99993151D01*
X156349400Y-99983234D01*
X156349120Y-99973050D01*
X156348840Y-99962866D01*
X156348416Y-99953400D01*
X156348135Y-99943216D01*
X156347857Y-99933031D01*
X156347151Y-99923113D01*
X156346870Y-99912929D01*
X156346589Y-99902745D01*
X156346166Y-99893280D01*
X156345886Y-99883096D01*
X156345605Y-99872911D01*
X156345325Y-99862727D01*
X156344619Y-99852809D01*
X156344339Y-99842625D01*
X156344059Y-99832440D01*
X156343900Y-99823399D01*
X156343621Y-99813215D01*
X156343340Y-99803030D01*
X156342633Y-99793112D01*
X156342354Y-99782928D01*
X156342076Y-99772747D01*
X156341795Y-99762563D01*
X156341369Y-99753090D01*
X156335360Y-99587447D01*
X155457280Y-99649867D01*
X154732957Y-99730158D01*
X154011205Y-99839919D01*
X153293069Y-99977889D01*
X152580242Y-100144838D01*
X151873600Y-100340213D01*
X151173858Y-100564187D01*
X150483044Y-100816095D01*
X149801155Y-101095940D01*
X149130226Y-101403051D01*
X148471118Y-101736908D01*
X147824991Y-102097391D01*
X147192289Y-102484231D01*
X146575189Y-102896045D01*
X145973263Y-103333107D01*
X145388693Y-103794055D01*
X144822198Y-104279051D01*
X144274384Y-104787109D01*
X143746721Y-105316697D01*
X143239491Y-105868255D01*
X142754168Y-106440246D01*
X142291193Y-107032395D01*
X141851770Y-107642732D01*
X141436171Y-108271694D01*
X141044897Y-108917151D01*
X140679524Y-109578710D01*
X140340668Y-110255395D01*
X140027775Y-110946323D01*
X139742757Y-111649687D01*
X139485346Y-112365051D01*
X139256147Y-113091427D01*
X139056193Y-113827553D01*
X138885116Y-114571846D01*
X138743500Y-115323315D01*
X138631958Y-116080979D01*
X138550650Y-116844124D01*
X138499363Y-117610451D01*
X138479626Y-118381433D01*
X138490015Y-119151870D01*
X138530370Y-119922474D01*
X138602167Y-120691715D01*
X138704144Y-121458546D01*
X138837178Y-122222421D01*
X139000341Y-122980877D01*
X139194070Y-123733640D01*
X139417985Y-124479121D01*
X139671533Y-125216443D01*
X139954771Y-125943745D01*
X140267149Y-126660145D01*
X140548266Y-127240695D01*
X140315304Y-127386266D01*
X140331739Y-127375617D01*
X139883138Y-126505646D01*
X139481252Y-125623548D01*
X139125686Y-124730840D01*
X138816040Y-123829038D01*
X138551926Y-122919659D01*
X138332946Y-122004219D01*
X138158706Y-121084235D01*
X138028809Y-120161223D01*
X137942862Y-119236700D01*
X137900471Y-118312181D01*
X137901239Y-117389185D01*
X137944773Y-116469227D01*
X138030676Y-115553823D01*
X138158556Y-114644493D01*
X138328015Y-113742750D01*
X138538660Y-112850111D01*
X138790095Y-111968093D01*
X139081927Y-111098212D01*
X139413760Y-110241986D01*
X139785199Y-109400930D01*
X140195849Y-108576561D01*
X140645316Y-107770396D01*
X141133204Y-106983950D01*
X141659118Y-106218743D01*
X142222665Y-105476287D01*
X142823449Y-104758101D01*
X143461074Y-104065702D01*
X144135146Y-103400604D01*
X144845272Y-102764328D01*
X145591054Y-102158387D01*
X146372099Y-101584298D01*
X147188012Y-101043577D01*
X147794035Y-100680205D01*
X148411213Y-100339365D01*
X149038910Y-100021240D01*
X149676491Y-99726006D01*
X150323319Y-99453844D01*
X150978758Y-99204932D01*
X151642175Y-98979451D01*
X152312930Y-98777578D01*
X152990390Y-98599493D01*
X153673918Y-98445377D01*
X154362878Y-98315407D01*
X155056634Y-98209763D01*
X155754552Y-98128624D01*
X156455994Y-98072169D01*
X157160324Y-98040578D01*
X157866908Y-98034030D01*
X157867201Y-98037495D01*
G37*
%TD.AperFunction*%
%TA.AperFunction,EtchedComponent*%
G36*
X158151711Y-98056723D02*
G01*
X158151862Y-98056946D01*
X159397191Y-98124437D01*
X160627178Y-98268648D01*
X161838771Y-98487841D01*
X163028913Y-98780276D01*
X164194548Y-99144216D01*
X165332622Y-99577921D01*
X166440078Y-100079651D01*
X167513863Y-100647671D01*
X168550920Y-101280239D01*
X169548193Y-101975618D01*
X170502629Y-102732069D01*
X171411171Y-103547852D01*
X172270764Y-104421231D01*
X173078353Y-105350465D01*
X173830882Y-106333816D01*
X174525296Y-107369545D01*
X174879806Y-107962508D01*
X175212002Y-108564535D01*
X175521877Y-109175037D01*
X175809423Y-109793431D01*
X176074633Y-110419129D01*
X176317502Y-111051544D01*
X176538021Y-111690089D01*
X176736184Y-112334178D01*
X176911985Y-112983223D01*
X177065415Y-113636639D01*
X177196469Y-114293839D01*
X177305140Y-114954236D01*
X177391419Y-115617245D01*
X177455302Y-116282276D01*
X177496779Y-116948744D01*
X177515845Y-117616064D01*
X177512494Y-118283646D01*
X177486718Y-118950907D01*
X177438509Y-119617258D01*
X177367861Y-120282113D01*
X177274767Y-120944886D01*
X177159221Y-121604989D01*
X177021216Y-122261837D01*
X176860743Y-122914840D01*
X176677798Y-123563416D01*
X176472372Y-124206975D01*
X176244458Y-124844932D01*
X175994051Y-125476699D01*
X175721142Y-126101691D01*
X175425725Y-126719320D01*
X175107794Y-127329000D01*
X174767342Y-127930144D01*
X174763627Y-127928192D01*
X174759645Y-127925814D01*
X174754552Y-127923505D01*
X174750288Y-127920678D01*
X174745857Y-127918580D01*
X174741428Y-127916481D01*
X174736996Y-127914384D01*
X174732284Y-127911837D01*
X174728302Y-127909459D01*
X174723590Y-127906911D01*
X174719160Y-127904813D01*
X174714449Y-127902266D01*
X174710017Y-127900167D01*
X174705586Y-127898070D01*
X174700875Y-127895523D01*
X174696444Y-127893426D01*
X174692182Y-127890598D01*
X174687750Y-127888500D01*
X174683038Y-127885953D01*
X174678608Y-127883855D01*
X174673896Y-127881308D01*
X174669083Y-127879449D01*
X174664652Y-127877350D01*
X174659941Y-127874804D01*
X174655959Y-127872426D01*
X174651248Y-127869878D01*
X174646816Y-127867781D01*
X174642386Y-127865682D01*
X174637674Y-127863137D01*
X174632963Y-127860588D01*
X174628532Y-127858490D01*
X174624549Y-127856112D01*
X174619838Y-127853565D01*
X174615407Y-127851467D01*
X174610977Y-127849369D01*
X174606264Y-127846822D01*
X174601552Y-127844275D01*
X174597122Y-127842177D01*
X174593139Y-127839798D01*
X174588428Y-127837252D01*
X174583997Y-127835154D01*
X174579566Y-127833056D01*
X174574855Y-127830509D01*
X174570143Y-127827962D01*
X174565979Y-127826289D01*
X174561716Y-127823462D01*
X174557285Y-127821364D01*
X174552572Y-127818817D01*
X174548142Y-127816719D01*
X174543431Y-127814171D01*
X174538719Y-127811624D01*
X174534554Y-127809954D01*
X174529843Y-127807406D01*
X174525131Y-127804859D01*
X174521149Y-127802481D01*
X174516438Y-127799933D01*
X174512006Y-127797836D01*
X174507576Y-127795737D01*
X174502864Y-127793191D01*
X174498434Y-127791092D01*
X174494452Y-127788714D01*
X174489740Y-127786167D01*
X174485309Y-127784069D01*
X174480878Y-127781972D01*
X174476167Y-127779424D01*
X174471735Y-127777327D01*
X174467023Y-127774780D01*
X174462592Y-127772682D01*
X174458330Y-127769854D01*
X174453899Y-127767756D01*
X174449187Y-127765209D01*
X174444757Y-127763111D01*
X174440326Y-127761013D01*
X174435614Y-127758466D01*
X174431183Y-127756369D01*
X174426922Y-127753540D01*
X174422490Y-127751443D01*
X174417777Y-127748896D01*
X174408916Y-127744700D01*
X174404204Y-127742153D01*
X174399773Y-127740055D01*
X174395063Y-127737507D01*
X174391080Y-127735129D01*
X174267838Y-127669550D01*
X173757136Y-128421313D01*
X173300242Y-129040743D01*
X172818970Y-129640668D01*
X172315515Y-130219724D01*
X171790043Y-130777192D01*
X171243265Y-131313243D01*
X170677096Y-131826066D01*
X170091268Y-132315225D01*
X169487526Y-132779620D01*
X168866590Y-133219421D01*
X168229764Y-133633796D01*
X167578103Y-134021499D01*
X166910828Y-134384226D01*
X166232221Y-134718083D01*
X165542114Y-135023779D01*
X164840780Y-135301761D01*
X164130683Y-135551097D01*
X163411821Y-135771780D01*
X162686231Y-135963156D01*
X161954341Y-136124953D01*
X161217851Y-136257939D01*
X160477368Y-136361122D01*
X159735190Y-136434289D01*
X158991423Y-136478589D01*
X158247550Y-136492488D01*
X157504833Y-136477026D01*
X156764420Y-136432093D01*
X156027733Y-136358022D01*
X155295920Y-136254698D01*
X154569263Y-136122564D01*
X153850057Y-135961399D01*
X153138689Y-135772788D01*
X152436469Y-135555915D01*
X151744385Y-135311379D01*
X151063696Y-135040226D01*
X150395831Y-134742780D01*
X149740783Y-134419042D01*
X149100090Y-134070492D01*
X148474901Y-133697018D01*
X147866039Y-133299937D01*
X147274655Y-132879140D01*
X146701121Y-132436217D01*
X146146608Y-131971053D01*
X145611482Y-131485240D01*
X145097448Y-130979547D01*
X144604503Y-130453974D01*
X144133750Y-129910264D01*
X143685290Y-129349581D01*
X143260983Y-128771977D01*
X142945387Y-128304976D01*
X143125993Y-128192121D01*
X143479755Y-128633434D01*
X143939613Y-129162623D01*
X144419249Y-129672748D01*
X144917833Y-130162505D01*
X145435107Y-130631442D01*
X145969354Y-131078801D01*
X146519878Y-131504415D01*
X147086290Y-131906695D01*
X147666998Y-132286022D01*
X148261188Y-132641087D01*
X148868411Y-132972161D01*
X149486704Y-133278040D01*
X150115906Y-133559429D01*
X150754466Y-133814864D01*
X151401965Y-134044602D01*
X152056690Y-134247888D01*
X152717779Y-134425262D01*
X153384671Y-134575852D01*
X154055515Y-134699599D01*
X154729863Y-134796782D01*
X155406299Y-134867069D01*
X156084102Y-134910297D01*
X156761690Y-134926851D01*
X157438350Y-134916562D01*
X158112656Y-134879101D01*
X158784720Y-134815624D01*
X159451693Y-134725470D01*
X160114122Y-134609514D01*
X160769867Y-134467267D01*
X161418772Y-134299435D01*
X162059513Y-134106846D01*
X162690675Y-133889166D01*
X163311813Y-133646674D01*
X163921889Y-133380626D01*
X164520026Y-133091567D01*
X165105236Y-132778901D01*
X165676479Y-132443883D01*
X166233163Y-132087509D01*
X166774832Y-131710038D01*
X167299904Y-131311860D01*
X167807783Y-130893960D01*
X168297856Y-130457326D01*
X168769419Y-130001789D01*
X169222415Y-129529216D01*
X169654979Y-129039552D01*
X170068207Y-128534548D01*
X170459089Y-128014257D01*
X170828883Y-127479727D01*
X171176987Y-126931933D01*
X171578676Y-126239756D01*
X171436812Y-126163877D01*
X171432101Y-126161331D01*
X171427670Y-126159232D01*
X171423240Y-126157134D01*
X171419256Y-126154755D01*
X171414164Y-126152447D01*
X171409452Y-126149900D01*
X171405470Y-126147522D01*
X171401040Y-126145423D01*
X171396609Y-126143325D01*
X171391897Y-126140778D01*
X171387186Y-126138231D01*
X171382754Y-126136133D01*
X171378773Y-126133754D01*
X171374341Y-126131656D01*
X171369910Y-126129558D01*
X171365199Y-126127011D01*
X171360487Y-126124464D01*
X171356057Y-126122365D01*
X171351625Y-126120267D01*
X171347643Y-126117889D01*
X171342932Y-126115342D01*
X171338220Y-126112795D01*
X171333790Y-126110697D01*
X171329359Y-126108598D01*
X171324647Y-126106051D01*
X171320217Y-126103953D01*
X171316234Y-126101574D01*
X171311524Y-126099027D01*
X171307093Y-126096929D01*
X171302380Y-126094383D01*
X171297949Y-126092283D01*
X171293237Y-126089738D01*
X171288807Y-126087639D01*
X171284095Y-126085093D01*
X171280113Y-126082714D01*
X171275683Y-126080615D01*
X171270970Y-126078068D01*
X171266157Y-126076209D01*
X171261447Y-126073662D01*
X171257016Y-126071564D01*
X171252585Y-126069466D01*
X171248322Y-126066638D01*
X171243891Y-126064540D01*
X171239180Y-126061993D01*
X171234749Y-126059895D01*
X171230037Y-126057348D01*
X171225606Y-126055250D01*
X171221175Y-126053152D01*
X171216463Y-126050605D01*
X171212481Y-126048226D01*
X171207770Y-126045680D01*
X171203339Y-126043581D01*
X171198628Y-126041036D01*
X171194196Y-126038936D01*
X171189767Y-126036837D01*
X171185054Y-126034291D01*
X171180624Y-126032192D01*
X171176361Y-126029365D01*
X171171929Y-126027268D01*
X171167500Y-126025168D01*
X171162787Y-126022622D01*
X171158077Y-126020074D01*
X171153645Y-126017977D01*
X171149214Y-126015878D01*
X171145233Y-126013500D01*
X171140520Y-126010953D01*
X171135809Y-126008405D01*
X171131377Y-126006308D01*
X171126947Y-126004209D01*
X171122516Y-126002111D01*
X171118533Y-125999732D01*
X171113441Y-125997424D01*
X171109178Y-125994598D01*
X171104747Y-125992499D01*
X171100316Y-125990400D01*
X171095886Y-125988302D01*
X171091173Y-125985756D01*
X171087191Y-125983377D01*
X171082480Y-125980830D01*
X171078049Y-125978732D01*
X171073338Y-125976184D01*
X171068906Y-125974087D01*
X171064476Y-125971988D01*
X171059764Y-125969441D01*
X171055333Y-125967344D01*
X171051071Y-125964515D01*
X171046640Y-125962417D01*
X171042209Y-125960319D01*
X171037497Y-125957772D01*
X171033066Y-125955674D01*
X171028355Y-125953128D01*
X171023923Y-125951029D01*
X171019661Y-125948201D01*
X171015230Y-125946104D01*
X171010519Y-125943557D01*
X171006087Y-125941459D01*
X171001657Y-125939360D01*
X170997675Y-125936981D01*
X170876402Y-125872608D01*
X170444813Y-126479877D01*
X170072396Y-126962425D01*
X169682394Y-127428542D01*
X169275086Y-127878662D01*
X168850798Y-128311360D01*
X168411120Y-128726250D01*
X167956216Y-129122629D01*
X167486795Y-129500657D01*
X167003904Y-129859070D01*
X166507979Y-130197600D01*
X166000617Y-130515882D01*
X165481529Y-130813445D01*
X164952741Y-131089638D01*
X164413821Y-131344738D01*
X163866525Y-131577652D01*
X163311560Y-131788545D01*
X162749037Y-131978568D01*
X162181916Y-132144655D01*
X161609157Y-132288060D01*
X161032617Y-132408845D01*
X160452740Y-132506730D01*
X159870399Y-132581174D01*
X159286580Y-132632773D01*
X158702437Y-132661422D01*
X158119118Y-132667009D01*
X157536896Y-132649972D01*
X156956650Y-132609766D01*
X156380072Y-132547158D01*
X155807333Y-132461430D01*
X155239091Y-132354618D01*
X154676818Y-132225180D01*
X154121063Y-132074000D01*
X153572818Y-131901674D01*
X153032517Y-131707935D01*
X152501861Y-131493541D01*
X151980681Y-131259212D01*
X151469691Y-131005108D01*
X150970754Y-130731283D01*
X150483539Y-130439169D01*
X150009201Y-130128649D01*
X149548448Y-129799890D01*
X149101665Y-129454481D01*
X148669729Y-129091870D01*
X148253296Y-128714090D01*
X147852529Y-128320426D01*
X147468526Y-127912631D01*
X147101727Y-127490428D01*
X146752232Y-127054979D01*
X146420605Y-126607142D01*
X146194405Y-126274410D01*
X146223779Y-126256055D01*
X146231822Y-126250404D01*
X146377380Y-126159449D01*
X146641487Y-126470933D01*
X147006699Y-126869144D01*
X147386266Y-127252291D01*
X147780081Y-127619221D01*
X148186546Y-127970324D01*
X148606272Y-128304612D01*
X149037117Y-128621592D01*
X149479523Y-128920988D01*
X149931787Y-129202039D01*
X150394191Y-129465173D01*
X150865466Y-129709362D01*
X151344906Y-129934428D01*
X151831359Y-130140491D01*
X152324556Y-130327107D01*
X152823500Y-130493676D01*
X153328037Y-130640908D01*
X153836629Y-130767327D01*
X154348509Y-130874626D01*
X154863019Y-130960786D01*
X155379834Y-131027224D01*
X155897528Y-131073613D01*
X156415113Y-131099353D01*
X156932863Y-131104878D01*
X157449191Y-131090576D01*
X157963385Y-131056278D01*
X158474732Y-131001824D01*
X158982354Y-130927758D01*
X159485821Y-130834356D01*
X159983974Y-130721727D01*
X160476813Y-130589870D01*
X160962751Y-130439168D01*
X161441354Y-130269900D01*
X161912015Y-130083045D01*
X162374460Y-129878168D01*
X162826665Y-129655925D01*
X163269613Y-129416919D01*
X163702158Y-129161267D01*
X164122705Y-128889339D01*
X164532520Y-128602184D01*
X164929299Y-128300018D01*
X165313040Y-127982841D01*
X165683418Y-127652078D01*
X166039994Y-127308003D01*
X166382328Y-126950889D01*
X166709546Y-126581286D01*
X167021314Y-126200615D01*
X167317642Y-125808877D01*
X167597644Y-125406624D01*
X167861158Y-124994561D01*
X168185763Y-124441344D01*
X168043187Y-124365304D01*
X168038476Y-124362757D01*
X168034044Y-124360658D01*
X168029334Y-124358111D01*
X168024901Y-124356013D01*
X168020472Y-124353914D01*
X168016487Y-124351536D01*
X168011777Y-124348990D01*
X168007066Y-124346443D01*
X168002252Y-124344582D01*
X167998271Y-124342204D01*
X167993840Y-124340105D01*
X167989128Y-124337559D01*
X167984697Y-124335461D01*
X167979986Y-124332914D01*
X167976004Y-124330535D01*
X167971293Y-124327989D01*
X167966861Y-124325889D01*
X167962430Y-124323792D01*
X167957719Y-124321245D01*
X167953288Y-124319146D01*
X167948577Y-124316600D01*
X167944145Y-124314501D01*
X167940162Y-124312124D01*
X167935732Y-124310025D01*
X167931302Y-124307926D01*
X167927038Y-124305099D01*
X167922607Y-124303000D01*
X167917896Y-124300455D01*
X167913464Y-124298355D01*
X167908752Y-124295809D01*
X167904323Y-124293711D01*
X167900339Y-124291332D01*
X167895628Y-124288785D01*
X167890916Y-124286239D01*
X167886485Y-124284140D01*
X167882055Y-124282042D01*
X167878072Y-124279663D01*
X167873360Y-124277116D01*
X167868268Y-124274808D01*
X167864285Y-124272428D01*
X167859855Y-124270331D01*
X167855042Y-124268471D01*
X167850331Y-124265923D01*
X167845899Y-124263826D01*
X167841636Y-124260997D01*
X167837205Y-124258899D01*
X167832774Y-124256802D01*
X167828062Y-124254254D01*
X167823351Y-124251707D01*
X167818639Y-124249161D01*
X167814209Y-124247062D01*
X167809498Y-124244514D01*
X167805067Y-124242418D01*
X167800636Y-124240318D01*
X167795924Y-124237772D01*
X167791942Y-124235393D01*
X167787510Y-124233295D01*
X167782799Y-124230748D01*
X167778367Y-124228649D01*
X167773656Y-124226102D01*
X167769225Y-124224005D01*
X167764793Y-124221905D01*
X167760083Y-124219359D01*
X167756099Y-124216980D01*
X167751669Y-124214882D01*
X167746958Y-124212336D01*
X167742526Y-124210236D01*
X167738096Y-124208139D01*
X167733383Y-124205591D01*
X167728951Y-124203494D01*
X167724690Y-124200667D01*
X167720259Y-124198567D01*
X167716093Y-124196896D01*
X167711832Y-124194069D01*
X167707401Y-124191970D01*
X167702969Y-124189872D01*
X167698987Y-124187493D01*
X167694276Y-124184946D01*
X167689844Y-124182848D01*
X167685414Y-124180749D01*
X167680701Y-124178202D01*
X167676270Y-124176105D01*
X167672008Y-124173277D01*
X167667577Y-124171178D01*
X167663146Y-124169081D01*
X167658434Y-124166533D01*
X167654003Y-124164436D01*
X167649741Y-124161608D01*
X167645309Y-124159509D01*
X167640878Y-124157411D01*
X167636167Y-124154864D01*
X167631736Y-124152766D01*
X167627473Y-124149939D01*
X167623042Y-124147839D01*
X167618611Y-124145742D01*
X167613899Y-124143195D01*
X167609468Y-124141097D01*
X167604757Y-124138550D01*
X167488305Y-124076038D01*
X167135333Y-124536077D01*
X166848982Y-124881362D01*
X166550088Y-125214378D01*
X166239363Y-125535287D01*
X165917411Y-125843104D01*
X165585108Y-126137281D01*
X165242012Y-126418089D01*
X164889442Y-126684708D01*
X164528277Y-126936596D01*
X164158069Y-127174012D01*
X163779973Y-127396858D01*
X163394160Y-127604427D01*
X163002214Y-127796328D01*
X162603695Y-127972837D01*
X162200194Y-128133570D01*
X161791435Y-128278085D01*
X161378571Y-128406282D01*
X160962308Y-128518316D01*
X160542928Y-128614629D01*
X160121465Y-128693961D01*
X159697762Y-128757025D01*
X159273401Y-128803435D01*
X158848657Y-128833631D01*
X158423971Y-128847341D01*
X158000054Y-128844726D01*
X157578327Y-128826117D01*
X157157807Y-128790911D01*
X156740467Y-128740314D01*
X156326469Y-128673611D01*
X155916526Y-128590969D01*
X155510912Y-128492825D01*
X155110176Y-128380054D01*
X154715630Y-128251841D01*
X154327109Y-128108891D01*
X153945166Y-127952085D01*
X153570400Y-127780435D01*
X153203630Y-127595253D01*
X152845573Y-127396709D01*
X152495787Y-127185072D01*
X152155697Y-126960675D01*
X151825141Y-126724227D01*
X151505267Y-126475620D01*
X151195474Y-126215836D01*
X150896911Y-125944773D01*
X150609413Y-125663137D01*
X150334242Y-125371975D01*
X150070863Y-125070443D01*
X149819902Y-124760492D01*
X149581819Y-124441889D01*
X149444461Y-124242542D01*
X149631194Y-124125858D01*
X149804821Y-124311072D01*
X150074681Y-124578137D01*
X150353470Y-124834134D01*
X150641358Y-125078358D01*
X150936746Y-125311187D01*
X151240518Y-125532075D01*
X151551244Y-125740694D01*
X151868660Y-125936608D01*
X152192593Y-126120524D01*
X152522228Y-126291128D01*
X152856680Y-126448972D01*
X153196117Y-126593342D01*
X153540105Y-126724508D01*
X153887488Y-126842586D01*
X154238435Y-126946858D01*
X154591795Y-127037438D01*
X154947122Y-127114597D01*
X155304152Y-127177899D01*
X155662006Y-127227888D01*
X156020846Y-127263857D01*
X156379797Y-127286348D01*
X156738146Y-127295203D01*
X157095458Y-127290688D01*
X157451454Y-127272373D01*
X157805536Y-127241236D01*
X158156713Y-127196682D01*
X158505262Y-127139146D01*
X158850202Y-127068021D01*
X159191198Y-126984737D01*
X159527971Y-126888854D01*
X159859658Y-126780919D01*
X160185975Y-126660495D01*
X160506757Y-126528297D01*
X160821576Y-126384590D01*
X161129270Y-126229491D01*
X161430402Y-126063881D01*
X161723688Y-125886699D01*
X162009538Y-125699563D01*
X162287215Y-125502278D01*
X162556576Y-125295574D01*
X162816898Y-125079283D01*
X163068012Y-124854120D01*
X163309931Y-124620081D01*
X163542042Y-124378153D01*
X163763640Y-124128173D01*
X163975266Y-123871016D01*
X164176487Y-123606954D01*
X164367300Y-123335991D01*
X164546391Y-123058946D01*
X164794240Y-122643267D01*
X164650240Y-122566894D01*
X164645810Y-122564796D01*
X164641098Y-122562249D01*
X164636666Y-122560151D01*
X164631954Y-122557604D01*
X164627524Y-122555505D01*
X164623541Y-122553127D01*
X164618830Y-122550581D01*
X164614399Y-122548481D01*
X164609966Y-122546384D01*
X164605256Y-122543837D01*
X164600825Y-122541739D01*
X164596114Y-122539192D01*
X164592131Y-122536813D01*
X164587700Y-122534715D01*
X164582989Y-122532167D01*
X164578556Y-122530070D01*
X164574126Y-122527972D01*
X164569415Y-122525425D01*
X164564985Y-122523326D01*
X164560551Y-122521229D01*
X164556570Y-122518849D01*
X164552854Y-122516897D01*
X164548144Y-122514350D01*
X164543712Y-122512251D01*
X164539000Y-122509705D01*
X164535019Y-122507327D01*
X164530305Y-122504779D01*
X164525875Y-122502682D01*
X164521444Y-122500582D01*
X164516732Y-122498035D01*
X164512301Y-122495939D01*
X164508039Y-122493109D01*
X164503609Y-122491013D01*
X164494578Y-122486296D01*
X164494298Y-122485848D01*
X164488208Y-122482945D01*
X164486919Y-122481878D01*
X164485909Y-122481262D01*
X164481096Y-122479401D01*
X164476665Y-122477304D01*
X164472948Y-122475351D01*
X164471940Y-122474734D01*
X164467509Y-122472636D01*
X164462797Y-122470090D01*
X164461788Y-122469471D01*
X164459768Y-122468238D01*
X164458760Y-122467620D01*
X164454328Y-122465522D01*
X164450346Y-122463144D01*
X164449616Y-122462975D01*
X164445185Y-122460878D01*
X164442437Y-122459474D01*
X164440418Y-122458240D01*
X164439410Y-122457623D01*
X164436423Y-122455839D01*
X164431990Y-122453741D01*
X164363796Y-122417749D01*
X164206815Y-122334254D01*
X164272083Y-122248170D01*
X164336164Y-122161219D01*
X164399051Y-122073411D01*
X164460735Y-121984762D01*
X164521208Y-121895282D01*
X164580460Y-121804983D01*
X164638485Y-121713878D01*
X164695273Y-121621979D01*
X164797147Y-121423687D01*
X164893359Y-121222731D01*
X164983862Y-121019235D01*
X165068605Y-120813322D01*
X165147542Y-120605113D01*
X165220624Y-120394732D01*
X165287802Y-120182299D01*
X165349026Y-119967940D01*
X165404197Y-119752021D01*
X165453262Y-119534769D01*
X165496196Y-119316312D01*
X165532984Y-119096781D01*
X165563603Y-118876304D01*
X165588035Y-118655013D01*
X165606258Y-118433035D01*
X165618254Y-118210503D01*
X165624031Y-117987701D01*
X165623556Y-117764958D01*
X165616837Y-117542401D01*
X165603884Y-117320165D01*
X165584705Y-117098379D01*
X165559311Y-116877174D01*
X165527712Y-116656681D01*
X165489917Y-116437030D01*
X165445996Y-116218555D01*
X165395995Y-116001526D01*
X165339948Y-115786071D01*
X165277897Y-115572311D01*
X165209879Y-115360376D01*
X165135931Y-115150389D01*
X165056095Y-114942477D01*
X164970405Y-114736765D01*
X164878876Y-114533513D01*
X164781737Y-114333027D01*
X164679053Y-114135423D01*
X164570890Y-113940813D01*
X164457313Y-113749313D01*
X164338387Y-113561035D01*
X164214178Y-113376093D01*
X164084752Y-113194603D01*
X163950323Y-113016816D01*
X163811040Y-112842976D01*
X163666993Y-112673175D01*
X163518271Y-112507513D01*
X163364963Y-112346084D01*
X163207159Y-112188987D01*
X163044946Y-112036317D01*
X162878415Y-111888170D01*
X162707887Y-111744772D01*
X162533509Y-111606294D01*
X162355387Y-111472812D01*
X162173628Y-111344400D01*
X161988343Y-111221131D01*
X161799638Y-111103082D01*
X161607622Y-110990324D01*
X161412404Y-110882933D01*
X161214112Y-110781058D01*
X161013157Y-110684846D01*
X160809662Y-110594343D01*
X160603749Y-110509599D01*
X160395541Y-110430662D01*
X160185160Y-110357581D01*
X159972727Y-110290403D01*
X159758370Y-110229177D01*
X159610450Y-110196296D01*
X159461970Y-110166250D01*
X159312971Y-110139047D01*
X159163494Y-110114693D01*
X159013578Y-110093194D01*
X158863268Y-110074557D01*
X158712602Y-110058787D01*
X158561622Y-110045892D01*
X158551843Y-109755245D01*
X158551620Y-109749894D01*
X158551677Y-109744992D01*
X158551453Y-109742636D01*
X158550795Y-109721112D01*
X158550683Y-109719935D01*
X158550740Y-109715034D01*
X158550514Y-109709680D01*
X158550572Y-109704780D01*
X158550292Y-109694596D01*
X158549843Y-109694876D01*
X158549565Y-109684693D01*
X158549621Y-109679790D01*
X158550061Y-109674651D01*
X158550006Y-109671566D01*
X158712256Y-109673772D01*
X159030233Y-109690180D01*
X159349141Y-109718804D01*
X159667117Y-109759589D01*
X159984600Y-109812258D01*
X160300710Y-109877363D01*
X160615179Y-109954463D01*
X160928001Y-110043561D01*
X161237591Y-110145037D01*
X161544385Y-110258617D01*
X161848110Y-110383868D01*
X162147178Y-110521166D01*
X162441757Y-110669803D01*
X162732112Y-110830219D01*
X163016552Y-111001641D01*
X163295351Y-111184512D01*
X163567791Y-111378667D01*
X163833606Y-111583668D01*
X164092243Y-111798637D01*
X164343537Y-112024288D01*
X164586505Y-112260013D01*
X164821585Y-112505546D01*
X165047352Y-112760556D01*
X165264244Y-113024765D01*
X165471987Y-113297735D01*
X165669866Y-113579310D01*
X165856895Y-113868882D01*
X166034245Y-114166332D01*
X166200195Y-114470904D01*
X166355019Y-114783037D01*
X166498615Y-115101579D01*
X166629994Y-115425925D01*
X166749871Y-115756240D01*
X166857256Y-116091925D01*
X166952317Y-116432261D01*
X167035053Y-116777254D01*
X167104203Y-117125860D01*
X167160481Y-117478245D01*
X167203776Y-117833259D01*
X167233816Y-118190463D01*
X167250160Y-118550131D01*
X167253138Y-118910836D01*
X167242038Y-119272417D01*
X167217299Y-119634600D01*
X167179087Y-119996670D01*
X167127123Y-120358195D01*
X167061301Y-120718019D01*
X166981897Y-121076579D01*
X166888360Y-121433004D01*
X166744307Y-121907523D01*
X166863056Y-121969816D01*
X166871661Y-121974797D01*
X166880690Y-121979512D01*
X166889441Y-121983779D01*
X166898470Y-121988495D01*
X166907075Y-121993477D01*
X166915825Y-121997742D01*
X166924856Y-122002458D01*
X166933459Y-122007440D01*
X166942210Y-122011708D01*
X166951239Y-122016422D01*
X166960270Y-122021137D01*
X166968874Y-122026118D01*
X166977624Y-122030385D01*
X166986653Y-122035101D01*
X166995258Y-122040082D01*
X167004007Y-122044349D01*
X167013037Y-122049064D01*
X167021641Y-122054046D01*
X167030672Y-122058760D01*
X167039422Y-122063027D01*
X167048026Y-122068009D01*
X167057055Y-122072725D01*
X167065806Y-122076992D01*
X167074410Y-122081972D01*
X167083440Y-122086687D01*
X167092471Y-122091404D01*
X167100793Y-122095937D01*
X167109824Y-122100653D01*
X167118854Y-122105367D01*
X167127459Y-122110348D01*
X167136209Y-122114615D01*
X167145238Y-122119331D01*
X167153842Y-122124312D01*
X167162592Y-122128578D01*
X167171196Y-122133560D01*
X167180227Y-122138276D01*
X167189257Y-122142991D01*
X167197860Y-122147972D01*
X167206610Y-122152239D01*
X167215641Y-122156954D01*
X167224245Y-122161937D01*
X167232995Y-122166203D01*
X167241599Y-122171184D01*
X167250629Y-122175899D01*
X167259234Y-122180882D01*
X167267982Y-122185149D01*
X167277013Y-122189864D01*
X167285617Y-122194845D01*
X167433397Y-122274341D01*
X167675397Y-121765431D01*
X167836750Y-121389786D01*
X167984134Y-121006416D01*
X168116785Y-120617019D01*
X168235143Y-120221321D01*
X168338161Y-119820585D01*
X168425678Y-119415517D01*
X168498130Y-119005847D01*
X168554753Y-118593274D01*
X168595714Y-118177083D01*
X168620675Y-117758698D01*
X168629205Y-117338394D01*
X168621849Y-116917053D01*
X168598007Y-116495650D01*
X168558386Y-116074358D01*
X168501841Y-115653282D01*
X168429467Y-115234177D01*
X168340548Y-114816877D01*
X168235195Y-114402536D01*
X168113848Y-113990877D01*
X167976451Y-113583760D01*
X167823444Y-113180917D01*
X167654219Y-112783331D01*
X167469769Y-112391605D01*
X167269212Y-112006285D01*
X167054258Y-111628133D01*
X166823756Y-111257259D01*
X166578510Y-110894991D01*
X166319229Y-110541491D01*
X166045760Y-110197465D01*
X165758816Y-109863082D01*
X165458232Y-109539048D01*
X165144826Y-109226679D01*
X164818769Y-108925265D01*
X164480437Y-108636396D01*
X164130275Y-108359794D01*
X163769265Y-108096064D01*
X163397245Y-107845918D01*
X163014760Y-107610232D01*
X162623125Y-107388185D01*
X162222013Y-107181200D01*
X161811863Y-106989004D01*
X161393930Y-106812639D01*
X160968658Y-106651826D01*
X160536590Y-106507450D01*
X160098170Y-106379230D01*
X159653940Y-106268045D01*
X159204776Y-106173349D01*
X158751230Y-106096018D01*
X158423284Y-106052932D01*
X158422991Y-106049466D01*
X158422768Y-106044115D01*
X158422824Y-106039213D01*
X158422881Y-106034308D01*
X158422657Y-106028959D01*
X158422265Y-106024338D01*
X158422321Y-106019433D01*
X158422098Y-106014085D01*
X158422156Y-106009182D01*
X158421930Y-106003830D01*
X158421988Y-105998930D01*
X158421595Y-105994306D01*
X158421371Y-105988955D01*
X158421429Y-105984055D01*
X158421204Y-105978701D01*
X158421261Y-105973800D01*
X158420870Y-105969180D01*
X158420645Y-105963826D01*
X158420702Y-105958926D01*
X158420759Y-105954023D01*
X158420534Y-105948671D01*
X158420143Y-105944051D01*
X158419919Y-105938698D01*
X158419975Y-105933796D01*
X158420032Y-105928893D01*
X158419907Y-105924699D01*
X158419682Y-105919348D01*
X158419740Y-105914446D01*
X158419515Y-105909094D01*
X158419573Y-105904192D01*
X158419347Y-105898840D01*
X158418955Y-105894219D01*
X158419014Y-105889318D01*
X158418788Y-105883965D01*
X158418566Y-105878616D01*
X158418622Y-105873713D01*
X158419060Y-105868571D01*
X158418836Y-105863222D01*
X158418893Y-105858318D01*
X158418220Y-105853248D01*
X158418277Y-105848347D01*
X158418334Y-105843443D01*
X158418109Y-105838093D01*
X158418264Y-105834343D01*
X158740683Y-105836404D01*
X159217237Y-105857920D01*
X159694233Y-105898665D01*
X160169964Y-105957867D01*
X160644434Y-106035532D01*
X161116495Y-106131765D01*
X161584990Y-106246678D01*
X162050361Y-106379991D01*
X162511022Y-106532097D01*
X162966421Y-106702111D01*
X163415847Y-106889874D01*
X163858425Y-107095932D01*
X164293606Y-107319409D01*
X164720951Y-107560573D01*
X165139646Y-107818122D01*
X165548799Y-108092591D01*
X165947440Y-108383383D01*
X166335998Y-108690224D01*
X166713052Y-109012786D01*
X167077614Y-109350466D01*
X167429853Y-109702553D01*
X167768612Y-110069151D01*
X168094062Y-110449554D01*
X168404501Y-110842986D01*
X168700367Y-111249187D01*
X168980963Y-111667976D01*
X169245160Y-112097621D01*
X169493254Y-112538542D01*
X169724699Y-112989871D01*
X169938670Y-113450292D01*
X170134726Y-113920076D01*
X170313037Y-114398514D01*
X170472775Y-114884289D01*
X170614106Y-115376695D01*
X170736049Y-115875122D01*
X170838597Y-116379571D01*
X170922086Y-116888621D01*
X170985963Y-117401394D01*
X171029242Y-117917288D01*
X171052801Y-118435752D01*
X171056094Y-118955913D01*
X171039285Y-119477059D01*
X171001987Y-119997600D01*
X170944478Y-120517978D01*
X170866370Y-121036596D01*
X170767834Y-121552751D01*
X170649304Y-122066164D01*
X170510834Y-122574972D01*
X170351989Y-123079451D01*
X170128386Y-123703615D01*
X170252338Y-123769360D01*
X170261367Y-123774075D01*
X170270398Y-123778790D01*
X170279429Y-123783505D01*
X170287753Y-123788038D01*
X170296781Y-123792753D01*
X170314842Y-123802184D01*
X170323165Y-123806717D01*
X170332197Y-123811431D01*
X170341227Y-123816147D01*
X170359287Y-123825578D01*
X170367611Y-123830110D01*
X170376641Y-123834825D01*
X170385671Y-123839541D01*
X170394701Y-123844256D01*
X170403305Y-123849238D01*
X170412056Y-123853504D01*
X170430115Y-123862935D01*
X170438439Y-123867467D01*
X170447469Y-123872183D01*
X170456500Y-123876898D01*
X170465103Y-123881880D01*
X170474133Y-123886595D01*
X170483164Y-123891310D01*
X170491914Y-123895576D01*
X170500944Y-123900292D01*
X170509548Y-123905273D01*
X170518577Y-123909989D01*
X170527608Y-123914704D01*
X170535932Y-123919237D01*
X170544962Y-123923952D01*
X170553992Y-123928667D01*
X170563023Y-123933382D01*
X170571346Y-123937916D01*
X170580657Y-123943079D01*
X170589406Y-123947346D01*
X170598437Y-123952062D01*
X170607467Y-123956777D01*
X170616070Y-123961758D01*
X170624820Y-123966026D01*
X170633852Y-123970740D01*
X170642455Y-123975722D01*
X170651206Y-123979988D01*
X170659809Y-123984970D01*
X170668558Y-123989237D01*
X170677163Y-123994218D01*
X170823958Y-124073112D01*
X171137506Y-123423213D01*
X171364825Y-122901538D01*
X171570783Y-122370058D01*
X171756907Y-121830248D01*
X171921618Y-121282495D01*
X172065188Y-120727233D01*
X172186570Y-120165728D01*
X172286593Y-119599289D01*
X172363828Y-119027591D01*
X172419369Y-118452383D01*
X172451906Y-117874489D01*
X172461985Y-117294786D01*
X172448730Y-116713821D01*
X172412960Y-116132910D01*
X172354237Y-115552323D01*
X172272512Y-114973928D01*
X172167778Y-114397720D01*
X172040419Y-113825287D01*
X171890440Y-113256636D01*
X171718054Y-112694061D01*
X171522992Y-112137124D01*
X171306072Y-111587143D01*
X171066966Y-111045543D01*
X170806389Y-110512484D01*
X170524722Y-109989560D01*
X170221954Y-109476769D01*
X169898664Y-108974975D01*
X169555202Y-108485786D01*
X169192570Y-108009795D01*
X168810325Y-107547279D01*
X168409729Y-107099277D01*
X167991055Y-106666226D01*
X167554687Y-106249714D01*
X167100186Y-105850020D01*
X166630839Y-105467523D01*
X166146043Y-105103212D01*
X165646070Y-104757523D01*
X165132350Y-104430784D01*
X164605259Y-104124587D01*
X164064967Y-103838216D01*
X163513718Y-103573320D01*
X162950799Y-103329727D01*
X162378071Y-103107499D01*
X161795922Y-102908219D01*
X161205223Y-102731345D01*
X160606967Y-102577476D01*
X160002131Y-102447217D01*
X159391432Y-102340726D01*
X158776023Y-102257903D01*
X158290868Y-102211897D01*
X158291022Y-102208148D01*
X158291079Y-102203246D01*
X158290854Y-102197894D01*
X158290632Y-102192545D01*
X158290688Y-102187643D01*
X158290464Y-102182291D01*
X158290072Y-102177668D01*
X158290126Y-102172763D01*
X158290183Y-102167860D01*
X158289961Y-102162512D01*
X158289736Y-102157159D01*
X158289792Y-102152257D01*
X158289399Y-102147631D01*
X158289176Y-102142283D01*
X158289232Y-102137380D01*
X158289008Y-102132029D01*
X158289065Y-102127126D01*
X158288671Y-102122501D01*
X158288449Y-102117152D01*
X158288504Y-102112249D01*
X158288281Y-102106897D01*
X158288337Y-102101995D01*
X158288113Y-102096643D01*
X158287722Y-102092020D01*
X158287775Y-102087116D01*
X158287832Y-102082212D01*
X158287888Y-102077311D01*
X158287665Y-102071958D01*
X158287441Y-102066609D01*
X158287497Y-102061703D01*
X158287104Y-102057081D01*
X158286882Y-102051732D01*
X158286937Y-102046827D01*
X158286992Y-102041925D01*
X158286769Y-102036572D01*
X158286376Y-102031950D01*
X158286154Y-102026601D01*
X158286590Y-102021458D01*
X158286646Y-102016555D01*
X158286423Y-102011203D01*
X158286478Y-102006301D01*
X158286257Y-102000951D01*
X158286311Y-101996046D01*
X158768622Y-101997515D01*
X159405184Y-102024473D01*
X160040864Y-102076352D01*
X160675503Y-102153864D01*
X161307674Y-102256688D01*
X161936666Y-102384650D01*
X162560779Y-102536988D01*
X163179412Y-102714690D01*
X163791579Y-102917148D01*
X164396296Y-103143760D01*
X164992683Y-103395078D01*
X165579045Y-103670332D01*
X166155544Y-103968811D01*
X166720754Y-104290186D01*
X167273971Y-104634294D01*
X167814034Y-105001238D01*
X168339859Y-105389274D01*
X168850998Y-105798666D01*
X169346030Y-106229098D01*
X169824575Y-106678970D01*
X170285755Y-107148838D01*
X170728908Y-107636665D01*
X171153160Y-108143007D01*
X171557254Y-108666822D01*
X171941518Y-109206685D01*
X172304532Y-109762265D01*
X172645296Y-110332965D01*
X172964428Y-110917793D01*
X173260658Y-111515709D01*
X173533170Y-112125403D01*
X173781525Y-112747144D01*
X174006216Y-113378799D01*
X174205380Y-114020308D01*
X174379782Y-114669979D01*
X174528000Y-115327479D01*
X174650804Y-115991113D01*
X174747204Y-116660276D01*
X174817090Y-117333820D01*
X174860354Y-118010595D01*
X174877162Y-118689884D01*
X174866688Y-119370377D01*
X174829267Y-120050646D01*
X174764895Y-120730696D01*
X174673353Y-121408222D01*
X174555082Y-122082955D01*
X174409970Y-122753737D01*
X174238346Y-123419151D01*
X174040102Y-124078046D01*
X173814962Y-124729978D01*
X173514767Y-125500716D01*
X173642116Y-125567994D01*
X173651146Y-125572709D01*
X173659749Y-125577691D01*
X173668780Y-125582406D01*
X173677810Y-125587121D01*
X173686560Y-125591388D01*
X173695590Y-125596103D01*
X173704194Y-125601084D01*
X173713224Y-125605800D01*
X173721974Y-125610067D01*
X173731003Y-125614782D01*
X173739608Y-125619763D01*
X173748638Y-125624478D01*
X173757668Y-125629194D01*
X173766418Y-125633461D01*
X173775022Y-125638442D01*
X173784052Y-125643157D01*
X173793082Y-125647873D01*
X173802112Y-125652588D01*
X173810436Y-125657120D01*
X173819466Y-125661836D01*
X173828496Y-125666551D01*
X173837099Y-125671533D01*
X173846130Y-125676248D01*
X173855161Y-125680963D01*
X173863910Y-125685230D01*
X173872514Y-125690212D01*
X173881544Y-125694927D01*
X173890574Y-125699642D01*
X173899325Y-125703908D01*
X173908355Y-125708624D01*
X173916958Y-125713606D01*
X173925989Y-125718320D01*
X173934737Y-125722588D01*
X173943342Y-125727569D01*
X173952373Y-125732285D01*
X173961403Y-125736999D01*
X173970433Y-125741714D01*
X173978757Y-125746248D01*
X173987786Y-125750963D01*
X173996817Y-125755676D01*
X174005847Y-125760394D01*
X174014451Y-125765375D01*
X174023481Y-125770090D01*
X174032231Y-125774356D01*
X174041261Y-125779073D01*
X174049865Y-125784053D01*
X174058895Y-125788769D01*
X174067926Y-125793483D01*
X174213899Y-125871062D01*
X174599165Y-125079461D01*
X174891738Y-124411596D01*
X175157687Y-123732330D01*
X175396745Y-123041234D01*
X175608851Y-122340164D01*
X175792968Y-121630382D01*
X175948931Y-120912600D01*
X176076410Y-120188240D01*
X176174804Y-119458295D01*
X176244658Y-118723633D01*
X176284934Y-117985520D01*
X176295576Y-117245812D01*
X176277295Y-116504679D01*
X176229324Y-115763814D01*
X176151337Y-115024647D01*
X176044317Y-114287780D01*
X175907663Y-113554195D01*
X175741594Y-112826195D01*
X175546381Y-112104217D01*
X175322577Y-111389138D01*
X175069683Y-110683096D01*
X174788855Y-109985979D01*
X174479593Y-109299923D01*
X174143160Y-108625971D01*
X173779560Y-107964123D01*
X173389275Y-107317119D01*
X172972748Y-106684689D01*
X172530646Y-106068843D01*
X172063948Y-105470199D01*
X171573201Y-104889627D01*
X171058956Y-104328005D01*
X170521588Y-103786923D01*
X169962255Y-103266273D01*
X169382327Y-102768241D01*
X168781522Y-102292391D01*
X168162092Y-101840371D01*
X167523872Y-101412884D01*
X166865983Y-101010486D01*
X166193851Y-100634051D01*
X165505887Y-100283960D01*
X164804060Y-99961423D01*
X164088811Y-99666162D01*
X163360962Y-99399496D01*
X162622374Y-99161478D01*
X161873595Y-98952981D01*
X161115769Y-98773896D01*
X160350879Y-98625431D01*
X159579083Y-98506877D01*
X158802079Y-98418998D01*
X158158785Y-98372488D01*
X158158729Y-98371901D01*
X158158672Y-98371309D01*
X158158730Y-98366409D01*
X158158506Y-98361057D01*
X158158562Y-98356156D01*
X158158338Y-98350803D01*
X158158395Y-98345901D01*
X158158452Y-98340998D01*
X158158227Y-98335646D01*
X158157554Y-98330575D01*
X158157610Y-98325672D01*
X158157667Y-98320770D01*
X158157443Y-98315417D01*
X158157501Y-98310518D01*
X158157275Y-98305163D01*
X158157334Y-98300263D01*
X158156658Y-98295188D01*
X158156718Y-98290289D01*
X158156491Y-98284934D01*
X158156549Y-98280034D01*
X158156604Y-98275129D01*
X158156382Y-98269779D01*
X158156436Y-98264875D01*
X158155766Y-98259806D01*
X158155820Y-98254900D01*
X158155876Y-98249998D01*
X158155934Y-98245095D01*
X158155708Y-98239744D01*
X158155316Y-98235121D01*
X158155373Y-98230219D01*
X158155148Y-98224867D01*
X158154924Y-98219514D01*
X158154981Y-98214612D01*
X158155040Y-98209713D01*
X158155194Y-98204120D01*
X158154804Y-98199501D01*
X158154859Y-98194595D01*
X158154636Y-98189247D01*
X158154691Y-98184340D01*
X158154467Y-98178992D01*
X158154242Y-98173637D01*
X158154300Y-98168738D01*
X158154356Y-98163832D01*
X158153962Y-98159206D01*
X158153739Y-98153858D01*
X158153516Y-98148509D01*
X158153571Y-98143603D01*
X158153348Y-98138254D01*
X158153402Y-98133349D01*
X158153460Y-98128446D01*
X158153236Y-98123094D01*
X158152843Y-98118472D01*
X158152619Y-98113120D01*
X158152675Y-98108217D01*
X158152453Y-98102868D01*
X158152507Y-98097963D01*
X158152285Y-98092614D01*
X158152340Y-98087708D01*
X158152118Y-98082359D01*
X158151723Y-98077734D01*
X158151780Y-98072832D01*
X158151555Y-98067480D01*
X158151611Y-98062578D01*
X158151388Y-98057225D01*
X158151559Y-98056502D01*
X158151711Y-98056723D01*
G37*
%TD.AperFunction*%
D11*
%TO.C,SW3*%
X179925000Y-117885573D02*
G75*
G02*
X135475000Y-117885573I-22225000J0D01*
G01*
X135475000Y-117885573D02*
G75*
G02*
X179925000Y-117885573I22225000J0D01*
G01*
%TO.C,SW1*%
D12*
X158950000Y-117800000D02*
G75*
G02*
X156450000Y-117800000I-1250000J0D01*
G01*
X156450000Y-117800000D02*
G75*
G02*
X158950000Y-117800000I1250000J0D01*
G01*
%TD*%
D13*
%TO.P,SW2,1,Pin_1*%
%TO.N,Net-(SW2-Pin_1)*%
X144225012Y-126303415D03*
%TO.P,SW2,2,Pin_2*%
%TO.N,Net-(SW2-Pin_2)*%
X173100881Y-126979228D03*
%TO.P,SW2,3,Pin_3*%
%TO.N,Net-(SW2-Pin_3)*%
X157689465Y-99919214D03*
%TD*%
D14*
%TO.P,SW3,1,Pin_1*%
%TO.N,Net-(SW3-Pin_1)*%
X167342162Y-96890962D03*
%TD*%
D15*
%TO.P,H3,1,1*%
%TO.N,GND*%
X132650000Y-140200000D03*
X133133274Y-139033274D03*
X133133274Y-141366726D03*
X134300000Y-138550000D03*
D16*
X134300000Y-140200000D03*
D15*
X134300000Y-141850000D03*
X135466726Y-139033274D03*
X135466726Y-141366726D03*
X135950000Y-140200000D03*
%TD*%
%TO.P,H1,1,1*%
%TO.N,GND*%
X132650000Y-51250000D03*
X133133274Y-50083274D03*
X133133274Y-52416726D03*
X134300000Y-49600000D03*
D16*
X134300000Y-51250000D03*
D15*
X134300000Y-52900000D03*
X135466726Y-50083274D03*
X135466726Y-52416726D03*
X135950000Y-51250000D03*
%TD*%
D13*
%TO.P,SW1,1,Pin_1*%
%TO.N,Net-(SW1-Pin_1)*%
X157700000Y-117800000D03*
%TD*%
D15*
%TO.P,H2,1,1*%
%TO.N,GND*%
X179450000Y-51250000D03*
X179933274Y-50083274D03*
X179933274Y-52416726D03*
X181100000Y-49600000D03*
D16*
X181100000Y-51250000D03*
D15*
X181100000Y-52900000D03*
X182266726Y-50083274D03*
X182266726Y-52416726D03*
X182750000Y-51250000D03*
%TD*%
D17*
%TO.P,LCD1,1*%
%TO.N,N/C*%
X173298454Y-65932176D03*
%TO.P,LCD1,2,GND*%
%TO.N,GND*%
X173298454Y-66732276D03*
%TO.P,LCD1,3,LEDK*%
%TO.N,Net-(LCD1-LEDK)*%
X173298454Y-67532376D03*
%TO.P,LCD1,4,LEDA*%
%TO.N,+3V3*%
X173298454Y-68332476D03*
%TO.P,LCD1,5,GND1*%
%TO.N,GND*%
X173298454Y-69132576D03*
%TO.P,LCD1,6,RESET*%
%TO.N,Net-(LCD1-RESET)*%
X173298454Y-69932676D03*
%TO.P,LCD1,7,RS/DC*%
%TO.N,/RS*%
X173298454Y-70732776D03*
%TO.P,LCD1,8,DATA*%
%TO.N,/PICO*%
X173298454Y-71530336D03*
%TO.P,LCD1,9,CLOCK*%
%TO.N,/SCLK*%
X173298454Y-72330436D03*
%TO.P,LCD1,10,VCC*%
%TO.N,+3V3*%
X173298454Y-73130536D03*
%TO.P,LCD1,11,VCC2*%
X173298454Y-73930636D03*
%TO.P,LCD1,12,CS*%
%TO.N,/CS*%
X173298454Y-74730736D03*
%TO.P,LCD1,13,GND2*%
%TO.N,GND*%
X173298454Y-75530836D03*
%TO.P,LCD1,14*%
%TO.N,N/C*%
X173298454Y-76330936D03*
%TD*%
D15*
%TO.P,H4,1,1*%
%TO.N,GND*%
X179450000Y-140200000D03*
X179933274Y-139033274D03*
X179933274Y-141366726D03*
X181100000Y-138550000D03*
D16*
X181100000Y-140200000D03*
D15*
X181100000Y-141850000D03*
X182266726Y-139033274D03*
X182266726Y-141366726D03*
X182750000Y-140200000D03*
%TD*%
D18*
%TO.N,GND*%
X171545314Y-74420875D03*
X136395668Y-93392654D03*
X177447548Y-93599081D03*
X180361986Y-126327529D03*
X175511906Y-84691167D03*
X169952558Y-73624238D03*
X167523112Y-76477583D03*
X175653506Y-135184074D03*
X180999010Y-78919597D03*
X179381420Y-68190273D03*
X179949934Y-105937292D03*
X176246495Y-97301572D03*
X175401105Y-89288809D03*
X169952558Y-69465779D03*
X173365773Y-141650208D03*
X180999415Y-62390759D03*
X179949934Y-107386242D03*
X176424655Y-138414578D03*
X134954952Y-95429268D03*
X179459052Y-128863164D03*
X167523112Y-82181531D03*
X182136948Y-93550665D03*
X183024443Y-130728022D03*
X178299705Y-138666351D03*
X183024443Y-132176972D03*
X175157704Y-141805414D03*
X180955696Y-129704253D03*
X179949934Y-108835193D03*
X183024443Y-133625923D03*
X134954952Y-93392654D03*
X169952558Y-76476211D03*
X140914349Y-93674736D03*
X146988183Y-91486365D03*
X183024523Y-97313623D03*
X183024523Y-100211524D03*
X169952558Y-67841508D03*
X169952558Y-79328184D03*
X176246495Y-98750522D03*
X179383940Y-76023389D03*
X180999070Y-76023389D03*
X180996490Y-71086481D03*
X173059933Y-86926353D03*
X178846275Y-83496392D03*
X179381360Y-71086481D03*
X140921769Y-94720882D03*
X177742278Y-91587415D03*
X175492522Y-95063481D03*
X167523112Y-73625610D03*
X173298434Y-82647962D03*
X179953635Y-99949186D03*
X136395668Y-95429268D03*
X138747863Y-92213100D03*
X179384285Y-62390759D03*
X180998367Y-73525749D03*
X179953635Y-97051285D03*
X182192280Y-94518978D03*
X170846461Y-84883148D03*
X182192280Y-92513187D03*
X180996550Y-68190273D03*
X137829319Y-97133495D03*
X179383880Y-78919597D03*
X178628423Y-90509087D03*
X179384285Y-65288660D03*
X183024523Y-98762573D03*
X176246495Y-100199473D03*
X179953635Y-98500235D03*
X167523112Y-79329556D03*
X180999415Y-65288660D03*
X136391640Y-97123910D03*
X169952558Y-82180159D03*
X169952558Y-66226378D03*
%TO.N,+3V3*%
X180639083Y-88418985D03*
X136858785Y-83809575D03*
X136848558Y-88104571D03*
X176815485Y-68337152D03*
X170965324Y-140247884D03*
X175198478Y-73130797D03*
X179314097Y-135081319D03*
X179900190Y-135630781D03*
X181378019Y-88426722D03*
X175190939Y-73907312D03*
%TO.N,/SDA*%
X181024251Y-97793701D03*
X182373706Y-95482147D03*
%TO.N,/TOUCH_INT*%
X138779097Y-88693693D03*
X175929439Y-93039618D03*
%TO.N,/PICO*%
X169055821Y-77629968D03*
X177295779Y-92468336D03*
%TO.N,Net-(LCD1-RESET)*%
X171717872Y-69914406D03*
%TO.N,/SCLK*%
X179395933Y-92455301D03*
X170918321Y-80552508D03*
%TO.N,/CS*%
X171769118Y-75161762D03*
%TO.N,/RS*%
X171681704Y-70856755D03*
%TO.N,/LED_ENABLE*%
X174101532Y-60687565D03*
%TO.N,Net-(LCD1-LEDK)*%
X177410940Y-65387001D03*
%TO.N,Net-(SW3-Pin_1)*%
X167406129Y-96001331D03*
%TD*%
D19*
%TO.N,+3V3*%
X178224530Y-135081319D02*
X179314097Y-135081319D01*
D20*
X173298454Y-68332476D02*
X176810809Y-68332476D01*
D21*
X179900190Y-135630781D02*
X179863560Y-135630781D01*
X181001481Y-94116510D02*
X181001481Y-88803260D01*
D19*
X136848558Y-83819802D02*
X136858785Y-83809575D01*
D21*
X181370282Y-88418985D02*
X180639083Y-88418985D01*
X179900190Y-135630781D02*
X179863559Y-135630781D01*
D19*
X170965324Y-140247884D02*
X173057965Y-140247884D01*
D21*
X178247105Y-96870886D02*
X181001481Y-94116510D01*
X179646944Y-135414165D02*
X181989980Y-133071129D01*
X181989980Y-133071129D02*
X181989980Y-104068565D01*
X179863560Y-135630781D02*
X179646944Y-135414165D01*
D20*
X176810809Y-68332476D02*
X176815485Y-68337152D01*
D21*
X181001481Y-88803260D02*
X181378019Y-88426722D01*
X181989980Y-104068565D02*
X178247105Y-100325690D01*
D19*
X173057965Y-140247884D02*
X178224530Y-135081319D01*
D21*
X179863559Y-135630781D02*
X179314097Y-135081319D01*
X178247105Y-100325690D02*
X178247105Y-96870886D01*
D19*
X136848558Y-88104571D02*
X136848558Y-83819802D01*
D21*
X181378019Y-88426722D02*
X181370282Y-88418985D01*
D19*
%TO.N,/SDA*%
X182373706Y-95482147D02*
X181758265Y-96097588D01*
X181758265Y-96097588D02*
X181758265Y-97084369D01*
X181758265Y-97084369D02*
X181048933Y-97793701D01*
X181048933Y-97793701D02*
X181024251Y-97793701D01*
D22*
%TO.N,/TOUCH_INT*%
X175929439Y-93039618D02*
X175902509Y-93039618D01*
X175902509Y-93039618D02*
X171556584Y-88693693D01*
X171556584Y-88693693D02*
X138779097Y-88693693D01*
D19*
%TO.N,/PICO*%
X169069145Y-77616644D02*
X169069145Y-72664344D01*
X177182899Y-92468336D02*
X169069145Y-84354582D01*
X177295779Y-92468336D02*
X177182899Y-92468336D01*
X169055821Y-77629968D02*
X169069145Y-77616644D01*
X169069145Y-84354582D02*
X169069145Y-77643292D01*
X169069145Y-72664344D02*
X170203153Y-71530336D01*
X170203153Y-71530336D02*
X173298454Y-71530336D01*
X169069145Y-77643292D02*
X169055821Y-77629968D01*
D22*
%TO.N,Net-(LCD1-RESET)*%
X171736142Y-69932676D02*
X171717872Y-69914406D01*
X173298454Y-69932676D02*
X171736142Y-69932676D01*
D19*
%TO.N,/SCLK*%
X171475608Y-72330436D02*
X170899549Y-72906495D01*
X170918321Y-80552508D02*
X170899549Y-80571280D01*
X178319278Y-91348413D02*
X178319278Y-91359804D01*
X178319278Y-91359804D02*
X179395933Y-92436459D01*
X173298454Y-72330436D02*
X171475608Y-72330436D01*
X170899549Y-72906495D02*
X170899549Y-80533736D01*
X177981280Y-91010415D02*
X178319278Y-91348413D01*
X177969889Y-91010415D02*
X177981280Y-91010415D01*
X170899549Y-80571280D02*
X170899549Y-83940075D01*
X170899549Y-83940075D02*
X177969889Y-91010415D01*
X179395933Y-92436459D02*
X179395933Y-92455301D01*
X170899549Y-80533736D02*
X170918321Y-80552508D01*
D22*
%TO.N,/CS*%
X172200144Y-74730736D02*
X173298454Y-74730736D01*
X171769118Y-75161762D02*
X172200144Y-74730736D01*
%TO.N,/RS*%
X171805683Y-70732776D02*
X173298454Y-70732776D01*
X171681704Y-70856755D02*
X171805683Y-70732776D01*
D20*
%TO.N,Net-(LCD1-LEDK)*%
X177410940Y-65387001D02*
X177410940Y-66586592D01*
X177410940Y-66586592D02*
X176465156Y-67532376D01*
X176465156Y-67532376D02*
X173298454Y-67532376D01*
D22*
%TO.N,Net-(SW3-Pin_1)*%
X167406129Y-96001331D02*
X167406129Y-96641345D01*
%TD*%
%TA.AperFunction,Conductor*%
%TO.N,+3V3*%
G36*
X179381449Y-134655691D02*
G01*
X179455629Y-134672352D01*
X179477704Y-134682222D01*
X179538731Y-134725791D01*
X179544650Y-134730017D01*
X179553788Y-134738028D01*
X180206721Y-135437174D01*
X180213879Y-135446499D01*
X180256048Y-135514027D01*
X180264406Y-135535885D01*
X180277017Y-135608399D01*
X180276529Y-135631798D01*
X180260909Y-135703718D01*
X180251649Y-135725208D01*
X180206701Y-135790926D01*
X180199159Y-135799945D01*
X180011140Y-135985162D01*
X180001888Y-135992647D01*
X179934593Y-136036975D01*
X179912657Y-136045917D01*
X179839530Y-136060107D01*
X179815841Y-136060018D01*
X179742824Y-136045280D01*
X179720956Y-136036174D01*
X179653997Y-135991343D01*
X179644800Y-135983789D01*
X178968356Y-135307345D01*
X178960734Y-135298046D01*
X178915588Y-135230323D01*
X178906478Y-135208196D01*
X178892037Y-135134351D01*
X178892139Y-135110429D01*
X178907215Y-135036712D01*
X178916510Y-135014671D01*
X178962245Y-134947323D01*
X178969941Y-134938099D01*
X179049025Y-134860363D01*
X179181583Y-134730063D01*
X179191040Y-134722462D01*
X179259976Y-134677566D01*
X179282449Y-134668650D01*
X179357275Y-134655175D01*
X179381449Y-134655691D01*
G37*
%TD.AperFunction*%
%TD*%
%TA.AperFunction,Conductor*%
%TO.N,+3V3*%
G36*
X175294848Y-72808409D02*
G01*
X175379928Y-72818685D01*
X175403778Y-72826808D01*
X175471845Y-72867270D01*
X175490379Y-72884343D01*
X175536278Y-72948862D01*
X175546330Y-72971973D01*
X175563538Y-73055914D01*
X175564780Y-73068521D01*
X175559507Y-73968711D01*
X175558190Y-73980965D01*
X175540950Y-74062556D01*
X175531162Y-74085038D01*
X175486822Y-74148079D01*
X175468973Y-74164891D01*
X175403392Y-74205379D01*
X175380363Y-74213804D01*
X175349551Y-74218408D01*
X175297884Y-74226130D01*
X175285580Y-74226710D01*
X174500000Y-74184233D01*
X174493165Y-74184233D01*
X172560009Y-74184233D01*
X172548108Y-74183061D01*
X172468698Y-74167265D01*
X172446709Y-74158157D01*
X172384481Y-74116577D01*
X172367655Y-74099751D01*
X172326074Y-74037520D01*
X172316967Y-74015535D01*
X172301172Y-73936123D01*
X172300000Y-73924223D01*
X172300000Y-73137125D01*
X172301172Y-73125225D01*
X172313717Y-73062155D01*
X172316968Y-73045811D01*
X172326072Y-73023829D01*
X172367657Y-72961594D01*
X172384478Y-72944773D01*
X172446713Y-72903188D01*
X172468695Y-72894084D01*
X172531396Y-72881612D01*
X172548109Y-72878288D01*
X172560009Y-72877116D01*
X174488847Y-72877116D01*
X174500000Y-72877116D01*
X174537072Y-72873850D01*
X175282196Y-72808205D01*
X175294848Y-72808409D01*
G37*
%TD.AperFunction*%
%TD*%
%TA.AperFunction,Conductor*%
%TO.N,GND*%
G36*
X172041267Y-72730242D02*
G01*
X172059573Y-72774436D01*
X172058372Y-72786629D01*
X172044464Y-72856548D01*
X172044464Y-73084777D01*
X172043788Y-73093943D01*
X172042924Y-73099769D01*
X172042917Y-73099823D01*
X172041749Y-73111684D01*
X172040500Y-73137132D01*
X172040500Y-73924215D01*
X172041749Y-73949663D01*
X172042917Y-73961524D01*
X172042922Y-73961566D01*
X172043788Y-73967402D01*
X172044464Y-73976570D01*
X172044464Y-74204620D01*
X172044465Y-74204624D01*
X172059229Y-74278855D01*
X172059231Y-74278859D01*
X172067975Y-74291945D01*
X172077307Y-74338861D01*
X172050731Y-74378635D01*
X172047258Y-74380794D01*
X171967128Y-74427057D01*
X171967120Y-74427064D01*
X171896468Y-74497717D01*
X171896466Y-74497719D01*
X171755230Y-74638956D01*
X171711036Y-74657262D01*
X171696580Y-74657262D01*
X171557390Y-74698131D01*
X171557381Y-74698135D01*
X171435344Y-74776563D01*
X171390783Y-74827990D01*
X171348007Y-74849402D01*
X171302620Y-74834295D01*
X171281208Y-74791519D01*
X171281049Y-74787061D01*
X171281049Y-73090405D01*
X171299355Y-73046211D01*
X171615324Y-72730242D01*
X171659518Y-72711936D01*
X171997073Y-72711936D01*
X172041267Y-72730242D01*
G37*
%TD.AperFunction*%
%TA.AperFunction,Conductor*%
G36*
X180300436Y-48968806D02*
G01*
X180318742Y-49013000D01*
X180300436Y-49057194D01*
X180276332Y-49072183D01*
X180207587Y-49095518D01*
X179934001Y-49230436D01*
X179680369Y-49399908D01*
X179546720Y-49517113D01*
X179546720Y-49517115D01*
X179912879Y-49883274D01*
X179893492Y-49883274D01*
X179819983Y-49913722D01*
X179763722Y-49969983D01*
X179733274Y-50043492D01*
X179733274Y-50062879D01*
X179367115Y-49696720D01*
X179367113Y-49696720D01*
X179249908Y-49830369D01*
X179080436Y-50084001D01*
X178945518Y-50357587D01*
X178847467Y-50646436D01*
X178787959Y-50945605D01*
X178787957Y-50945622D01*
X178768007Y-51249997D01*
X178768007Y-51250002D01*
X178787957Y-51554377D01*
X178787959Y-51554394D01*
X178847467Y-51853563D01*
X178945518Y-52142412D01*
X179080436Y-52415999D01*
X179249908Y-52669630D01*
X179367115Y-52803278D01*
X179733274Y-52437119D01*
X179733274Y-52456508D01*
X179763722Y-52530017D01*
X179819983Y-52586278D01*
X179893492Y-52616726D01*
X179912877Y-52616726D01*
X179546720Y-52982883D01*
X179546720Y-52982884D01*
X179680369Y-53100091D01*
X179934000Y-53269563D01*
X180207587Y-53404481D01*
X180496437Y-53502532D01*
X180496435Y-53502532D01*
X180795605Y-53562040D01*
X180795622Y-53562042D01*
X181099998Y-53581993D01*
X181100002Y-53581993D01*
X181404377Y-53562042D01*
X181404394Y-53562040D01*
X181703563Y-53502532D01*
X181992412Y-53404481D01*
X182265999Y-53269563D01*
X182519629Y-53100091D01*
X182653278Y-52982884D01*
X182653278Y-52982883D01*
X182287121Y-52616726D01*
X182306508Y-52616726D01*
X182380017Y-52586278D01*
X182436278Y-52530017D01*
X182466726Y-52456508D01*
X182466726Y-52437121D01*
X182832883Y-52803278D01*
X182832884Y-52803278D01*
X182950091Y-52669629D01*
X183119563Y-52415999D01*
X183254481Y-52142412D01*
X183277817Y-52073667D01*
X183309357Y-52037703D01*
X183357090Y-52034574D01*
X183393054Y-52066114D01*
X183399500Y-52093757D01*
X183399500Y-139356242D01*
X183381194Y-139400436D01*
X183337000Y-139418742D01*
X183292806Y-139400436D01*
X183277817Y-139376332D01*
X183254481Y-139307587D01*
X183119563Y-139034001D01*
X182950091Y-138780369D01*
X182832883Y-138646720D01*
X182466726Y-139012877D01*
X182466726Y-138993492D01*
X182436278Y-138919983D01*
X182380017Y-138863722D01*
X182306508Y-138833274D01*
X182287119Y-138833274D01*
X182653278Y-138467115D01*
X182653278Y-138467114D01*
X182519630Y-138349908D01*
X182265999Y-138180436D01*
X181992412Y-138045518D01*
X181703562Y-137947467D01*
X181703564Y-137947467D01*
X181404394Y-137887959D01*
X181404377Y-137887957D01*
X181100002Y-137868007D01*
X181099998Y-137868007D01*
X180795622Y-137887957D01*
X180795605Y-137887959D01*
X180496436Y-137947467D01*
X180207587Y-138045518D01*
X179934001Y-138180436D01*
X179680369Y-138349908D01*
X179546720Y-138467113D01*
X179546720Y-138467115D01*
X179912879Y-138833274D01*
X179893492Y-138833274D01*
X179819983Y-138863722D01*
X179763722Y-138919983D01*
X179733274Y-138993492D01*
X179733274Y-139012879D01*
X179367115Y-138646720D01*
X179367113Y-138646720D01*
X179249908Y-138780369D01*
X179080436Y-139034001D01*
X178945518Y-139307587D01*
X178847467Y-139596436D01*
X178787959Y-139895605D01*
X178787957Y-139895622D01*
X178768007Y-140199997D01*
X178768007Y-140200002D01*
X178787957Y-140504377D01*
X178787959Y-140504394D01*
X178847467Y-140803563D01*
X178945518Y-141092412D01*
X179080436Y-141365999D01*
X179249908Y-141619630D01*
X179367115Y-141753278D01*
X179733274Y-141387119D01*
X179733274Y-141406508D01*
X179763722Y-141480017D01*
X179819983Y-141536278D01*
X179893492Y-141566726D01*
X179912877Y-141566726D01*
X179546720Y-141932883D01*
X179546720Y-141932884D01*
X179680369Y-142050091D01*
X179934000Y-142219563D01*
X180207587Y-142354481D01*
X180276332Y-142377817D01*
X180312297Y-142409357D01*
X180315425Y-142457090D01*
X180283885Y-142493055D01*
X180256242Y-142499500D01*
X135143758Y-142499500D01*
X135099564Y-142481194D01*
X135081258Y-142437000D01*
X135099564Y-142392806D01*
X135123668Y-142377817D01*
X135192412Y-142354481D01*
X135465999Y-142219563D01*
X135719629Y-142050091D01*
X135853278Y-141932884D01*
X135853278Y-141932883D01*
X135487121Y-141566726D01*
X135506508Y-141566726D01*
X135580017Y-141536278D01*
X135636278Y-141480017D01*
X135666726Y-141406508D01*
X135666726Y-141387121D01*
X136032883Y-141753278D01*
X136032884Y-141753278D01*
X136150091Y-141619629D01*
X136319563Y-141365999D01*
X136454481Y-141092412D01*
X136552532Y-140803563D01*
X136612040Y-140504394D01*
X136612042Y-140504377D01*
X136631993Y-140200002D01*
X136631993Y-140199997D01*
X136612042Y-139895622D01*
X136612040Y-139895605D01*
X136552532Y-139596436D01*
X136454481Y-139307587D01*
X136319563Y-139034001D01*
X136150091Y-138780369D01*
X136032883Y-138646720D01*
X135666726Y-139012877D01*
X135666726Y-138993492D01*
X135636278Y-138919983D01*
X135580017Y-138863722D01*
X135506508Y-138833274D01*
X135487119Y-138833274D01*
X135853278Y-138467115D01*
X135853278Y-138467114D01*
X135719630Y-138349908D01*
X135465999Y-138180436D01*
X135192412Y-138045518D01*
X134903562Y-137947467D01*
X134903564Y-137947467D01*
X134604394Y-137887959D01*
X134604377Y-137887957D01*
X134300002Y-137868007D01*
X134299998Y-137868007D01*
X133995622Y-137887957D01*
X133995605Y-137887959D01*
X133696436Y-137947467D01*
X133407587Y-138045518D01*
X133134001Y-138180436D01*
X132880369Y-138349908D01*
X132746720Y-138467113D01*
X132746720Y-138467115D01*
X133112879Y-138833274D01*
X133093492Y-138833274D01*
X133019983Y-138863722D01*
X132963722Y-138919983D01*
X132933274Y-138993492D01*
X132933274Y-139012879D01*
X132567115Y-138646720D01*
X132567113Y-138646720D01*
X132449908Y-138780369D01*
X132280436Y-139034001D01*
X132145518Y-139307587D01*
X132122183Y-139376332D01*
X132090643Y-139412297D01*
X132042910Y-139415425D01*
X132006945Y-139383885D01*
X132000500Y-139356242D01*
X132000500Y-117885573D01*
X134715591Y-117885573D01*
X134735225Y-118835408D01*
X134794093Y-119783602D01*
X134892099Y-120728584D01*
X135029067Y-121668677D01*
X135204771Y-122602324D01*
X135293387Y-122985359D01*
X135418908Y-123527912D01*
X135418912Y-123527926D01*
X135671109Y-124443853D01*
X135960945Y-125348583D01*
X136287935Y-126240605D01*
X136651487Y-127118296D01*
X137051017Y-127980254D01*
X137485810Y-128824933D01*
X137485816Y-128824943D01*
X137955153Y-129650948D01*
X138458223Y-130456853D01*
X138994168Y-131241280D01*
X139237555Y-131567683D01*
X139562080Y-132002901D01*
X140160949Y-132740361D01*
X140160964Y-132740379D01*
X140213638Y-132800026D01*
X140789831Y-133452502D01*
X141447568Y-134138004D01*
X142133070Y-134795741D01*
X142191197Y-134847072D01*
X142845194Y-135424609D01*
X142845208Y-135424620D01*
X142845211Y-135424623D01*
X143582671Y-136023492D01*
X143888857Y-136251803D01*
X144344293Y-136591405D01*
X145128720Y-137127350D01*
X145934625Y-137630420D01*
X146492609Y-137947467D01*
X146760639Y-138099762D01*
X147558038Y-138510218D01*
X147605326Y-138534559D01*
X148467268Y-138934082D01*
X149344984Y-139297644D01*
X150236975Y-139624623D01*
X150960667Y-139856462D01*
X151141719Y-139914463D01*
X151294373Y-139956495D01*
X152057661Y-140166665D01*
X152983247Y-140380801D01*
X153916891Y-140556505D01*
X154856998Y-140693475D01*
X155801963Y-140791479D01*
X156750170Y-140850348D01*
X157700000Y-140869982D01*
X158649830Y-140850348D01*
X159598037Y-140791479D01*
X160543002Y-140693475D01*
X161483109Y-140556505D01*
X162416753Y-140380801D01*
X162991276Y-140247884D01*
X170455636Y-140247884D01*
X170476281Y-140391478D01*
X170476282Y-140391481D01*
X170536546Y-140523440D01*
X170536549Y-140523445D01*
X170631550Y-140633082D01*
X170753587Y-140711510D01*
X170753592Y-140711513D01*
X170892785Y-140752383D01*
X170892787Y-140752384D01*
X170892788Y-140752384D01*
X171037861Y-140752384D01*
X171037861Y-140752383D01*
X171177056Y-140711513D01*
X171229789Y-140677623D01*
X171289412Y-140639306D01*
X171323202Y-140629384D01*
X173108189Y-140629384D01*
X173108190Y-140629384D01*
X173205219Y-140603385D01*
X173292212Y-140553160D01*
X173363241Y-140482131D01*
X173363241Y-140482130D01*
X178364246Y-135481125D01*
X178408440Y-135462819D01*
X178731766Y-135462819D01*
X178775960Y-135481125D01*
X178778071Y-135483342D01*
X178784862Y-135490839D01*
X178784869Y-135490846D01*
X178784879Y-135490857D01*
X179234826Y-135940803D01*
X179461306Y-136167283D01*
X179480094Y-136184319D01*
X179489291Y-136191873D01*
X179489305Y-136191883D01*
X179489307Y-136191885D01*
X179509623Y-136206974D01*
X179509626Y-136206976D01*
X179515326Y-136210792D01*
X179576584Y-136251806D01*
X179607595Y-136268437D01*
X179621205Y-136275736D01*
X179643055Y-136284835D01*
X179643062Y-136284837D01*
X179643069Y-136284840D01*
X179691481Y-136299650D01*
X179764488Y-136314386D01*
X179764490Y-136314386D01*
X179764498Y-136314388D01*
X179814866Y-136319516D01*
X179838555Y-136319605D01*
X179838565Y-136319603D01*
X179838568Y-136319604D01*
X179859396Y-136317641D01*
X179888963Y-136314855D01*
X179962090Y-136300665D01*
X180010614Y-136286218D01*
X180032550Y-136277276D01*
X180041299Y-136272667D01*
X180058234Y-136266666D01*
X180091101Y-136260129D01*
X180210212Y-136210792D01*
X180317410Y-136139164D01*
X180408573Y-136048001D01*
X180480201Y-135940803D01*
X180529538Y-135821692D01*
X180554690Y-135695244D01*
X180554690Y-135566318D01*
X180538925Y-135487065D01*
X180548257Y-135440150D01*
X180556025Y-135430684D01*
X182402053Y-133584657D01*
X182402058Y-133584653D01*
X182407198Y-133579512D01*
X182407200Y-133579512D01*
X182498363Y-133488349D01*
X182569991Y-133381151D01*
X182619328Y-133262040D01*
X182644480Y-133135592D01*
X182644480Y-104004102D01*
X182632928Y-103946024D01*
X182619329Y-103877654D01*
X182576566Y-103774417D01*
X182569991Y-103758543D01*
X182498363Y-103651345D01*
X182407200Y-103560182D01*
X178919911Y-100072893D01*
X178901605Y-100028699D01*
X178901605Y-97793701D01*
X180514563Y-97793701D01*
X180535208Y-97937295D01*
X180535209Y-97937298D01*
X180595473Y-98069257D01*
X180595476Y-98069262D01*
X180690477Y-98178899D01*
X180812514Y-98257327D01*
X180812519Y-98257330D01*
X180951712Y-98298200D01*
X180951714Y-98298201D01*
X180951715Y-98298201D01*
X181096788Y-98298201D01*
X181096788Y-98298200D01*
X181235983Y-98257330D01*
X181281786Y-98227893D01*
X181358024Y-98178899D01*
X181358026Y-98178897D01*
X181453028Y-98069259D01*
X181513293Y-97937297D01*
X181521823Y-97877961D01*
X181539491Y-97842664D01*
X182063541Y-97318616D01*
X182113767Y-97231622D01*
X182139765Y-97134594D01*
X182139765Y-97034144D01*
X182139765Y-96281499D01*
X182158071Y-96237305D01*
X182390423Y-96004953D01*
X182434617Y-95986647D01*
X182446243Y-95986647D01*
X182446243Y-95986646D01*
X182585438Y-95945776D01*
X182631241Y-95916339D01*
X182707479Y-95867345D01*
X182707481Y-95867343D01*
X182802483Y-95757705D01*
X182862748Y-95625743D01*
X182883394Y-95482147D01*
X182862748Y-95338551D01*
X182802483Y-95206589D01*
X182802480Y-95206585D01*
X182707479Y-95096948D01*
X182585442Y-95018520D01*
X182585433Y-95018516D01*
X182446244Y-94977647D01*
X182446242Y-94977647D01*
X182301170Y-94977647D01*
X182301168Y-94977647D01*
X182161978Y-95018516D01*
X182161969Y-95018520D01*
X182039932Y-95096948D01*
X181944931Y-95206585D01*
X181944928Y-95206590D01*
X181884663Y-95338551D01*
X181871987Y-95426712D01*
X181854317Y-95462011D01*
X181524018Y-95792312D01*
X181452990Y-95863339D01*
X181402763Y-95950334D01*
X181402763Y-95950336D01*
X181376765Y-96047358D01*
X181376765Y-96900458D01*
X181358459Y-96944652D01*
X181032216Y-97270895D01*
X180988022Y-97289201D01*
X180951713Y-97289201D01*
X180812523Y-97330070D01*
X180812514Y-97330074D01*
X180690477Y-97408502D01*
X180595476Y-97518139D01*
X180595473Y-97518144D01*
X180535209Y-97650103D01*
X180535208Y-97650106D01*
X180514563Y-97793701D01*
X178901605Y-97793701D01*
X178901605Y-97167877D01*
X178919911Y-97123683D01*
X180210323Y-95833271D01*
X181509865Y-94533729D01*
X181581492Y-94426532D01*
X181630829Y-94307421D01*
X181655981Y-94180972D01*
X181655981Y-94052048D01*
X181655981Y-89100251D01*
X181674287Y-89056057D01*
X181761095Y-88969249D01*
X181886403Y-88843941D01*
X181958030Y-88736744D01*
X181969374Y-88709357D01*
X182007368Y-88617633D01*
X182032519Y-88491184D01*
X182032519Y-88362260D01*
X182007368Y-88235811D01*
X181958030Y-88116700D01*
X181886403Y-88009503D01*
X181787501Y-87910601D01*
X181787500Y-87910600D01*
X181680305Y-87838974D01*
X181561191Y-87789636D01*
X181434745Y-87764485D01*
X180574620Y-87764485D01*
X180448173Y-87789636D01*
X180329059Y-87838974D01*
X180221863Y-87910601D01*
X180130699Y-88001765D01*
X180059072Y-88108961D01*
X180009734Y-88228075D01*
X179984583Y-88354521D01*
X179984583Y-88483448D01*
X180009734Y-88609894D01*
X180059072Y-88729008D01*
X180064242Y-88736745D01*
X180130700Y-88836205D01*
X180221863Y-88927368D01*
X180319204Y-88992410D01*
X180345780Y-89032183D01*
X180346981Y-89044376D01*
X180346981Y-93819519D01*
X180328675Y-93863713D01*
X177738723Y-96453664D01*
X177738721Y-96453666D01*
X177667094Y-96560862D01*
X177617756Y-96679976D01*
X177608438Y-96726823D01*
X177592605Y-96806423D01*
X177592605Y-100390153D01*
X177610236Y-100478791D01*
X177617757Y-100516601D01*
X177656874Y-100611039D01*
X177667093Y-100635710D01*
X177667094Y-100635713D01*
X177738720Y-100742908D01*
X181317174Y-104321362D01*
X181335480Y-104365556D01*
X181335480Y-132774137D01*
X181317174Y-132818331D01*
X179685164Y-134450340D01*
X179640970Y-134468646D01*
X179609902Y-134460377D01*
X179583632Y-134445327D01*
X179583627Y-134445324D01*
X179583624Y-134445323D01*
X179561549Y-134435453D01*
X179512497Y-134419160D01*
X179512494Y-134419159D01*
X179438323Y-134402500D01*
X179438319Y-134402499D01*
X179438317Y-134402499D01*
X179386987Y-134396250D01*
X179374900Y-134395992D01*
X179362816Y-134395734D01*
X179362804Y-134395734D01*
X179311276Y-134399783D01*
X179236465Y-134413256D01*
X179236459Y-134413257D01*
X179236457Y-134413258D01*
X179216655Y-134418907D01*
X179186746Y-134427441D01*
X179164284Y-134436353D01*
X179164275Y-134436357D01*
X179148763Y-134444382D01*
X179132244Y-134450168D01*
X179123191Y-134451969D01*
X179004076Y-134501307D01*
X179004073Y-134501308D01*
X178896878Y-134572934D01*
X178805713Y-134664099D01*
X178800405Y-134672044D01*
X178760630Y-134698618D01*
X178748439Y-134699819D01*
X178174300Y-134699819D01*
X178077278Y-134725817D01*
X178077276Y-134725817D01*
X177990281Y-134776044D01*
X172918248Y-139848078D01*
X172874054Y-139866384D01*
X171323202Y-139866384D01*
X171289412Y-139856462D01*
X171177060Y-139784257D01*
X171177051Y-139784253D01*
X171037862Y-139743384D01*
X171037860Y-139743384D01*
X170892788Y-139743384D01*
X170892786Y-139743384D01*
X170753596Y-139784253D01*
X170753587Y-139784257D01*
X170631550Y-139862685D01*
X170536549Y-139972322D01*
X170536546Y-139972327D01*
X170476282Y-140104286D01*
X170476281Y-140104289D01*
X170455636Y-140247884D01*
X162991276Y-140247884D01*
X163342339Y-140166665D01*
X164258284Y-139914462D01*
X165163025Y-139624623D01*
X166055016Y-139297644D01*
X166932732Y-138934082D01*
X167794674Y-138534559D01*
X168639370Y-138099757D01*
X169465375Y-137630420D01*
X170271280Y-137127350D01*
X171055707Y-136591405D01*
X171817316Y-136023501D01*
X171817316Y-136023500D01*
X171817328Y-136023492D01*
X172380302Y-135566318D01*
X172554806Y-135424609D01*
X173266917Y-134795752D01*
X173266922Y-134795746D01*
X173266929Y-134795741D01*
X173952431Y-134138004D01*
X174610168Y-133452502D01*
X174610179Y-133452490D01*
X175239036Y-132740379D01*
X175510434Y-132406172D01*
X175837919Y-132002901D01*
X175837928Y-132002889D01*
X176405832Y-131241280D01*
X176941777Y-130456853D01*
X177444847Y-129650948D01*
X177914184Y-128824943D01*
X178348986Y-127980247D01*
X178748509Y-127118305D01*
X179112071Y-126240589D01*
X179439050Y-125348598D01*
X179728889Y-124443857D01*
X179981092Y-123527912D01*
X180195228Y-122602326D01*
X180370932Y-121668682D01*
X180507902Y-120728575D01*
X180605906Y-119783610D01*
X180664775Y-118835403D01*
X180684409Y-117885573D01*
X180664775Y-116935743D01*
X180605906Y-115987536D01*
X180507902Y-115042571D01*
X180370932Y-114102464D01*
X180195228Y-113168820D01*
X179981092Y-112243234D01*
X179728889Y-111327289D01*
X179439050Y-110422548D01*
X179112071Y-109530557D01*
X178748509Y-108652841D01*
X178348986Y-107790899D01*
X177914184Y-106946203D01*
X177444847Y-106120198D01*
X176941777Y-105314293D01*
X176405832Y-104529866D01*
X176013788Y-104004101D01*
X175837919Y-103768244D01*
X175239050Y-103030784D01*
X175239047Y-103030781D01*
X175239036Y-103030767D01*
X174610179Y-102318656D01*
X174610168Y-102318643D01*
X173952431Y-101633141D01*
X173266929Y-100975404D01*
X172882266Y-100635713D01*
X172554806Y-100346537D01*
X172554788Y-100346522D01*
X171817328Y-99747653D01*
X171382110Y-99423128D01*
X171055707Y-99179741D01*
X170865529Y-99049805D01*
X170271288Y-98643801D01*
X169652173Y-98257331D01*
X169465375Y-98140726D01*
X168854632Y-97793701D01*
X168639360Y-97671383D01*
X167949045Y-97316048D01*
X167918129Y-97279546D01*
X167916099Y-97249625D01*
X167977835Y-96899501D01*
X167981640Y-96886447D01*
X168007592Y-96823797D01*
X168031629Y-96702951D01*
X168031629Y-96599895D01*
X168032579Y-96589041D01*
X168042346Y-96533651D01*
X168047197Y-96422540D01*
X168047196Y-96422534D01*
X168046840Y-96418459D01*
X168048825Y-96418285D01*
X168055795Y-96378021D01*
X168086585Y-96329021D01*
X168142442Y-96169390D01*
X168161378Y-96001331D01*
X168142442Y-95833272D01*
X168086585Y-95673641D01*
X168056489Y-95625744D01*
X167996607Y-95530442D01*
X167877017Y-95410852D01*
X167733825Y-95320878D01*
X167733821Y-95320876D01*
X167733820Y-95320875D01*
X167733819Y-95320875D01*
X167574188Y-95265018D01*
X167574184Y-95265017D01*
X167406129Y-95246082D01*
X167238073Y-95265017D01*
X167238069Y-95265018D01*
X167078436Y-95320876D01*
X167078432Y-95320878D01*
X166935240Y-95410852D01*
X166815650Y-95530442D01*
X166725676Y-95673634D01*
X166725674Y-95673638D01*
X166669816Y-95833271D01*
X166669815Y-95833275D01*
X166650880Y-96001331D01*
X166669815Y-96169386D01*
X166669816Y-96169390D01*
X166725673Y-96329021D01*
X166771049Y-96401237D01*
X166780629Y-96434487D01*
X166780629Y-96456479D01*
X166779679Y-96467332D01*
X166742862Y-96676126D01*
X166717160Y-96716470D01*
X166670459Y-96726823D01*
X166657394Y-96723015D01*
X166055032Y-96473508D01*
X166038184Y-96467332D01*
X165163025Y-96146523D01*
X165163014Y-96146519D01*
X165163010Y-96146518D01*
X164258280Y-95856682D01*
X163419558Y-95625743D01*
X163342339Y-95604481D01*
X162726524Y-95462011D01*
X162416751Y-95390344D01*
X161483104Y-95214640D01*
X160543011Y-95077672D01*
X160543003Y-95077671D01*
X160543002Y-95077671D01*
X159972662Y-95018520D01*
X159598029Y-94979666D01*
X158649835Y-94920798D01*
X157700000Y-94901164D01*
X156750164Y-94920798D01*
X155801970Y-94979666D01*
X154856988Y-95077672D01*
X153916895Y-95214640D01*
X152983248Y-95390344D01*
X152435282Y-95517117D01*
X152057661Y-95604481D01*
X152057648Y-95604484D01*
X152057646Y-95604485D01*
X151141719Y-95856682D01*
X150236989Y-96146518D01*
X150236977Y-96146522D01*
X150236975Y-96146523D01*
X149989324Y-96237305D01*
X149344967Y-96473508D01*
X148467276Y-96837060D01*
X147605318Y-97236590D01*
X146760639Y-97671383D01*
X145934621Y-98140728D01*
X145128711Y-98643801D01*
X144344301Y-99179735D01*
X143582671Y-99747653D01*
X142845211Y-100346522D01*
X142133070Y-100975404D01*
X141447568Y-101633141D01*
X140789831Y-102318643D01*
X140160949Y-103030784D01*
X139562080Y-103768244D01*
X138994162Y-104529874D01*
X138458228Y-105314284D01*
X137955155Y-106120194D01*
X137485810Y-106946212D01*
X137051017Y-107790891D01*
X136651487Y-108652849D01*
X136287935Y-109530540D01*
X135960945Y-110422562D01*
X135671109Y-111327292D01*
X135418912Y-112243219D01*
X135418908Y-112243234D01*
X135331544Y-112620855D01*
X135204771Y-113168821D01*
X135029067Y-114102468D01*
X134892099Y-115042561D01*
X134794093Y-115987543D01*
X134735225Y-116935737D01*
X134715591Y-117885573D01*
X132000500Y-117885573D01*
X132000500Y-88693693D01*
X138269409Y-88693693D01*
X138290054Y-88837287D01*
X138290055Y-88837290D01*
X138350319Y-88969249D01*
X138350322Y-88969254D01*
X138445323Y-89078891D01*
X138567360Y-89157319D01*
X138567365Y-89157322D01*
X138706558Y-89198192D01*
X138706560Y-89198193D01*
X138706561Y-89198193D01*
X138851634Y-89198193D01*
X138851634Y-89198192D01*
X138990829Y-89157322D01*
X139046266Y-89121694D01*
X139106297Y-89083115D01*
X139140087Y-89073193D01*
X171373502Y-89073193D01*
X171417696Y-89091499D01*
X175414098Y-93087901D01*
X175431768Y-93123200D01*
X175440396Y-93183212D01*
X175440397Y-93183215D01*
X175500661Y-93315174D01*
X175500664Y-93315179D01*
X175595665Y-93424816D01*
X175717702Y-93503244D01*
X175717707Y-93503247D01*
X175856900Y-93544117D01*
X175856902Y-93544118D01*
X175856903Y-93544118D01*
X176001976Y-93544118D01*
X176001976Y-93544117D01*
X176141171Y-93503247D01*
X176186974Y-93473810D01*
X176263212Y-93424816D01*
X176358213Y-93315179D01*
X176358216Y-93315176D01*
X176418481Y-93183214D01*
X176439127Y-93039618D01*
X176418481Y-92896022D01*
X176358216Y-92764060D01*
X176340743Y-92743895D01*
X176263212Y-92654419D01*
X176141175Y-92575991D01*
X176141166Y-92575987D01*
X176001977Y-92535118D01*
X176001975Y-92535118D01*
X175960591Y-92535118D01*
X175916397Y-92516812D01*
X171863828Y-88464243D01*
X171863816Y-88464229D01*
X171789608Y-88390021D01*
X171789599Y-88390014D01*
X171703072Y-88340057D01*
X171703063Y-88340053D01*
X171682669Y-88334589D01*
X171682668Y-88334589D01*
X171606550Y-88314192D01*
X171606546Y-88314192D01*
X171506622Y-88314192D01*
X171502797Y-88314192D01*
X171502781Y-88314193D01*
X139140087Y-88314193D01*
X139106297Y-88304271D01*
X138990833Y-88230066D01*
X138990824Y-88230062D01*
X138851635Y-88189193D01*
X138851633Y-88189193D01*
X138706561Y-88189193D01*
X138706559Y-88189193D01*
X138567369Y-88230062D01*
X138567360Y-88230066D01*
X138445323Y-88308494D01*
X138350322Y-88418131D01*
X138350319Y-88418136D01*
X138290055Y-88550095D01*
X138290054Y-88550098D01*
X138269409Y-88693693D01*
X132000500Y-88693693D01*
X132000500Y-88104571D01*
X136338870Y-88104571D01*
X136359515Y-88248165D01*
X136359516Y-88248168D01*
X136419780Y-88380127D01*
X136419783Y-88380132D01*
X136514784Y-88489769D01*
X136636821Y-88568197D01*
X136636826Y-88568200D01*
X136776019Y-88609070D01*
X136776021Y-88609071D01*
X136776022Y-88609071D01*
X136921095Y-88609071D01*
X136921095Y-88609070D01*
X137060290Y-88568200D01*
X137106093Y-88538763D01*
X137182331Y-88489769D01*
X137187808Y-88483448D01*
X137277335Y-88380129D01*
X137337600Y-88248167D01*
X137358246Y-88104571D01*
X137337600Y-87960975D01*
X137277335Y-87829013D01*
X137272606Y-87823555D01*
X137245323Y-87792068D01*
X137230058Y-87751140D01*
X137230058Y-84174807D01*
X137245324Y-84133878D01*
X137250513Y-84127890D01*
X137287562Y-84085133D01*
X137347827Y-83953171D01*
X137368473Y-83809575D01*
X137347827Y-83665979D01*
X137287562Y-83534017D01*
X137287559Y-83534013D01*
X137192558Y-83424376D01*
X137070521Y-83345948D01*
X137070512Y-83345944D01*
X136931323Y-83305075D01*
X136931321Y-83305075D01*
X136786249Y-83305075D01*
X136786247Y-83305075D01*
X136647057Y-83345944D01*
X136647048Y-83345948D01*
X136525011Y-83424376D01*
X136430010Y-83534013D01*
X136430007Y-83534018D01*
X136369743Y-83665977D01*
X136369742Y-83665980D01*
X136349097Y-83809575D01*
X136369742Y-83953169D01*
X136369743Y-83953171D01*
X136430008Y-84085133D01*
X136451792Y-84110273D01*
X136467058Y-84151201D01*
X136467058Y-87751140D01*
X136451793Y-87792068D01*
X136419781Y-87829012D01*
X136419779Y-87829015D01*
X136359516Y-87960973D01*
X136359515Y-87960976D01*
X136338870Y-88104571D01*
X132000500Y-88104571D01*
X132000500Y-77629968D01*
X168546133Y-77629968D01*
X168566778Y-77773562D01*
X168566779Y-77773565D01*
X168627043Y-77905524D01*
X168627046Y-77905529D01*
X168672379Y-77957845D01*
X168687645Y-77998774D01*
X168687645Y-84404811D01*
X168713643Y-84501833D01*
X168713643Y-84501835D01*
X168763870Y-84588830D01*
X176815375Y-92640335D01*
X176828033Y-92658565D01*
X176867002Y-92743895D01*
X176867004Y-92743897D01*
X176962005Y-92853534D01*
X177084042Y-92931962D01*
X177084047Y-92931965D01*
X177223240Y-92972835D01*
X177223242Y-92972836D01*
X177223243Y-92972836D01*
X177368316Y-92972836D01*
X177368316Y-92972835D01*
X177507511Y-92931965D01*
X177563442Y-92896020D01*
X177629552Y-92853534D01*
X177707082Y-92764060D01*
X177724556Y-92743894D01*
X177784821Y-92611932D01*
X177805467Y-92468336D01*
X177784821Y-92324740D01*
X177724556Y-92192778D01*
X177713262Y-92179744D01*
X177629552Y-92083137D01*
X177507515Y-92004709D01*
X177507506Y-92004705D01*
X177368317Y-91963836D01*
X177368315Y-91963836D01*
X177243810Y-91963836D01*
X177199616Y-91945530D01*
X169468951Y-84214865D01*
X169450645Y-84170671D01*
X169450645Y-77968020D01*
X169465910Y-77927092D01*
X169484598Y-77905526D01*
X169544863Y-77773564D01*
X169565509Y-77629968D01*
X169544863Y-77486372D01*
X169484598Y-77354410D01*
X169481629Y-77350984D01*
X169465910Y-77332842D01*
X169450645Y-77291914D01*
X169450645Y-72848254D01*
X169468951Y-72804060D01*
X170342869Y-71930142D01*
X170387063Y-71911836D01*
X171204929Y-71911836D01*
X171249123Y-71930142D01*
X171267429Y-71974336D01*
X171249123Y-72018530D01*
X171242976Y-72023921D01*
X171241360Y-72025160D01*
X171170330Y-72096191D01*
X170656511Y-72610009D01*
X170656510Y-72610009D01*
X170656511Y-72610010D01*
X170594273Y-72672248D01*
X170544047Y-72759241D01*
X170544047Y-72759243D01*
X170518049Y-72856265D01*
X170518049Y-80220742D01*
X170502784Y-80261670D01*
X170489546Y-80276947D01*
X170489544Y-80276949D01*
X170429278Y-80408913D01*
X170408633Y-80552508D01*
X170429278Y-80696102D01*
X170429279Y-80696105D01*
X170489541Y-80828060D01*
X170489545Y-80828068D01*
X170502783Y-80843344D01*
X170518049Y-80884273D01*
X170518049Y-83990304D01*
X170543460Y-84085136D01*
X170544048Y-84087329D01*
X170565246Y-84124046D01*
X170580765Y-84150926D01*
X170592165Y-84170671D01*
X170594273Y-84174322D01*
X177735642Y-91315691D01*
X177755469Y-91327138D01*
X177768412Y-91337070D01*
X177992621Y-91561279D01*
X178002553Y-91574222D01*
X178014001Y-91594049D01*
X178014006Y-91594056D01*
X178873380Y-92453429D01*
X178891050Y-92488728D01*
X178906890Y-92598896D01*
X178967155Y-92730857D01*
X178967158Y-92730862D01*
X179062159Y-92840499D01*
X179184196Y-92918927D01*
X179184201Y-92918930D01*
X179323394Y-92959800D01*
X179323396Y-92959801D01*
X179323397Y-92959801D01*
X179468470Y-92959801D01*
X179468470Y-92959800D01*
X179607665Y-92918930D01*
X179653468Y-92889493D01*
X179729706Y-92840499D01*
X179795941Y-92764060D01*
X179824710Y-92730859D01*
X179884975Y-92598897D01*
X179905621Y-92455301D01*
X179884975Y-92311705D01*
X179824710Y-92179743D01*
X179741003Y-92083140D01*
X179729706Y-92070102D01*
X179607669Y-91991674D01*
X179607660Y-91991670D01*
X179468472Y-91950801D01*
X179467253Y-91950626D01*
X179466370Y-91950184D01*
X179464180Y-91949541D01*
X179464296Y-91949145D01*
X179431953Y-91932956D01*
X178645933Y-91146936D01*
X178636001Y-91133993D01*
X178624554Y-91114166D01*
X178553525Y-91043137D01*
X178553523Y-91043135D01*
X178215532Y-90705143D01*
X178215528Y-90705140D01*
X178215527Y-90705139D01*
X178195697Y-90693690D01*
X178182757Y-90683760D01*
X171299355Y-83800358D01*
X171281049Y-83756164D01*
X171281049Y-80927601D01*
X171296315Y-80886672D01*
X171347095Y-80828069D01*
X171347096Y-80828068D01*
X171347098Y-80828066D01*
X171407363Y-80696104D01*
X171428009Y-80552508D01*
X171407363Y-80408912D01*
X171347098Y-80276950D01*
X171298394Y-80220742D01*
X171296314Y-80218341D01*
X171281049Y-80177413D01*
X171281049Y-76056948D01*
X172044464Y-76056948D01*
X172044464Y-76604920D01*
X172044465Y-76604924D01*
X172059229Y-76679155D01*
X172059231Y-76679159D01*
X172115479Y-76763340D01*
X172199661Y-76819589D01*
X172199663Y-76819590D01*
X172273897Y-76834356D01*
X174323010Y-76834355D01*
X174397245Y-76819590D01*
X174481428Y-76763340D01*
X174537678Y-76679157D01*
X174552444Y-76604923D01*
X174552443Y-76056950D01*
X174537678Y-75982715D01*
X174537676Y-75982712D01*
X174481428Y-75898531D01*
X174397246Y-75842282D01*
X174397244Y-75842281D01*
X174323011Y-75827516D01*
X172273899Y-75827516D01*
X172273895Y-75827517D01*
X172199664Y-75842281D01*
X172199660Y-75842283D01*
X172115479Y-75898531D01*
X172059230Y-75982713D01*
X172059229Y-75982715D01*
X172044464Y-76056948D01*
X171281049Y-76056948D01*
X171281049Y-75536462D01*
X171299355Y-75492268D01*
X171343549Y-75473962D01*
X171387743Y-75492268D01*
X171390783Y-75495533D01*
X171435344Y-75546960D01*
X171557381Y-75625388D01*
X171557386Y-75625391D01*
X171696579Y-75666261D01*
X171696581Y-75666262D01*
X171696582Y-75666262D01*
X171841655Y-75666262D01*
X171841655Y-75666261D01*
X171980850Y-75625391D01*
X172026653Y-75595954D01*
X172102891Y-75546960D01*
X172197892Y-75437323D01*
X172197895Y-75437320D01*
X172258160Y-75305358D01*
X172260690Y-75287761D01*
X172285099Y-75246622D01*
X172322551Y-75234155D01*
X174323010Y-75234155D01*
X174397245Y-75219390D01*
X174481428Y-75163140D01*
X174537678Y-75078957D01*
X174552444Y-75004723D01*
X174552443Y-74512916D01*
X174570749Y-74468723D01*
X174614943Y-74450417D01*
X174618297Y-74450507D01*
X175271569Y-74485831D01*
X175297799Y-74485922D01*
X175310103Y-74485342D01*
X175336242Y-74482779D01*
X175373200Y-74477255D01*
X175373203Y-74477255D01*
X175387899Y-74475058D01*
X175387900Y-74475059D01*
X175418712Y-74470455D01*
X175469520Y-74457507D01*
X175492549Y-74449082D01*
X175492555Y-74449078D01*
X175492558Y-74449078D01*
X175539708Y-74426191D01*
X175539708Y-74426190D01*
X175539714Y-74426188D01*
X175605295Y-74385700D01*
X175646898Y-74353791D01*
X175664747Y-74336979D01*
X175699078Y-74297370D01*
X175743418Y-74234329D01*
X175769091Y-74188625D01*
X175778879Y-74166143D01*
X175794844Y-74116203D01*
X175812084Y-74034612D01*
X175816204Y-74008695D01*
X175817521Y-73996441D01*
X175819003Y-73970231D01*
X175824276Y-73070041D01*
X175823030Y-73043079D01*
X175821788Y-73030472D01*
X175817751Y-73003800D01*
X175800543Y-72919859D01*
X175784296Y-72868471D01*
X175784292Y-72868462D01*
X175784290Y-72868456D01*
X175774249Y-72845371D01*
X175774245Y-72845363D01*
X175774244Y-72845360D01*
X175747730Y-72798435D01*
X175701831Y-72733916D01*
X175666196Y-72693480D01*
X175664283Y-72691718D01*
X175647666Y-72676410D01*
X175647657Y-72676403D01*
X175631729Y-72664536D01*
X175604444Y-72644206D01*
X175604440Y-72644204D01*
X175604438Y-72644202D01*
X175536370Y-72603740D01*
X175487441Y-72581164D01*
X175463605Y-72573045D01*
X175463594Y-72573042D01*
X175463591Y-72573041D01*
X175463584Y-72573039D01*
X175463575Y-72573037D01*
X175411050Y-72561057D01*
X175325960Y-72550780D01*
X175325965Y-72550780D01*
X175299035Y-72548943D01*
X175299017Y-72548942D01*
X175286380Y-72548739D01*
X175259431Y-72549705D01*
X174620428Y-72606000D01*
X174574798Y-72591643D01*
X174552684Y-72549226D01*
X174552443Y-72543761D01*
X174552443Y-72056450D01*
X174537678Y-71982215D01*
X174526248Y-71965110D01*
X174516914Y-71918196D01*
X174526249Y-71895661D01*
X174537678Y-71878557D01*
X174552444Y-71804323D01*
X174552443Y-71256350D01*
X174537678Y-71182115D01*
X174527096Y-71166279D01*
X174517764Y-71119365D01*
X174527095Y-71096834D01*
X174537678Y-71080997D01*
X174552444Y-71006763D01*
X174552443Y-70458790D01*
X174537678Y-70384555D01*
X174533321Y-70378035D01*
X174526249Y-70367451D01*
X174516914Y-70320536D01*
X174526249Y-70298001D01*
X174537678Y-70280897D01*
X174552444Y-70206663D01*
X174552443Y-69658690D01*
X174537678Y-69584455D01*
X174500762Y-69529207D01*
X174481428Y-69500271D01*
X174447635Y-69477692D01*
X174421059Y-69437918D01*
X174421059Y-69413530D01*
X174424944Y-69394001D01*
X174424944Y-69259576D01*
X172171964Y-69259576D01*
X172171964Y-69394005D01*
X172175848Y-69413531D01*
X172166516Y-69460447D01*
X172149274Y-69477690D01*
X172115477Y-69500273D01*
X172111127Y-69504624D01*
X172109565Y-69503062D01*
X172077096Y-69524746D01*
X172031128Y-69516022D01*
X171929608Y-69450779D01*
X171929599Y-69450775D01*
X171790410Y-69409906D01*
X171790408Y-69409906D01*
X171645336Y-69409906D01*
X171645334Y-69409906D01*
X171506144Y-69450775D01*
X171506135Y-69450779D01*
X171384098Y-69529207D01*
X171289097Y-69638844D01*
X171289094Y-69638849D01*
X171228830Y-69770808D01*
X171228829Y-69770811D01*
X171208184Y-69914406D01*
X171228829Y-70058000D01*
X171228830Y-70058003D01*
X171289094Y-70189962D01*
X171289097Y-70189967D01*
X171367888Y-70280896D01*
X171384097Y-70299602D01*
X171417983Y-70321379D01*
X171445265Y-70360672D01*
X171436772Y-70407748D01*
X171417984Y-70426536D01*
X171347929Y-70471558D01*
X171252929Y-70581193D01*
X171252926Y-70581198D01*
X171192662Y-70713157D01*
X171192661Y-70713160D01*
X171172016Y-70856755D01*
X171192661Y-71000349D01*
X171192662Y-71000352D01*
X171220073Y-71060373D01*
X171221780Y-71108178D01*
X171189184Y-71143188D01*
X171163221Y-71148836D01*
X170152923Y-71148836D01*
X170055901Y-71174834D01*
X170055899Y-71174834D01*
X169968904Y-71225061D01*
X169897875Y-71296091D01*
X168826107Y-72367858D01*
X168826106Y-72367858D01*
X168826107Y-72367859D01*
X168763869Y-72430097D01*
X168713643Y-72517090D01*
X168713643Y-72517092D01*
X168687645Y-72614114D01*
X168687645Y-77261160D01*
X168672380Y-77302088D01*
X168627046Y-77354407D01*
X168627044Y-77354409D01*
X168566778Y-77486373D01*
X168546133Y-77629968D01*
X132000500Y-77629968D01*
X132000500Y-67258388D01*
X172044464Y-67258388D01*
X172044464Y-67806360D01*
X172044465Y-67806364D01*
X172059229Y-67880595D01*
X172059231Y-67880599D01*
X172070660Y-67897704D01*
X172079991Y-67944620D01*
X172070660Y-67967148D01*
X172059230Y-67984254D01*
X172059229Y-67984255D01*
X172044464Y-68058488D01*
X172044464Y-68606460D01*
X172044465Y-68606464D01*
X172059229Y-68680695D01*
X172059231Y-68680699D01*
X172115477Y-68764877D01*
X172115480Y-68764880D01*
X172149272Y-68787459D01*
X172175848Y-68827233D01*
X172175848Y-68851618D01*
X172171964Y-68871144D01*
X172171964Y-69005576D01*
X174424944Y-69005576D01*
X174424944Y-68899476D01*
X174443250Y-68855282D01*
X174487444Y-68836976D01*
X176718038Y-68836976D01*
X176735646Y-68839507D01*
X176742949Y-68841652D01*
X176888021Y-68841652D01*
X176951206Y-68823099D01*
X176952485Y-68822739D01*
X177010215Y-68807271D01*
X177010219Y-68807268D01*
X177010221Y-68807268D01*
X177013998Y-68805704D01*
X177014042Y-68805810D01*
X177022660Y-68802118D01*
X177027217Y-68800781D01*
X177076890Y-68768857D01*
X177079395Y-68767328D01*
X177125255Y-68740853D01*
X177129115Y-68736991D01*
X177139516Y-68728609D01*
X177149260Y-68722348D01*
X177183493Y-68682839D01*
X177186534Y-68679573D01*
X177219186Y-68646922D01*
X177225324Y-68636290D01*
X177232212Y-68626615D01*
X177244262Y-68612710D01*
X177263180Y-68571282D01*
X177265900Y-68566009D01*
X177285602Y-68531886D01*
X177285602Y-68531884D01*
X177285604Y-68531882D01*
X177290543Y-68513447D01*
X177294058Y-68503670D01*
X177304527Y-68480748D01*
X177310044Y-68442374D01*
X177311534Y-68435106D01*
X177319985Y-68403571D01*
X177319985Y-68377706D01*
X177320621Y-68368811D01*
X177325173Y-68337152D01*
X177320621Y-68305490D01*
X177319985Y-68296596D01*
X177319985Y-68270734D01*
X177319984Y-68270731D01*
X177311537Y-68239208D01*
X177310043Y-68231924D01*
X177304527Y-68193556D01*
X177294059Y-68170635D01*
X177290542Y-68160853D01*
X177285604Y-68142423D01*
X177265903Y-68108298D01*
X177263178Y-68103013D01*
X177244262Y-68061594D01*
X177244261Y-68061593D01*
X177241571Y-68058489D01*
X177232217Y-68047693D01*
X177225326Y-68038015D01*
X177219188Y-68027384D01*
X177186539Y-67994735D01*
X177183499Y-67991470D01*
X177149261Y-67951957D01*
X177149260Y-67951956D01*
X177139517Y-67945694D01*
X177129116Y-67937312D01*
X177120578Y-67928774D01*
X177049181Y-67887554D01*
X177046640Y-67886005D01*
X177027221Y-67873525D01*
X177023152Y-67871667D01*
X177023232Y-67871491D01*
X177015986Y-67868389D01*
X177010701Y-67865337D01*
X177005538Y-67862356D01*
X176986365Y-67857219D01*
X176948414Y-67828099D01*
X176942171Y-67780673D01*
X176958347Y-67752655D01*
X177814636Y-66896367D01*
X177814636Y-66896366D01*
X177814641Y-66896362D01*
X177881060Y-66781321D01*
X177915440Y-66653010D01*
X177915440Y-66520173D01*
X177915440Y-65427555D01*
X177916076Y-65418660D01*
X177920628Y-65387001D01*
X177916076Y-65355339D01*
X177915440Y-65346445D01*
X177915440Y-65320583D01*
X177915439Y-65320580D01*
X177915438Y-65320575D01*
X177906988Y-65289039D01*
X177905498Y-65281773D01*
X177899982Y-65243407D01*
X177899981Y-65243403D01*
X177889514Y-65220483D01*
X177885998Y-65210706D01*
X177881059Y-65192271D01*
X177875489Y-65182624D01*
X177861355Y-65158143D01*
X177858629Y-65152856D01*
X177839717Y-65111443D01*
X177839715Y-65111441D01*
X177839714Y-65111440D01*
X177827665Y-65097535D01*
X177820774Y-65087856D01*
X177814640Y-65077231D01*
X177782000Y-65044591D01*
X177778960Y-65041326D01*
X177744715Y-65001805D01*
X177744711Y-65001802D01*
X177734971Y-64995542D01*
X177724565Y-64987156D01*
X177720713Y-64983303D01*
X177720706Y-64983298D01*
X177674876Y-64956838D01*
X177672364Y-64955307D01*
X177622672Y-64923372D01*
X177622669Y-64923370D01*
X177618114Y-64922033D01*
X177609499Y-64918344D01*
X177609456Y-64918450D01*
X177605672Y-64916883D01*
X177605670Y-64916882D01*
X177548054Y-64901442D01*
X177546628Y-64901043D01*
X177546625Y-64901042D01*
X177483476Y-64882501D01*
X177338404Y-64882501D01*
X177275249Y-64901042D01*
X177273821Y-64901443D01*
X177216206Y-64916882D01*
X177212429Y-64918447D01*
X177212386Y-64918343D01*
X177203777Y-64922029D01*
X177199213Y-64923370D01*
X177199203Y-64923374D01*
X177149536Y-64955294D01*
X177146996Y-64956842D01*
X177101172Y-64983298D01*
X177101172Y-64983299D01*
X177097304Y-64987166D01*
X177086909Y-64995541D01*
X177077170Y-65001800D01*
X177077163Y-65001806D01*
X177042923Y-65041320D01*
X177039886Y-65044582D01*
X177007238Y-65077231D01*
X177001098Y-65087866D01*
X176994211Y-65097537D01*
X176982165Y-65111440D01*
X176982161Y-65111446D01*
X176963248Y-65152858D01*
X176960524Y-65158142D01*
X176940824Y-65192263D01*
X176940820Y-65192273D01*
X176935881Y-65210702D01*
X176932366Y-65220481D01*
X176921897Y-65243407D01*
X176916380Y-65281773D01*
X176914887Y-65289049D01*
X176906441Y-65320575D01*
X176906440Y-65320584D01*
X176906440Y-65346445D01*
X176905804Y-65355339D01*
X176901252Y-65387000D01*
X176905804Y-65418660D01*
X176906440Y-65427555D01*
X176906440Y-66351733D01*
X176888134Y-66395927D01*
X176274491Y-67009570D01*
X176230297Y-67027876D01*
X174487444Y-67027876D01*
X174443250Y-67009570D01*
X174424944Y-66965376D01*
X174424944Y-66859276D01*
X172171964Y-66859276D01*
X172171964Y-66993705D01*
X172175848Y-67013231D01*
X172166516Y-67060147D01*
X172149274Y-67077390D01*
X172115482Y-67099970D01*
X172115481Y-67099970D01*
X172059229Y-67184156D01*
X172044464Y-67258388D01*
X132000500Y-67258388D01*
X132000500Y-65658188D01*
X172044464Y-65658188D01*
X172044464Y-66206160D01*
X172044465Y-66206164D01*
X172059229Y-66280395D01*
X172059231Y-66280399D01*
X172115477Y-66364577D01*
X172115480Y-66364580D01*
X172149272Y-66387159D01*
X172175848Y-66426933D01*
X172175848Y-66451318D01*
X172171964Y-66470844D01*
X172171964Y-66605276D01*
X174424944Y-66605276D01*
X174424944Y-66470848D01*
X174421059Y-66451320D01*
X174430390Y-66404404D01*
X174447631Y-66387162D01*
X174481428Y-66364580D01*
X174537678Y-66280397D01*
X174552444Y-66206163D01*
X174552443Y-65658190D01*
X174537678Y-65583955D01*
X174537676Y-65583952D01*
X174481428Y-65499771D01*
X174397246Y-65443522D01*
X174397244Y-65443521D01*
X174323011Y-65428756D01*
X172273899Y-65428756D01*
X172273895Y-65428757D01*
X172199664Y-65443521D01*
X172199660Y-65443523D01*
X172115479Y-65499771D01*
X172059230Y-65583953D01*
X172059229Y-65583955D01*
X172044464Y-65658188D01*
X132000500Y-65658188D01*
X132000500Y-60687565D01*
X173591844Y-60687565D01*
X173612489Y-60831159D01*
X173612490Y-60831162D01*
X173672754Y-60963121D01*
X173672757Y-60963126D01*
X173767758Y-61072763D01*
X173889795Y-61151191D01*
X173889800Y-61151194D01*
X174028993Y-61192064D01*
X174028995Y-61192065D01*
X174028996Y-61192065D01*
X174174069Y-61192065D01*
X174174069Y-61192064D01*
X174313264Y-61151194D01*
X174359067Y-61121757D01*
X174435305Y-61072763D01*
X174530306Y-60963126D01*
X174530309Y-60963123D01*
X174590574Y-60831161D01*
X174611220Y-60687565D01*
X174590574Y-60543969D01*
X174530309Y-60412007D01*
X174530306Y-60412003D01*
X174435305Y-60302366D01*
X174313268Y-60223938D01*
X174313259Y-60223934D01*
X174174070Y-60183065D01*
X174174068Y-60183065D01*
X174028996Y-60183065D01*
X174028994Y-60183065D01*
X173889804Y-60223934D01*
X173889795Y-60223938D01*
X173767758Y-60302366D01*
X173672757Y-60412003D01*
X173672754Y-60412008D01*
X173612490Y-60543967D01*
X173612489Y-60543970D01*
X173591844Y-60687565D01*
X132000500Y-60687565D01*
X132000500Y-52093757D01*
X132018806Y-52049563D01*
X132063000Y-52031257D01*
X132107194Y-52049563D01*
X132122183Y-52073667D01*
X132145518Y-52142412D01*
X132280436Y-52415999D01*
X132449908Y-52669630D01*
X132567115Y-52803278D01*
X132933274Y-52437119D01*
X132933274Y-52456508D01*
X132963722Y-52530017D01*
X133019983Y-52586278D01*
X133093492Y-52616726D01*
X133112877Y-52616726D01*
X132746720Y-52982883D01*
X132746720Y-52982884D01*
X132880369Y-53100091D01*
X133134000Y-53269563D01*
X133407587Y-53404481D01*
X133696437Y-53502532D01*
X133696435Y-53502532D01*
X133995605Y-53562040D01*
X133995622Y-53562042D01*
X134299998Y-53581993D01*
X134300002Y-53581993D01*
X134604377Y-53562042D01*
X134604394Y-53562040D01*
X134903563Y-53502532D01*
X135192412Y-53404481D01*
X135465999Y-53269563D01*
X135719629Y-53100091D01*
X135853278Y-52982884D01*
X135853278Y-52982883D01*
X135487121Y-52616726D01*
X135506508Y-52616726D01*
X135580017Y-52586278D01*
X135636278Y-52530017D01*
X135666726Y-52456508D01*
X135666726Y-52437121D01*
X136032883Y-52803278D01*
X136032884Y-52803278D01*
X136150091Y-52669629D01*
X136319563Y-52415999D01*
X136454481Y-52142412D01*
X136552532Y-51853563D01*
X136612040Y-51554394D01*
X136612042Y-51554377D01*
X136631993Y-51250002D01*
X136631993Y-51249997D01*
X136612042Y-50945622D01*
X136612040Y-50945605D01*
X136552532Y-50646436D01*
X136454481Y-50357587D01*
X136319563Y-50084001D01*
X136150091Y-49830369D01*
X136032883Y-49696720D01*
X135666726Y-50062877D01*
X135666726Y-50043492D01*
X135636278Y-49969983D01*
X135580017Y-49913722D01*
X135506508Y-49883274D01*
X135487119Y-49883274D01*
X135853278Y-49517115D01*
X135853278Y-49517114D01*
X135719630Y-49399908D01*
X135465999Y-49230436D01*
X135192412Y-49095518D01*
X135123668Y-49072183D01*
X135087703Y-49040643D01*
X135084575Y-48992910D01*
X135116115Y-48956945D01*
X135143758Y-48950500D01*
X180256242Y-48950500D01*
X180300436Y-48968806D01*
G37*
%TD.AperFunction*%
%TA.AperFunction,Conductor*%
G36*
X135446331Y-141166726D02*
G01*
X135426944Y-141166726D01*
X135353435Y-141197174D01*
X135297174Y-141253435D01*
X135266726Y-141326944D01*
X135266726Y-141346331D01*
X134983487Y-141063092D01*
X135016602Y-141039033D01*
X135139033Y-140916602D01*
X135163092Y-140883487D01*
X135446331Y-141166726D01*
G37*
%TD.AperFunction*%
%TA.AperFunction,Conductor*%
G36*
X180260967Y-140916602D02*
G01*
X180383398Y-141039033D01*
X180416512Y-141063091D01*
X180133274Y-141346329D01*
X180133274Y-141326944D01*
X180102826Y-141253435D01*
X180046565Y-141197174D01*
X179973056Y-141166726D01*
X179953667Y-141166726D01*
X180236907Y-140883485D01*
X180260967Y-140916602D01*
G37*
%TD.AperFunction*%
%TA.AperFunction,Conductor*%
G36*
X133616512Y-139336907D02*
G01*
X133583398Y-139360967D01*
X133460967Y-139483398D01*
X133436907Y-139516512D01*
X133153669Y-139233274D01*
X133173056Y-139233274D01*
X133246565Y-139202826D01*
X133302826Y-139146565D01*
X133333274Y-139073056D01*
X133333274Y-139053669D01*
X133616512Y-139336907D01*
G37*
%TD.AperFunction*%
%TA.AperFunction,Conductor*%
G36*
X135266726Y-139073056D02*
G01*
X135297174Y-139146565D01*
X135353435Y-139202826D01*
X135426944Y-139233274D01*
X135446329Y-139233274D01*
X135163091Y-139516512D01*
X135139033Y-139483398D01*
X135016602Y-139360967D01*
X134983485Y-139336907D01*
X135266726Y-139053667D01*
X135266726Y-139073056D01*
G37*
%TD.AperFunction*%
%TA.AperFunction,Conductor*%
G36*
X180416512Y-139336907D02*
G01*
X180383398Y-139360967D01*
X180260967Y-139483398D01*
X180236907Y-139516512D01*
X179953669Y-139233274D01*
X179973056Y-139233274D01*
X180046565Y-139202826D01*
X180102826Y-139146565D01*
X180133274Y-139073056D01*
X180133274Y-139053669D01*
X180416512Y-139336907D01*
G37*
%TD.AperFunction*%
%TA.AperFunction,Conductor*%
G36*
X182066726Y-139073056D02*
G01*
X182097174Y-139146565D01*
X182153435Y-139202826D01*
X182226944Y-139233274D01*
X182246330Y-139233274D01*
X181963091Y-139516512D01*
X181939033Y-139483398D01*
X181816602Y-139360967D01*
X181783485Y-139336907D01*
X182066726Y-139053667D01*
X182066726Y-139073056D01*
G37*
%TD.AperFunction*%
%TA.AperFunction,Conductor*%
G36*
X135446331Y-52216726D02*
G01*
X135426944Y-52216726D01*
X135353435Y-52247174D01*
X135297174Y-52303435D01*
X135266726Y-52376944D01*
X135266726Y-52396331D01*
X134983487Y-52113092D01*
X135016602Y-52089033D01*
X135139033Y-51966602D01*
X135163092Y-51933487D01*
X135446331Y-52216726D01*
G37*
%TD.AperFunction*%
%TA.AperFunction,Conductor*%
G36*
X182246331Y-52216726D02*
G01*
X182226944Y-52216726D01*
X182153435Y-52247174D01*
X182097174Y-52303435D01*
X182066726Y-52376944D01*
X182066726Y-52396331D01*
X181783487Y-52113092D01*
X181816602Y-52089033D01*
X181939033Y-51966602D01*
X181963092Y-51933487D01*
X182246331Y-52216726D01*
G37*
%TD.AperFunction*%
%TA.AperFunction,Conductor*%
G36*
X133460967Y-51966602D02*
G01*
X133583398Y-52089033D01*
X133616512Y-52113091D01*
X133333274Y-52396329D01*
X133333274Y-52376944D01*
X133302826Y-52303435D01*
X133246565Y-52247174D01*
X133173056Y-52216726D01*
X133153668Y-52216726D01*
X133436907Y-51933486D01*
X133460967Y-51966602D01*
G37*
%TD.AperFunction*%
%TA.AperFunction,Conductor*%
G36*
X180260967Y-51966602D02*
G01*
X180383398Y-52089033D01*
X180416512Y-52113091D01*
X180133274Y-52396329D01*
X180133274Y-52376944D01*
X180102826Y-52303435D01*
X180046565Y-52247174D01*
X179973056Y-52216726D01*
X179953667Y-52216726D01*
X180236907Y-51933485D01*
X180260967Y-51966602D01*
G37*
%TD.AperFunction*%
%TA.AperFunction,Conductor*%
G36*
X135266726Y-50123056D02*
G01*
X135297174Y-50196565D01*
X135353435Y-50252826D01*
X135426944Y-50283274D01*
X135446329Y-50283274D01*
X135163091Y-50566512D01*
X135139033Y-50533398D01*
X135016602Y-50410967D01*
X134983486Y-50386907D01*
X135266726Y-50103667D01*
X135266726Y-50123056D01*
G37*
%TD.AperFunction*%
%TA.AperFunction,Conductor*%
G36*
X180416512Y-50386907D02*
G01*
X180383398Y-50410967D01*
X180260967Y-50533398D01*
X180236907Y-50566512D01*
X179953669Y-50283274D01*
X179973056Y-50283274D01*
X180046565Y-50252826D01*
X180102826Y-50196565D01*
X180133274Y-50123056D01*
X180133274Y-50103669D01*
X180416512Y-50386907D01*
G37*
%TD.AperFunction*%
%TD*%
M02*
